<svg version="1.2" xmlns="http://www.w3.org/2000/svg" viewBox="0 0 431 274" width="431" height="274">
	<title>New Project</title>
	<style>
		.s0 { fill: #ffffff;stroke: #000000;stroke-linecap: square;stroke-width: 2.2 } 
		.s1 { fill: #ffffff;stroke: #000000;stroke-linecap: square;stroke-linejoin: round;stroke-width: 1.4 } 
		.s2 { fill: #ffffff;stroke: #000000;stroke-linejoin: round;stroke-width: .7 } 
	</style>
	<g id="&lt;Group&gt;">
		<path id="&lt;Path&gt;" class="s0" d="m141.5 85.3c49.2-7.5 99.2-7.5 148.4 0l62 9.4v42.7 42.6l-62 9.5c-49.2 7.5-99.2 7.5-148.4 0l-61.9-9.5v-42.6-42.7z"/>
		<g id="&lt;Group&gt;">
			<path id="&lt;Path&gt;" class="s1" d="m68.2 114.6c3.1 13.7 3.1 28 0 41.7-1 4.2-5 7-9.2 6.4l-41.7-5.6c1.3-14.4 1.3-28.9 0-43.3l41.7-5.6c4.2-0.5 8.2 2.2 9.2 6.4z"/>
			<path id="&lt;Path&gt;" class="s1" d="m17.3 157.1h-13.9v-43.3h13.9l0.2 2.1h-9.9v39.1h9.9z"/>
			<path id="&lt;Path&gt;" class="s1" d="m3.4 113.8v43.3h-1.8v-43.3z"/>
		</g>
		<g id="&lt;Group&gt;">
			<path id="&lt;Path&gt;" class="s1" d="m234.6 67.9c-13.7 3.1-27.9 3.1-41.6 0-4.2-0.9-7-4.9-6.4-9.1l5.6-41.7c14.4 1.3 28.8 1.3 43.2 0l5.6 41.7c0.6 4.2-2.2 8.2-6.4 9.1z"/>
			<path id="&lt;Path&gt;" class="s1" d="m192.2 17.1v-13.9h43.2v13.9l-2 0.2v-9.9h-39.2v9.9z"/>
			<path id="&lt;Path&gt;" class="s1" d="m235.4 3.2h-43.2v-1.9h43.2z"/>
		</g>
		<g id="&lt;Group&gt;">
			<path id="&lt;Path&gt;" class="s1" d="m151.8 73.4c-13.1 5.1-27.1 7.2-41.2 6.2-4.2-0.3-7.6-3.8-7.7-8.1l-0.7-42c14.5-0.9 28.8-3 42.8-6.5l11.8 40.4c1.2 4.1-1 8.5-5 10z"/>
			<path id="&lt;Path&gt;" class="s1" d="m102.2 29.5l-2-13.8 42.8-6.4 2 13.7-2 0.5-1.5-9.8-38.7 5.9 1.5 9.7z"/>
			<path id="&lt;Path&gt;" class="s1" d="m143 9.3l-42.8 6.4-0.3-1.8 42.8-6.5z"/>
		</g>
		<g id="&lt;Group&gt;">
			<path id="&lt;Path&gt;" class="s1" d="m372.2 108.2l41.7 5.6c-1.3 14.4-1.3 28.9 0 43.3l-41.7 5.6c-4.2 0.6-8.2-2.2-9.2-6.4-3.1-13.7-3.1-28 0-41.7 1-4.2 5-6.9 9.2-6.4z"/>
			<path id="&lt;Path&gt;" class="s1" d="m413.7 155h9.9v-39.1h-9.9l0.2-2.1h13.9v43.3h-13.9z"/>
			<path id="&lt;Path&gt;" class="s1" d="m429.6 113.8v43.3h-1.8v-43.3z"/>
		</g>
		<g id="&lt;Group&gt;">
			<path id="&lt;Path&gt;" class="s1" d="m274.4 63.4l11.8-40.4c14 3.5 28.3 5.6 42.8 6.5l-0.7 42c-0.1 4.3-3.5 7.8-7.7 8.1-14.1 1-28.1-1.1-41.2-6.2-4-1.5-6.2-5.9-5-10z"/>
			<path id="&lt;Path&gt;" class="s1" d="m326.9 29.3l1.5-9.7-38.7-5.9-1.5 9.8-2-0.5 2-13.7 42.8 6.4-2 13.8z"/>
			<path id="&lt;Path&gt;" class="s1" d="m288.5 7.4l42.8 6.5-0.3 1.8-42.8-6.4z"/>
		</g>
		<g id="&lt;Group&gt;">
			<path id="&lt;Path&gt;" class="s1" d="m196.6 206c13.7-3.1 27.9-3.1 41.6 0 4.2 0.9 7 4.9 6.4 9.1l-5.6 41.7c-14.4-1.3-28.8-1.3-43.2 0l-5.6-41.7c-0.6-4.2 2.2-8.2 6.4-9.1z"/>
			<path id="&lt;Path&gt;" class="s1" d="m239 256.8v13.9h-43.2v-13.9l2-0.2v9.9h39.2v-9.9z"/>
			<path id="&lt;Path&gt;" class="s1" d="m195.8 270.7h43.2v1.9h-43.2z"/>
		</g>
		<g id="&lt;Group&gt;">
			<path id="&lt;Path&gt;" class="s1" d="m279.4 200.5c13.1-5.1 27.1-7.2 41.2-6.2 4.2 0.3 7.6 3.8 7.7 8.1l0.7 42c-14.5 0.9-28.8 3-42.8 6.5l-11.8-40.4c-1.2-4.1 1-8.5 5-10z"/>
			<path id="&lt;Path&gt;" class="s1" d="m329 244.4l2 13.8-42.8 6.4-2-13.7 2-0.5 1.5 9.8 38.7-5.9-1.5-9.7z"/>
			<path id="&lt;Path&gt;" class="s1" d="m288.2 264.6l42.8-6.4 0.3 1.8-42.8 6.5z"/>
		</g>
		<g id="&lt;Group&gt;">
			<path id="&lt;Path&gt;" class="s1" d="m156.8 210.5l-11.8 40.4c-14-3.5-28.3-5.6-42.8-6.5l0.7-42c0.1-4.3 3.5-7.8 7.7-8.1 14.1-1 28.1 1.1 41.2 6.2 4 1.5 6.2 5.9 5 10z"/>
			<path id="&lt;Path&gt;" class="s1" d="m104.3 244.6l-1.5 9.7 38.7 5.9 1.5-9.8 2 0.5-2 13.7-42.8-6.4 2-13.8z"/>
			<path id="&lt;Path&gt;" class="s1" d="m142.7 266.5l-42.8-6.5 0.3-1.8 42.8 6.4z"/>
		</g>
		<g id="&lt;Group&gt;">
			<path id="&lt;Path&gt;" class="s2" d="m80.2 113.1q-0.3 0-0.6 0-0.1 0-0.1 0 0-0.1 0.1-0.1 0 0 0 0c30.1 0.1 68.4-12 79.7-18.3 6.2-3.5 14.4-8.7 18-13.6q0 0 0.1 0 0.1 0 0 0.1c-3.6 5-11.8 10.2-18 13.6-11.2 6.3-49.2 18.3-79.2 18.3z"/>
		</g>
		<g id="&lt;Group&gt;">
			<path id="&lt;Path&gt;" class="s2" d="m93.4 133.1c-4.6 0-9.2-0.1-13.8-0.4q-0.1 0-0.1-0.1 0 0 0.1 0c19.6 1.1 38-0.1 61.3-4.2 6.8-1.2 14.8-2.9 22.3-6 5.4-2.1 10.4-5 15.1-7.7 11.6-6.7 23.1-13.9 34.2-21.4 5.5-3.7 18.2-10.4 24.8-13q0.1-0.1 0.1 0 0 0.1-0.1 0.1c-6.5 2.6-19.2 9.3-24.8 13.1-11 7.5-22.5 14.6-34.1 21.4-4.7 2.7-9.8 5.5-15.1 7.7-7.6 3.1-15.5 4.7-22.3 5.9-17.9 3.2-32.8 4.6-47.6 4.6z"/>
		</g>
		<g id="&lt;Group&gt;">
			<path id="&lt;Path&gt;" class="s2" d="m322.3 142.3q-0.2 0-0.4 0c-18-0.3-31.9-1.4-45.4-2.4-13.5-1.1-27.4-2.2-45.4-2.5h-0.2l0.1-0.1c2.1-5 8-7.1 12.9-8.3 9.7-2.4 19.8-3.9 29.5-5.3 11.9-1.7 24.2-3.4 35.9-7 8.7-2.7 33.5-9.4 42.5-10.3h0.1l0.1 0.2h-0.1c-9 0.9-33.9 7.6-42.5 10.2-11.7 3.6-24.1 5.4-36 7.1-9.7 1.4-19.8 2.9-29.4 5.3-4.9 1.2-10.7 3.2-12.8 8 18 0.3 31.9 1.4 45.3 2.5 13.5 1.1 27.4 2.2 45.4 2.4 5.8 0.1 24.9-2 29.9-4.1h0.1l0.1 0.1-0.1 0.1c-4.9 2-23.4 4.1-29.6 4.1z"/>
		</g>
		<g id="&lt;Group&gt;">
			<path id="&lt;Path&gt;" class="s2" d="m330.8 167.4c-33.5 0-65.9-1.1-104.6-3.3q-2.4-0.2-4.9-0.3c-11-0.7-22.4-1.3-33.6-1.3-3.1 0-6.3 0.1-9.4 0.1-6.2 0.2-12.5 0.3-18.8 0-9.7-0.5-19.3-2-28.6-4.6l-0.4-0.1 18.3-2.7c3.9-0.6 7.9-1.2 11.8-2.4 4.7-1.4 9.1-3.8 12.9-5.8 14.7-8.1 28.9-17.7 42.6-27 5.3-3.5 10.7-7.2 16.1-10.8 5.7-3.7 11.3-7.2 17.4-9.8 8.8-3.7 18.7-4.5 28.2-5.3 10.2-0.9 20.7-1.7 29.9-6.2q0.1 0 0.1 0.1 0.1 0 0 0.1c-9.2 4.4-19.8 5.3-30 6.2-9.5 0.7-19.3 1.5-28.1 5.2-6.1 2.6-11.7 6.2-17.4 9.9-5.4 3.5-10.8 7.2-16.1 10.8-13.7 9.2-27.9 18.8-42.6 26.9-3.8 2.1-8.2 4.4-13 5.9-3.8 1.2-7.9 1.8-11.8 2.4l-17.4 2.6c9.1 2.5 18.6 4 28.1 4.4 6.3 0.3 12.6 0.2 18.8 0.1 3.1-0.1 6.3-0.2 9.4-0.2 11.2 0 22.6 0.7 33.7 1.3q2.4 0.2 4.8 0.3c46.7 2.7 84.3 3.7 125.7 3.2q0 0 0 0.1 0 0 0 0.1-10.7 0.1-21.1 0.1z"/>
		</g>
		<g id="&lt;Group&gt;">
			<path id="&lt;Path&gt;" class="s2" d="m238.2 188.5c-12.9 0-26.1-0.4-39.1-2.4-7.4-1.2-14.8-3-21.9-4.6-2.4-0.6-4.9-1.2-7.4-1.7-28.8-6.6-55.1-10.9-90.2-11.1q-0.1 0-0.1-0.1 0 0 0.1 0 0 0 0 0c35.1 0.1 61.4 4.5 90.2 11 2.5 0.5 5 1.1 7.4 1.7 7.2 1.7 14.5 3.4 21.9 4.6 16.6 2.6 33.4 2.5 49.6 2.4 11.2-0.1 22.6-0.3 33.7-0.4 6.2-0.1 12.7-0.2 19.1-0.3q0.1 0 0.1 0.1 0 0.1-0.1 0.1c-6.4 0.1-12.8 0.2-19.1 0.2-11.1 0.2-22.5 0.4-33.7 0.4q-5.2 0.1-10.5 0.1z"/>
		</g>
	</g>
</svg>