<svg version="1.2" xmlns="http://www.w3.org/2000/svg" viewBox="0 0 172 172" width="172" height="172">
	<title>New Project</title>
	<style>
		.s0 { fill: #ffffff } 
		.s1 { fill: #000000 } 
	</style>
	<g id="&lt;Group&gt;">
		<g id="&lt;Group&gt;">
			<g id="&lt;Group&gt;">
				<path id="&lt;Path&gt;" class="s0" d="m147 62.5l23.4 23.4-84.3 84.3-84.3-84.3 84.3-84.3z"/>
				<path id="&lt;Compound Path&gt;" fill-rule="evenodd" class="s1" d="m86.1 171.7l-0.8-0.7-85.1-85.1 0.8-0.8 85.1-85.1 0.7 0.8 85.1 85.1-0.8 0.8zm-82.7-85.9l82.7 82.8 82.8-82.8-82.8-82.8z"/>
			</g>
			<g id="&lt;Group&gt;">
				<path id="&lt;Path&gt;" class="s1" d="m79.1 96.6q-0.2 0-0.3-0.2c-3.8-4.8-4.3-11.3-4.4-17 0-7 0.5-14.1 1.6-21.1q0.3-1.4 0.5-2.7c0.4-2.4 0.8-4.8 1.1-7.3 0.7-7.3-0.4-14.6-1.7-22.1-0.6-3.5-1.4-7.5-3.6-10.4l-0.2-0.3 0.6-0.4 0.2 0.3c2.3 3 3.1 7.1 3.7 10.7 1.3 7.5 2.4 14.9 1.7 22.3-0.2 2.4-0.7 4.9-1.1 7.3q-0.2 1.4-0.4 2.7c-1.2 6.9-1.7 14-1.7 21 0.1 5.5 0.6 11.7 4.1 16.3 1.6-1 1.9-3.6 1.5-5.5-0.2-0.9-0.5-1.7-0.8-2.6-0.5-1.3-0.9-2.7-1-4.2-0.1-1.7 0.4-3.5 0.8-5.1l8.1-28.4c0.7-2.4 1.5-4.9 2.6-7.2 2.3-4.8 6.1-8.5 9.8-12.1 2.3-2.3 4.8-4.7 6.8-7.4l0.2-0.2 0.6 0.4-0.3 0.3c-2 2.6-4.4 5.1-6.8 7.4-3.7 3.6-7.4 7.3-9.7 11.9-1.1 2.3-1.8 4.7-2.5 7.1l-8.1 28.4c-0.4 1.6-0.9 3.2-0.8 4.9 0.1 1.4 0.5 2.6 1 4 0.3 0.8 0.6 1.7 0.8 2.6 0.5 2.4 0.1 5.4-2.1 6.5q-0.1 0.1-0.2 0.1z"/>
			</g>
			<g id="&lt;Group&gt;">
				<path id="&lt;Path&gt;" class="s1" d="m78.2 129.4q-0.7 0-1.3-0.2c-1.5-0.5-2.6-1.7-3.5-2.9-8.5-11-13.9-24.7-15.2-38.6-0.1-0.9-0.1-1.9 0.5-2.5 0.4-0.4 0.9-0.6 1.4-0.8 0.4-0.1 0.8-0.3 1.1-0.6 0.2-0.3 0.2-0.7 0.2-1.2l2.3-40.5c0.3-5 0.5-10-0.4-14.9q-0.2-1.1-0.5-2.1v-0.3l0.7-0.2v0.3q0.3 1.1 0.5 2.1c1 5 0.7 10.1 0.4 15.1l-2.2 40.5c-0.1 0.5-0.1 1.1-0.5 1.6-0.3 0.5-0.9 0.7-1.4 0.9-0.4 0.1-0.8 0.3-1 0.6-0.5 0.4-0.5 1.2-0.4 1.9 1.3 13.8 6.6 27.3 15 38.3 0.9 1.1 1.9 2.2 3.2 2.6 2.1 0.7 4.4-0.8 5.8-2.4 3.1-3.7 4.2-8.6 5.2-13.4 2.2-10.1 4.6-20 10.3-28.1 2.4-3.4 5.3-6.5 8.2-9.4l0.3-0.4c8.3-8.5 16.9-17.7 23.9-27.7l0.2-0.3 0.6 0.4-0.2 0.3c-7.1 10-15.7 19.3-24 27.8l-0.3 0.4c-2.8 2.9-5.8 5.9-8.1 9.3-5.7 8-8.1 17.8-10.2 27.9-1 4.8-2.1 9.8-5.3 13.6-1.3 1.5-3.3 2.9-5.3 2.9z"/>
			</g>
			<g id="&lt;Group&gt;">
				<path id="&lt;Path&gt;" class="s1" d="m61.2 145.7l-0.1-0.4c-0.3-0.9-0.6-1.8-0.9-2.8-1.9-5.3-5-10.3-7.9-15.1q-1.2-1.9-2.4-3.9c-3.4-5.8-7-12.8-7.4-20.3-0.2-3.6 0.3-7.2 0.8-10.7q0.3-1.9 0.6-3.8c0.6-5.6 0.6-11.4 0.7-17v-13.4c0-4.6-0.1-9.4-2-13.2l-0.2-0.3 0.7-0.3 0.1 0.3c2 4 2.1 8.8 2.1 13.5v13.4c0 5.6 0 11.4-0.7 17.1q-0.3 1.9-0.6 3.8c-0.5 3.5-1 7-0.8 10.5 0.4 7.4 4 14.3 7.4 20q1.1 2 2.3 3.9c3 4.9 6 9.9 8 15.3 0.3 0.9 0.6 1.9 0.9 2.8l0.1 0.4z"/>
			</g>
			<g id="&lt;Group&gt;">
				<path id="&lt;Path&gt;" class="s1" d="m78.2 163.3l-0.4-0.6 0.3-0.2c2.2-1.7 4.7-3 7.1-4.3 2.9-1.5 5.8-3 8.3-5.1 2.8-2.5 5-5.7 7.1-8.8 5.1-7.5 10.9-16 13-25.6 0.5-2 1.5-8.2 2.4-13.6 0.7-4.2 1.4-8.1 1.7-9.7 3.5-17.7 15.7-26 23-30.9 2.2-1.5 3.9-2.7 4.6-3.6l0.2-0.3 0.6 0.4-0.2 0.3c-0.7 1-2.4 2.2-4.8 3.8-7.2 4.9-19.2 13-22.7 30.4-0.3 1.6-1 5.5-1.7 9.7-0.9 5.5-1.9 11.7-2.4 13.7-2.1 9.7-8 18.3-13.1 25.8-2.1 3.2-4.3 6.4-7.3 8.9-2.5 2.2-5.5 3.7-8.3 5.3-2.4 1.2-4.9 2.5-7.1 4.2z"/>
			</g>
			<g id="&lt;Group&gt;">
				<path id="&lt;Path&gt;" class="s1" d="m115.6 140.9l-0.6-0.3 0.2-0.3q0.5-0.8 0.9-1.7c3-5.6 5.2-11.7 7.4-17.6 2.7-7.5 5.5-15.1 9.9-21.9 3.4-5.4 7.8-10.2 12.1-14.9 3.5-3.8 7.2-7.8 10.3-12.1l0.2-0.3 0.6 0.4-0.2 0.3c-3.1 4.3-6.8 8.4-10.4 12.2-4.2 4.6-8.6 9.4-12 14.8-4.3 6.7-7.1 14.3-9.8 21.7-2.2 6-4.4 12.1-7.5 17.8q-0.4 0.8-0.9 1.6z"/>
			</g>
			<g id="&lt;Group&gt;">
				<path id="&lt;Path&gt;" class="s1" d="m32.9 117.4l-0.1-0.4c-0.6-1.4-0.9-2.5-1-3.7-0.4-3.2 0.5-6.4 1.4-9.5l0.4-1.2c3.3-11.8 4.1-24.5 2.1-36.7-0.4-2.9-1.3-7.1-3.7-10l-0.3-0.3 0.6-0.4 0.2 0.2c2.5 3.1 3.5 7.4 4 10.4 1.9 12.3 1.1 25.1-2.3 37l-0.3 1.2c-0.9 3-1.8 6.1-1.4 9.2 0.1 1.1 0.4 2.2 0.9 3.6l0.2 0.3z"/>
			</g>
			<g id="&lt;Group&gt;">
				<path id="&lt;Path&gt;" class="s1" d="m11.4 95.4l-0.7-0.3 0.1-0.3c3.2-8 4.7-15.8 4.4-23v-0.3l0.7-0.1 0.1 0.4c0.2 7.3-1.3 15.1-4.5 23.3z"/>
			</g>
		</g>
	</g>
</svg>