<svg version="1.2" xmlns="http://www.w3.org/2000/svg" viewBox="0 0 80 96" width="80" height="96">
	<title>New Project</title>
	<style>
		.s0 { fill: #000000 } 
		.s1 { fill: #ffffff } 
		.s2 { fill: #ffffff;stroke: #000000;stroke-linecap: square;stroke-linejoin: round;stroke-width: 1.6 } 
	</style>
	<g id="&lt;Group&gt;">
		<g id="&lt;Group&gt;">
			<path id="&lt;Compound Path&gt;" fill-rule="evenodd" class="s0" d="m69.5 6.7v0.5l-2.6 20.6-0.6 4.8-0.4 3.4-0.1 0.5-0.5 0.1q0 0-0.6 0.1c-0.9 0.1-2.9 0.2-5.4 0.4q-0.4 0.1-0.9 0.1c-2.5 0.2-5.5 0.4-8.7 0.5-0.6 0.1-1.3 0.1-1.9 0.1q-1 0-2 0.1-1 0-1.9 0-2.1 0.1-4 0.1-2 0-4-0.1-0.9 0-1.9 0-1-0.1-2-0.1c-0.7 0-1.3 0-1.9-0.1-2.6-0.1-5-0.2-7.2-0.4q-0.8 0-1.5-0.1-0.4 0-0.7-0.1-0.7 0-1.3-0.1-0.4 0-0.7 0-1-0.1-1.7-0.2-1.3-0.1-1.9-0.1-0.6-0.1-0.7-0.1l-0.4-0.1-0.1-0.6-0.5-3.5-0.6-4.8v-0.1l-2.5-20.3-0.1-0.5v-0.7l0.5-0.1q0.1 0 0.8-0.1c3.3-0.7 16.5-3 28.4-3h0.5c11.7 0 24.6 2.3 27.8 3q0.8 0.1 0.8 0.1l0.5 0.1zm-3.9 21.4l2.6-21c-2.9-0.5-16.3-3-28.3-3h-0.5c-11.9 0-24.9 2.5-27.8 3l2.6 20.8v0.1l0.9 7.4q0.2 0.1 0.6 0.1 0.1 0 0.3 0 0.3 0 0.5 0.1 0.3 0 0.7 0 0.3 0 0.6 0.1 0.7 0 1.6 0.1 0.4 0.1 0.9 0.1 0.1 0 0.3 0 0.1 0 0.3 0h0.2q0.1 0 0.2 0.1 0.3 0 0.7 0h0.3q0.2 0 0.3 0 0.1 0.1 0.3 0.1 0.8 0 1.6 0.1 0.8 0 1.6 0.1h0.2q0.5 0 1.2 0.1 0.3 0 0.6 0 0.9 0.1 1.9 0.1c0.3 0 0.6 0 1 0.1q0.4 0 0.9 0 2 0.1 4 0.1h0.4q0.7 0 1.4 0 1.1 0.1 2.2 0.1c1.2 0 2.4-0.1 3.6-0.1q0.7 0 1.4 0 2-0.1 3.9-0.1c1.5-0.1 2.9-0.2 4.3-0.3q2-0.1 3.8-0.2h0.4q0.2-0.1 0.5-0.1 0.2 0 0.5 0 0.2 0 0.5-0.1 0.2 0 0.4 0 0 0 0.1 0 0 0 0 0 0 0 0 0 1.5-0.1 2.6-0.2l3.4-26.5c-4.8-0.8-15.6-2.5-25.4-2.5h-1c-9.6 0.1-19.9 1.7-24.5 2.5l3.1 24.5v0.5l-0.5 0.1-0.6 0.1-3.4-26.2 0.6-0.1c4.2-0.8 15.2-2.6 25.3-2.7h1c10.3 0 21.8 1.9 26.3 2.7l0.6 0.1-3.6 27.4q0.4 0 0.6-0.1c0.1 0 0.2 0 0.3 0q0.1 0 0.3 0 0.2-0.1 0.3 0l0.9-7.3z"/>
		</g>
		<path id="&lt;Path&gt;" class="s1" d="m68.9 6.5l-3.7 29.5q-0.9 0.1-2.5 0.2-0.1-0.2-0.1-0.3l3.4-27.3c-4.7-0.8-15.9-2.6-26.1-2.6h-1c-9.9 0.1-20.6 1.8-25.2 2.6l3.5 27.3q-0.1 0.1-0.1 0.3-1.6-0.1-2.6-0.2l-3.6-29.5q15.3-3.1 29-3.1 13.7 0 29 3.1z"/>
		<g id="&lt;Group&gt;">
			<path id="&lt;Path&gt;" class="s1" d="m68.2 4.6v1.2c-3.2-0.7-16.1-3-27.8-3h-0.5c-11.9 0-25.1 2.3-28.4 3v-1.3c3.1-0.6 16.3-3 28.4-3 10.1 0 25.4 2.5 28.3 3.1z"/>
			<path id="&lt;Compound Path&gt;" fill-rule="evenodd" class="s0" d="m69.5 6.5v0.2 0.5l-2.6 20.6-0.6 4.8-0.4 3.4-0.1 0.5-0.5 0.1q0 0-0.6 0.1c-0.9 0.1-2.9 0.2-5.4 0.4q-0.4 0.1-0.9 0.1c-2.5 0.2-5.5 0.4-8.7 0.5-0.6 0.1-1.3 0.1-1.9 0.1q-1 0-2 0.1-1 0-1.9 0-2.1 0.1-4 0.1-2 0-4-0.1-0.9 0-1.9 0-1-0.1-2-0.1c-0.7 0-1.3 0-1.9-0.1-2.6-0.1-5-0.2-7.2-0.4q-0.8 0-1.5-0.1-0.4 0-0.7-0.1-0.7 0-1.3-0.1-0.4 0-0.7 0-1-0.1-1.7-0.2-1.3-0.1-1.9-0.1-0.6-0.1-0.7-0.1l-0.4-0.1-0.1-0.6-0.5-3.5-0.6-4.8v-0.1l-2.5-20.3-0.1-0.5v-0.7-2.5l0.5-0.1c1.7-0.3 16.1-3.2 29.2-3.2 11.3 0 29 3.2 29.1 3.2l0.5 0.1zm-58-0.7c3.3-0.6 16.5-3 28.4-3h0.5c11.7 0.1 24.6 2.4 27.8 3v-1.2c-2.9-0.5-18.2-3.1-28.3-3.1-12.1 0-25.3 2.5-28.4 3.1v1.2q0 0 0 0zm50.4 29.8l3.4-26.4c-4.8-0.9-15.6-2.6-25.4-2.6h-1c-9.6 0.1-19.9 1.8-24.5 2.6l3.2 24.5 0.2 1.9q0.7 0.1 1.6 0.2 0.4 0 0.9 0.1 0.1 0 0.3 0 0.1 0 0.3 0 0.2 0 0.4 0 0.3 0.1 0.7 0.1h0.3q0.2 0 0.3 0 0.1 0 0.3 0 0.8 0.1 1.6 0.2 0.8 0 1.6 0.1h0.2q0.5 0 1.2 0 0.3 0.1 0.6 0.1 0.9 0 1.9 0.1c0.3 0 0.6 0 1 0q0.4 0 0.9 0 2 0.1 4 0.2h0.4q0.7 0 1.4 0 1.1 0 2.2 0c1.2 0 2.4 0 3.6 0q0.7 0 1.4 0 2-0.1 3.9-0.2c1.5-0.1 2.9-0.1 4.3-0.2q2-0.1 3.8-0.3h0.4q0.2 0 0.5 0 0.2 0 0.5 0 0.2-0.1 0.5-0.1 0.2 0 0.4 0 0 0 0.1 0 0 0 0 0 0 0 0 0 1.5-0.1 2.6-0.3zm6.3-28.5c-2.9-0.6-16.3-3-28.3-3h-0.5c-11.9 0-24.9 2.4-27.8 3l2.6 20.7v0.1l0.9 7.5q0.2 0 0.6 0 0.1 0.1 0.3 0.1 0.3 0 0.5 0l-0.1-1.2-3.4-26.2 0.6-0.1c4.2-0.8 15.2-2.5 25.3-2.7h1c10.3 0 21.8 1.9 26.3 2.7l0.6 0.1-3.6 27.4q0.4 0 0.6 0c0.1 0 0.2 0 0.3 0q0.1 0 0.3-0.1 0.2 0 0.3 0l0.9-7.2v-0.1z"/>
		</g>
		<g id="&lt;Group&gt;">
			<path id="&lt;Compound Path&gt;" fill-rule="evenodd" class="s1" d="m67.3 58.1v30.7c0 2-12.3 3.6-27.4 3.6-7.6 0-14.4-0.4-19.4-1-5-0.7-8.1-1.6-8.1-2.6v-30.7q0-6.7 0.9-13.3l1.1-8.2 0.1-0.6q13.4 1.3 25.4 1.3c2.2 0 4.5 0 6.8-0.1q3.4-0.1 6.5-0.3c6.8-0.4 12-0.9 12-0.9l0.1 0.6 1.1 8.2q0.9 6.6 0.9 13.3zm-0.6 0c0-4.4-0.3-8.8-0.9-13.2l-1.1-8.2c-0.9 0.1-2.8 0.2-5.4 0.4q-0.4 0.1-0.9 0.1c-2.5 0.2-5.5 0.4-8.7 0.5-0.6 0.1-1.3 0.1-1.9 0.1q-1 0-2 0.1-1 0-2 0-1.9 0.1-3.9 0.1-2 0-4-0.1-0.9 0-1.9 0-1-0.1-2-0.1c-0.7 0-1.3 0-1.9-0.1-2.6-0.1-5-0.2-7.2-0.4q-0.8 0-1.5-0.1-0.4 0-0.7-0.1-0.7 0-1.3-0.1-0.4 0-0.7 0-1-0.1-1.7-0.2-1.3-0.1-1.9-0.1l-1.1 8.2c-0.6 4.4-0.9 8.8-0.9 13.2v30.7c0.5 1.2 10.4 3 26.8 3 16.2 0 26.1-1.8 26.8-3z"/>
			<path id="&lt;Compound Path&gt;" fill-rule="evenodd" class="s0" d="m68 58.1v30.7c0 4.2-27 4.3-28.1 4.3-1.2 0-28.1-0.1-28.1-4.3v-30.7c0-4.5 0.3-8.9 0.9-13.4l1.2-8.8c0-0.3 0.3-0.5 0.5-0.6q0.1 0 0.2 0 0.2 0 0.5 0.1 0.2 0 0.6 0 0.1 0 0.3 0.1 0.3 0 0.5 0 0.3 0 0.7 0.1 0.3 0 0.6 0 0.7 0.1 1.6 0.2 0.4 0 0.9 0 0.1 0 0.3 0.1 0.1-0.1 0.3 0h0.2q0.1 0 0.2 0 0.3 0 0.7 0.1h0.3q0.1 0 0.3 0 0.1 0 0.3 0 1.6 0.1 3.4 0.2 0.5 0.1 1.2 0.1 0.3 0 0.6 0 0.9 0.1 1.9 0.1c0.3 0.1 0.6 0.1 1 0.1q0.4 0 0.9 0 2 0.1 4 0.2h0.4q0.7 0 1.4 0 1.1 0 2.2 0c1.2 0 2.4 0 3.6 0q0.7-0.1 1.4-0.1 2 0 3.9-0.1c1.5-0.1 2.9-0.2 4.3-0.2q2-0.1 3.8-0.3h0.3q0.3 0 0.6 0 0.2 0 0.5-0.1 0.2 0 0.5 0 0.2 0 0.5-0.1 0 0 0 0 0 0 0 0 1.5-0.1 2.6-0.2 0.4 0 0.7 0 0.3-0.1 0.6-0.1 0.4 0 0.6 0c0.1 0 0.2-0.1 0.3-0.1q0.1 0 0.3 0 0.2 0 0.3 0 0.3 0 0.5-0.1h0.1c0.3 0.1 0.5 0.3 0.6 0.6v0.1l1.2 8.7c0.6 4.5 0.9 8.9 0.9 13.4zm-1.3 0c0-4.4-0.3-8.8-0.9-13.2l-1.1-8.2c-0.9 0.1-2.9 0.2-5.4 0.4q-0.4 0.1-0.9 0.1c-2.5 0.2-5.5 0.4-8.7 0.5-0.6 0.1-1.3 0.1-1.9 0.1q-1 0-2 0.1-1 0-1.9 0-2.1 0.1-4 0.1-2 0-4-0.1-0.9 0-1.9 0-1-0.1-2-0.1c-0.7 0-1.3 0-1.9-0.1-2.6-0.1-5-0.2-7.2-0.4q-0.8 0-1.5-0.1-0.4 0-0.7-0.1-0.7 0-1.3-0.1-0.4 0-0.7 0-1-0.1-1.7-0.2-1.3-0.1-1.9-0.1l-1.1 8.2c-0.6 4.4-0.9 8.8-0.9 13.2v30.7c0.5 1.2 10.4 3 26.8 3 16.2 0 26.1-1.8 26.8-3z"/>
			<path id="&lt;Path&gt;" class="s1" d="m66.7 58.1v30.7c-0.7 1.2-10.6 3-26.8 3-16.4 0-26.3-1.8-26.8-3v-30.7c0-4.4 0.3-8.8 0.9-13.2l1.1-8.2q0.6 0 1.9 0.1 0.7 0.1 1.7 0.2 0.3 0 0.7 0 0.6 0.1 1.3 0.1 0.3 0.1 0.7 0.1 0.7 0.1 1.5 0.1c2.2 0.2 4.6 0.3 7.2 0.4 0.6 0.1 1.2 0.1 1.9 0.1q1 0 2 0.1 1 0 1.9 0 2 0.1 4 0.1 2 0 3.9-0.1 1 0 2 0 1-0.1 2-0.1c0.6 0 1.3 0 1.9-0.1 3.2-0.1 6.2-0.3 8.7-0.5q0.5 0 0.9-0.1c2.6-0.2 4.5-0.3 5.4-0.4l1.1 8.2c0.6 4.4 0.9 8.8 0.9 13.2z"/>
		</g>
		<g id="&lt;Group&gt;">
			<path id="&lt;Path&gt;" class="s1" d="m69.2 59.9v31.5c-0.6 1.3-11.4 3.2-29.3 3.2-17.9 0-28.7-1.9-29.3-3.2v-31.9c0-5.4 0.4-10.9 1.1-16.3l1.7-10.8 0.5 3.5-1.2 8.8c-0.6 4.5-0.9 8.9-0.9 13.4v30.7c0 4.2 26.9 4.3 28.1 4.3 1.1 0 28.1-0.1 28.1-4.3v-30.7c0-4.5-0.3-8.9-0.9-13.4l-1.2-8.7 0.4-3.4 1.7 10.2c0.8 5.6 1.2 11.4 1.2 17.1z"/>
			<path id="&lt;Path&gt;" class="s0" d="m70.6 59.9v31.5c0 4.6-29.4 4.7-30.7 4.7-1.3 0-30.7-0.1-30.7-4.7v-31.9c0-5.5 0.3-11.1 1.1-16.5l2.5-15.6 1.4 0.4v0.1l-0.4 2.3-0.4 2.2-1.7 10.8c-0.7 5.4-1.1 10.9-1.1 16.3v31.9c0.6 1.3 11.4 3.2 29.3 3.2 17.9 0 28.7-1.9 29.3-3.2v-31.5c0-5.7-0.4-11.5-1.2-17.1l-1.7-10.2-0.4-2.2-0.3-2.2v-0.2l1.3-0.4 2.5 15c0.8 5.7 1.2 11.5 1.2 17.3z"/>
		</g>
		<g id="&lt;Group&gt;">
			<path id="&lt;Path&gt;" class="s2" d="m6.6 78h-5.1v-12.4c-0.5-18.2 3.3-33.7 3.5-34.3l4.9 1.2c0 0.2-3.8 15.5-3.3 33z"/>
		</g>
		<g id="&lt;Group&gt;">
			<path id="&lt;Path&gt;" class="s2" d="m73.2 65.5c0.4-17.5-3.3-32.8-3.4-33l5-1.2c0.2 0.6 4 16.1 3.5 34.3v12.4h-5.1z"/>
		</g>
		<path id="&lt;Path&gt;" class="s1" d="m65.3 9.1l-3.4 26.5q-1.1 0.1-2.6 0.2 0 0 0 0 0 0 0 0-0.1 0-0.1 0-0.2 0.1-0.4 0.1-0.3 0-0.5 0-0.3 0.1-0.5 0.1-0.3 0-0.6 0h-0.3q-1.8 0.2-3.8 0.3c-1.4 0-2.8 0.1-4.3 0.2q-1.9 0.1-3.9 0.1-0.7 0-1.4 0.1c-1.2 0-2.4 0-3.6 0q-1.1 0-2.2 0-0.7 0-1.4 0h-0.4q-2-0.1-4-0.2-0.5 0-0.9 0c-0.4 0-0.7 0-1-0.1q-1 0-1.9-0.1-0.3 0-0.6 0-0.7 0-1.2-0.1-1.8-0.1-3.4-0.2-0.2 0-0.3 0-0.1 0-0.3 0h-0.3q-0.4-0.1-0.7-0.1-0.1 0-0.2 0h-0.2q-0.2-0.1-0.3 0-0.2-0.1-0.3-0.1-0.5 0-0.9 0-0.9-0.1-1.6-0.2l-0.2-2-3.2-24.5c4.6-0.8 14.9-2.4 24.5-2.5h1c9.8 0 20.6 1.7 25.4 2.5z"/>
		<circle id="&lt;Path&gt;" class="s0" cx="23.3" cy="82" r="1.5"/>
		<circle id="&lt;Path&gt;" class="s0" cx="23.3" cy="48.1" r="1.5"/>
		<circle id="&lt;Path&gt;" class="s0" cx="58" cy="82" r="1.5"/>
		<circle id="&lt;Path&gt;" class="s0" cx="58" cy="48.1" r="1.5"/>
	</g>
</svg>