<svg version="1.2" xmlns="http://www.w3.org/2000/svg" viewBox="0 0 127 93" width="127" height="93">
	<title>New Project</title>
	<style>
		.s0 { fill: #ffffff;stroke: #000000;stroke-width: 1.5 } 
		.s1 { fill: #ffffff;stroke: #000000;stroke-width: .9 } 
		.s2 { fill: #ffffff;stroke: #000000;stroke-width: .6 } 
		.s3 { fill: #000000 } 
	</style>
	<path id="&lt;Path&gt;" class="s0" d="m126.1 73.1h-125.3v-72h125.3z"/>
	<g id="&lt;Group&gt;">
		<path id="&lt;Path&gt;" class="s0" d="m126.1 73.1h-125.3v-72h125.3z"/>
		<path id="&lt;Path&gt;" class="s0" d="m126.1 84.1h-125.3v-11h125.3z"/>
		<path id="&lt;Path&gt;" class="s0" d="m94.4 16.6c0.1-4 3.4-7.2 7.4-7.1 4 0.1 7.2 3.4 7.1 7.4-0.1 4-3.4 7.2-7.4 7.1-4-0.1-7.2-3.4-7.1-7.4z"/>
		<path id="&lt;Path&gt;" class="s0" d="m9.6 22.7c0.2-7.5 6.4-13.4 13.9-13.2 7.5 0.2 13.4 6.4 13.2 13.9-0.2 7.4-6.4 13.3-13.9 13.2-7.4-0.2-13.3-6.4-13.2-13.9z"/>
		<path id="&lt;Path&gt;" class="s0" d="m117.9 48.9c-0.3 9-7.7 16-16.6 15.8-9-0.2-16.1-7.6-15.8-16.6 0.2-8.9 7.6-16 16.6-15.8 8.9 0.2 16 7.7 15.8 16.6z"/>
		<path id="&lt;Path&gt;" class="s0" d="m34 54.2c-0.2 5.9-5.1 10.7-11.1 10.5-6-0.1-10.7-5.1-10.6-11.1 0.2-5.9 5.2-10.7 11.1-10.5 6 0.1 10.7 5.1 10.6 11.1z"/>
		<path id="&lt;Path&gt;" class="s0" d="m67.6 63.2h-8.3c-4.6 0-8.2-3.7-8.2-8.2v-36.9c0-4.5 3.6-8.2 8.2-8.2h8.3c4.6 0 8.2 3.7 8.2 8.2v36.9c0 4.5-3.6 8.2-8.2 8.2z"/>
		<path id="&lt;Path&gt;" class="s1" d="m97.3 16.6c0-2.4 2-4.3 4.5-4.2 2.4 0 4.3 2 4.2 4.5 0 2.4-2 4.3-4.5 4.2-2.4 0-4.3-2-4.2-4.5z"/>
		<path id="&lt;Path&gt;" class="s1" d="m13 22.8c0.2-5.6 4.8-10 10.4-9.9 5.6 0.1 10 4.8 9.9 10.4-0.1 5.6-4.8 10-10.4 9.9-5.6-0.2-10-4.8-9.9-10.4z"/>
		<path id="&lt;Path&gt;" class="s1" d="m113.8 48.8c-0.2 6.7-5.7 12-12.4 11.9-6.8-0.2-12.1-5.8-11.9-12.5 0.2-6.7 5.7-12 12.5-11.8 6.7 0.1 12 5.7 11.8 12.4z"/>
		<path id="&lt;Path&gt;" class="s1" d="m31.3 54.1c-0.1 4.5-3.9 8-8.3 7.9-4.5-0.1-8.1-3.8-8-8.3 0.2-4.5 3.9-8 8.4-7.9 4.4 0.1 8 3.8 7.9 8.3z"/>
		<path id="&lt;Path&gt;" class="s1" d="m66.6 59.7h-6.3c-3.4 0-6.1-2.8-6.1-6.2v-33.8c0-3.4 2.7-6.1 6.1-6.1h6.3c3.4 0 6.1 2.7 6.1 6.1v33.8c0 3.4-2.7 6.2-6.1 6.2z"/>
		<g id="&lt;Group&gt;">
			<g id="&lt;Group&gt;">
				<g id="&lt;Group&gt;">
					<path id="&lt;Path&gt;" class="s2" d="m25.9 81.1c-1-0.4-1.6-1.4-1.6-2.5 0-1.1 0.6-2 1.6-2.4z"/>
					<path id="&lt;Path&gt;" class="s2" d="m29.6 78.6c0 1.1-0.7 2.1-1.7 2.5v-4.9c1 0.4 1.7 1.3 1.7 2.4z"/>
				</g>
				<path id="&lt;Path&gt;" class="s2" d="m27.9 81.8h-2v-6.3h2z"/>
			</g>
			<g id="&lt;Group&gt;">
				<g id="&lt;Group&gt;">
					<path id="&lt;Path&gt;" class="s2" d="m37.8 81.1c-1-0.4-1.6-1.4-1.6-2.5 0-1.1 0.6-2 1.6-2.4z"/>
					<path id="&lt;Path&gt;" class="s2" d="m41.5 78.6c0 1.1-0.7 2.1-1.7 2.5v-4.9c1 0.4 1.7 1.3 1.7 2.4z"/>
				</g>
				<path id="&lt;Path&gt;" class="s2" d="m39.8 81.8h-2v-6.3h2z"/>
			</g>
			<g id="&lt;Group&gt;">
				<g id="&lt;Group&gt;">
					<path id="&lt;Path&gt;" class="s2" d="m87.1 81.1c-1-0.4-1.6-1.4-1.6-2.5 0-1.1 0.6-2 1.6-2.4z"/>
					<path id="&lt;Path&gt;" class="s2" d="m90.7 78.6c0 1.1-0.6 2.1-1.6 2.5v-4.9c1 0.4 1.6 1.3 1.6 2.4z"/>
				</g>
				<path id="&lt;Path&gt;" class="s2" d="m89.1 81.8h-2v-6.3h2z"/>
			</g>
			<g id="&lt;Group&gt;">
				<g id="&lt;Group&gt;">
					<path id="&lt;Path&gt;" class="s2" d="m99 81.1c-1-0.4-1.7-1.4-1.7-2.5 0-1.1 0.7-2 1.7-2.4z"/>
					<path id="&lt;Path&gt;" class="s2" d="m102.6 78.6c0 1.1-0.6 2.1-1.6 2.5v-4.9c1 0.4 1.6 1.3 1.6 2.4z"/>
				</g>
				<path id="&lt;Path&gt;" class="s2" d="m101 81.8h-2v-6.3h2z"/>
			</g>
			<path id="&lt;Path&gt;" class="s3" d="m54.3 78.7c0 0.8-0.6 1.5-1.5 1.5-0.8 0-1.5-0.7-1.5-1.5 0-0.8 0.7-1.5 1.5-1.5 0.9 0 1.5 0.7 1.5 1.5z"/>
			<path id="&lt;Path&gt;" class="s3" d="m65.3 78.7c0 0.8-0.7 1.5-1.6 1.5-0.8 0-1.5-0.7-1.5-1.5 0-0.8 0.7-1.5 1.5-1.5 0.9 0 1.6 0.7 1.6 1.5z"/>
			<path id="&lt;Path&gt;" class="s3" d="m76.2 78.7c0 0.8-0.7 1.5-1.6 1.5-0.8 0-1.5-0.7-1.5-1.5 0-0.8 0.7-1.5 1.5-1.5 0.9 0 1.6 0.7 1.6 1.5z"/>
		</g>
		<g id="&lt;Group&gt;">
			<path id="&lt;Path&gt;" class="s0" d="m92.9 91.8h-58.9v-7.7h3.3v5h52.3v-5h3.3z"/>
		</g>
	</g>
</svg>