<svg version="1.2" xmlns="http://www.w3.org/2000/svg" viewBox="0 0 65 56" width="65" height="56">
	<title>New Project</title>
	<style>
		.s0 { fill: #ffffff;stroke: #000000;stroke-linecap: square;stroke-linejoin: round;stroke-width: 1.5 } 
		.s1 { fill: #000000 } 
	</style>
	<g id="&lt;Group&gt;">
		<path id="&lt;Path&gt;" class="s0" d="m32.5 9.6c12.6 0 22.8 10.2 22.8 22.8 0 12.6-10.2 22.8-22.8 22.8-12.6 0-22.8-10.2-22.8-22.8 0-12.6 10.2-22.8 22.8-22.8z"/>
		<g id="&lt;Group&gt;">
			<path id="&lt;Path&gt;" class="s0" d="m64.3 33.6h-2.3v-1.2c0-16.2-13.2-29.4-29.5-29.4-16.2 0-29.4 13.2-29.4 29.4v1.2h-2.3v-1.2c0-17.5 14.2-31.7 31.7-31.7 17.5 0 31.8 14.2 31.8 31.7z"/>
		</g>
		<path id="&lt;Path&gt;" class="s1" d="m32.5 30.7c1 0 1.8 0.8 1.8 1.7 0 1-0.8 1.7-1.8 1.7-0.9 0-1.7-0.7-1.7-1.7 0-0.9 0.8-1.7 1.7-1.7z"/>
	</g>
</svg>