<svg version="1.2" xmlns="http://www.w3.org/2000/svg" viewBox="0 0 240 63" width="240" height="63">
	<title>New Project</title>
	<style>
		.s0 { fill: #ffffff;stroke: #000000;stroke-linecap: square;stroke-width: 1.5 } 
		.s1 { fill: #000000 } 
	</style>
	<g id="&lt;Group&gt;">
		<path id="&lt;Path&gt;" class="s0" d="m209 1.3c16.8 0 30.3 13.5 30.3 30.3 0 16.7-13.5 30.2-30.3 30.2h-208.2v-60.5z"/>
		<g id="&lt;Group&gt;">
			<path id="&lt;Path&gt;" class="s1" d="m239.2 28.3c-2.5-1.1-5.1-2.2-7.6-3.2-7.6-3.1-38.1-1.3-67.6 0.3-32.4 1.8-62.9 3.5-68-0.3-1.4-1.1-2-2.2-1.9-3.3 0.4-2.7 5.7-4.8 11.4-7.1 6-2.3 12.1-4.8 11.5-7.7-0.2-1.4-6.4-3.1-44.4 1.1-23.8 2.6-52.1 6.6-71.8 9.5v-0.6c19.6-2.9 48-6.9 71.8-9.5 44.1-4.8 44.8-1.7 45-0.6 0.6 3.4-5.5 5.8-11.9 8.3-5.3 2.1-10.7 4.3-11.1 6.7q-0.1 1.3 1.8 2.8c4.9 3.7 36.7 1.9 67.5 0.2 29.6-1.7 60.2-3.4 67.9-0.3 2.5 1.1 5.1 2.1 7.6 3.2z"/>
		</g>
		<g id="&lt;Group&gt;">
			<path id="&lt;Path&gt;" class="s1" d="m80 45.1c-5.4 0-10.5-1.2-14.8-3.6-4.7-2.7-7.8-6.4-8.9-10.6-1.8-7.2-33.4-0.2-50.4 3.6q-2.8 0.6-5 1.1l-0.1-0.5q2.2-0.5 5-1.1c18.4-4.1 49.1-10.9 51.1-3.2 1 4 4 7.6 8.5 10.2 7.1 4 16.5 4.7 25.7 1.9 8.5-2.6 29.9-5.9 53.1-8.3 26.3-2.6 47.6-3.3 58.5-1.9 13.6 1.8 27.5 6.5 34.6 9.2l-0.2 0.5c-7.1-2.7-20.9-7.4-34.4-9.2-23.5-3-93.7 4.8-111.5 10.2-3.8 1.2-7.6 1.7-11.2 1.7z"/>
		</g>
		<g id="&lt;Group&gt;">
			<path id="&lt;Path&gt;" class="s1" d="m79.5 60.2c-17.9 0-21.6-7.8-24.4-13.8-1.3-2.7-2.4-5-4.5-6.2-6.2-3.3-36.3 10.9-49.6 19.5l-0.3-0.5c13.4-8.7 43.8-22.9 50.2-19.4 2.2 1.2 3.4 3.6 4.7 6.4 3.3 7.1 7.4 15.9 33.2 12.9 27.3-3.2 99.6-11.6 138.2-3.7l-0.1 0.5c-38.6-7.9-110.8 0.6-138 3.7q-5.2 0.6-9.4 0.6z"/>
		</g>
		<g id="&lt;Group&gt;">
			<path id="&lt;Path&gt;" class="s1" d="m148 14c-5.7 0-9-0.6-9.4-2.1-0.9-3.3 1-5.3 3.1-7.4 1-1 2-2.1 2.8-3.4l0.5 0.3c-0.9 1.3-1.9 2.4-2.9 3.4-2.1 2.2-3.8 4-3 7 0.9 3.1 19.8 1.4 39.8-0.4 17.1-1.5 36.5-3.2 50.4-2.6v0.5c-13.9-0.6-33.3 1.1-50.4 2.7-13.3 1.1-23.9 2-30.9 2z"/>
		</g>
	</g>
</svg>