<svg version="1.2" xmlns="http://www.w3.org/2000/svg" viewBox="0 0 190 289" width="190" height="289">
	<title>New Project</title>
	<style>
		.s0 { fill: #ffffff;stroke: #000000;stroke-width: 3.1 } 
		.s1 { fill: #ffffff;stroke: #000000;stroke-linecap: square;stroke-width: 1.5 } 
	</style>
	<g id="&lt;Group&gt;">
		<path id="&lt;Path&gt;" class="s0" d="m23.1 2.3h67.8 97v284.8h-97-67.8c-4.8-12.5-9-27.5-12.3-44.4-5.5-28.3-8.7-61.9-8.7-98 0-36.1 3.2-69.8 8.7-98 3.3-17 7.5-32 12.3-44.4z"/>
		<path id="&lt;Path&gt;" class="s0" d="m187.9 287.1h-138.3c-4.8-12.5-8.9-27.5-12.3-44.4-5.5-28.3-8.7-61.9-8.7-98 0-36.1 3.2-69.8 8.7-98 3.4-17 7.5-32 12.3-44.4h138.3z"/>
		<path id="&lt;Path&gt;" class="s0" d="m110.2 20.1c37.6 0 68.1 55.8 68.1 124.6 0 68.8-30.5 124.5-68.1 124.5-37.6 0-68.2-55.7-68.2-124.5 0-68.8 30.6-124.6 68.2-124.6z"/>
		<path id="&lt;Path&gt;" class="s0" d="m110.2 54.8c27.1 0 49.2 40.3 49.2 89.9 0 49.6-22.1 89.8-49.2 89.8-27.2 0-49.2-40.2-49.2-89.8 0-49.6 22-89.9 49.2-89.9z"/>
		<g id="&lt;Group&gt;">
			<path id="&lt;Path&gt;" class="s1" d="m147.4 139c0 4.2-3.4 7.7-7.7 7.7-4.3 0-7.7-3.5-7.7-7.7 0-4.3 3.4-7.8 7.7-7.8 4.3 0 7.7 3.5 7.7 7.8z"/>
			<path id="&lt;Path&gt;" class="s1" d="m144.2 139c0 2.5-2 4.5-4.5 4.5-2.5 0-4.5-2-4.5-4.5 0-2.5 2-4.5 4.5-4.5 2.5 0 4.5 2 4.5 4.5z"/>
		</g>
	</g>
</svg>