<svg version="1.2" xmlns="http://www.w3.org/2000/svg" viewBox="0 0 281 281" width="281" height="281">
	<title>New Project</title>
	<style>
		.s0 { fill: #ffffff;stroke: #000000;stroke-linecap: square;stroke-width: 3.1 } 
	</style>
	<g id="&lt;Group&gt;">
		<path id="&lt;Path&gt;" class="s0" d="m1.9 2.3h277.1c0 153-124.1 277.1-277.1 277.1z"/>
		<path id="&lt;Path&gt;" class="s0" d="m22.6 67.3c-1.2-2-1.9-4.3-1.9-6.6v-1c0-21.3 17.3-38.6 38.6-38.6 2.5 0 4.9 0.7 6.9 2.1 10.8 7.1 28.2 11.7 47.8 11.7 11.6 0 22.5-1.6 31.6-4.4 21.1-6.4 43.2-9.4 65.2-9.4h6.1c23.6 0 41.1 22.2 35.3 45.1-23.3 91.2-95.2 163.1-186.3 186.4-23 5.8-45.2-11.6-45.2-35.3v-9.5c0-21.2 2.6-42.4 8.7-62.7 2.7-9.1 4.2-19.7 4.2-31.1 0-19-4.3-35.9-11-46.7z"/>
		<path id="&lt;Path&gt;" class="s0" d="m50.9 211.3c-24.3-24.3-6.6-81.5 39.6-127.7 46.2-46.3 103.4-64 127.8-39.7 24.3 24.4 6.6 81.6-39.6 127.8-46.3 46.2-103.5 64-127.8 39.6z"/>
		<path id="&lt;Path&gt;" class="s0" d="m166.3 161c-3.6 0-6.5-2.9-6.5-6.5 0-3.6 2.9-6.5 6.5-6.5 3.6 0 6.5 2.9 6.5 6.5 0 3.6-2.9 6.5-6.5 6.5z"/>
	</g>
</svg>