<svg version="1.2" xmlns="http://www.w3.org/2000/svg" viewBox="0 0 112 177" width="112" height="177">
	<title>New Project</title>
	<style>
		.s0 { fill: #ffffff } 
		.s1 { fill: #000000 } 
	</style>
	<g id="&lt;Group&gt;">
		<g id="&lt;Group&gt;">
			<path id="&lt;Path&gt;" class="s0" d="m11.6 12.7h88.6v150.9h-88.6z"/>
			<path id="&lt;Compound Path&gt;" fill-rule="evenodd" class="s1" d="m10.7 12.7c0-0.5 0.4-0.9 0.9-0.9h88.6c0.5 0 0.9 0.4 0.9 0.9v150.9c0 0.5-0.4 0.9-0.9 0.9h-88.6c-0.5 0-0.9-0.4-0.9-0.9zm1.8 150h86.8v-149.1h-86.8z"/>
		</g>
		<g id="&lt;Group&gt;">
			<path id="&lt;Path&gt;" class="s0" d="m18.2 23.9h75.4v128.5h-75.4z"/>
			<path id="&lt;Compound Path&gt;" fill-rule="evenodd" class="s1" d="m17.3 23.9c0-0.5 0.4-0.9 0.9-0.9h75.4c0.5 0 0.9 0.4 0.9 0.9v128.5c0 0.5-0.4 0.9-0.9 0.9h-75.4c-0.5 0-0.9-0.4-0.9-0.9zm1.8 127.6h73.6v-126.7h-73.6z"/>
		</g>
		<path id="&lt;Path&gt;" class="s1" d="m95.2 175.1l4.1-11.8q0.1 0 0.1-0.1 0 0 0 0 0-0.1 0-0.1 0.1 0 0.1-0.1 0 0 0.1-0.1 0 0 0.1 0 0-0.1 0.1-0.1 0 0 0.1-0.1 0.1 0 0.1 0 0.1 0 0.1 0 0 0 0.1 0 0 0 0 0 0.1 0 0.2 0l10.7 2.8c0.5 0.1 0.8 0.6 0.6 1-0.1 0.5-0.6 0.8-1 0.7l-7-1.8 4.1 3.4c0.4 0.3 0.4 0.9 0.1 1.3-0.3 0.3-0.9 0.4-1.3 0.1l-3.9-3.3 2.1 4.4c0.3 0.4 0.1 0.9-0.4 1.1-0.4 0.3-0.9 0.1-1.2-0.4l-2.9-6.1-3.4 9.8c-0.2 0.4-0.7 0.7-1.2 0.5-0.4-0.1-0.7-0.6-0.5-1.1z"/>
		<path id="&lt;Path&gt;" class="s1" d="m95.7 0.1q0.2-0.1 0.3-0.1c0.4 0 0.7 0.2 0.9 0.6l3.4 9.8 2.9-6.2c0.3-0.4 0.8-0.6 1.2-0.4 0.5 0.2 0.7 0.8 0.4 1.2l-2.1 4.4 3.9-3.3q0.3-0.2 0.6-0.2c0.3 0 0.5 0.1 0.7 0.3 0.3 0.4 0.3 0.9-0.1 1.3l-4.1 3.4 7-1.8c0.4-0.1 0.9 0.2 1 0.6 0.2 0.5-0.1 1-0.6 1.1l-10.7 2.7q0 0 0 0-0.1 0.1-0.3 0.1 0 0 0 0 0 0-0.1-0.1-0.1 0-0.2 0 0 0-0.1-0.1 0 0-0.1 0 0-0.1-0.1-0.1 0-0.1-0.1-0.2 0 0 0 0 0 0 0-0.1 0 0-0.1 0l-4.1-11.8c-0.2-0.5 0.1-1 0.5-1.1z"/>
		<path id="&lt;Path&gt;" class="s1" d="m0.7 165.5l10.7-2.8q0.1 0 0.2 0 0 0 0 0 0 0 0 0 0.1 0 0.1 0 0.1 0 0.2 0 0 0.1 0.1 0.1 0 0 0.1 0.1 0 0 0.1 0 0 0.1 0.1 0.1 0 0.1 0 0.1 0.1 0 0.1 0.1 0 0 0 0 0 0.1 0 0.1l4.2 11.8c0.1 0.5-0.1 1-0.6 1.1-0.4 0.2-0.9-0.1-1.1-0.5l-3.4-9.8-3 6.1c-0.2 0.5-0.7 0.7-1.2 0.4-0.4-0.2-0.6-0.7-0.4-1.1l2.1-4.4-3.9 3.3c-0.3 0.3-0.9 0.2-1.2-0.1-0.3-0.4-0.3-1 0.1-1.3l4.1-3.4-7 1.8c-0.5 0.1-1-0.2-1.1-0.7-0.1-0.4 0.2-0.9 0.7-1z"/>
		<path id="&lt;Path&gt;" class="s1" d="m0 9.7c0.1-0.4 0.6-0.7 1.1-0.6l7 1.8-4.1-3.4c-0.4-0.4-0.4-0.9-0.1-1.3 0.2-0.2 0.4-0.3 0.7-0.3q0.3 0 0.5 0.2l3.9 3.3-2.1-4.4c-0.2-0.4 0-1 0.4-1.2 0.5-0.2 1 0 1.2 0.4l3 6.2 3.4-9.8c0.1-0.4 0.5-0.6 0.8-0.6q0.2 0 0.3 0.1c0.5 0.1 0.7 0.6 0.6 1.1l-4.2 11.8q0 0 0 0 0 0.1 0 0.1 0 0-0.1 0 0 0.1-0.1 0.2 0 0 0 0.1-0.1 0-0.2 0.1 0 0-0.1 0 0 0-0.1 0-0.1 0.1-0.1 0.1 0 0-0.1 0-0.1 0-0.2-0.1 0 0 0 0l-10.7-2.7c-0.5-0.1-0.8-0.6-0.7-1.1z"/>
	</g>
</svg>