<svg version="1.2" xmlns="http://www.w3.org/2000/svg" viewBox="0 0 2922 1427" width="2922" height="1427">
	<title>gtp001e_5_e03-ai</title>
	<style>
		.s0 { fill: #ffffff } 
		.s1 { fill: #1a1a1a } 
	</style>
	<path id="Shape 1" class="s0" d="m45 321c56.9-111.9 78.2-134.2 189-192 225.9-117.9 274.5-8.2 549-9 192-0.5 192 3.7 384 3 364.5-1.4 364.8-23.4 729-15 313.8 7.2 316.2 56.8 627 39 50.1-2.9 57.4-34.1 99-21 187.2 59 223.3 143.4 300 342 81.4 210.9 73.3 263.1 0 483-52 156.1-59.9 194.2-186 288-183.6 136.6-244.6 61.7-492 84-554.9 49.9-559.5-30.7-1119-30-426 0.5-514.9 209.2-852 20.7-148.2-82.9-173-124.2-243-285-132.4-304-134.4-413.7 15-707.7z"/>
	<path id="Shape 2" class="s0" d="m1893 1806"/>
	<g id="Layer 2">
		<g id="&lt;Group&gt;">
			<path id="&lt;Path&gt;" class="s1" d="m2510.3 130.3c0 0 0 0.1 0.1 0.2-0.1 0.2-0.1 0.1-0.1-0.2z"/>
			<path id="&lt;Path&gt;" class="s1" d="m2719.3 408.4q0 0 0 0 0 0 0 0 0 0 0 0z"/>
			<path id="&lt;Compound Path&gt;" fill-rule="evenodd" class="s1" d="m1026.1 346.4h-505.2c-0.8-0.9-1.7-1.6-2.6-2.4-0.4-0.2-0.8-0.4-1.3-0.6-3.1-0.1-6.2-0.5-9.2-1.9-2.6-1.2-4.7-3.3-6.4-5.7q-1.2-0.6-2.4-1.2c-1.4-0.1-2.8 0.3-4.1 0.9-7.5-2.5-14.9-5.5-22.3-9.4-12.3-6.5-23-15.4-34-23.9-13.2-7.7-26.2-15.7-39-24-10.5-5.5-21.7-12.3-29.9-20.7-1.7-1.2-3.5-2.4-5.2-3.6-3-2.3-4-5.5-3.7-8.5-4.7-9.4-5.2-20.2 1.8-32.5 2.4-4.4 6-7.9 10.2-10.8 1-1 2.1-2 3.3-2.9 2.3-1.7 5.1-2.7 7.9-3 27.4-10.2 69.6-5 90.3-5.4 59.7-1 119.2-5 178.8-6.7 1-0.5 2.3-0.8 3.7-0.8h436.2c3.6 0 6.1 1.9 7.4 4.3 4.6-0.2 9.3 2.6 9.3 8.5-0.4 52.2-13.5 164.6-83.6 150.3zm-330-145.4c-92.9 0.4-187.1 3.4-279.8 8.5-2.3 0.1-5.1 0.5-7.9 0.9-1.8-2.2-4.2-3.1-7-3.5-2.8-0.3-5.8-0.1-8.5 0.7-0.3-0.1-0.6-0.3-0.9-0.4-4.7-1.3-8.7 1.4-10.6 5.5l-0.1 0.1c0.3-0.8 0.1-0.3-0.1 0.2q-0.7 0.7-1.4 1.4c-1.7 1.8-3.1 3.7-3.9 6.1-1 3.2-0.4 6.3 1 9.1-0.4 0.3-0.9 0.6-1.3 0.8-0.5 3.7 0.9 8 4.6 13 21.2 15.2 43 29.3 65.5 42.4q1 0.3 2 0.6c0.9 0.7 1.7 1.4 2.5 2.1 19.6 11.2 39.5 21.7 59.7 31.8 1.2 0.3 2.3 0.9 3.3 1.6q0.3 0.2 0.6 0.3c1.5 0.3 2.9 0.6 4.4 0.9q1.4-0.4 2.8-0.7c6.7 2.5 13.6 4.2 20.7 5.5 0.3 0.3 0.5 0.5 0.7 0.8h464.7c6.5 2.2 12.6 3.7 19.5 1.7 1.2-0.4 2.2-1 3.1-1.7h8.3c1.7 0 3 0.4 4.2 1.1 41.8-6.2 49-91.4 49.7-128.8z"/>
			<path id="&lt;Path&gt;" class="s1" d="m2193.7 318.1c34.4 24.8 46.6 77.5 57.4 115.9 15.3 54.8 28.4 113.7 29.5 170.8 0.3 11.4-17.4 11.4-17.7 0-1-51.4-12.9-103.6-25.5-153.3-5.2-20.6-11-48.2-20.9-72.5 9.2 32.3 19.5 64.2 24.1 97.6 4.3 31.2 11.9 63.2 12.5 94.8 0.1 3.8-5.8 3.8-5.9 0-0.6-32.7-8.6-66.3-13.1-98.8-4.4-32.3-15.3-63.6-24.1-94.9-0.8-3 2.7-4.5 4.6-3.1-7.4-16.9-16.8-31.8-29.8-41.2-9.2-6.6-0.3-21.9 8.9-15.3z"/>
			<path id="&lt;Path&gt;" class="s1" d="m2510.4 1296.3q-0.1 0.1-0.1 0.2c0-0.3 0-0.4 0.1-0.2z"/>
			<path id="&lt;Compound Path&gt;" fill-rule="evenodd" class="s1" d="m133.2 468.2c-0.4 0.4-0.8 0.7-1.3 1.1 0.4-5.1 0.8-10.3 1.3-15.4v-25.9c0-3.8 2-6.3 4.6-7.6 7.8-43 23.8-84.6 58-110.6 46.6-35.2 124.2-6.6 173.2 7.6 26.7 7.8 79.6 24 103.7 51.5q0.3-0.1 0.5-0.1c2.9 13.6 7.3 27.1 8.1 41.8q0 0.4 0 0.8c-1.3 0.8-2.7 1.3-4.3 1.4v242.1q0 0.1 0 0.3c-3.7 84.7-1.8 168.9 0 253.3v85.9q0.9 0.5 1.6 1.2c0.1 7.1 0.2 14.2 0.2 21.2-0.9 1.2-1.5 2.7-1.8 4.5-1.6 13.3-3.3 27.1-10.5 38.7-1.2 1.9-1.5 3.7-1.4 5.4-26.3 23-71.9 36.9-96.1 44-49 14.2-126.6 42.8-173.2 7.5-54.6-41.4-63.1-122.9-65.2-186.4-0.1-1-0.1-2-0.1-3.1 0.9 1.2 1.8 2.2 2.7 3.2zm15.8 485.7c2.6 48.3 11.2 100.6 41.7 134.6 37.5 41.6 92.4 24.6 139.8 12.9 20.5-5.1 90-20.6 121.4-46.7 3.8-12.2 5.4-24.6 5.5-37.3 0-1.5 0.9-2.3 2-2.7v-626q0-1.2 0.2-2.1c-0.4-2.3 0.1-4.3 1-5.9-24.8-31.4-107.4-49.7-130.1-55.3-47.4-11.7-102.3-28.7-139.8 13-25.4 28.2-35.6 69.1-39.8 109.8v498.5c0 2.7-1 4.7-2.5 6.1 0.2 0.4 0.4 0.8 0.6 1.1z"/>
			<path id="&lt;Compound Path&gt;" fill-rule="evenodd" class="s1" d="m408.4 1144.4c14-6.5 25.9-16.4 38.1-25.9 15.1-9.2 30.3-18.5 46.5-25.7 1.6 0.2 3.4-0.1 5.2-1 2.2-1.1 4.4-2.2 6.6-3.3 1.3-0.4 2.7-0.8 4-1 0.5-0.6 1-1 1.6-1.4 5.4-2.2 11-4 16.6-5.7h499.1c70.1-14.4 83.2 98.1 83.6 150.3 0 5.9-4.7 8.7-9.3 8.5-1.3 2.4-3.8 4.3-7.4 4.3h-436.2c-1.4 0-2.7-0.3-3.7-0.8-59.6-1.7-119.1-5.7-178.8-6.8-27.8-0.4-94.2 9.1-111.7-22-19.5-34.5 19.1-57.2 45.8-69.5zm7.9 72.9c92.7 5.1 186.9 8.1 279.8 8.4h395.8c-0.7-37.3-7.9-122.5-49.7-128.7-1.2 0.6-2.5 1.1-4.2 1.1h-7.4c-1.2-0.7-2.7-1.2-4.4-1.2h-23.6c-1.7 0-3.1 0.5-4.3 1.2h-450.7c-1.8-2.7-5-4.2-9.1-2.8-6.8 2.3-13.5 5.1-20.2 7.9-0.5 0.2-1.1 0.5-1.7 0.8-16.4 2.9-31.5 9-45.8 18.6-0.1 0-0.1 0-0.2 0.1-23.7 15.2-48.8 27.5-69.8 46.2q-0.1-0.8-0.1-1.5c-6.7 3.5-13.1 7.7-18 12.9-23.6 25.8 15.8 36 33.6 37z"/>
			<path id="&lt;Compound Path&gt;" fill-rule="evenodd" class="s1" d="m1592.2 376.3c28.3-43.7 98.3-50.3 142.5-70.4 69.6-31.6 147.7-91.8 227.6-88.1 62.6 2.9 112.5 59.7 141.5 109.8 34.5 59.7 50.5 127.4 54.2 195.8 1.4 0 2.8 0.9 2.8 2.8 0 37.1 1 74.5 0.9 111.7 0.7 22.9 1.3 45.8 1.7 68.7 0.4 31.5 0.5 63 0.1 94.5-0.2 13-1.1 25.9-2.2 38.8 0 8.4-0.2 16.8-0.5 25.2-0.1 1.2-0.8 2.1-1.7 2.6-0.2 2.5-0.4 5-0.6 7.5 0.1 0.6 0.3 1.1 0.3 1.8-0.7 77.2-16 154.8-55 222.2-29 50.1-78.9 106.8-141.5 109.7-79.9 3.7-158-56.4-227.6-88-44.2-20.1-114.2-26.7-142.5-70.4-4-6.2 1-12.1 6.7-12.9 11.9-32.1 29.8-61.7 40.3-94.2 5.8-17.7 9.8-35.6 13.1-53.7-1.4-1.4-2.3-3.4-2.3-5.9v-353.7c0-1 0.1-1.9 0.4-2.7-2.9-14.9-6.4-29.5-11.2-44-10.5-32.5-28.4-62.1-40.3-94.2-5.7-0.8-10.7-6.7-6.7-12.9zm64.1 102.4c2.8 7.5 5.1 15.1 7.2 22.9q1.1 0 2.2 0.3v414.1c-2.5 10.9-5.5 21.6-9.4 32.1-12.8 34.3-31.1 66.3-42.9 101 17.2 18.4 45.9 25.3 68.9 32.6 21.2 6.7 41.2 14.4 61.3 23.9 31.4 14.8 61.8 31.5 93 46.7 32.3 15.7 72.6 37.8 109.4 39.1 68.1 2.3 123.5-57.6 149.9-115.3 29.2-63.8 44.3-126.8 45.2-197.1-0.6-0.5-1-1.2-1-2.1v-354.3c-3.8-60.4-18.5-115.8-44.2-171.9-26.4-57.7-81.8-117.6-149.9-115.3-36.8 1.3-77.1 23.4-109.4 39.1-31.2 15.2-61.6 31.9-93 46.7-20.1 9.5-40.1 17.2-61.3 23.9-23 7.2-51.7 14.2-68.9 32.6 11.8 34.7 30.1 66.7 42.9 101z"/>
			<path id="&lt;Path&gt;" class="s1" d="m2280.6 822c-1.1 57.1-14.2 115.9-29.5 170.8-10.8 38.4-23 91.1-57.4 115.8-9.2 6.7-18.1-8.6-8.9-15.2 32.4-23.4 43.4-81.6 52.6-118.1 12.6-49.7 24.5-101.9 25.5-153.3 0.3-11.4 18-11.4 17.7 0z"/>
			<path id="&lt;Path&gt;" class="s1" d="m2199.2 1046.9c-2.4 3-6.6-1.2-4.2-4.1 16-19.3 17.2-46 22.7-69.5 7.2-31.2 19.2-58.6 19.7-91.5 0.1-3.8 5.9-3.8 5.9 0-0.5 33-11.9 61.7-19.9 93.1-6.4 24.8-7.2 51.5-24.2 72z"/>
			<path id="&lt;Path&gt;" class="s1" d="m80.2 938.8v-481.9c0-3.8 5.9-3.8 5.9 0v481.9c0 3.8-5.9 3.8-5.9 0z"/>
			<path id="&lt;Path&gt;" class="s1" d="m490.8 394.5v617c0 3.7-5.9 3.7-5.9 0v-617c0-3.7 5.9-3.7 5.9 0z"/>
			<path id="&lt;Path&gt;" class="s1" d="m117.5 875.9v-347.7c0-3.9 5.9-3.9 5.9 0v347.7c0 3.8-5.9 3.8-5.9 0z"/>
			<path id="&lt;Path&gt;" class="s1" d="m1633.3 523.2v368.4c0 3.8-5.9 3.8-5.9 0v-368.4c0-3.8 5.9-3.8 5.9 0z"/>
			<path id="&lt;Path&gt;" class="s1" d="m507.5 370h1055c3.8 0 3.8 5.9 0 5.9h-1055c-3.8 0-3.8-5.9 0-5.9z"/>
			<path id="&lt;Path&gt;" class="s1" d="m498.7 1044.9h1057.9c3.8 0 3.8 5.8 0 5.8h-1057.9c-3.8 0-3.8-5.8 0-5.8z"/>
			<path id="&lt;Path&gt;" class="s1" d="m1969.2 1227.6c36-2.7 63.9-28.7 86.9-54.3 22.9-25.5 44.4-53.9 63.6-82.3 23.2-34.4 38.7-73.2 49.4-113.1 12-44.5 20.1-90.9 24.9-136.7 9.9-94.2 3.6-191-11.2-284.4-14-88.6-38.7-183-88.6-258.6-16.2-24.4-34.9-45-57.6-63.5-20.6-16.8-42.9-31.5-63.6-48.3-2.9-2.4 1.3-6.5 4.2-4.2 32.7 26.4 68.5 48.7 97.3 79.6 26.8 28.9 47.2 67.2 61.8 103.4 34.1 84.1 52.2 172.8 61.4 262.7 9.4 91.7 9.7 184.4-6.6 275.3-7.3 41.2-16.1 82.6-30.9 121.8-13.4 35.5-33 67-56 97-33.9 44.3-73.5 106.9-135 111.4-3.8 0.3-3.7-5.5 0-5.8z"/>
			<path id="&lt;Compound Path&gt;" fill-rule="evenodd" class="s1" d="m6.4 525.2c4.6-52.9 5.6-107.1 29.8-155.6 1.2-2.4 3-3.7 4.9-4.2 4.5-22.2 9.5-44.2 14.9-66.2 0.1-0.2 0.2-0.3 0.3-0.6 3.1-9.5 5-19 5.8-28.9 0.6-0.3 1.1-0.7 1.7-1 5.3-12.6 7.3-27.1 16.2-37.8 16.3-19.6 33-34 54.6-47.7q5.1-3.3 10.4-6.4c0-0.1 0-0.2 0-0.3 0.6-7.8 8.8-10.3 13.9-7.3 38.5-20.3 79.5-33.4 119.9-50.2-0.1-0.5-0.2-1-0.2-1.5v-12.8c-3.1-0.5-3.1-5.2 0-5.7v-8h5.6c-3.1-5.2-0.7-13.7 7.2-13.7h554c3.1 0 5.4 1.3 6.7 3.2 6.7 2.9 10.5 10.3 11.6 17.6 1.6 3.5 2.3 7.3 2.4 11.6 0 1.1-0.3 2-0.5 2.9h922.8c-7.9-33.8-23.3-103.2 9-111.6 40-10.3 70.7 60 85.7 86.5 2 3.6 7.5 13.6 13.1 25.4 0.7-0.2 1.5-0.3 2.3-0.3h109.7c-0.7-2.4-0.6-5.3 0.5-7.4 1.7-3.2 3.5-6.3 5.5-9.4 0.6-0.1 1-0.1 1.6-0.2 1.5-0.4 3-0.8 4.4-1.2 6.2-1.6 12.2-3.3 18.3-5.2q0.4 0 0.8-0.2 2.7-0.7 5.4-1.4c0 0.5-0.1 1-0.3 1.4h475.5c3.2 3.1 5.9 7 8.9 10.2 1.7 1.8 3.7 2.6 5.6 2.6 2.3 4.1 5.5 8.8 7.3 12.1 3.6 6.4 7.3 13.4 9 20.7 17.5 1.3 35 2.7 52.5 4.5 0.1-0.1 0.1-0.2 0.3-0.3 49.2-43.4 137.5 44.4 170.4 74.9 60.1 55.9 117.1 136.5 129.2 220.2 3.8 4 6.2 8.4 6.8 14 0.5 3.9-1.3 7-4 9.1q5.3 2 10.9 3.5 0 0.3 0 0.6c0.3 3.7 1.5 6.6 4 9.4 0.1 0.2 0.2 0.3 0.3 0.3v493.9c-0.1 0.1-0.2 0.1-0.3 0.2-0.2 0.1-0.3 0.3-0.4 0.4-5 1.1-9.8 2.6-14.5 4.4 2.7 2.2 4.5 5.3 4 9.2-0.6 5.5-3 10-6.8 14-12.1 83.8-69.1 164.2-129.2 220.2-32.9 30.5-121.2 118.2-170.4 74.9-0.2-0.1-0.2-0.2-0.3-0.3-17.5 1.8-35 3.2-52.5 4.5-1.7 7.3-5.4 14.3-9 20.7-2.9 5.3-9.3 14-9.9 18.3-0.7 4.9-4.2 6.7-7.8 6.4-0.3 0-0.5 0.1-0.7 0.1h-473.1c-1.2-0.6-2.6-1.1-4.4-1.1h-26.5c-0.3 0-0.6 0.1-0.9 0.2-3.8-4.8-7-10.1-9.7-15.2-1.1-2.2-1.2-5-0.5-7.4h-109.7c-0.8 0-1.6-0.2-2.3-0.3-5.6 11.8-11.1 21.7-13.1 25.4-15 26.5-45.7 96.8-85.7 86.4-32.3-8.3-16.9-77.7-9-111.5h-922.8c0.2 0.9 0.5 1.8 0.5 2.9-0.1 7-1.7 12.9-6.6 18-1.6 1.8-3.8 2.5-6 2.6 1.7 5.1-1 11.8-8.1 11.8h-554c-5.3 0-8-3.7-8.5-7.7-1-0.5-1.9-1.4-2.2-2.9-0.3-1.4 0.4-2.5 1.3-3.1h-3.4v-14.5c-12.5-4.2-24-10.4-35.6-16.6-13.1-7-27.4-11.6-41.1-17.1q-1.4-0.6-2.8-1.1h-1c-1.2 0-2-0.6-2.4-1.4-15.5-6.2-31.8-13.7-42.8-26.4-3.8-0.5-7.5-3.3-7.9-8.4 0-0.1 0-0.3 0-0.4q-5.3-3-10.4-6.3c-21.6-13.8-38.3-28.1-54.6-47.7-8.9-10.8-10.9-25.2-16.2-37.8-0.4-0.2-0.8-0.5-1.2-0.7-1.8-10-3.8-19.9-4-30-0.1-3.7-1.9-6.1-4.4-7.4-4.7-19.5-9.2-39-13.1-58.6-1.9-0.5-3.7-1.8-4.9-4.2-24.2-48.5-25.2-102.7-29.8-155.6-5.4-63.4-7.5-125-5-188.2-2.5-63.3-0.4-124.8 5-188.2zm47.9-135c0.8-1.9 1.7-3.6 2.7-5.3-0.3-0.5-0.4-1-0.4-1.7 0.2-2.6 0.4-5.4 0.6-8.1-0.9 5-2 10-2.9 15.1zm12.8-46.2c-0.3-2.3-0.5-4.9-0.7-7.6-1.9 13.3-2.5 26.9-3.3 39.1 1.7-2.1 3.6-4.1 5.5-6-0.2-0.5-0.3-1.1-0.1-1.8 2.4-7.6-0.4-16-1.4-23.7zm94.6 894.3c0.2 0.4 0.4 0.9 0.6 1.4 30.1 17 62.5 28.7 94.9 40.9h895.2c-13.9-50.3-19.6-102.5-25.8-154.3-1.2-5.8-2.7-11.5-4.3-17.1-0.8-0.4-1.4-0.9-1.7-1.7-2.6-6.6-6.2-11-10.8-14.2-13.1-0.6-26.1-2.9-37.2-7.3-3.5-1.4-2-7.1 1.5-5.7 4.5 1.8 9.3 3.1 14.2 4.2-0.7-1.9 0.8-4.7 3.5-4.2 7.1 1.3 14.2 2 21.3 2.4 0.6-0.2 1.1-0.4 1.7-0.5 0.7-2 3.6-2.5 4.9-1.1 12.9-2.4 25.8-1.1 39.1-0.9 2.1 0.1 3 1.6 2.8 3.2 124-38.1 258.8-16.7 384.5 1.1 71.3 10.1 145.9 24.8 208.2 62.9 24.6 15.1 49.4 31.1 69.9 51.5 9.3 9.1 21.5 25.8 33.7 34.6q2.7 0.1 5.2 0.1c4.8 0 8.9 4 8.9 8.9-0.1 10.5-0.8 19.8-4.3 29.8-3.7 10.7-20.8 6.1-17-4.7 1.9-5.5 2.7-10.9 3.2-16.4-0.2-0.1-0.4-0.3-0.6-0.4-7-0.4-14.9-0.8-21.7 0.6-8.2 9.3-14.4 20.7-19.4 32.5-1.2 7.3-2.3 14.5-3.7 21.6-3.8 19.3-11.8 45.4-12.8 68.9 12-37.7 14.2-78.4 35.4-113 2-3.2 7.1-0.2 5.1 3-23.6 38.4-23.7 84.7-40 125.8 0.6 4.9 1.7 9.7 3.3 14 9 23 61-60.9 66.2-70.1 5.4-9.6 9.7-19.5 14.2-29.5 3.8-8.4 7.8-16.7 10.7-25.4 2.7-8 0.3-8.1 7.8-8.3-11.3 0.3-11.3-17.3 0.1-17.6 17.8-0.5 13.8 21.2 5.3 43.2h85.2c-14.1-8.2-25.8-20.5-35.3-37.8-5.5-10 9.8-18.9 15.3-8.9 27.4 49.9 73.1 41.2 121.8 42.2 57.2 1.2 114 7.9 171.3 3.7 115.1-8.5 231.2-14.1 346-26.2 0.1-0.8 0.2-1.6 0.4-2.5h-600c-11.4 0-11.4-17.7 0-17.7h609.1q0.1 0 0.2 0.1c3.4-4.6 7-8.7 9.7-11.6 4.8-5 9.6-9.8 14.6-14.6-17.4 4.7-35.2 5.6-53.2 6.2-24.4 0.9-48.4 4.3-72.9 2.2-23.6-2.1-46.6 1.2-70.2 1.7-26.2 0.6-52.2 0.8-78.3 2.8-103.5 8-206.4-9.8-309.9-10-3.8 0-3.8-5.9 0-5.9 99.6 0.1 199 17.8 298.5 10.9 24.5-1.7 48.8-3.5 73.4-3.6 25.1 0 50.4-4 75.3-2.7 11.3 0.5 22.4 2 33.7 2.1 11.8 0.2 23.7-2.2 35.4-2.8 24.4-1.2 48.8-0.6 72.4-8.2 1.1-0.4 2.1 0 2.7 0.7 19.4-18.4 39.1-36.2 53.6-59.4 15.7-25.3 28.1-52.8 34.3-82 3.6-17.3 4.3-35.3 10.4-52-6.2 3.8-12.5 7.4-18.9 10.9-0.8 31.1-4.4 64.3-20.7 91-5.9 9.7-21.2 0.8-15.3-8.9 13.2-21.5 16.9-47.7 18-73.1-49.1 23.1-103.3 36.8-154.5 52.8-76.9 24-153.4 44.7-232.6 60.1-79.4 15.4-159.1 29-237.8 47.8-3.9 1-6.9-0.6-8.8-3.1-10.9 9.7-22.8 18.1-36.2 24.7-1.1 0.5-2.1 0.7-3.1 0.9-9.4 6.3-18.9 12.8-28.4 19.9-9.1 6.8-17.9-8.6-8.9-15.3 24.3-18.2 49.8-33.1 73-51 19.8-19.5 35.8-43 51.8-65.8 14.6-21 27.3-43.1 38.6-66q8.1-20.7 14.8-42.3c29.3-93.9 44.4-192 47.4-290.3 0.1-0.6 0.1-1.4 0.1-2.1 0-0.7 0-1.4-0.1-2.2-3-98.3-18.1-196.4-47.4-290.3q-6.7-21.5-14.8-42.2c-11.3-22.9-24-45.1-38.6-66-16-22.8-32-46.4-51.8-65.8-23.2-18-48.7-32.8-73-51-9-6.8-0.2-22.1 8.9-15.3 7.7 5.7 15.4 11 23 16.3 0.5-0.5 1.2-0.8 2-0.8 12 0.5 22.3-4.9 34-5.9 13.5-1.2 27.1-1.5 40.7-2.5 27.6-1.9 54.9-3.7 82.7-4.2 59.8-1 119.4-2.1 179.2-1 57.4 1 114.6 0.6 171.5 8.6 34.3 4.8 70.1 8.7 104.4 16.7-6.5-6.1-12.8-12.3-19-18.8-2.7-3-6.3-7.1-9.7-11.6q-0.1 0-0.2 0h-609.1c-11.4 0-11.4-17.6 0-17.6h600c-0.2-0.9-0.3-1.7-0.4-2.6-114.8-12-230.9-17.6-346-26.1-57.3-4.2-114.1 2.5-171.3 3.7-48.7 1-94.4-7.7-121.8 42.2-5.5 10-20.8 1.1-15.3-8.9 9.5-17.3 21.2-29.6 35.3-37.8h-85.2c8.5 22 12.5 43.7-5.3 43.2-11.4-0.3-11.4-18 0-17.7-7.6-0.2-5.2-0.2-7.9-8.2-2.9-8.7-6.9-17.1-10.7-25.4-4.5-10-8.8-20-14.2-29.5-5-8.9-53.6-87.3-65-72.2 0.3 0.5 0.5 1 0.5 1.7 0 15.1 4.6 29.3 6.3 44.3 2 17.2 1.9 34.7 6.8 51.5 4 13.7 20.5 39.2 10.1 53.1-0.4 0.6-1 0.9-1.6 1.1 7.8 4.9 20.2 4.4 30.5 3.7 0.2-0.1 0.4-0.2 0.6-0.3-0.5-5.6-1.3-10.9-3.2-16.4-3.8-10.8 13.3-15.4 17-4.7 3.5 9.9 4.2 19.3 4.3 29.8 0 4.9-4.1 8.8-8.9 8.9q-2.5 0-5.2 0.1c-12.2 8.8-24.4 25.5-33.7 34.6-20.5 20.3-45.3 36.4-69.9 51.4-62.3 38.2-136.9 52.9-208.2 62.9-127.1 18.1-263.6 39.8-388.7 0-4.8-1.6-6.6-5.9-6-9.8-12.8-28.1 6.6-64.5 19.8-88.8 10.9-20.1 28.4-48.6 51-61.5 0.8-3.5 3.6-6.6 8.3-6.6h3c3.9-2.1 7.9-3.6 12.2-4.2 0.5-4 3.2-7.6 8.4-7.6h543c-2.8-11-3.4-23.4-4.9-33.4h-601v3.9c0 2.3-2.2 3.2-3.9 2.7-2.9 15.8-9.1 30.6-16.3 45-2.8 9.5-6 18.8-9.4 28.1-1 4.4-2 8.9-2.9 13.4-0.3 1.6-1.6 2.2-2.8 2.1-3.4 9.1-6.8 18.2-10 27.4 0.8 0.7 1.3 1.7 1 2.9-3.1 11.9-8.4 22.9-15 33.1-0.2 0.3-0.3 0.4-0.5 0.5-3 7.8-6 15.6-8.7 23.5-0.6 2.2-1.3 4.5-2.1 6.7-0.4 1.4-0.7 2.7-1.1 4.1 0.7 0.6 1.2 1.6 0.9 2.9-0.7 2.7-1.6 4.6-3.3 6.7 0.8 1.5 0.4 3.7-1.7 4.2q-0.1 0-0.2 0c-0.3 0.5-0.6 1-0.9 1.5 0.4 0.4 1 0.9 1.5 1.5h19.4c3.8 0 3.8 5.9 0 5.9h-19.9c-0.6 0.2-1.3 0.2-2 0h-37c-3.8 0-3.8-5.9 0-5.9h11.7c0-0.5 0.1-1 0.5-1.4 2.1-3.3 4.5-5.9 8-7.4 1.4-1.7 2.7-3.5 4.2-5 1.1-1.2 2.9-1.1 4.1-0.2 6.3-30.1 22.5-58.4 33.4-87.2q1.6-5.7 3-11.6c3.2-12.4 7.8-24.5 12.3-36.5q1.5-5 3.1-10c-2.3 0.5-4.8-1.7-3.3-4.2 2-3.3 3.9-6.6 5.8-9.9 2.1-3.9 4-8 5.9-12 1.7-8.1 2.8-16.3 2.8-24.8h-857.4c-1.3 2.3-3.7 3.9-7.2 3.9-3.3 0-5.6-1.5-7-3.6-44.7 19.3-91.6 32.5-133.9 56.5-0.2 0.5-0.4 1-0.6 1.4-5 59.4-15.2 118.6-34.7 175-1.2 3.6-4.4 6.7-8.5 6.5-14.6-0.7-26.2 2.8-34.8 9.5 0.3 1.8 0.2 3.7-0.8 5.8-4 8.3-7.5 16.9-10.6 25.7v571.2q0 2.7 0 5.3v1.7c0 0.1 0 0.1 0.1 0.1 1.1 27.2 13 51.4 38.9 64.2q-0.3 1.6-1 3.2c2.6 0.1 5.3 0.2 8.2 0.1 0.2 0 0.3 0 0.5 0 0.4 0.2 0.7 0.4 1.1 0.5 0.8 0.3 1.6 0.4 2.3 0.5 2.2 1.2 3.8 3.2 4.6 5.5 19.5 56.4 29.7 115.6 34.7 175zm1736.8-1082.5q0 0 0 0 0 0 0 0zm0 1115.1q0 0-0.1 0 0.1 0 0.1 0zm-1802.1-1008.1c0.5 0.4 0.8 0.8 1 1.3q0.7 0.1 1.4 0.1c-1-10.4 1.6-19.8 4.8-29.4-7.3 12.1-12.8 23.8-7.2 28zm-3.6 18.5c-6.5 5-11.5 11.2-15.4 18.2-2.9 8.7-4.6 17.8-4.6 26.8 0 9.7 0.3 18.9 1.8 28.6 0.4 3.1 0.7 6.2 0.5 9.2 8.9-6.3 19.8-10.4 32.6-11.4 1.9-7.4 2-16.3 3.5-23.3 2.7-11.8 16.5-29.9 9.2-41.9-0.6-1-0.5-1.8-0.2-2.6-5.4-1.2-10.9-2.1-16.4-2.7-3.3-0.4-7.1-0.7-11-0.9zm23.2 58.5q3.7-12 6.8-24.2c-1.1 2.7-2.2 5.3-3.1 7.7-2 5.2-2.9 10.8-3.7 16.5zm20.6-134.8c-0.3-0.7-0.3-1.2-0.2-1.8-7.9 5.3-15.5 10.9-22.5 17 0.2 0.5 0.3 1.1 0.1 1.7-4.2 14.3-11.2 27.6-9.3 42.6 5.5 0.3 12 0.8 18.1 2.1 5.8-8.6 7.2-19.6 9.1-29.5 1.8-9 8.9-23.5 4.7-32.1zm1.7 30.4c-2.6 11.2-3.8 22.8-9.6 32.7 1.5 0.5 3 1.1 4.4 1.8 2.4-12.6 4.4-25.4 6.2-38.2-0.4 1.2-0.7 2.5-1 3.7zm694.4-140.5h-536.4v4h536.4zm0 9.8h-536.4v7.9h528.9c0.3-3.9 2.8-7.3 7.5-7.8zm963.7-69.5c-3.8 27.1 7.3 61.9 12.1 86 2.7 13.6 4.3 27.6 7.4 41.1 0.6 2.6 1.7 4.7 3.1 6.4 0.1-0.2 0.2-0.4 0.3-0.7 5.6-7.5-0.9-21-3.6-28.7-3.5-10.1-7.4-19.8-9.5-30.3-2.8-13.9-3.2-28.4-4.6-42.6-1.1-10.9-3.7-20.8-5.2-31.2zm9.4 146.1h-543.2c-0.7 4.8-4.8 9.1-10.9 7.6q-1-0.3-2.2-0.3c-1.3 2.3-3.7 4.2-7.2 4.5-2.8 0.2-5.6 1-8.2 2.1-4.1 3-7.9 6.4-10.9 8.5q-1.7 1.2-3.4 1.4c-12.9 12.2-23.4 30.7-30.1 41.8-11.1 18.1-33.5 56.2-22.3 78.3 0.3 0.5 0.5 1.1 0.7 1.6 126.3 38.1 266 14.6 393.6-4.6 70.8-10.7 139.8-29.6 200.4-68.7 23.3-15 43.4-32.2 63.1-51.4 2.8-2.8 5.7-5.8 8.7-9-10-0.8-19.5-3.4-27-10.4-0.4-0.4-0.7-1-1.1-1.4zm228-74.6q0.7 0.6 1.2 1.3v-1.3zm476.7 22.7q-0.1 0.5-0.2 0.8c-0.3-2.6-0.4-5.3-0.5-8q-0.3-7.8-0.2-15.5h-456.9v9.5c18-0.1 36.1 1.2 54.1 0.3 33.3-1.7 66.5-4 99.8-4.5 67.6-1 135.1 9.5 202.5 13.7 33.8 2.1 67.7 3.8 101.5 6q-0.1-0.6-0.2-1.3c0-0.2 0.1-0.5 0.1-1zm17.1-4.9q0.1 0.9 0.1 1.8c0.3 0.9 0.5 1.9 0.5 2.9q0 1.9-0.5 3.6 1.4 0.1 2.7 0.2c0.1-0.8 0.3-1.6 0.5-2.4-1-2.1-2.1-4.1-3.3-6.1zm105.7 20.5c-1.4 0-2.7 0.1-4 0.3 2.1 3.8 1.7 8.7-3.3 11.2-0.2 0.1-0.1 0.4-0.1 0.7 1 1.4 2.1 2.8 3.2 4.2 0.3-2.2 0.8-4.4 1.5-6.5 0.7-2.1 1.9-5.6 3.8-8.2q-0.6-0.8-1.1-1.7zm19.9 16.1c-0.1-0.1-0.5-1.8-0.8-2.8-0.1-0.3-0.3-0.8-0.4-0.9-0.4-0.8-0.9-1.6-1.5-2.3 1.4 2-3.2-2.7-1.5-1.5-3.4-2.5-5.4-3.1-9.6-3.9-1.4 1.7-2.7 5.6-3.1 6.8-1.5 3.9-2.5 8.9-0.2 12.7 2.6 2.2 5.2 3.4 8 4.1 0.1 0 0.1 0 0.2 0 0.1 0 0.1 0 0.2 0.1 0.5 0 1.1-0.1 1.7-0.1 0.3 0 0.7-0.1 0.9-0.1q0.3-0.1 0.6-0.2 0 0 0 0c0.6-0.3 1.1-0.6 1.6-0.9 0 0 0 0 0.1-0.1 0.1-0.1 0.2-0.2 0.4-0.4q0.6-0.6 1.2-1.2c0.1-0.2 0.2-0.3 0.4-0.7q0.5-0.7 0.9-1.6 0-0.1 0-0.1 0.1-0.2 0.2-0.6 0.3-0.9 0.5-1.8 0.2-0.5 0.2-0.7c0 0 0 0 0-0.1 0.2-1.2 0.1-2.5 0-3.7zm-2.7-6.1q0 0.1 0 0.1 0 0 0-0.1zm-447 272.1c32.8 91.6 43.6 189.3 40 286.2 3.6 96.9-7.2 194.7-40 286.2-6.7 18.8-14.6 37.2-23.5 55-14.7 38-33.1 74.6-60 105.6-7.3 8.4-15 15.9-23 22.9 137.5-31.6 279.2-47.1 413.6-91.1 66.6-21.9 137.1-37.9 200.3-69 0-0.2 0-0.4 0-0.6 0-0.4 0.2-0.8 0.2-1.2 4-2 7.8-4.4 11.6-6.8q1.4 0.4 2.6 1.2c34.2-19.1 69.9-48.5 87.8-84.8v-434.8c-17.9-36.2-53.6-65.7-87.8-84.7-0.4 0.2-0.9 0.4-1.3 0.6q-0.7-0.3-1.4-0.6c-0.5-0.5-1-1-1.5-1.5q-0.9-0.7-1.7-1.4-0.1 0-0.1 0c-0.3-0.3-1.3-1-1.9-1.5-0.7-0.6-1.5-1.2-2.2-1.9-1.9-1.8-4.5-2.6-7-2.4-62.5-30.3-131.9-46.2-197.6-67.7-134.4-44-276.1-59.6-413.6-91.1 8 6.9 15.7 14.4 23 22.8 26.9 31.1 45.3 67.7 60 105.6 8.9 17.9 16.8 36.2 23.5 55zm672.1 2.6c0.2 0.9 0.4 1.8 0.6 2.7q0.2-0.2 0.5-0.2-0.5-1.3-1.1-2.5zm-34.8-80.4c-3.3-9-7.6-20-12-28-2.4-0.3-4.8-0.4-7.1-0.5-9.5-0.5-19 0.3-28.3 1-14.9 1.2-30.7 2.9-45 7.6 5.3 21.3 8.3 43 14.1 64.7 8 29.9 42.4 27.4 67.8 36.7 15.2 0 28.6 4.8 41.6 10.7-4.5-31.5-20.7-59.4-34.3-87.8-1.3-2.5 1.2-4.7 3.2-4.4zm31.2 111c-7.3-3.5-14.8-6.8-22.5-8.9 0.6 1.1 0.9 2.4 0.9 4v3.9c7.4-0.2 14.6 0.5 21.6 2zm-39.3 511v-17.8c-7.6 12-19.8 23-31.5 32.7q0.2-0.1 0.4-0.1c4.7-1.1 9.3-2.9 13.7-4.5 1.8-0.7 3.6-1.4 5.5-2.1 0.7-0.5 1.6-1 2.7-1.2 3.3-1.4 6.5-2.9 9.6-4.7-0.2-0.7-0.4-1.5-0.4-2.3zm-13.2-11.8c2.2-2.4 4.3-4.9 6.2-7.5-1.4 1.4-2.8 2.7-4.1 4.1-0.7 1.1-1.4 2.2-2.1 3.4zm13.2-92.3v-307.7c-0.5 0.7-1.2 1.3-1.9 1.8v304.1c0.7 0.5 1.4 1.1 1.9 1.8zm39.3-387.8c-7-1.7-14.1-2.6-21.6-2.4v472.7c7.5 0.2 14.6-0.8 21.6-2.5zm-65.2 491.9c-0.9 1.1-1.7 2.2-2.7 3.3 1.2-1.1 2.5-2.2 3.7-3.3q-0.5 0-1 0zm0.2-515.9c1.9 0.1 3.8 0.9 5.5 2.7 4.5 5 8.2 10.6 11.3 16.5 3.7 0.7 7 3.4 7 8.3v9.1c0.2 0.9 0.5 1.7 0.7 2.6 0.4 0.9 0.9 1.8 1.2 2.7v-41.9c0-1.3 0.3-2.4 0.7-3.3q-2.4-2.1-5-3.6c-0.9 0-1.7 0-2.6 0-3.8 0.2-6.3-1.7-7.6-4.3-8.5-2.5-17.8-3.5-26.5-5.6 5.4 5.3 10.5 10.9 15.3 16.8zm65 510c-7 1.5-14.2 2.2-21.6 2v3.9c0 1.6-0.3 2.9-0.9 4 7.7-2.2 15.2-5.4 22.5-8.9zm0 21.6v-1.9c-13 5.9-26.5 10.7-41.7 10.8-6.5 2.4-13.6 4-20.7 5.6 0.9 0.8 1.5 2.1 0.6 3.5-9.4 16-31.7 20.1-36.5 39.1-0.9 3.7-6.6 2.1-5.7-1.5 5.1-20.3 26.9-23.9 36.8-40.1-18.9 4.3-36.8 9.6-42.3 30.1-5.8 21.7-8.8 43.4-14.1 64.6 14.3 4.8 30.1 6.5 45 7.7 7.7 0.6 15.5 1.1 23.3 1.1 10.8-19.5 25.5-36.2 35.2-56.4 4-8.4 8.1-16.7 11.9-25.1 2.9-11 5.7-22.1 9.7-32.7-0.9-1.2-1.5-2.8-1.5-4.8zm-795.3-761c1.9-2.5 4.9-4.1 8.9-3.1 78.6 18.8 158.4 32.4 237.8 47.8 79.1 15.4 155.7 36.1 232.5 60.1 51.2 16 105.4 29.7 154.6 52.8-1.2-25.4-4.9-51.6-18-73.1-6-9.7 9.3-18.6 15.3-8.9 16.3 26.7 19.8 59.9 20.6 91.1 6.4 3.4 12.7 7 18.9 10.9-6-16.7-6.8-34.7-10.4-52.1-6.2-29.2-18.5-56.7-34.3-82-13-20.8-30.2-37.3-47.6-53.7-37.3-9.8-76.9-13.6-114.4-19.1-58.2-8.4-117.1-7.4-175.8-8.5-57.8-1.1-115.5 0-173.4 1.1-27.7 0.6-55 1.8-82.7 4.3-11.9 1-23.8 1.2-35.8 2-11 0.8-21 4.9-31.8 6.1 13.2 6.5 24.9 14.8 35.6 24.3zm580.8-38.4c0.9 0.4 1.8 0.8 2.6 1.2 0.3 0 0.7-0.1 1 0 12 2 20.2 12.9 26.1 24.4q3.5 4.6 6.8 9.4c1.6 0.6 3.1 1.2 4.7 1.9 2.3 1 1.7 3.7-0.1 4.8 5.4 8.3 10.5 16.6 15.8 24.2 0.7 1 0.7 1.9 0.2 2.6q11.7 17.4 20.8 36.3c3.2 6.7 5.7 13.4 8 20.1 19.7-6.7 42.2-8.1 62.8-9.2 1.4-0.1 3.2-0.2 5.1-0.3-7.7-14.8-20.7-27.2-31.2-39.6-13.4-16-27.6-31.3-42.3-46.1-17.5-17.6-39.3-53.3-66.9-53.6-0.2 5.4-1.7 10.9-4.6 15.5-2.3 3.6-5.3 6.4-8.8 8.4zm12.9-29.8q0.1-0.1 0.2-0.1c0.6 0 1.2 0.2 1.7 0.2-0.6-0.4-1.3-0.8-2-1.2 0.1 0.4 0.1 0.7 0.1 1.1zm107.9 84.9c-16.1-16.5-33.3-32-51.3-46.4 4.7 5.4 9.1 10.7 13.3 15.1 16.1 17.1 32.3 33.8 47.4 51.8 10.4 12.5 22.7 24.7 29.9 39.5 3.4-0.1 7.1-0.1 10.8 0.2-15.4-22.1-32.6-42.5-50.1-60.2zm65.2 83.5c-1.9 0.5-3.9 0.5-5.6-0.1 4.8 10.5 8.3 21.9 10.1 26.5 6.2 15.9 13.4 31 20.7 46.5 2.6 5.7 6.3 12.2 9.5 19 1-0.9 2.2-1.7 3.5-2.1-7.4-31-21.1-61.5-38.2-89.8zm63.5 589.6q2.1-0.6 4.3-1v-10.1c-7.2 2.1-14.4 4.1-21.6 6.4v11.9c5.4-3.4 11.9-5.7 17.3-7.2zm4.3-29.5v-5.4c-7.4 2.1-14.8 4.3-21.6 7.5v4.2c7.2-2.2 14.4-4.2 21.6-6.3zm0-23.7v-0.2c-7.1-1.1-14.4-1.2-21.6-1.3v8.3c7.1-2.6 14.4-4.6 21.6-6.8zm0-18v-19c-6.8 1.5-13.6 2.8-20.2 4.9-0.5 0.2-1 0.2-1.4 0.3v12.6c7.2 0.1 14.5 0.3 21.6 1.2zm0-48.3v-21.9c-6.2 2.3-12.4 4.5-18.1 8-1.2 0.8-2.4 1.2-3.5 1.4v12.5zm0-44.7v-28.3q-3.2-0.3-6.3-0.9c-5.1 1.4-9.9 3.8-14 7.6-0.4 0.4-0.9 0.7-1.3 1v18c7.3-0.1 15 0.2 21.6 2.6zm-20.3-54.9c4.1 3.8 8.9 6.2 14 7.6q3.1-0.6 6.3-0.9v-28.4c-6.6 2.5-14.3 2.7-21.6 2.7v18q0.7 0.4 1.3 1zm2.2-52.5c5.6 3.6 11.9 5.8 18.1 8.1v-21.9h-21.6v12.5c1.1 0.2 2.3 0.6 3.5 1.3zm-2.1-48c6.6 2.1 13.4 3.4 20.2 5v-19.1c-7.1 0.9-14.4 1.1-21.6 1.1v12.7q0.7 0.1 1.4 0.3zm20.2-32v-0.1c-7.2-2.2-14.5-4.2-21.6-6.8v8.3c7.2-0.1 14.5-0.3 21.6-1.4zm0-18.5v-5.3c-7.2-2.1-14.4-4.1-21.6-6.3v4.2c6.8 3.2 14.2 5.3 21.6 7.4zm0-23.7v-10.1c-1.4-0.3-2.9-0.6-4.3-1-5.4-1.5-11.9-3.8-17.3-7.2v11.9c7.2 2.3 14.4 4.3 21.6 6.4zm-77.5 582.3c1.9-3.8 6-4.9 9.7-3.8 17.1-28.4 30.8-58.8 38.2-89.8-1.9-0.6-3.5-1.8-4.6-3.4-2.5 7-5.3 13.8-8.4 20.6-2.8 10.6-5.9 21.3-10.6 31.3-8 17.2-20.4 31.2-31.2 46.5 1.5-0.2 3-0.3 4.5-0.6 1.2-0.3 1.9-0.6 2.4-0.8zm-135.1 147.5c28.6-19.9 55.2-42.9 79.6-67.8 17.5-17.8 34.6-38.2 50.1-60.2-7.6 0.6-15.4 0-20.7-0.3-17.8 40.8-48.4 73.8-81.1 103.3-11.5 10.5-23.9 20.3-36.9 28.8-4.9 3.2-11.9 7.9-18.8 9.4-0.1 1.7-0.2 3.3-0.6 5 11.3-6.2 21.5-13.4 28.4-18.2zm-32.4-4.3c2.3 3.5 3.7 7.7 4.3 11.9 8.5-2 19.3-10.9 24.1-14.3 10.9-7.7 21.1-16.3 30.9-25.3 30.3-27.8 59-58.7 75.9-96.6-19.3-1.1-39.9-2.8-58.2-9-2.2 6.7-4.7 13.4-7.9 20-14.8 30.7-34.4 58.8-59.7 81.8-2 1.8-11.5 11.1-21.6 21.4 4.9 1.9 9.2 5.3 12.2 10.1zm-40.3 22.6c5 2.5 5.4 7.5 3.3 11.3q1.9 0.3 4 0.3c1.1-2.3 3-4.1 5.5-4.6 4.7-0.9 6.6-1.4 10.1-4-1.4 1 3-3.5 1.6-1.5 0.5-0.7 1.1-1.5 1.5-2.3 0.1-0.2 0.3-0.6 0.4-0.9 0.3-1 0.7-2.7 0.8-2.8 0.1-1.3 0.1-2.5 0-3.8 0 0 0 0 0-0.1 0-0.1-0.1-0.3-0.2-0.6q-0.2-0.9-0.5-1.8c-0.1-0.3-0.1-0.5-0.2-0.6 0-0.1 0-0.1 0-0.2q-0.5-0.8-0.9-1.5c-0.2-0.4-0.3-0.6-0.4-0.7q-0.6-0.7-1.2-1.3c-0.2-0.2-0.3-0.3-0.5-0.4 0 0 0 0-0.1 0-0.5-0.3-0.9-0.7-1.5-0.9 0 0 0 0-0.1-0.1-0.1 0-0.3 0-0.5-0.1-0.2-0.1-0.6-0.1-0.9-0.1-0.6-0.1-1.2-0.1-1.7-0.1-0.1 0-0.2 0-0.2 0-0.1 0.1-0.1 0.1-0.2 0.1-2.8 0.6-5.5 1.9-8 4.1-4 3.6-7.2 7.6-10.2 12 0 0.3-0.1 0.6 0.1 0.6zm24.5 1.5q0 0 0 0 0 0 0 0zm-1.5 1.4q-0.1 0.1-0.1 0.1 0 0 0.1-0.1zm-118.1 23q-0.4-1.1-0.5-2.3c-0.9 0-1.8 0.1-2.7 0.2q0.5 1.6 0.5 3.5c0 1.1-0.2 2.1-0.5 3q-0.1 0.9-0.1 1.8c1.2-2 2.3-4.1 3.3-6.2zm-478.2 24h456.9q-0.2-7.8 0.2-15.6c0.1-2.6 0.2-5.3 0.5-7.9q0.1 0.2 0.2 0.8c0-0.5-0.1-0.8-0.1-1.1 0-0.4 0.1-0.8 0.2-1.2-33.9 2.1-67.7 3.9-101.6 6-67.3 4.1-134.8 14.7-202.4 13.7-33.3-0.6-66.5-2.9-99.8-4.5-18-0.9-36.1 0.3-54.1 0.2zm-17.6-1.4q-0.1 0.1-0.2 0.3h0.2zm-867.9-22.2h625c0.5-3.2 0.9-6.6 1.3-10.2-0.3 0.1-0.7 0.3-1.1 0.3h-626.3q0.7 4.9 1.1 9.9zm625.2-15.9c0.7 0 1.2 0.3 1.7 0.6 0.7-6.1 1.6-12.3 3.1-18.1h-543.1c-5.2 0-7.9-3.6-8.4-7.6-4.3-0.6-8.3-2.1-12.2-4.2h-3c-4.7 0-7.5-3.1-8.3-6.6-22.6-12.9-40.1-41.4-51-61.5-13.2-24.3-32.6-60.7-19.8-88.8-0.3-2.1 0.1-4.3 1.3-6.1-5.2 1.6-10.7 2.8-16.3 3.7-2.6 3.1-4.9 6.3-6.9 9.8 0.9 7.2 1.8 14.4 2.6 21.7 5.5 25.6 6.8 52.5 12.7 77.9 6.3 26.6 16 52.4 20.5 79.2zm13.4-35.2c0.4-0.4 0.7-0.9 1.1-1.3 7.5-7 17-9.7 27-10.5-3-3.2-5.9-6.2-8.7-8.9-19.7-19.3-39.8-36.4-63.1-51.5-60.6-39-129.6-58-200.4-68.6-127.6-19.2-267.3-42.8-393.6-4.7-0.2 0.6-0.4 1.1-0.7 1.7-11.3 22 11.2 60.2 22.2 78.3 6.8 11.1 17.3 29.5 30.2 41.7q1.7 0.3 3.4 1.5c3 2 6.8 5.4 10.9 8.4 2.3 1 4.7 1.6 7.2 1.9 5.9 5.2 13.1 8.4 20.8 10.2q0.3 0.9 0.5 1.8zm-646.4 35.2c-1.5-8.9-3.6-17.8-5.9-26.5 1.6 8.8 3.6 17.6 5.1 26.5zm-863 51.3h536.3v-4.1h-536.3zm0-10h536.1c-4.5-0.6-6.9-3.9-7.3-7.7h-528.8zm-0.2-25.7c1.4-2.1 3.7-3.6 7-3.6 3.5 0 5.9 1.6 7.3 3.9h844.7c-0.3-3.3-0.8-6.7-1.3-9.9h-881.4c8 3 15.9 6.2 23.7 9.6zm-20 14.3c1.7 1 1.8 2.8 0.9 4.1 0.5 0.2 1.1 0.3 1.6 0.5v-5.8c0-0.5 0-1 0.1-1.4-10.3-4.4-20.7-8.4-31.1-12.4 9.6 4.7 19.2 9.7 28.5 15zm-76.1-29.9h4.4q-8.8-4.6-17.5-9.5c-8.7-3.9-17.2-7.9-25.7-12.3 10.5 10.1 25 16.4 38.8 21.8zm-110.3-1032c-2.9 5-4.9 10.3-6.7 15.6 2.2-0.2 4.5-0.2 6.8-0.2-2.5-4.3-2.1-9.6-0.1-15.4zm1025.6 68c-0.7 0.3-1.5 0.4-2.2 0-1.2 4.1-2.2 8.3-3.1 12.5 0.1 0 0.2 0.1 0.3 0.2 0.3-0.1 0.5-0.2 0.8-0.3 1-3 2.1-5.9 3.2-8.9 0.4-1.2 0.7-2.4 1-3.5zm-1011.6 828c5.9-0.6 11.7-1.6 17.5-2.9 3.9-0.9 8.1-4.1 3 0.3q0 0.1 0 0.1c1.4-1.4 3.2-2.4 5.3-2.6-4.7-21.9-10.4-43.6-17.5-65-12.2-0.3-22.7-3.4-31.7-8.4-0.2 11.4-0.6 22.8 1 34.3 1.1 7.7 2.1 15.5 3.2 23.2 1 7.4 5 14.6 7.5 21.9 4.1-0.1 8.2-0.5 11.7-0.9zm-3.9 18c5.3 9.5 10.6 19.1 16.8 28.2 7.3 10.6 16.2 18.1 25.4 26.8-2.3-20.4-5.2-40.6-9-60.7-9 4.7-23.3 5-32.2 5.7q-0.5 0-1 0zm-9.7 16.3c13 21.7 32.4 36 53 49.2-0.1-1.3-0.3-2.4-0.4-3.7-0.9 0.3-1.9 0.2-2.8-0.6-7.9-7.7-17.6-14.3-24.1-23.5-8.4-11.9-15.4-24.7-22.6-37.4-3.4 0.1-6.8 0-10.2-0.2 1.9 5.5 4 11 7.1 16.2zm-11.6-34.3c2.4 0.5 4.9 0.8 7.5 0.9-2.1-6.9-4.8-13.5-7.2-20.3-2.9-8-2.7-19.6-3.8-27.9-1.6-11.7-1-23.4-0.6-35.1-8.5-6.3-15.2-14.7-19.8-24.9q-0.1 0.1-0.2 0.1c6.8 35.9 14.7 71.7 24.1 107.2zm-35.7-172.4c0 11.4 17.7 11.4 17.7 0v-546.2c0-11.4-17.7-11.4-17.7 0zm-22.2-227.5c1.7 29.9 3.9 59.6 6.5 89.4v-240.3c-2.6 29.4-4.8 58.9-6.5 88.4-0.6 10.4-1.2 20.9-1.7 31.3 0.5 10.4 1.1 20.8 1.7 31.2z"/>
			<path id="&lt;Path&gt;" class="s1" d="m2213.8 1115.6c53.5 2.6 106.6-20.1 157.3-34.1 55.7-15.5 112.3-28 168.2-42.7 47.8-12.5 93-31.6 139.3-48.6 36.9-13.4 84.7-30.8 104.4-67.7 1.8-3.3 6.9-0.4 5.1 3-18.3 34.2-59.2 51.3-93.4 64.9-47.1 18.7-94.6 37.5-143.4 51.3-59.1 16.6-119.3 29.4-178.6 45.5-51.5 13.9-104.7 36.9-158.9 34.3-3.8-0.2-3.8-6.1 0-5.9z"/>
			<path id="&lt;Path&gt;" class="s1" d="m2765 488.7c-4.3-16.9-24.4-26.7-38.6-34.1-16.9-8.9-34.8-15.7-52.4-23-49.6-20.5-98.6-37.7-151-49.9-58-13.5-115.8-26.8-173.2-42.8-27.7-7.6-56.1-11.6-83.7-19.1-17.4-4.8-37.2-13.4-55.2-14.7-3.8-0.2-3.8-6.1 0-5.9 18.1 1.3 35.8 10.4 53.5 14.3 29 6.4 58.3 11.8 87 19.7 62.8 17.5 126.1 31.4 189.4 46.7 51.8 12.6 99.9 31.8 149 51.9 17.7 7.2 35.3 14.7 51.8 24.5 12 7 25.5 16.6 29.1 30.8 1 3.7-4.7 5.2-5.7 1.6z"/>
			<path id="&lt;Path&gt;" class="s1" d="m2107.6 752c-56.5-110.9-165.1-184.1-255.9-264.6-2.9-2.5 1.3-6.7 4.1-4.1 91.3 80.8 200.1 154.3 256.9 265.8 1.7 3.3-3.4 6.3-5.1 2.9z"/>
			<path id="&lt;Path&gt;" class="s1" d="m1749.8 474.4c130 138.5 273.4 265 389.4 416.1 2.3 3-2.8 6-5.1 3-115.7-150.7-258.8-276.8-388.5-414.9-2.6-2.8 1.5-7 4.2-4.2z"/>
			<path id="&lt;Path&gt;" class="s1" d="m1820.5 660.1c76.9 85.1 166.6 158 238.7 247.5 2.3 2.9-1.8 7.1-4.2 4.2-72.1-89.5-161.8-162.5-238.7-247.6-2.5-2.8 1.6-7 4.2-4.1z"/>
			<path id="&lt;Path&gt;" class="s1" d="m1873.5 819.2c34.3 33.7 78.3 60.9 97.7 106.7 1.5 3.4-3.6 6.5-5.1 2.9-19.1-45.2-62.9-72.1-96.7-105.4-2.8-2.7 1.4-6.9 4.1-4.2z"/>
			<path id="&lt;Path&gt;" class="s1" d="m2028 557.6c-9.8-18.4-29.2-29.4-43.7-43.7-2.7-2.6 1.4-6.8 4.2-4.1 14.9 14.6 34.5 25.8 44.6 44.8 1.8 3.3-3.3 6.3-5.1 3z"/>
			<path id="&lt;Path&gt;" class="s1" d="m233.8 513.9c-2.7-2.6 1.5-6.8 4.2-4.1 69.4 69.2 142.7 134.7 203.3 212.1 2.4 3-1.8 7.2-4.1 4.2-60.6-77.4-134-142.9-203.4-212.2z"/>
			<path id="&lt;Path&gt;" class="s1" d="m176.1 518.6c49 39.2 97.2 79.5 141 124.4 40.1 41.2 78.1 87.7 98.5 142.1 1.3 3.6-4.4 5.1-5.7 1.6-20.6-55.1-59.8-101.4-100.4-143-42.7-43.7-89.9-82.8-137.5-120.9-3-2.4 1.2-6.5 4.1-4.2z"/>
			<path id="&lt;Path&gt;" class="s1" d="m202.6 633.6c73.2 72.8 161.1 139.3 212.7 230.4 1.9 3.3-3.2 6.3-5.1 3-51.3-90.7-139-156.8-211.7-229.3-2.7-2.7 1.5-6.8 4.1-4.1z"/>
			<path id="&lt;Path&gt;" class="s1" d="m255.1 801.1c20.6 11.1 34.9 33.7 45.2 54.1 1.8 3.3-3.3 6.3-5 2.9-10-19.5-23.4-41.2-43.2-51.9-3.3-1.9-0.3-6.9 3-5.1z"/>
			<path id="&lt;Path&gt;" class="s1" d="m384.7 523.2c-17.7-8.8-35.5-18.2-45.2-36.4-1.8-3.3 3.3-6.3 5-2.9 9.3 17.2 26.4 25.9 43.2 34.2 3.4 1.8 0.4 6.8-3 5.1z"/>
			<path id="&lt;Path&gt;" class="s1" d="m820.9 1128.2c31.1 21.6 53.8 53.2 80.1 80 2.7 2.7-1.5 6.9-4.1 4.2-26-26.4-48.3-57.9-79-79.2-3.1-2.1-0.1-7.2 3-5z"/>
			<path id="&lt;Path&gt;" class="s1" d="m741.3 1128.2c25 16.6 52.4 34.1 63.3 63.6 1.3 3.6-4.4 5.1-5.7 1.6-10.3-27.9-37-44.5-60.5-60.2-3.2-2.1-0.2-7.2 2.9-5z"/>
			<path id="&lt;Path&gt;" class="s1" d="m896.9 301.8c-25.9-25.6-55.5-45.1-87.8-61.4-3.4-1.8-0.4-6.9 3-5.1 32.8 16.6 62.7 36.4 88.9 62.3 2.8 2.7-1.4 6.8-4.1 4.2z"/>
			<path id="&lt;Path&gt;" class="s1" d="m808 310c-18-25.9-43.7-43.5-69.6-60.8-3.2-2.1-0.2-7.2 2.9-5.1 26.8 17.9 53.2 36.1 71.8 62.9 2.2 3.2-2.9 6.1-5.1 3z"/>
			<path id="&lt;Path&gt;" class="s1" d="m1498.1 301.8c-28.6-28.1-61-52.1-96.7-70.3-3.4-1.7-0.4-6.8 3-5.1 36.1 18.5 69 42.8 97.8 71.2 2.7 2.7-1.4 6.8-4.1 4.2z"/>
			<path id="&lt;Path&gt;" class="s1" d="m1436.2 310.6c-24.9-24.9-49.8-50.3-79-70.2-3.1-2.2-0.2-7.3 3-5.1 29.6 20.2 54.9 45.9 80.1 71.1 2.7 2.7-1.5 6.9-4.1 4.2z"/>
			<path id="&lt;Path&gt;" class="s1" d="m1502.2 1119.8c24.6 23.5 59.9 34.3 80 62.5 2.2 3.1-2.9 6-5 2.9-19.7-27.4-55.1-38.2-79.1-61.2-2.8-2.7 1.4-6.9 4.1-4.2z"/>
			<path id="&lt;Path&gt;" class="s1" d="m1465.6 1154.4c34 9.4 53.7 35.1 72.4 63.2 2.1 3.2-3 6.1-5 3-17.9-26.8-36.5-51.5-69-60.5-3.7-1-2.1-6.7 1.6-5.7z"/>
		</g>
	</g>
</svg>