<svg version="1.2" xmlns="http://www.w3.org/2000/svg" viewBox="0 0 50 79" width="50" height="79">
	<title>New Project</title>
	<style>
		.s0 { fill: #000000 } 
		.s1 { fill: #ffffff } 
	</style>
	<g id="&lt;Group&gt;">
		<g id="&lt;Group&gt;">
			<path id="&lt;Compound Path&gt;" fill-rule="evenodd" class="s0" d="m49.8 6.2v0.5l-2.2 17.2-0.5 4-0.3 2.8-0.1 0.5h-0.4q0 0-0.5 0.1c-0.8 0.1-2.4 0.2-4.5 0.4q-0.4 0-0.8 0.1c-2.1 0.1-4.6 0.3-7.2 0.4q-0.8 0-1.6 0-0.8 0.1-1.7 0.1-0.8 0-1.6 0-1.7 0.1-3.3 0.1-1.6 0-3.3-0.1-0.8 0-1.7 0-0.8 0-1.6-0.1c-0.5 0-1.1 0-1.6 0-2.1-0.1-4.2-0.2-6-0.4q-0.6 0-1.2-0.1-0.4 0-0.7 0-0.5-0.1-1-0.1-0.3 0-0.6 0-0.8-0.1-1.4-0.2-1.1-0.1-1.6-0.1-0.5-0.1-0.5-0.1h-0.5v-0.5-0.1l-0.4-2.9-0.5-4v-0.1l-2.1-16.9-0.1-0.5v-0.5l0.5-0.1q0 0 0.6-0.1c2.7-0.5 13.7-2.5 23.7-2.5h0.4c9.8 0.1 20.6 2 23.3 2.5q0.6 0.1 0.6 0.1l0.4 0.1zm-3.3 17.9l2.2-17.5c-2.4-0.5-13.6-2.6-23.6-2.6h-0.4c-10 0.1-20.8 2.1-23.2 2.5l2.1 17.4v0.1l0.8 6.2q0.2 0 0.5 0 0.1 0 0.2 0.1h0.1q0.2 0 0.4 0 0.2 0 0.5 0 0.3 0.1 0.6 0.1 0.6 0 1.3 0.1 0.3 0 0.8 0.1 0 0 0.2 0 0.1 0 0.2 0h0.2q0.1 0 0.2 0 0.2 0 0.5 0.1h0.3q0.1 0 0.2 0 0.2 0 0.3 0 0.7 0.1 1.4 0.1 0.6 0.1 1.2 0.1h0.2q0.5 0 1 0.1 0.3 0 0.6 0 0.7 0 1.5 0.1 0.4 0 0.8 0 0.4 0 0.8 0 1.7 0.1 3.4 0.1h0.3q0.5 0.1 1.1 0.1 1 0 1.9 0 1.5 0 3-0.1 0.6 0 1.2 0 1.6 0 3.2-0.1 1.9-0.1 3.6-0.2 1.7-0.1 3.2-0.2h0.3q0.2 0 0.4 0 0.2 0 0.4-0.1 0.2 0 0.5 0 0.1 0 0.3 0 0 0 0.1 0 0 0 0 0 0 0 0 0 1.2-0.1 2.2-0.2l2.8-22.1c-4-0.7-13-2.1-21.2-2.1h-0.9c-7.9 0.1-16.5 1.4-20.3 2.1l2.5 20.4v0.5h-0.4l-0.5 0.1-2.8-21.9 0.5-0.1c3.5-0.6 12.6-2.1 21-2.2h0.9c8.6 0 18.2 1.6 21.9 2.2l0.5 0.1-2.9 22.9q0.2 0 0.5 0 0.1-0.1 0.2-0.1 0.1 0 0.2 0 0.2 0 0.3 0l0.7-6z"/>
		</g>
		<path id="&lt;Path&gt;" class="s1" d="m49.3 6.2l-3 24.5c0 0-0.8 0.1-2.2 0.2q0-0.1-0.1-0.3l2.9-22.7c-3.9-0.7-13.3-2.2-21.8-2.2h-0.9c-8.2 0.1-17.1 1.5-21 2.2l3 22.7q-0.1 0.2-0.2 0.3c-1.3-0.1-2.1-0.2-2.1-0.2l-3-24.6c0 0 12.7-2.6 24.2-2.6 11.4 0 24.2 2.7 24.2 2.7z"/>
		<g id="&lt;Group&gt;">
			<path id="&lt;Path&gt;" class="s1" d="m48.8 4.5v1c-2.7-0.5-13.5-2.4-23.3-2.5h-0.4c-10 0-21 2-23.7 2.5v-1c2.6-0.5 13.6-2.6 23.7-2.6 8.5 0 21.2 2.2 23.7 2.6z"/>
			<path id="&lt;Compound Path&gt;" fill-rule="evenodd" class="s0" d="m49.8 6.1v0.1 0.5l-2.2 17.2-0.5 4-0.3 2.8-0.1 0.5h-0.4q0 0-0.5 0.1c-0.8 0.1-2.4 0.2-4.5 0.4q-0.4 0-0.8 0.1c-2.1 0.1-4.6 0.3-7.2 0.4q-0.8 0-1.6 0-0.8 0.1-1.7 0.1-0.8 0-1.6 0-1.7 0.1-3.3 0.1-1.6 0-3.3-0.1-0.8 0-1.7 0-0.8 0-1.6-0.1c-0.5 0-1.1 0-1.6 0-2.1-0.1-4.2-0.2-6-0.4q-0.6 0-1.2-0.1-0.4 0-0.7 0-0.5-0.1-1-0.1-0.3 0-0.6 0-0.8-0.1-1.4-0.2-1.1-0.1-1.6-0.1-0.5-0.1-0.5-0.1h-0.5v-0.5-0.1l-0.4-2.9-0.5-4v-0.1l-2.1-16.9-0.1-0.5v-0.5-2.1l0.5-0.1c1.3-0.3 13.4-2.7 24.3-2.7 9.5 0 24.2 2.7 24.3 2.7l0.4 0.1zm-48.4-0.6c2.7-0.5 13.7-2.5 23.7-2.5h0.4c9.8 0.1 20.5 2 23.3 2.5v-1c-2.5-0.4-15.2-2.6-23.7-2.6-10.1 0-21.1 2.1-23.7 2.6v1q0 0 0 0zm42.1 24.9l2.8-22.1c-4-0.7-13-2.1-21.2-2.1h-0.9c-7.9 0.1-16.5 1.5-20.3 2.1l2.6 20.5 0.2 1.6q0.6 0.1 1.3 0.2 0.3 0 0.8 0 0 0 0.2 0 0.1 0 0.2 0.1 0.2 0 0.4 0 0.2 0 0.5 0h0.3q0.1 0 0.2 0 0.2 0.1 0.3 0.1 0.7 0 1.4 0.1 0.6 0 1.2 0.1h0.2q0.5 0 1 0 0.3 0 0.6 0 0.7 0.1 1.5 0.1 0.4 0 0.8 0.1 0.4 0 0.8 0 1.7 0.1 3.4 0.1h0.3q0.5 0 1.1 0 1 0 1.9 0 1.5 0 3 0 0.6 0 1.2 0 1.6-0.1 3.2-0.1c1.2-0.1 2.4-0.2 3.6-0.2q1.7-0.1 3.2-0.2h0.3q0.2-0.1 0.4-0.1 0.2 0 0.4 0 0.2 0 0.5 0 0.1-0.1 0.3-0.1 0 0 0.1 0 0 0 0 0 0 0 0 0 1.2-0.1 2.2-0.2zm5.2-23.8c-2.4-0.5-13.6-2.5-23.6-2.5h-0.4c-10 0-20.8 2-23.2 2.5l2.1 17.3v0.1l0.8 6.2q0.2 0 0.5 0.1 0.1 0 0.2 0h0.1q0.2 0 0.4 0l-0.1-0.9-2.8-21.9 0.5-0.1c3.5-0.7 12.6-2.2 21-2.3h0.9c8.6 0 18.2 1.6 21.9 2.3l0.5 0.1-2.9 22.8v0.1q0.2-0.1 0.5-0.1 0.1 0 0.2 0 0.1 0 0.2 0 0.2-0.1 0.3-0.1l0.7-6v-0.1z"/>
		</g>
		<g id="&lt;Group&gt;">
			<path id="&lt;Compound Path&gt;" fill-rule="evenodd" class="s1" d="m48 49.2v25.6c0 1.7-10.3 3-22.9 3-6.3 0-12.1-0.3-16.2-0.8-4.1-0.6-6.7-1.3-6.7-2.2v-25.6q0-5.6 0.7-11.1l1-6.9v-0.5c0 0 11.2 1.2 21.2 1.2 1.9 0 3.8-0.1 5.6-0.1q2.9-0.1 5.5-0.3c5.7-0.3 10-0.8 10-0.8l0.1 0.5 1 6.9q0.7 5.5 0.7 11.1zm-0.6 0c0-3.7-0.2-7.4-0.7-11l-0.9-6.9c-0.8 0.1-2.4 0.2-4.5 0.4q-0.4 0-0.8 0.1c-2.1 0.1-4.6 0.3-7.2 0.4-0.6 0-1.1 0-1.6 0q-0.8 0.1-1.7 0.1-0.8 0-1.6 0.1-1.7 0-3.3 0-1.6 0-3.3 0-0.8-0.1-1.7-0.1-0.8 0-1.6-0.1c-0.5 0-1.1 0-1.6 0-2.1-0.1-4.2-0.2-6-0.4q-0.6 0-1.2-0.1-0.4 0-0.7 0-0.5-0.1-1-0.1-0.3 0-0.6 0-0.8-0.1-1.4-0.2-1.1-0.1-1.6-0.1l-0.9 6.9c-0.5 3.6-0.8 7.3-0.8 11v25.6c0.5 1 8.7 2.5 22.4 2.5 13.6 0 21.8-1.5 22.3-2.5z"/>
			<path id="&lt;Compound Path&gt;" fill-rule="evenodd" class="s0" d="m48.5 49.2v25.6c0 3.5-22.5 3.6-23.4 3.6-1 0-23.5-0.1-23.5-3.6v-25.6c0-3.8 0.3-7.5 0.8-11.2l1-7.3v-0.1c0-0.2 0.2-0.4 0.5-0.4q0 0 0.1 0 0 0 0.4 0 0.2 0 0.5 0 0.1 0.1 0.2 0.1h0.1q0.2 0 0.4 0 0.2 0 0.5 0.1 0.3 0 0.6 0 0.6 0.1 1.3 0.1 0.3 0.1 0.8 0.1 0 0 0.2 0 0.1 0 0.2 0h0.2q0.1 0 0.2 0.1 0.2 0 0.5 0h0.3q0.1 0 0.2 0 0.2 0 0.3 0 1.3 0.1 2.8 0.2 0.5 0.1 1 0.1 0.3 0 0.6 0 0.7 0.1 1.5 0.1 0.4 0 0.8 0 0.4 0.1 0.8 0.1 1.7 0 3.4 0.1h0.3q0.5 0 1.1 0 1 0 1.9 0 1.5 0 3 0 0.6 0 1.2 0 1.6-0.1 3.2-0.2 1.9 0 3.6-0.1 1.7-0.1 3.2-0.3h0.2q0.3 0 0.5 0 0.2 0 0.4 0 0.2 0 0.5-0.1 0.2 0 0.4 0 0 0 0 0 0 0 0 0 1.2-0.1 2.2-0.2 0.3 0 0.5 0 0.3-0.1 0.6-0.1 0.2 0 0.5 0 0.1 0 0.2 0 0.1 0 0.2-0.1 0.2 0 0.3 0 0.4 0 0.4 0h0.1c0.3 0 0.4 0.2 0.5 0.4v0.1l1 7.3c0.5 3.7 0.7 7.4 0.7 11.2zm-1.1 0c0-3.7-0.2-7.4-0.7-11l-0.9-6.9c-0.8 0.1-2.4 0.2-4.5 0.4q-0.4 0-0.8 0.1c-2.1 0.1-4.6 0.3-7.2 0.4q-0.8 0-1.6 0-0.8 0.1-1.7 0.1-0.8 0-1.6 0-1.7 0.1-3.3 0.1-1.6 0-3.3-0.1-0.8 0-1.7 0-0.8 0-1.6-0.1c-0.5 0-1.1 0-1.6 0-2.1-0.1-4.2-0.2-6-0.4q-0.6 0-1.2-0.1-0.4 0-0.7 0-0.5-0.1-1-0.1-0.3 0-0.6 0-0.8-0.1-1.4-0.2-1.1-0.1-1.6-0.1l-0.9 6.9c-0.5 3.6-0.8 7.3-0.8 11v25.6c0.5 1 8.7 2.5 22.4 2.5 13.6 0 21.8-1.5 22.3-2.5z"/>
			<path id="&lt;Path&gt;" class="s1" d="m47.4 49.2v25.6c-0.5 1-8.7 2.5-22.3 2.5-13.7 0-21.9-1.5-22.4-2.5v-25.6c0-3.7 0.3-7.4 0.8-11l0.9-6.9q0.5 0 1.6 0.1 0.6 0.1 1.4 0.2 0.3 0 0.6 0 0.5 0 1 0.1 0.3 0 0.7 0 0.6 0.1 1.2 0.1c1.8 0.2 3.9 0.3 6 0.4 0.5 0 1.1 0 1.6 0q0.8 0.1 1.6 0.1 0.9 0 1.7 0.1 1.7 0 3.3 0 1.6 0 3.3 0 0.8-0.1 1.6-0.1 0.9 0 1.7-0.1c0.5 0 1 0 1.6 0 2.6-0.1 5.1-0.3 7.2-0.4q0.4-0.1 0.8-0.1c2.1-0.2 3.7-0.3 4.5-0.4l0.9 6.9c0.5 3.6 0.7 7.3 0.7 11z"/>
		</g>
	</g>
</svg>