<svg version="1.2" xmlns="http://www.w3.org/2000/svg" viewBox="0 0 53 67" width="53" height="67">
	<title>New Project</title>
	<style>
		.s0 { fill: #ffffff;stroke: #000000;stroke-linecap: square;stroke-linejoin: round;stroke-width: 1.5 } 
	</style>
	<g id="&lt;Group&gt;">
		<path id="&lt;Path&gt;" class="s0" d="m45.8 63.4c-12.8 2.9-26.2 2.9-39 0-3.9-0.9-6.5-4.6-6-8.6l5.2-39 20.3 1.8 20.3-1.8 5.2 39c0.5 4-2 7.7-6 8.6z"/>
		<path id="&lt;Path&gt;" class="s0" d="m6 15.8v-13.1h40.6v13.1l-2 0.1v-9.2h-6.5v9.8l-1.9 0.2v-10h-5.3v10.5l-1.9 0.2v-10.7h-5.3v10.7l-2-0.2v-10.5h-5.3v10l-1.9-0.2v-9.8h-6.5v9.2z"/>
		<path id="&lt;Path&gt;" class="s0" d="m46.6 2.7h-40.6v-1.7h40.6z"/>
	</g>
</svg>