<svg version="1.2" xmlns="http://www.w3.org/2000/svg" viewBox="0 0 128 66" width="128" height="66">
	<title>New Project</title>
	<style>
		.s0 { fill: #ffffff;stroke: #494949;stroke-width: 2 } 
	</style>
	<g id="&lt;Group&gt;">
		<path id="&lt;Path&gt;" class="s0" d="m1.3 50.2h125.3v7.1h-125.3z"/>
		<path id="&lt;Path&gt;" class="s0" d="m17 57.3h93.9c-4.4 4.5-10.4 7.1-16.7 7.1h-60.5c-6.3 0-12.3-2.6-16.7-7.1z"/>
	</g>
	<g id="&lt;Group&gt;">
		<path id="&lt;Path&gt;" class="s0" d="m12.6 1.1h96c1.5 0 2.8 1.3 2.8 2.8v25.9c0 1.6-1.3 2.8-2.8 2.8h-96c-1.6 0-2.8-1.2-2.8-2.8v-25.9c0-1.5 1.2-2.8 2.8-2.8z"/>
		<g id="&lt;Group&gt;">
			<path id="&lt;Path&gt;" class="s0" d="m87.9 28.6h4.2v2.1h-4.2z"/>
			<path id="&lt;Path&gt;" class="s0" d="m82 28.6h4.2v2.1h-4.2z"/>
			<path id="&lt;Path&gt;" class="s0" d="m76.1 28.6h4.2v2.1h-4.2z"/>
			<path id="&lt;Path&gt;" class="s0" d="m70.2 28.6h4.2v2.1h-4.2z"/>
			<path id="&lt;Path&gt;" class="s0" d="m64.3 28.6h4.2v2.1h-4.2z"/>
			<path id="&lt;Path&gt;" class="s0" d="m58.5 28.6h4.2v2.1h-4.2z"/>
			<path id="&lt;Path&gt;" class="s0" d="m52.6 28.6h4.2v2.1h-4.2z"/>
			<path id="&lt;Path&gt;" class="s0" d="m46.7 28.6h4.2v2.1h-4.2z"/>
			<path id="&lt;Path&gt;" class="s0" d="m40.8 28.6h4.2v2.1h-4.2z"/>
			<path id="&lt;Path&gt;" class="s0" d="m34.9 28.6h4.2v2.1h-4.2z"/>
			<path id="&lt;Path&gt;" class="s0" d="m29 28.6h4.2v2.1h-4.2z"/>
		</g>
		<g id="&lt;Group&gt;">
			<path id="&lt;Path&gt;" class="s0" d="m51.9 4.3h37.6v2.7h-37.6z"/>
			<g id="&lt;Group&gt;">
				<path id="&lt;Path&gt;" class="s0" d="m95.1 20.4h4.2v4.2h-4.2z"/>
				<path id="&lt;Path&gt;" class="s0" d="m89.2 20.4h4.2v4.2h-4.2z"/>
				<path id="&lt;Path&gt;" class="s0" d="m83.3 20.4h4.2v4.2h-4.2z"/>
				<path id="&lt;Path&gt;" class="s0" d="m77.4 20.4h4.2v4.2h-4.2z"/>
				<path id="&lt;Path&gt;" class="s0" d="m71.5 20.4h4.2v4.2h-4.2z"/>
				<path id="&lt;Path&gt;" class="s0" d="m65.7 20.4h4.2v4.2h-4.2z"/>
				<path id="&lt;Path&gt;" class="s0" d="m59.8 20.4h4.2v4.2h-4.2z"/>
				<path id="&lt;Path&gt;" class="s0" d="m53.9 20.4h4.2v4.2h-4.2z"/>
				<path id="&lt;Path&gt;" class="s0" d="m48 20.4h4.2v4.2h-4.2z"/>
				<path id="&lt;Path&gt;" class="s0" d="m42.1 20.4h4.2v4.2h-4.2z"/>
			</g>
			<path id="&lt;Path&gt;" class="s0" d="m24.8 20.4h4.2v4.2h-4.2z"/>
			<path id="&lt;Path&gt;" class="s0" d="m18.9 20.4h4.2v4.2h-4.2z"/>
			<path id="&lt;Path&gt;" class="s0" d="m13 20.4h4.2v4.2h-4.2z"/>
			<path id="&lt;Path&gt;" class="s0" d="m24.8 14.6h4.2v4.2h-4.2z"/>
			<path id="&lt;Path&gt;" class="s0" d="m18.9 14.6h4.2v4.2h-4.2z"/>
			<path id="&lt;Path&gt;" class="s0" d="m13 14.6h4.2v4.2h-4.2z"/>
			<path id="&lt;Path&gt;" class="s0" d="m24.8 8.7h4.2v4.2h-4.2z"/>
			<path id="&lt;Path&gt;" class="s0" d="m18.9 8.7h4.2v4.2h-4.2z"/>
			<path id="&lt;Path&gt;" class="s0" d="m13 8.7h4.2v4.2h-4.2z"/>
			<g id="&lt;Group&gt;">
				<path id="&lt;Path&gt;" class="s0" d="m95.1 8.7h4.2v4.2h-4.2z"/>
				<path id="&lt;Path&gt;" class="s0" d="m89.2 8.7h4.2v4.2h-4.2z"/>
				<path id="&lt;Path&gt;" class="s0" d="m83.3 8.7h4.2v4.2h-4.2z"/>
				<path id="&lt;Path&gt;" class="s0" d="m77.4 8.7h4.2v4.2h-4.2z"/>
				<path id="&lt;Path&gt;" class="s0" d="m71.5 8.7h4.2v4.2h-4.2z"/>
				<path id="&lt;Path&gt;" class="s0" d="m65.7 8.7h4.2v4.2h-4.2z"/>
				<path id="&lt;Path&gt;" class="s0" d="m59.8 8.7h4.2v4.2h-4.2z"/>
				<path id="&lt;Path&gt;" class="s0" d="m53.9 8.7h4.2v4.2h-4.2z"/>
				<path id="&lt;Path&gt;" class="s0" d="m48 8.7h4.2v4.2h-4.2z"/>
				<path id="&lt;Path&gt;" class="s0" d="m42.1 8.7h4.2v4.2h-4.2z"/>
			</g>
			<g id="&lt;Group&gt;">
				<path id="&lt;Path&gt;" class="s0" d="m98 14.6h4.2v4.2h-4.2z"/>
				<path id="&lt;Path&gt;" class="s0" d="m92.1 14.6h4.2v4.2h-4.2z"/>
				<path id="&lt;Path&gt;" class="s0" d="m86.3 14.6h4.2v4.2h-4.2z"/>
				<path id="&lt;Path&gt;" class="s0" d="m80.4 14.6h4.2v4.2h-4.2z"/>
				<path id="&lt;Path&gt;" class="s0" d="m74.5 14.6h4.2v4.2h-4.2z"/>
				<path id="&lt;Path&gt;" class="s0" d="m68.6 14.6h4.2v4.2h-4.2z"/>
				<path id="&lt;Path&gt;" class="s0" d="m62.7 14.6h4.2v4.2h-4.2z"/>
				<path id="&lt;Path&gt;" class="s0" d="m56.8 14.6h4.2v4.2h-4.2z"/>
				<path id="&lt;Path&gt;" class="s0" d="m50.9 14.6h4.2v4.2h-4.2z"/>
				<path id="&lt;Path&gt;" class="s0" d="m45.1 14.6h4.2v4.2h-4.2z"/>
				<path id="&lt;Path&gt;" class="s0" d="m39.2 14.6h4.2v4.2h-4.2z"/>
			</g>
			<path id="&lt;Path&gt;" class="s0" d="m100.8 20.4h7.3v4.2h-7.3z"/>
			<path id="&lt;Path&gt;" class="s0" d="m33.1 20.4h7.3v4.2h-7.3z"/>
			<path id="&lt;Path&gt;" class="s0" d="m103.7 14.6h4.4v4.2h-4.4z"/>
			<path id="&lt;Path&gt;" class="s0" d="m33.1 14.6h4.4v4.2h-4.4z"/>
			<path id="&lt;Path&gt;" class="s0" d="m100.8 8.7h7.3v4.2h-7.3z"/>
			<path id="&lt;Path&gt;" class="s0" d="m33.1 8.7h7.3v4.2h-7.3z"/>
		</g>
	</g>
</svg>