<svg version="1.2" xmlns="http://www.w3.org/2000/svg" viewBox="0 0 141 223" width="141" height="223">
	<title>New Project</title>
	<style>
		.s0 { fill: #ffffff } 
		.s1 { fill: #000000 } 
	</style>
	<g id="&lt;Group&gt;">
		<g id="&lt;Group&gt;">
			<g id="&lt;Group&gt;">
				<g id="&lt;Group&gt;">
					<path id="&lt;Path&gt;" class="s0" d="m102.9 79.7l2.8 61.6c0.1 1.8-1.3 3.3-3 3.4h-0.1c-1.7 0.1-3.2-1.3-3.3-3.1l-2.9-61.6c0-1.8 1.3-3.3 3.1-3.4 1.8-0.1 3.3 1.3 3.4 3.1z"/>
					<path id="&lt;Compound Path&gt;" fill-rule="evenodd" class="s1" d="m102.5 145.4c-2.1 0-3.8-1.6-3.9-3.7l-2.9-61.7c-0.1-2.1 1.6-4 3.8-4.1h0.2c2.1 0 3.8 1.7 3.9 3.8l2.8 61.6c0.1 2.2-1.6 4-3.7 4.1zm-2.9-68.1c-1.5 0.1-2.5 1.3-2.5 2.7l2.9 61.6c0 1.3 1.1 2.4 2.5 2.4v0.7l0.1-0.7c1.4-0.1 2.5-1.3 2.4-2.6l-2.9-61.7c0-1.3-1.1-2.4-2.5-2.4z"/>
				</g>
				<g id="&lt;Group&gt;">
					<path id="&lt;Path&gt;" class="s0" d="m67 112.2c0-1.7 1.3-3.2 3.1-3.3l61.6-2.9c1.8-0.1 3.3 1.3 3.4 3.1 0.1 1.8-1.3 3.3-3.1 3.4l-61.6 2.8c-1.8 0.1-3.3-1.3-3.4-3.1z"/>
					<path id="&lt;Compound Path&gt;" fill-rule="evenodd" class="s1" d="m70.3 116c-2.1 0-3.9-1.6-4-3.7 0-1.1 0.4-2.1 1.1-2.9 0.7-0.7 1.6-1.2 2.7-1.2l61.8-2.9c2.1 0 3.8 1.7 3.9 3.8 0.1 2.1-1.6 4-3.7 4.1zm61.6-9.3l-61.7 2.8c-0.7 0.1-1.3 0.3-1.8 0.8-0.4 0.5-0.7 1.2-0.6 1.9 0 1.3 1.1 2.4 2.5 2.4v0.7l0.1-0.8 61.6-2.8c1.4-0.1 2.5-1.2 2.4-2.6-0.1-1.4-1.2-2.4-2.5-2.4z"/>
				</g>
			</g>
			<g id="&lt;Group&gt;">
				<path id="&lt;Path&gt;" class="s0" d="m124.3 125.9l-5.9 6.5-11.6-10.5 6-6.5z"/>
				<path id="&lt;Compound Path&gt;" fill-rule="evenodd" class="s1" d="m118.4 133.4l-12.6-11.5 6.9-7.5 12.6 11.5zm-10.6-11.6l10.5 9.6 5-5.5-10.5-9.6z"/>
			</g>
			<g id="&lt;Group&gt;">
				<path id="&lt;Path&gt;" class="s0" d="m115.6 90.6l8.2 7.4c4.4 4.1 4.7 10.9 0.7 15.4l-18.6 20.3c-4 4.4-10.9 4.7-15.3 0.7l-8.2-7.4c-10-9.2-10.7-24.8-1.6-34.8 9.1-10 24.8-10.7 34.8-1.6z"/>
				<path id="&lt;Compound Path&gt;" fill-rule="evenodd" class="s1" d="m97.9 137.9c-2.9 0-5.6-1-7.8-3l-8.2-7.4c-10.3-9.4-11-25.5-1.6-35.8 4.8-5.2 11.6-8.2 18.7-8.2 6.4 0 12.4 2.3 17.1 6.6l8.1 7.4c2.3 2.1 3.6 4.9 3.8 8 0.1 3.1-0.9 6.1-3 8.3l-18.6 20.4c-2.1 2.4-5.3 3.7-8.5 3.7zm1.1-53c-6.7 0-13.2 2.8-17.7 7.8-8.8 9.7-8.1 24.9 1.6 33.7l8.2 7.5c1.8 1.7 4.3 2.6 6.8 2.6 2.8 0 5.6-1.2 7.5-3.3l18.5-20.3c1.9-2 2.8-4.6 2.7-7.3-0.2-2.7-1.3-5.2-3.3-7l-8.2-7.5c-4.4-4-10.1-6.2-16.1-6.2z"/>
			</g>
			<g id="&lt;Group&gt;">
				<path id="&lt;Path&gt;" class="s0" d="m129.1 136.2c17.7-19.4 13.8-38.7-11.7-10.7-25.6 28.1-6 30.2 11.7 10.7z"/>
				<path id="&lt;Compound Path&gt;" fill-rule="evenodd" class="s1" d="m108.9 149.7c-2.5 0-3.6-1.2-4.1-2.3-1.7-3.9 2.5-11.9 12.1-22.3 8.4-9.3 15.4-14.3 19.7-14.3 1.7 0 3 0.8 3.6 2.2 2.1 4.7-2.5 14.9-10.5 23.7-8.2 9-16.4 13-20.8 13zm27.7-37.5c-1.8 0-7.3 1.3-18.7 13.8-13.1 14.4-12.3 19.6-11.8 20.9q0.6 1.4 2.8 1.4c4 0 11.9-3.9 19.7-12.5 8.5-9.3 11.9-18.6 10.3-22.2q-0.6-1.4-2.3-1.4z"/>
			</g>
			<g id="&lt;Group&gt;">
				<path id="&lt;Path&gt;" class="s0" d="m113.2 81.3l18.3 16.7c1.6 1.4 1.7 3.9 0.2 5.4-1.4 1.6-3.8 1.7-5.4 0.3l-18.3-16.7c-1.5-1.4-1.7-3.9-0.2-5.4 1.4-1.6 3.8-1.7 5.4-0.3z"/>
				<path id="&lt;Compound Path&gt;" fill-rule="evenodd" class="s1" d="m128.9 105.4q0 0 0 0c-1.1 0-2.2-0.4-3.1-1.2l-18.3-16.7c-1.8-1.6-2-4.5-0.3-6.4 1.7-1.8 4.7-1.9 6.5-0.3l18.3 16.7c1.8 1.7 2 4.6 0.3 6.4-0.9 1-2.1 1.5-3.4 1.5zm-18.3-24.4c-0.9 0-1.7 0.4-2.3 1.1-1.2 1.2-1.1 3.2 0.2 4.4l18.3 16.7c1.2 1.1 3.3 1 4.4-0.2 1.2-1.3 1.1-3.3-0.2-4.5l-18.3-16.7c-0.5-0.5-1.3-0.8-2.1-0.8z"/>
			</g>
			<g id="&lt;Group&gt;">
				<path id="&lt;Path&gt;" class="s0" d="m77.6 120.4l18.3 16.7c1.5 1.4 1.7 3.8 0.2 5.4-1.4 1.6-3.9 1.7-5.4 0.3l-18.3-16.7c-1.6-1.4-1.7-3.9-0.3-5.4 1.5-1.6 3.9-1.7 5.5-0.3z"/>
				<path id="&lt;Compound Path&gt;" fill-rule="evenodd" class="s1" d="m93.3 144.5c-1.2 0-2.3-0.4-3.1-1.2l-18.3-16.7c-1.8-1.7-2-4.6-0.3-6.4 1.6-1.8 4.7-2 6.5-0.3l18.3 16.6c1.8 1.7 1.9 4.6 0.2 6.5-0.8 0.9-2 1.5-3.3 1.5zm-18.3-24.4c-0.9 0-1.7 0.4-2.3 1-1.2 1.3-1.1 3.3 0.2 4.5l18.3 16.6c1.2 1.2 3.3 1.1 4.4-0.2 1.2-1.2 1.1-3.2-0.2-4.4l-18.3-16.7c-0.6-0.5-1.3-0.8-2.1-0.8z"/>
			</g>
			<path id="&lt;Path&gt;" class="s1" d="m109.5 146.7q-0.5 0-0.9-0.1l0.2-1.4c4.7 0.8 14.8-7.5 21.4-15.9 4.8-6.1 7.1-11.5 6-14l1.3-0.6c1.9 4.3-3.7 12.3-6.2 15.5-6.6 8.4-16.2 16.5-21.8 16.5z"/>
		</g>
		<g id="&lt;Group&gt;">
			<path id="&lt;Path&gt;" class="s0" d="m1.3 210.9v-110.3-87.8c0-6.3 5.1-11.3 11.3-11.3h103c6.3 0 11.1 5 11.4 11.3 4 114.2-63.5 68.8-58.3 198.1 0.3 6.3-5.1 11.4-11.3 11.4h-44.8c-6.2 0-11.3-5.1-11.3-11.4z"/>
			<path id="&lt;Compound Path&gt;" fill-rule="evenodd" class="s1" d="m57.4 223h-44.8c-6.6 0-12-5.4-12-12.1v-198.1c0-6.7 5.4-12.1 12-12.1h103c6.5 0 11.8 5.3 12.1 12.1 1.9 55.5-12.7 73.2-28.2 92-16.1 19.5-32.7 39.6-30.1 106.1 0.2 3.1-1 6-3.2 8.3-2.3 2.4-5.5 3.8-8.8 3.8zm-44.8-220.8c-5.8 0-10.6 4.7-10.6 10.6v198.1c0 5.9 4.8 10.7 10.6 10.7h44.8c2.9 0 5.8-1.2 7.8-3.4 1.9-2 2.9-4.6 2.8-7.2-2.7-67 14.1-87.4 30.4-107.1 15.3-18.6 29.8-36.1 27.9-91.1-0.3-6-4.9-10.6-10.7-10.6z"/>
		</g>
		<g id="&lt;Group&gt;">
			<g id="&lt;Group&gt;">
				<path id="&lt;Path&gt;" class="s0" d="m26.4 54.4c-7.1-7-7.2-18.5-0.2-25.7 7.1-7.1 18.6-7.2 25.7-0.1 7.1 7 7.2 18.5 0.2 25.6-7 7.1-18.5 7.2-25.7 0.2z"/>
				<path id="&lt;Compound Path&gt;" fill-rule="evenodd" class="s1" d="m39.2 60.3c-5 0-9.7-1.9-13.3-5.4-3.5-3.5-5.5-8.3-5.6-13.3 0-5 1.9-9.8 5.4-13.3 3.6-3.7 8.4-5.7 13.5-5.7 4.9 0 9.6 2 13.2 5.5 3.6 3.5 5.6 8.2 5.6 13.2 0 5.1-1.9 9.8-5.4 13.4-3.6 3.6-8.4 5.6-13.4 5.6zm0-36.2c-4.7 0-9.2 1.8-12.5 5.1-3.2 3.4-5 7.8-5 12.4 0.1 4.7 1.9 9 5.2 12.3 3.3 3.2 7.7 5 12.3 5 4.7 0 9.1-1.8 12.4-5.2 3.2-3.3 5-7.7 5-12.4-0.1-4.6-1.9-9-5.2-12.2-3.3-3.3-7.6-5-12.2-5z"/>
			</g>
			<g id="&lt;Group&gt;">
				<path id="&lt;Path&gt;" class="s0" d="m10.4 72l58.8-59.7 4.6 4.5-58.8 59.7z"/>
				<path id="&lt;Compound Path&gt;" fill-rule="evenodd" class="s1" d="m15 77.2q-0.3 0-0.5-0.2l-4.6-4.5q-0.2-0.2-0.2-0.5 0-0.3 0.2-0.5l58.8-59.7c0.3-0.3 0.8-0.3 1 0l4.6 4.5q0.2 0.2 0.2 0.5 0 0.3-0.2 0.5l-58.8 59.7q-0.2 0.2-0.5 0.2zm-3.6-5.2l3.6 3.5 57.8-58.7-3.5-3.5z"/>
			</g>
			<g id="&lt;Group&gt;">
				<path id="&lt;Path&gt;" class="s0" d="m17.1 56l36.3-36.8 7.2 1.8-41.6 42.3z"/>
				<path id="&lt;Compound Path&gt;" fill-rule="evenodd" class="s1" d="m19 64q-0.1 0-0.2-0.1c-0.2 0-0.4-0.2-0.5-0.5l-1.9-7.2c0-0.2 0.1-0.5 0.2-0.7l36.3-36.8c0.2-0.1 0.4-0.2 0.7-0.2l7.2 1.8c0.3 0.1 0.5 0.3 0.5 0.5 0.1 0.3 0 0.5-0.2 0.7l-41.6 42.3q-0.2 0.2-0.5 0.2zm-1.1-7.7l1.5 5.6 39.9-40.5-5.7-1.4z"/>
			</g>
			<g id="&lt;Group&gt;">
				<path id="&lt;Path&gt;" class="s0" d="m27.4 39.2l9.3-9.5 3.2 3.2-9.3 9.5z"/>
				<path id="&lt;Compound Path&gt;" fill-rule="evenodd" class="s1" d="m30.6 43.1q-0.3 0-0.5-0.2l-3.2-3.2q-0.2-0.2-0.3-0.5 0-0.3 0.3-0.5l9.3-9.5q0.2-0.2 0.5-0.2 0 0 0 0 0.3 0 0.5 0.2l3.2 3.2c0.3 0.3 0.3 0.7 0 1l-9.3 9.5q-0.2 0.2-0.5 0.2zm-2.2-3.9l2.2 2.2 8.3-8.5-2.2-2.2z"/>
			</g>
			<g id="&lt;Group&gt;">
				<path id="&lt;Path&gt;" class="s0" d="m15 76.5l58.8-59.7-1.4 7.4-50 50.8z"/>
				<path id="&lt;Compound Path&gt;" fill-rule="evenodd" class="s1" d="m15 77.2c-0.3 0-0.5-0.1-0.6-0.4-0.2-0.2-0.1-0.6 0.1-0.8l58.8-59.7c0.2-0.2 0.6-0.3 0.8-0.2 0.3 0.2 0.5 0.5 0.4 0.8l-1.4 7.4q0 0.2-0.2 0.4l-50 50.8q-0.2 0.2-0.4 0.2l-7.4 1.5q0 0-0.1 0zm57.7-58.3l-55.6 56.4 4.9-0.9 49.8-50.5z"/>
			</g>
		</g>
	</g>
</svg>