<svg version="1.2" xmlns="http://www.w3.org/2000/svg" viewBox="0 0 89 89" width="89" height="89">
	<title>New Project</title>
	<style>
		.s0 { fill: #ffffff;stroke: #000000;stroke-linecap: square;stroke-width: 2.5 } 
	</style>
	<g id="&lt;Group&gt;">
		<path id="&lt;Path&gt;" class="s0" d="m87 75c-18.2 18.3-49.3 16.7-69.5-3.4-20.2-20.2-21.7-51.3-3.5-69.6l72.9 0.2z"/>
		<path id="&lt;Path&gt;" class="s0" d="m24.5 64.5c-16.2-16.2-21-37.9-10.6-48.3 10.4-10.4 32.1-5.7 48.4 10.6 16.2 16.2 21 37.9 10.6 48.3-10.4 10.4-32.1 5.7-48.4-10.6z"/>
		<path id="&lt;Path&gt;" class="s0" d="m57.9 31.7c2.6 2.6 2.6 6.8 0 9.3-2.5 2.6-6.7 2.6-9.3 0-2.5-2.5-2.5-6.7 0-9.3 2.6-2.5 6.8-2.5 9.3 0z"/>
		<path id="&lt;Path&gt;" class="s0" d="m79 15.3c0.7 3.6-2.1 6.7-5.5 6.7q-0.3 0-0.6-0.1l-15.3 15.3c-1.3 1.3-3.5 1.3-4.9 0-1.3-1.4-1.3-3.6 0-5l15.2-15.1q-0.1-0.4-0.1-0.8c0-3.4 3.1-6.2 6.7-5.6 2.3 0.4 4.1 2.3 4.5 4.6z"/>
	</g>
</svg>