<svg version="1.2" xmlns="http://www.w3.org/2000/svg" viewBox="0 0 302 121" width="302" height="121">
	<title>New Project</title>
	<style>
		.s0 { fill: #ffffff;stroke: #000000;stroke-linecap: square;stroke-width: 2.2 } 
	</style>
	<g id="&lt;Group&gt;">
		<path id="&lt;Path&gt;" class="s0" d="m300.3 13.3v94.2c0 6.6-3.7 12-8.4 12l-12.7 0.1c-4.6 0-8.4-5.4-8.4-12.1v-70.5h-239.6v70.5c0 6.7-3.8 12.1-8.4 12.1l-12.7-0.1c-4.6 0-8.4-5.4-8.4-12v-94.2c0-6.6 3.7-12 8.2-12h1.5 273.1 7.6c4.5 0 8.2 5.4 8.2 12z"/>
		<path id="&lt;Path&gt;" class="s0" d="m31.2 109.7v-72.7h79.9v72.7c0 5.5-4.4 9.9-9.8 9.9h-60.3c-5.4 0-9.8-4.4-9.8-9.9z"/>
		<path id="&lt;Path&gt;" class="s0" d="m111.1 109.7v-72.7h79.8v72.7c0 5.5-4.3 9.9-9.8 9.9h-60.2c-5.4 0-9.8-4.4-9.8-9.9z"/>
		<path id="&lt;Path&gt;" class="s0" d="m190.9 109.7v-72.7h79.9v72.7c0 5.5-4.4 9.9-9.8 9.9h-60.2c-5.5 0-9.9-4.4-9.9-9.9z"/>
	</g>
</svg>