<svg version="1.2" xmlns="http://www.w3.org/2000/svg" viewBox="0 0 97 97" width="97" height="97">
	<title>New Project</title>
	<style>
		.s0 { fill: #ffffff } 
		.s1 { fill: #000000 } 
	</style>
	<g id="&lt;Group&gt;">
		<g id="&lt;Group&gt;">
			<path id="&lt;Path&gt;" class="s0" d="m95.9 69.3v26.3h-94.9v-94.9h94.9z"/>
			<path id="&lt;Compound Path&gt;" fill-rule="evenodd" class="s1" d="m96.7 96.4h-96.5v-96.5h96.5zm-95-1.5h93.5v-93.4h-93.5z"/>
		</g>
		<g id="&lt;Group&gt;">
			<path id="&lt;Path&gt;" class="s1" d="m39.5 50.4q-0.4 0-0.9-0.1c-0.1-0.1-0.2-0.2-0.1-0.3 0.5-4.8 3.9-8.8 7.1-12 3.9-4 8.2-7.7 12.8-11q0.8-0.6 1.7-1.3c1.6-1.1 3.2-2.2 4.7-3.5 4.5-3.7 8.1-8.4 11.6-13.4 1.6-2.3 3.4-5 3.8-7.8v-0.3l0.5 0.1v0.2c-0.4 3-2.2 5.8-3.9 8.1-3.6 5-7.1 9.8-11.6 13.5-1.6 1.3-3.2 2.4-4.8 3.5q-0.9 0.7-1.7 1.3c-4.6 3.3-8.9 6.9-12.8 10.9-3.1 3.2-6.3 7-6.9 11.6 1.5 0.3 3.1-0.9 4-2.4 0.4-0.6 0.7-1.2 1-1.8 0.5-1 1-2.1 1.8-2.9 1-1.1 2.3-1.8 3.4-2.5l20.5-11.4c1.8-0.9 3.6-1.9 5.5-2.6 4-1.4 8.2-1.4 12.3-1.3 2.7 0 5.4 0 8-0.3h0.2l0.1 0.4-0.2 0.1c-2.7 0.3-5.4 0.3-8.1 0.3-4-0.1-8.2-0.1-12.1 1.3-1.9 0.6-3.7 1.6-5.5 2.6l-20.5 11.4c-1.1 0.6-2.3 1.3-3.2 2.3-0.7 0.8-1.2 1.8-1.7 2.8-0.3 0.6-0.7 1.3-1 1.9-0.9 1.4-2.4 2.6-4 2.6z"/>
		</g>
		<g id="&lt;Group&gt;">
			<path id="&lt;Path&gt;" class="s1" d="m23.5 69.6c-1.8 0-3.8-0.6-4.6-2.2-0.6-1.2-0.5-2.4-0.3-3.6 1.4-11 6.1-21.8 13.2-30.3 0.4-0.6 1-1.1 1.7-1.1 0.4 0 0.8 0.1 1.1 0.3 0.4 0.2 0.7 0.3 1 0.3 0.3-0.1 0.6-0.3 0.9-0.5l24.1-21.6c2.9-2.6 5.9-5.3 8.1-8.6q0.5-0.7 0.9-1.4l0.1-0.2 0.5 0.2-0.1 0.2q-0.5 0.8-1 1.5c-2.2 3.3-5.3 6-8.2 8.7l-24.1 21.5c-0.3 0.3-0.6 0.6-1.1 0.7-0.5 0-0.9-0.1-1.3-0.3-0.3-0.2-0.6-0.3-0.9-0.3-0.6 0-1 0.5-1.4 0.9-7 8.5-11.6 19.1-13 30-0.2 1.2-0.3 2.3 0.2 3.3 0.9 1.6 3 2.1 4.8 1.9 3.8-0.3 7.1-2.4 10.4-4.6 6.9-4.5 13.8-8.6 21.6-10 3.3-0.6 6.7-0.6 9.9-0.7h0.4c9.4-0.1 19.5-0.5 29.1-2.2h0.2l0.1 0.4-0.2 0.1c-9.7 1.7-19.7 2.1-29.2 2.2h-0.4c-3.2 0.1-6.6 0.1-9.8 0.7-7.7 1.3-14.5 5.5-21.4 10-3.3 2.1-6.8 4.3-10.7 4.6q-0.3 0.1-0.6 0.1z"/>
		</g>
		<g id="&lt;Group&gt;">
			<path id="&lt;Path&gt;" class="s1" d="m1.3 68l-0.5-0.2 0.1-0.2q0.6-1.1 1.1-2.1c2-4.1 3.1-8.6 4.1-13q0.4-1.7 0.9-3.5c1.3-5.2 3.2-11.2 7.2-15.6 1.9-2.2 4.2-3.9 6.5-5.5q1.2-1 2.4-1.9c3.6-2.8 6.8-6 10-9.2l7.6-7.5c2.5-2.6 5.2-5.4 6.3-8.6v-0.2l0.5 0.2-0.1 0.2c-1.1 3.3-3.8 6.1-6.4 8.7l-7.6 7.6c-3.1 3.1-6.4 6.4-10 9.2q-1.2 0.9-2.4 1.9c-2.3 1.6-4.5 3.3-6.4 5.4-4 4.4-5.8 10.3-7.2 15.4q-0.4 1.8-0.8 3.5c-1.1 4.4-2.2 9-4.1 13.1q-0.6 1.1-1.1 2.1z"/>
		</g>
		<g id="&lt;Group&gt;">
			<path id="&lt;Path&gt;" class="s1" d="m16.2 90.7q-0.7 0-1.4 0c-2.7-0.2-5.2-1-7.7-1.8-2.1-0.6-4.2-1.3-6.4-1.6h-0.2l0.1-0.5h0.2c2.2 0.3 4.3 1 6.4 1.6 2.5 0.8 5 1.6 7.6 1.8 3 0.2 6-0.4 8.9-0.9 7.1-1.4 15.2-2.9 21.8-7.1 1.4-0.9 5.4-3.8 9-6.3 2.8-2 5.4-3.9 6.4-4.6 12-7.9 23.5-5.7 30.4-4.4 2 0.4 3.7 0.7 4.6 0.6l0.2-0.1 0.1 0.5h-0.2c-1 0.2-2.6-0.1-4.8-0.5-6.8-1.3-18.2-3.5-30 4.4-1.1 0.7-3.6 2.5-6.4 4.5-3.6 2.5-7.6 5.4-9.1 6.3-6.6 4.2-14.7 5.8-21.9 7.2-2.5 0.4-5.1 0.9-7.6 0.9z"/>
		</g>
		<g id="&lt;Group&gt;">
			<path id="&lt;Path&gt;" class="s1" d="m34.1 95.8l-0.1-0.5 0.2-0.1q0.8-0.2 1.5-0.4c4.8-1.5 9.5-3.7 14.1-5.8 5.7-2.6 11.6-5.4 17.9-6.8 4.9-1 10.1-1.3 15.1-1.5 4.2-0.2 8.5-0.3 12.7-1l0.2-0.1 0.1 0.5-0.2 0.1c-4.2 0.7-8.5 0.8-12.7 1-5 0.2-10.2 0.5-15.1 1.5-6.2 1.4-12.1 4.1-17.8 6.8-4.6 2.1-9.3 4.3-14.2 5.8q-0.7 0.2-1.4 0.4z"/>
		</g>
		<g id="&lt;Group&gt;">
			<path id="&lt;Path&gt;" class="s1" d="m1.3 36.1l-0.5-0.2 0.1-0.2c0.5-1.1 1-1.9 1.6-2.6 1.6-2.1 3.9-3.4 6.1-4.6q0.5-0.2 0.9-0.5c8.5-4.7 16.1-11.5 21.9-19.4 1.4-1.9 3.2-4.8 3.5-7.8v-0.2h0.5v0.2c-0.3 3.2-2.2 6.1-3.6 8.1-5.8 8-13.5 14.8-22.1 19.6q-0.4 0.2-0.8 0.4c-2.2 1.2-4.5 2.5-6 4.5-0.6 0.6-1 1.4-1.5 2.5z"/>
		</g>
		<g id="&lt;Group&gt;">
			<path id="&lt;Path&gt;" class="s1" d="m1 11.4l-0.2-0.5 0.3-0.1c6.3-2.7 11.5-6.2 15.4-10.4l0.2-0.2 0.3 0.3-0.1 0.2c-4 4.3-9.2 7.8-15.6 10.6z"/>
		</g>
	</g>
</svg>