<svg version="1.2" xmlns="http://www.w3.org/2000/svg" viewBox="0 0 95 166" width="95" height="166">
	<title>New Project</title>
	<style>
		.s0 { fill: #ffffff;stroke: #000000;stroke-linecap: square;stroke-width: 1.5 } 
		.s1 { fill: #000000 } 
	</style>
	<g id="&lt;Group&gt;">
		<path id="&lt;Path&gt;" class="s0" d="m93.7 164.4h-92.4v-162.9h92.4z"/>
		<g id="&lt;Group&gt;">
			<path id="&lt;Path&gt;" class="s1" d="m64.4 164.6l-0.4-0.3q1.8-2.6 3.5-5.2c3.4-5.2 1.5-26-0.3-46.1-2-22.1-3.9-43 0.4-46.5 1.2-1 2.5-1.4 3.7-1.2 2.9 0.4 5.1 3.9 7.5 7.7 2.6 4.1 5.3 8.3 8.7 7.9q0.4-0.1 0.8-0.6c4.1-5.9-6.1-51.9-12.5-78.7l0.5-0.1c6.4 26.9 16.6 73 12.4 79.1q-0.5 0.6-1.2 0.7c-3.6 0.5-6.4-3.9-9.1-8.1-2.2-3.5-4.5-7.1-7.1-7.5-1.2-0.2-2.3 0.2-3.4 1.2-4.1 3.3-2.2 25-0.3 46 1.9 20.3 3.8 41.2 0.3 46.4q-1.7 2.7-3.5 5.3z"/>
		</g>
		<g id="&lt;Group&gt;">
			<path id="&lt;Path&gt;" class="s1" d="m47.9 164.6l-0.4-0.3c3.2-5.1 9-15 11-24.9 3.4-16-5.2-63.9-11.2-76.1-3.1-6.3-1.9-11.3-0.2-14.4 2.5-4.9 7.9-8.6 14-9.5q1.6-0.2 2.5-1.7c3.3-5.5-2.8-22.5-6.4-32.6q-0.7-1.9-1.3-3.5l0.5-0.1q0.5 1.5 1.2 3.4c3.7 10.2 9.8 27.3 6.4 33q-1 1.7-2.9 2c-5.9 0.9-11.1 4.4-13.6 9.2-1.6 3-2.8 7.9 0.2 14 2.9 5.9 6.6 20.5 9.2 36.4 2.9 17.9 3.7 32.5 2.1 40-2.1 9.9-7.9 20-11.1 25.1z"/>
		</g>
		<g id="&lt;Group&gt;">
			<path id="&lt;Path&gt;" class="s1" d="m30 164.6l-0.4-0.3c14.9-22.5 3.9-80.7-0.2-102.6-3.4-17.9 7-21 14.6-23.1 3-0.9 5.6-1.7 6.8-3.1 3.4-3.9-11-23.8-21.4-33.8l0.3-0.3c9.9 9.4 25.4 29.9 21.5 34.4-1.4 1.5-4 2.3-7.1 3.2-7.8 2.3-17.5 5.1-14.2 22.6 4.1 22 15.1 80.3 0.1 103z"/>
		</g>
		<g id="&lt;Group&gt;">
			<path id="&lt;Path&gt;" class="s1" d="m8.6 164.6l-0.4-0.3c15.7-22.7 19.8-56.1 16.6-70.5-4.4-19.5-8.6-52.9-1.1-59.3q1.2-1.1 1-2.8c-0.5-6.3-15.5-17.7-23.4-22.4l0.2-0.4c9.3 5.4 23.1 16.5 23.7 22.8q0.2 1.9-1.2 3.1c-7 6-3.5 38 1.2 58.9 3.3 14.5-0.8 48.1-16.6 70.9z"/>
		</g>
		<g id="&lt;Group&gt;">
			<path id="&lt;Path&gt;" class="s1" d="m1.7 135h-0.5c2.7-29.7 5.6-41.2 7.9-50.4 1.6-6.3 2.8-11.3 3.6-20.1 1-12.8-7.7-20.3-11.4-23.5l-0.2-0.1 0.3-0.3 0.2 0.1c3.7 3.2 12.6 10.8 11.5 23.8-0.7 8.9-2 13.9-3.6 20.2-2.3 9.2-5.2 20.7-7.8 50.3z"/>
		</g>
		<g id="&lt;Group&gt;">
			<path id="&lt;Path&gt;" class="s1" d="m84.3 164.5l-0.5-0.1q0.5-1.8 0.8-3.6c1.4-9.5-0.7-24.4-2.6-37.6-2.1-15-3.8-26.9 0-27.6 3.6-0.6 5.8 0.7 8.1 2.1 1.2 0.7 2.3 1.4 3.7 1.9l-0.2 0.5c-1.4-0.6-2.6-1.3-3.7-2-2.4-1.4-4.4-2.6-7.8-2-3.4 0.6-1.6 13.4 0.4 27.1 1.9 13.2 4 28.1 2.5 37.7q-0.3 1.8-0.7 3.6z"/>
		</g>
	</g>
</svg>