<svg version="1.2" xmlns="http://www.w3.org/2000/svg" viewBox="0 0 147 73" width="147" height="73">
	<title>New Project</title>
	<style>
		.s0 { fill: #ffffff;stroke: #000000;stroke-linecap: square;stroke-linejoin: round;stroke-width: 1.4 } 
		.s1 { fill: #ffffff;stroke: #000000;stroke-linecap: round;stroke-linejoin: round;stroke-width: 1.4 } 
		.s2 { fill: #ffffff;stroke: #000000;stroke-linecap: square;stroke-linejoin: round;stroke-width: 1.1 } 
	</style>
	<g id="&lt;Group&gt;">
		<path id="&lt;Path&gt;" class="s0" d="m138.9 71.9h-130.8c-3.9 0-7-3.2-7-7.1v-56.3c0-3.9 3.1-7 7-7h130.8c3.9 0 7.1 3.1 7.1 7v56.3c0 3.9-3.2 7.1-7.1 7.1z"/>
		<path id="&lt;Path&gt;" class="s0" d="m138.9 71.9h-130.8c-3.9 0-7-3.2-7-7.1v-56.3c0-3.9 3.1-7 7-7h130.8c3.9 0 7.1 3.1 7.1 7v56.3c0 3.9-3.2 7.1-7.1 7.1z"/>
		<g id="&lt;Group&gt;">
			<path id="&lt;Path&gt;" class="s1" d="m74.3 2.8c2.2 0 3.9 1.7 3.9 3.9 0 2.2-1.7 3.9-3.9 3.9-2.2 0-3.9-1.7-3.9-3.9 0-2.2 1.7-3.9 3.9-3.9z"/>
		</g>
		<path id="&lt;Path&gt;" class="s0" d="m140.2 12.9v46.2c0 2.8-2.3 5.1-5.1 5.1h-52.5c-2.8 0-5.1-2.3-5.1-5.1v-44.3l14.4 12.8c0.9 0.8 2.2 0.8 3.1-0.1 0.8-0.8 0.9-2.2 0.1-3.1l-14.3-16.2q0.8-0.4 1.8-0.4h52.5c2.8 0 5.1 2.3 5.1 5.1z"/>
		<path id="&lt;Path&gt;" class="s0" d="m71.4 12.9v46.2c0 2.8-2.3 5.1-5.1 5.1h-52.4c-2.8 0-5.1-2.3-5.1-5.1v-46.2c0-2.8 2.3-5.1 5.1-5.1h52.4c2.8 0 5.1 2.3 5.1 5.1z"/>
		<g id="&lt;Group&gt;">
			<path id="&lt;Path&gt;" class="s1" d="m77 3.9q0 0 0 0z"/>
			<path id="&lt;Path&gt;" class="s1" d="m95 27.5c-0.9 0.9-2.2 0.9-3.1 0.1l-19.9-17.7c0.6 0.4 1.4 0.7 2.3 0.7 1.2 0 9.3 7.2 10.1 6.3 0.9-0.9-6.2-9.3-6.2-10.2 0-0.9-0.3-1.7-0.8-2.3l17.7 20c0.8 0.9 0.7 2.3-0.1 3.1z"/>
			<path id="&lt;Path&gt;" class="s1" d="m71.4 9.4q0 0 0 0z"/>
		</g>
		<path id="&lt;Path&gt;" class="s0" d="m108.8 12.3c3.8 0 6.9 3.1 6.9 6.9 0 3.8-3.1 6.9-6.9 6.9-3.8 0-6.8-3.1-6.8-6.9 0-3.8 3-6.9 6.8-6.9z"/>
		<path id="&lt;Path&gt;" class="s2" d="m108.8 15.1c2.3 0 4.2 1.8 4.2 4.1 0 2.3-1.9 4.2-4.2 4.2-2.2 0-4.1-1.9-4.1-4.2 0-2.3 1.9-4.1 4.1-4.1z"/>
		<path id="&lt;Path&gt;" class="s0" d="m40.1 12.3c3.8 0 6.9 3.1 6.9 6.9 0 3.8-3.1 6.9-6.9 6.9-3.8 0-6.9-3.1-6.9-6.9 0-3.8 3.1-6.9 6.9-6.9z"/>
		<path id="&lt;Path&gt;" class="s2" d="m40.1 15.1c2.3 0 4.2 1.8 4.2 4.1 0 2.3-1.9 4.2-4.2 4.2-2.3 0-4.1-1.9-4.1-4.2 0-2.3 1.8-4.1 4.1-4.1z"/>
	</g>
</svg>