<svg version="1.2" xmlns="http://www.w3.org/2000/svg" viewBox="0 0 56 47" width="56" height="47">
	<title>template</title>
	<style>
		.s0 { fill: #ffffff;stroke: #494949;stroke-width: 2 } 
		.s1 { opacity: .1;fill: #ffffff;stroke: #494949;stroke-width: 2 } 
	</style>
	<g id="&lt;Group&gt;">
		<path id="&lt;Path&gt;" class="s0" d="m48.8 8.9c8.1 8.8 7.5 22.5-1.3 30.6-8.8 8.1-22.5 7.5-30.6-1.3-8-8.8-7.4-22.5 1.4-30.6 8.8-8.1 22.5-7.5 30.5 1.3z"/>
		<path id="&lt;Path&gt;" class="s0" d="m46.6 8.8c8.1 8.8 7.5 22.5-1.3 30.6-8.8 8.1-22.5 7.5-30.6-1.3-8-8.8-7.4-22.5 1.4-30.6 8.8-8.1 22.4-7.5 30.5 1.3z"/>
		<path id="&lt;Path&gt;" class="s0" d="m42.5 12.6c6 6.5 5.5 16.7-1 22.7-6.5 6-16.7 5.5-22.7-1-5.9-6.5-5.5-16.7 1-22.7 6.6-6 16.7-5.5 22.7 1z"/>
		<path id="&lt;Path&gt;" class="s0" d="m31.1 39.5c-4.5 0.1-9-1.6-12.3-5.2-5.9-6.5-5.5-16.7 1-22.7 3.6-3.2 8.2-4.6 12.7-4.1-3.8 0.1-7.5 1.5-10.5 4.2-6.5 6-6.9 16.2-0.9 22.7 2.7 3 6.3 4.7 10 5.1z"/>
		<g id="&lt;Group&gt;">
			<path id="&lt;Path&gt;" class="s0" d="m27.8 31.6c1.2 0 2.1 0.8 2.1 1.9 0 1-0.9 1.9-2.1 1.9-1.2 0-2.1-0.9-2.1-1.9 0-1.1 0.9-1.9 2.1-1.9z"/>
			<path id="&lt;Path&gt;" class="s0" d="m27.8 31.6c1.2 0 2.1 0.8 2.1 1.9 0 0.6-0.3 1.1-0.8 1.5 0.3-0.4 0.5-0.8 0.5-1.3 0-1-0.9-1.9-2.1-1.9-0.5 0-0.9 0.2-1.3 0.5 0.4-0.4 1-0.7 1.6-0.7z"/>
			<path id="&lt;Path&gt;" class="s0" d="m28 35.1c-0.2 0.3-0.9 0.2-1.6-0.4-0.6-0.6-0.6-1.3-0.3-1.4 0.7-0.3 1-0.2 1.5 0.2 0.5 0.3 0.7 1.1 0.4 1.6z"/>
		</g>
		<g id="&lt;Group&gt;">
			<path id="&lt;Path&gt;" class="s0" d="m31.6 33.5c1.2 0 2.1 0.9 2.1 1.9 0 1.1-0.9 1.9-2.1 1.9-1.2 0-2.1-0.8-2.1-1.9 0-1 0.9-1.9 2.1-1.9z"/>
			<path id="&lt;Path&gt;" class="s0" d="m31.6 33.5c1.2 0 2.1 0.9 2.1 1.9 0 0.6-0.3 1.1-0.8 1.5 0.3-0.3 0.5-0.8 0.5-1.2 0-1.1-0.9-1.9-2.1-1.9-0.5 0-1 0.1-1.3 0.4 0.4-0.4 0.9-0.7 1.6-0.7z"/>
			<path id="&lt;Path&gt;" class="s0" d="m31.8 37c-0.2 0.3-0.9 0.2-1.6-0.4-0.6-0.5-0.7-1.3-0.3-1.4 0.7-0.2 1-0.1 1.5 0.2 0.5 0.3 0.7 1.1 0.4 1.6z"/>
		</g>
		<g id="&lt;Group&gt;">
			<path id="&lt;Path&gt;" class="s0" d="m20.4 31.2l-1.7-0.5 2.1-7.9 1.7 0.5z"/>
			<path id="&lt;Path&gt;" class="s0" d="m20.3 31.3l-1.5-0.4 2.1-8.2 1.5 0.4z"/>
			<path id="&lt;Path&gt;" class="s0" d="m18.8 30.9l2.1-8.2 1.5 0.4c0 0-1.6 0.8-3.6 7.8z"/>
		</g>
		<g id="&lt;Group&gt;">
			<path id="&lt;Path&gt;" class="s0" d="m17.9 27.7l-1.8-0.4 2.1-7.9 1.8 0.4z"/>
			<path id="&lt;Path&gt;" class="s0" d="m17.7 27.8l-1.5-0.4 2.2-8.1 1.5 0.4z"/>
			<path id="&lt;Path&gt;" class="s0" d="m16.2 27.4l2.2-8.1 1.5 0.4c0 0-1.7 0.8-3.7 7.7z"/>
		</g>
		<g id="&lt;Group&gt;">
			<path id="&lt;Path&gt;" class="s0" d="m18.7 16.1l0.2-1.8 8.1 0.9-0.2 1.8z"/>
			<path id="&lt;Path&gt;" class="s0" d="m18.5 16l0.2-1.6 8.4 1-0.2 1.5z"/>
			<path id="&lt;Path&gt;" class="s0" d="m18.7 14.4l8.4 1-0.2 1.5c0 0-1-1.5-8.2-2.5z"/>
		</g>
		<g id="&lt;Group&gt;">
			<path id="&lt;Path&gt;" class="s0" d="m18.3 28.1l-1.3-1.3 5.7-5.9 1.3 1.3z"/>
			<path id="&lt;Path&gt;" class="s0" d="m18.1 28.1l-1.1-1.1 5.9-6.1 1.1 1.1z"/>
			<path id="&lt;Path&gt;" class="s0" d="m17 27l5.9-6.1 1.1 1.1c0 0-1.8-0.1-7 5z"/>
		</g>
		<g id="&lt;Group&gt;">
			<path id="&lt;Path&gt;" class="s0" d="m15.9 22.8l-0.5-1.8 8-2 0.4 1.8z"/>
			<path id="&lt;Path&gt;" class="s0" d="m15.7 22.7l-0.3-1.6 8.2-2 0.3 1.5z"/>
			<path id="&lt;Path&gt;" class="s0" d="m15.4 21.1l8.2-2 0.3 1.5c0 0-1.5-1-8.5 0.5z"/>
		</g>
		<g id="&lt;Group&gt;">
			<path id="&lt;Path&gt;" class="s0" d="m18 19.4l-0.4-1.8 8-1.9 0.4 1.8z"/>
			<path id="&lt;Path&gt;" class="s0" d="m17.9 19.3l-0.4-1.5 8.2-2 0.4 1.5z"/>
			<path id="&lt;Path&gt;" class="s0" d="m17.5 17.8l8.2-2 0.4 1.5c0 0-1.5-1.1-8.6 0.5z"/>
		</g>
		<g id="&lt;Group&gt;">
			<path id="&lt;Compound Path&gt;" fill-rule="evenodd" class="s0" d="m35 24.3l0.9 1.7 1.6 1.3c1.9 1.6 2 4.5 0.3 6.3l-1.2 1.4-0.7 1.8c-0.9 2.3-3.6 3.4-5.9 2.4l-1.9-0.8-1.9-0.2c-2.3-0.1-4.2-2.2-4-4.6l0.1-2.2-0.4-2c-0.5-2.3 0.9-4.6 3.2-5.1l2-0.6 1.9-1c2.1-1.2 4.8-0.5 6 1.6zm-5.3-0.5l-2.1 1.2-2.2 0.6c-0.7 0.2-1.4 0.6-1.8 1.3-0.4 0.6-0.6 1.4-0.4 2.2l0.4 2.2-0.1 2.4c-0.1 1.6 1.2 3.1 2.8 3.2l2.2 0.1 2.1 1c1.3 0.6 3 0.1 3.8-1.2q0.1-0.2 0.2-0.5l0.7-2.1 1.6-1.5q0.2-0.2 0.3-0.4c0.8-1.3 0.5-3-0.6-4l-1.9-1.4-0.9-1.9c-0.8-1.4-2.7-2-4.1-1.2z"/>
			<path id="&lt;Compound Path&gt;" fill-rule="evenodd" class="s0" d="m34.1 24.8l0.8 2.1 1.9 1.2c1.3 1.1 1.5 2.9 0.7 4.3q-0.2 0.3-0.4 0.5l-1.7 1.3-0.5 2.2q-0.1 0.3-0.3 0.6c-0.8 1.4-2.6 1.9-4.1 1.2l-2.1-1.1-2.1 0.1c-1.8-0.1-3.2-1.7-3.1-3.5l0.4-2.4-0.7-2.1c-0.2-0.9 0-1.7 0.4-2.5 0.5-0.7 1.2-1.2 2-1.4l2.2-0.3 2-1.4c1.6-0.9 3.7-0.3 4.6 1.2zm-4.4-1l-1.9 1.7-2.4 0.1c-0.7 0.2-1.4 0.6-1.8 1.3-0.4 0.6-0.6 1.4-0.4 2.2l1 2.2-0.7 2.4c-0.1 1.6 1.2 3.1 2.8 3.2l2.3-0.3 2 1.4c1.3 0.6 3 0.1 3.8-1.2q0.1-0.2 0.2-0.5l0.4-2.3 1.9-1.3q0.2-0.2 0.3-0.4c0.8-1.3 0.5-3-0.6-4l-2.1-1-0.7-2.3c-0.8-1.4-2.7-2-4.1-1.2z"/>
		</g>
		<g id="&lt;Group&gt;">
			<path id="&lt;Compound Path&gt;" fill-rule="evenodd" class="s0" d="m42.5 20.5l1 1.6 1.6 1.4c1.8 1.6 2 4.4 0.3 6.3l-1.3 1.4-0.7 1.7c-0.9 2.3-3.5 3.4-5.8 2.4l-1.9-0.8-1.9-0.1c-2.4-0.2-4.2-2.3-4.1-4.6l0.2-2.3-0.4-2c-0.5-2.3 0.9-4.5 3.2-5.1l2-0.5 1.9-1.1c2.1-1.1 4.7-0.4 5.9 1.7zm-5.2-0.5l-2.1 1.1-2.2 0.6c-0.8 0.2-1.4 0.7-1.8 1.3-0.4 0.7-0.6 1.5-0.4 2.2l0.4 2.2-0.1 2.4c-0.1 1.7 1.2 3.1 2.8 3.2l2.1 0.2 2.2 0.9c1.3 0.6 2.9 0.1 3.7-1.2q0.2-0.2 0.3-0.5l0.6-2.1 1.6-1.4q0.2-0.3 0.4-0.5c0.8-1.3 0.5-2.9-0.6-3.9l-1.9-1.5-0.9-1.9c-0.9-1.4-2.7-1.9-4.1-1.1z"/>
			<path id="&lt;Compound Path&gt;" fill-rule="evenodd" class="s0" d="m41.6 21l0.8 2 2 1.3c1.2 1 1.5 2.9 0.6 4.3q-0.1 0.2-0.3 0.5l-1.7 1.3-0.5 2.1q-0.1 0.3-0.3 0.6c-0.9 1.4-2.7 1.9-4.2 1.3l-2-1.2-2.1 0.1c-1.8-0.1-3.2-1.7-3.1-3.5l0.4-2.3-0.7-2.2c-0.2-0.8 0-1.7 0.4-2.4 0.5-0.8 1.2-1.3 2-1.5l2.2-0.3 2-1.4c1.6-0.9 3.6-0.3 4.5 1.3zm-4.3-1l-2 1.7h-2.3c-0.8 0.2-1.4 0.7-1.8 1.3-0.4 0.7-0.6 1.5-0.4 2.2l0.9 2.2-0.6 2.4c-0.1 1.7 1.2 3.1 2.8 3.2l2.3-0.2 2 1.3c1.3 0.6 2.9 0.1 3.7-1.2q0.2-0.2 0.3-0.5l0.4-2.3 1.8-1.2q0.2-0.3 0.4-0.5c0.8-1.3 0.5-2.9-0.6-3.9l-2.1-1.1-0.7-2.3c-0.9-1.4-2.7-1.9-4.1-1.1z"/>
		</g>
		<g id="&lt;Group&gt;">
			<path id="&lt;Path&gt;" class="s0" d="m22.8 11.8l2.2-3.7c0 0 0.1 1.1 0.1 3.8 0 2.6-0.3 3.8-0.3 3.8z"/>
			<path id="&lt;Path&gt;" class="s0" d="m22.8 11.8c0.1-0.5 2.5-1.7 3.5-1.6 1.6 0 1.3 0.8 1.3 1.7 0 1 0.2 1.8-1.4 1.8-0.9 0-3.4-1.2-3.4-1.9z"/>
			<path id="&lt;Path&gt;" class="s0" d="m27.6 12.7c0 0.6-0.2 1-1.4 1-0.9 0-3.3-1.2-3.4-1.8 1 0.6 2.6 1.2 3.3 1.2 0.9 0 1.3-0.2 1.5-0.4z"/>
			<path id="&lt;Path&gt;" class="s0" d="m21.8 11.8c0-2.1 1.8-3.8 3.2-3.7 0 0-0.8 1.7-0.8 3.8 0 2.1 0.6 3.8 0.6 3.8-1.3 0.1-3.1-1.8-3-3.9z"/>
			<path id="&lt;Path&gt;" class="s0" d="m21.8 11.8c0-2.1 1.8-3.8 3.2-3.7 0 0-0.1 0.2-0.3 0.6-1.2 0.4-2.6 1.9-2.6 3.7 0 0.6 0.1 1.2 0.4 1.8-0.4-0.7-0.7-1.5-0.7-2.4z"/>
		</g>
		<g id="&lt;Group&gt;">
			<path id="&lt;Compound Path&gt;" fill-rule="evenodd" class="s0" d="m38.8 15.9l1.5 1 1.9 0.6c2.3 0.7 3.6 3.1 2.9 5.4l-0.6 1.7 0.1 1.9c0.1 2.4-1.8 4.4-4.2 4.4h-2l-1.7 0.7c-2.2 0.8-4.6-0.3-5.4-2.4l-0.8-2-1.2-1.7c-1.3-1.8-1-4.3 0.8-5.7l1.5-1.3 1.3-1.7c1.4-1.9 4-2.3 5.9-0.9zm-4.8 1.6l-1.4 1.9-1.7 1.4c-0.6 0.4-1 1.1-1.1 1.9-0.1 0.7 0.1 1.5 0.6 2.1l1.2 1.7 0.9 2.2c0.5 1.5 2.2 2.2 3.7 1.7l2-0.7 2.2-0.1c1.5 0 2.7-1.1 2.9-2.5q0-0.3 0-0.6l-0.3-2.1 0.8-1.9q0.1-0.3 0.2-0.6c0.2-1.4-0.7-2.8-2.1-3.2l-2.3-0.5-1.6-1.3c-1.3-0.9-3.1-0.6-4 0.6z"/>
			<path id="&lt;Compound Path&gt;" fill-rule="evenodd" class="s0" d="m38.2 16.7l1.6 1.4 2.2 0.3c1.5 0.5 2.5 2 2.3 3.6q-0.1 0.3-0.2 0.6l-0.9 1.8 0.4 2.1q0 0.3 0 0.6c-0.2 1.6-1.6 2.8-3.2 2.8l-2.2-0.2-1.9 1c-1.6 0.6-3.5-0.3-4.1-1.9l-0.6-2.2-1.5-1.7c-0.5-0.6-0.7-1.5-0.6-2.3 0.1-0.8 0.6-1.5 1.2-2.1l1.8-1.1 1.2-2c1.1-1.5 3.1-1.8 4.5-0.7zm-4.2 0.8l-1 2.3-2.1 1c-0.6 0.4-1 1.1-1.1 1.9-0.1 0.7 0.1 1.5 0.6 2.1l1.7 1.5 0.4 2.4c0.5 1.5 2.2 2.2 3.7 1.7l1.9-1.2 2.3 0.4c1.5 0 2.7-1.1 2.9-2.5q0-0.3 0-0.6l-0.6-2.2 1.1-1.8q0.1-0.3 0.2-0.6c0.2-1.4-0.7-2.8-2.1-3.2l-2.3-0.1-1.6-1.7c-1.3-0.9-3.1-0.6-4 0.6z"/>
		</g>
		<g id="&lt;Group&gt;">
			<g id="&lt;Group&gt;">
				<path id="&lt;Path&gt;" class="s0" d="m35.6 8.5l0.2 0.1c0.9 0.2 1.8 0.4 2.5 1 0.5 0.3 0.9 0.8 1.2 1.2q0.2 0.1 0.3 0.3c1.6 1.9 2.5 4.2 2.5 6.7q0 1-0.2 2-0.3 2.2-1.5 4.6-0.9 1.8-2.1 3.3l-0.1 0.1c-0.7 0.9-1.4 1.8-2.4 2.4q-0.2 0.2-0.3 0.3c-0.6 0.3-1.3 0.6-1.9 0.8l-0.1 0.1c-3.4 1.3-6.7 0.6-9-1.8q-0.1-0.1-0.3-0.3c-0.3-0.3-0.6-0.6-0.7-0.7-0.6-0.8-0.9-1.5-1.1-2.4q-0.1-0.2-0.2-0.4c-0.4-1.2-0.6-2.3-0.6-3.3q0-0.8 0.1-1.6 0.2-0.7 0.4-1.5 0.9-3.1 2.7-5.6c0.3-0.4 0.7-0.8 1.1-1.1q0.2-0.3 0.5-0.6 0.2-0.2 0.3-0.3c0.5-0.6 1.1-1.3 1.7-1.8q0.2-0.1 0.3-0.2c0.7-0.4 1.4-0.8 2.3-1.1 1.3-0.5 2.9-0.6 4.4-0.2z"/>
				<path id="&lt;Path&gt;" class="s0" d="m35.5 8.8c1 0.3 1.9 0.5 2.6 1 0.6 0.4 1 1 1.4 1.5 1.6 1.8 2.4 4.1 2.5 6.5 0 2.2-0.7 4.5-1.7 6.4-0.6 1.2-1.3 2.3-2.1 3.3-0.7 0.9-1.4 1.8-2.4 2.5-0.6 0.5-1.5 0.8-2.3 1.1-3.5 1.4-6.5 0.4-8.6-1.7-0.2-0.3-0.8-0.8-1-1-0.6-0.9-0.8-1.6-1.2-2.7-0.3-1-0.6-2.1-0.6-3.2 0-1 0.2-2 0.5-3 0.5-2 1.4-3.8 2.7-5.5 0.4-0.6 1-1.1 1.5-1.7 0.7-0.7 1.3-1.4 2-2 0.8-0.6 1.6-1 2.5-1.3 1.3-0.5 2.8-0.5 4.2-0.2z"/>
				<g id="&lt;Group&gt;">
					<path id="&lt;Path&gt;" class="s0" d="m26.6 24.3q-0.2-0.4-0.3-0.8-0.2-0.3-0.3-0.7-0.2-0.3-0.3-0.7-0.1-0.3-0.2-0.6-0.1-0.4-0.2-0.7-0.1-0.3-0.2-0.6-0.1-0.6-0.2-1.1 0-0.2 0-0.3 0-0.1 0-0.2-0.1-0.3-0.1-0.5 0-0.2 0-0.4-0.1-0.1-0.1-0.3 0-0.6 0-0.6 0 0 0.2 0.6 0 0.1 0.1 0.3 0 0.2 0.1 0.4 0.1 0.2 0.1 0.4 0.1 0.1 0.1 0.2 0 0.1 0.1 0.3 0.1 0.4 0.4 1 0.1 0.3 0.2 0.6 0.1 0.3 0.2 0.6 0.1 0.3 0.3 0.6 0.1 0.4 0.3 0.7 0.1 0.3 0.3 0.7 0.2 0.3 0.3 0.6 0.7 1.4 1.4 2.6 0.2 0.3 0.4 0.6 0 0.1 0.1 0.2 0.1 0.1 0.2 0.3 0.2 0.2 0.3 0.5 0.2 0.2 0.3 0.4 0.1 0.1 0.2 0.2 0 0.1 0 0.1 0.1 0.1 0.1 0.1 0.1 0.2 0.3 0.3 0.1 0.2 0.2 0.4 0.1 0.1 0.2 0.2 0.4 0.5 0.4 0.5 0 0-0.5-0.4-0.1-0.1-0.3-0.2-0.1-0.1-0.2-0.3-0.2-0.1-0.4-0.3 0 0-0.1 0 0-0.1 0-0.1-0.1-0.1-0.2-0.2-0.2-0.2-0.4-0.4-0.2-0.2-0.4-0.4-0.1-0.2-0.2-0.3-0.1-0.1-0.2-0.2-0.2-0.3-0.4-0.6c-0.6-0.7-1.1-1.6-1.6-2.5z"/>
				</g>
				<g id="&lt;Group&gt;">
					<path id="&lt;Path&gt;" class="s0" d="m30.2 20.9q-0.2-0.4-0.3-0.8-0.2-0.4-0.3-0.8-0.2-0.3-0.3-0.7-0.1-0.4-0.2-0.7-0.1-0.4-0.1-0.8-0.1-0.3-0.2-0.6-0.1-0.7-0.1-1.2 0-0.2-0.1-0.3 0-0.1 0-0.3 0-0.2 0-0.4 0-0.3 0-0.5 0-0.1 0-0.3 0-0.6 0-0.7 0 0.1 0.2 0.7 0 0.1 0 0.3 0 0.2 0.1 0.4 0 0.2 0.1 0.5 0 0.1 0.1 0.2 0 0.1 0 0.3 0.2 0.5 0.3 1.1 0.1 0.3 0.2 0.7 0.1 0.3 0.3 0.6 0.1 0.4 0.2 0.7 0.1 0.4 0.3 0.7 0.2 0.4 0.3 0.8 0.2 0.3 0.4 0.7 0.7 1.5 1.5 2.7 0.2 0.3 0.3 0.6 0.1 0.1 0.2 0.3 0.1 0.1 0.2 0.2 0.2 0.3 0.4 0.5 0.2 0.3 0.3 0.5 0.1 0.1 0.2 0.2 0.1 0.1 0.2 0.2 0.1 0.2 0.3 0.4 0.1 0.1 0.2 0.3 0.2 0.1 0.3 0.2 0.4 0.5 0.4 0.5 0 0-0.5-0.4-0.2-0.1-0.3-0.2-0.2-0.1-0.3-0.2-0.2-0.2-0.4-0.3-0.1-0.1-0.2-0.2-0.1-0.1-0.2-0.2-0.2-0.2-0.4-0.4-0.2-0.2-0.5-0.5-0.1-0.1-0.2-0.2-0.1-0.1-0.2-0.3-0.3-0.2-0.5-0.5c-0.6-0.8-1.2-1.8-1.7-2.8z"/>
				</g>
				<g id="&lt;Group&gt;">
					<path id="&lt;Path&gt;" class="s0" d="m34.6 16.8q-0.6-1.4-1.1-2.7-0.2-0.6-0.4-1.2-0.1-0.3-0.2-0.5-0.1-0.3-0.1-0.5-0.1-0.5-0.2-0.9-0.1-0.2-0.1-0.4 0-0.2-0.1-0.3-0.1-0.6-0.1-0.6 0 0 0.3 0.6 0 0.1 0.1 0.2 0.1 0.2 0.1 0.4 0.2 0.4 0.4 0.8 0.1 0.2 0.2 0.5 0.2 0.2 0.3 0.5 0.2 0.5 0.5 1.1 0.6 1.2 1.3 2.6 0.7 1.3 1.3 2.5 0.1 0.3 0.3 0.6 0.1 0.2 0.3 0.5 0.1 0.3 0.2 0.5 0.2 0.2 0.3 0.5 0.2 0.4 0.4 0.7 0.1 0.2 0.2 0.4 0.1 0.1 0.2 0.2 0.2 0.5 0.3 0.6-0.1-0.1-0.4-0.5-0.1-0.1-0.3-0.2-0.1-0.1-0.2-0.3-0.3-0.3-0.6-0.7-0.1-0.2-0.3-0.4-0.2-0.2-0.4-0.5-0.1-0.2-0.3-0.5-0.2-0.2-0.4-0.5-0.7-1.1-1.5-2.5z"/>
				</g>
				<g id="&lt;Group&gt;">
					<path id="&lt;Path&gt;" class="s0" d="m31.4 20.6c1-0.8 2.1-1.4 3.1-1.9q0.4-0.2 0.8-0.4 0.1 0 0.1-0.1 0.1 0 0.2-0.1 0.2 0 0.4-0.1 0.1-0.1 0.3-0.1 0.2-0.1 0.3-0.2 0.4-0.1 0.7-0.2 0.6-0.2 1.1-0.3 0.2-0.1 0.4-0.2 0.2 0 0.4 0 0.7-0.2 0.7-0.2 0 0-0.7 0.3-0.1 0.1-0.3 0.2-0.2 0-0.4 0.1-0.5 0.3-1 0.5-0.3 0.2-0.6 0.3-0.2 0.1-0.3 0.2-0.2 0.1-0.4 0.2-0.1 0.1-0.3 0.1-0.1 0.1-0.2 0.1 0 0.1-0.1 0.1-0.4 0.2-0.7 0.4-1.4 0.9-3 2-1.5 1.1-2.7 2.2-0.3 0.3-0.6 0.6-0.1 0-0.2 0.1-0.1 0.1-0.1 0.1-0.2 0.2-0.3 0.3-0.1 0.1-0.3 0.2-0.1 0.2-0.2 0.3-0.2 0.2-0.5 0.4-0.4 0.5-0.7 0.9-0.2 0.1-0.4 0.3-0.1 0.2-0.2 0.3-0.5 0.5-0.5 0.5 0 0 0.4-0.6 0.1-0.1 0.2-0.3 0.1-0.2 0.2-0.4 0.3-0.4 0.7-1 0.2-0.2 0.4-0.5 0.1-0.1 0.2-0.3 0.1-0.1 0.2-0.2 0.2-0.2 0.3-0.3 0.1-0.1 0.1-0.2 0.1-0.1 0.2-0.1 0.2-0.3 0.5-0.6c0.8-0.8 1.7-1.7 2.8-2.4z"/>
				</g>
				<g id="&lt;Group&gt;">
					<path id="&lt;Path&gt;" class="s0" d="m31 13.9c0.7-0.5 1.5-0.9 2.2-1.1q0.5-0.3 1-0.4 0.2-0.1 0.5-0.1 0.2-0.1 0.4-0.2 0.4-0.1 0.7-0.1 0.2 0 0.3-0.1 0.2 0 0.3 0 0.5 0 0.5 0 0 0-0.5 0.1-0.1 0.1-0.2 0.1-0.1 0.1-0.3 0.2-0.3 0.1-0.7 0.3-0.1 0.1-0.4 0.2-0.2 0.1-0.4 0.2-0.4 0.2-0.9 0.5-0.9 0.5-2 1.2-1 0.6-1.9 1.3-0.4 0.3-0.8 0.6-0.2 0.2-0.4 0.3-0.2 0.2-0.3 0.3-0.3 0.3-0.6 0.5-0.1 0.1-0.2 0.2-0.1 0.1-0.2 0.2-0.3 0.3-0.4 0.3 0 0 0.3-0.4 0.1-0.1 0.1-0.2 0.1-0.1 0.2-0.3 0.2-0.3 0.4-0.6 0.2-0.2 0.3-0.4 0.2-0.1 0.3-0.3 0.4-0.4 0.8-0.8c0.5-0.5 1.2-1 1.9-1.5z"/>
				</g>
			</g>
			<path id="&lt;Path&gt;" class="s1" d="m28.9 9.8q0 0.2 0 0.5-0.2 1.3-0.2 2.8-0.1 1 0 2 0 0.4 0 0.7 0 0.5 0 0.9c0.1 1.8 0.4 3.6 0.9 5.3q0.1 0.5 0.2 0.9c1 3 2.7 5.6 5.5 7.4q0.2 0.1 0.4 0.2c-0.6 0.3-1.3 0.6-1.9 0.8l-0.1 0.1c-3.4 1.3-6.7 0.6-9-1.8q-0.1-0.1-0.3-0.3c-0.3-0.3-0.6-0.6-0.7-0.7-0.6-0.8-0.9-1.5-1.1-2.4q-0.1-0.2-0.2-0.4c-0.4-1.2-0.6-2.3-0.6-3.3q0-0.8 0.1-1.6 0.2-0.7 0.4-1.5 0.9-3.1 2.7-5.6c0.3-0.4 0.7-0.8 1.1-1.1q0.2-0.3 0.5-0.6 0.2-0.2 0.3-0.3c0.5-0.6 1.1-1.3 1.7-1.8q0.2-0.1 0.3-0.2z"/>
		</g>
	</g>
	<g id="&lt;Group&gt;">
		<path id="&lt;Path&gt;" class="s0" d="m3.7 6.7c0.2-0.4 1.3-0.4 1.6 0 1.4 1.8 0 20.6 0 20.6h-1.6c0 0-1.5-18.6 0-20.6z"/>
		<path id="&lt;Path&gt;" class="s0" d="m1.5 37.4c-0.2-1.8-0.3-6.3-0.3-7.4 0-4 1.5-5 3.3-5 1.8 0 3.2 1 3.2 5 0 1.1-0.1 5.6-0.2 7.4-0.1 0.3-0.3 0.6-0.5 0.6-0.3 0-0.5-0.3-0.5-0.7v-8h-0.6v8c0 0.4-0.2 0.7-0.5 0.7h-0.2c-0.2 0-0.4-0.3-0.4-0.7v-8h-0.6v8c0 0.4-0.2 0.7-0.5 0.7h-0.2c-0.2 0-0.5-0.3-0.5-0.7v-8h-0.5v8c0 0.4-0.3 0.7-0.5 0.7-0.3 0-0.5-0.3-0.5-0.6z"/>
	</g>
</svg>