<svg version="1.2" xmlns="http://www.w3.org/2000/svg" viewBox="0 0 122 65" width="122" height="65">
	<title>New Project</title>
	<style>
		.s0 { fill: #ffffff;stroke: #000000;stroke-linecap: round;stroke-linejoin: round;stroke-width: 1.4 } 
		.s1 { fill: #ffffff;stroke: #000000;stroke-linecap: round } 
		.s2 { fill: #ffffff;stroke: #000000;stroke-linecap: square;stroke-linejoin: round } 
		.s3 { fill: #ffffff;stroke: #000000;stroke-linecap: round;stroke-linejoin: round } 
	</style>
	<g id="&lt;Group&gt;">
		<path id="&lt;Path&gt;" class="s0" d="m21.9 0.7h78.2c1.2 0 2.4 0.5 3.2 1.4l16.7 16.7c1.8 1.7 1.8 4.6 0 6.3l-37 37.1c-0.8 0.8-2 1.3-3.2 1.3h-37.5c-1.2 0-2.4-0.5-3.2-1.3l-37.1-37.1c-1.7-1.8-1.7-4.6 0-6.4l16.7-16.6c0.8-0.9 2-1.4 3.2-1.4z"/>
		<path id="&lt;Path&gt;" class="s0" d="m75.4 58.9h-28.4c-4.4 0-8-3.6-8-8v-38.6c0-4.5 3.6-8 8-8h28.4c4.4 0 8 3.5 8 8v38.6c0 4.4-3.6 8-8 8z"/>
		<path id="&lt;Path&gt;" class="s0" d="m51.9 53.9c-4.4 0-7.9-3.5-7.9-7.9v-28.9c0-4.3 3.5-7.8 7.9-7.8h18.6c4.4 0 7.9 3.5 7.9 7.8v28.9c0 4.4-3.5 7.9-7.9 7.9z"/>
		<path id="&lt;Path&gt;" class="s0" d="m87 17.2l9.8-9.8c1.5-1.5 4-1.5 5.5 0l12.1 12.1c1.5 1.5 1.5 4 0 5.5l-21.9 21.9c-2.4 2.4-6.6 0.7-6.6-2.7v-24.3c0-1 0.4-2 1.1-2.7z"/>
		<path id="&lt;Path&gt;" class="s1" d="m20.5 7.6h16.6v5.3h-21.8z"/>
		<path id="&lt;Path&gt;" class="s1" d="m12.8 15.3h24.3v5.2h-29.6z"/>
		<path id="&lt;Path&gt;" class="s1" d="m15.3 30.3h21.8v5.3h-16.6z"/>
		<path id="&lt;Path&gt;" class="s1" d="m7.5 22.6h29.6v5.3h-24.3z"/>
		<path id="&lt;Path&gt;" class="s1" d="m22.7 37.9h14.4v5.3h-9.1z"/>
		<path id="&lt;Path&gt;" class="s2" d="m67.5 15.3c3.1 0 5.6 2.5 5.6 5.6 0 3.1-2.5 5.6-5.6 5.6-3.1 0-5.6-2.5-5.6-5.6 0-3.1 2.5-5.6 5.6-5.6z"/>
		<path id="&lt;Path&gt;" class="s2" d="m95.8 16c3.1 0 5.6 2.5 5.6 5.6 0 3.1-2.5 5.6-5.6 5.6-3.2 0-5.7-2.5-5.7-5.6 0-3.1 2.5-5.6 5.7-5.6z"/>
		<path id="&lt;Path&gt;" class="s2" d="m95.8 18.2c1.8 0 3.3 1.5 3.3 3.4 0 1.9-1.5 3.4-3.3 3.4-1.9 0-3.4-1.5-3.4-3.4 0-1.9 1.5-3.4 3.4-3.4z"/>
		<g id="&lt;Group&gt;">
			<g id="&lt;Group&gt;">
				<path id="&lt;Path&gt;" class="s3" d="m91.9 10l-23.4 12.9c-1.1 0.6-2.4 0.2-3.1-0.8-0.6-1-0.3-2.3 0.6-3l21.7-15.6c-0.6 0.5 3.4 6.9 4.2 6.5z"/>
				<path id="&lt;Path&gt;" class="s3" d="m92.4 9.7q0 0 0 0z"/>
			</g>
			<g id="&lt;Group&gt;">
				<path id="&lt;Path&gt;" class="s3" d="m92.4 9.7q0 0 0 0z"/>
				<path id="&lt;Path&gt;" class="s3" d="m91.9 10l-23.4 12.9c-1.1 0.6-2.4 0.2-3.1-0.8-0.6-1-0.3-2.3 0.6-3l21.7-15.6c-0.6 0.5-1.1 1.3-1.3 2.1-0.2 1.2-9 7.5-8.3 8.5 0.7 1 10.4-4 11.3-3.8 0.9 0.2 1.7 0.1 2.5-0.3z"/>
			</g>
			<g id="&lt;Group&gt;">
				<path id="&lt;Path&gt;" class="s2" d="m93.8 4.7q-0.2-0.4-0.5-0.7l0.2 0.4z"/>
				<path id="&lt;Path&gt;" class="s2" d="m91.1 2.6c0.9 0.2 1.7 0.7 2.2 1.4q0.1 0.2 0.2 0.4 0.2 0.2 0.3 0.4c0.4 0.7 0.5 1.6 0.3 2.5-0.5 2.1-2.6 3.4-4.7 3-2.1-0.5-3.4-2.6-3-4.7 0.5-2.1 2.6-3.4 4.7-3z"/>
				<path id="&lt;Path&gt;" class="s2" d="m93.5 4.4l0.3 0.3q0 0 0 0.1-0.1-0.2-0.3-0.4z"/>
				<path id="&lt;Path&gt;" class="s2" d="m93.5 4.4q-0.1-0.2-0.2-0.4 0 0 0 0z"/>
			</g>
		</g>
	</g>
</svg>