<svg version="1.2" xmlns="http://www.w3.org/2000/svg" viewBox="0 0 158 170" width="158" height="170">
	<title>New Project</title>
	<style>
		.s0 { fill: #ffffff;stroke: #000000;stroke-linecap: round;stroke-linejoin: round;stroke-width: 1.4 } 
		.s1 { fill: #000000 } 
	</style>
	<g id="&lt;Group&gt;">
		<g id="&lt;Group&gt;">
			<path id="&lt;Path&gt;" class="s0" d="m40.7 16.3c1.9-3.5 0.6-9.4-16.2-9.5 4.7 11.4 14 13.5 16.2 9.5z"/>
			<path id="&lt;Path&gt;" class="s0" d="m50.8 25.9c-2.1-5.5-14.9-5.1-26.5 4 10.1 5 29.9 4.6 26.5-4z"/>
			<path id="&lt;Path&gt;" class="s0" d="m53.9 23c5.8 1.9 9.8-6.8 3.4-21.6-6.6 6.9-8.5 19.9-3.4 21.6z"/>
			<path id="&lt;Path&gt;" class="s0" d="m59.6 36.9c-2.1-5.5-16.5-2.3-26.9 8.2 10.6 3.7 29.7-1.4 26.9-8.2z"/>
			<path id="&lt;Path&gt;" class="s0" d="m64.8 47.5c-2.2-5.5-17.7-2.2-28.1 8.3 10.6 3.8 30.8-1.5 28.1-8.3z"/>
			<path id="&lt;Path&gt;" class="s0" d="m63.4 36.1c3.8 1.9 11.9-6.9 8.3-22.7-7.7 5.7-13.1 20.3-8.3 22.7z"/>
			<path id="&lt;Path&gt;" class="s0" d="m67.8 45.9c2 3.3 13.6 1.2 19.1-14.9-9.5 0.7-21.9 10.3-19.1 14.9z"/>
			<path id="&lt;Path&gt;" class="s0" d="m59.2 67.2c-2.2-1-3.5-1.2-5.6-2 7.8-4.3 16.4-3.8 16.6-0.2 0.2 3-5.5 4.4-11 2.2z"/>
			<path id="&lt;Path&gt;" class="s0" d="m73.5 58.3c2 3.8 12 2.5 16.4-11.2-8.2-0.8-18.8 6.4-16.4 11.2z"/>
			<path id="&lt;Path&gt;" class="s0" d="m75.8 72.1c-0.4 4.2 7.5 8.5 17.3-0.8-5.6-5-16.8-4.6-17.3 0.8z"/>
			<path id="&lt;Path&gt;" class="s0" d="m74.1 77.2c0.2-3.4-7.1-6.6-15.7 0.9 5.2 3.9 15.4 3.3 15.7-0.9z"/>
		</g>
		<g id="&lt;Group&gt;">
			<path id="&lt;Path&gt;" class="s0" d="m74.6 150.6c-3.8 1.2-2.9 6.8 9.4 18.3 4.3-11.6-5.1-19.8-9.4-18.3z"/>
			<path id="&lt;Path&gt;" class="s0" d="m73.4 136.3c-2.2 5.4 7.4 13.8 22.1 15-4-10.5-18.7-23.6-22.1-15z"/>
			<path id="&lt;Path&gt;" class="s0" d="m70.4 135.1c-2.9-5.3-11.9-1.6-17.2 13.6 9.5-0.6 19.8-8.8 17.2-13.6z"/>
			<path id="&lt;Path&gt;" class="s0" d="m74.1 120.4c-2.1 5.5 10.6 12.9 25.4 12.4-5.2-10-22.7-19.2-25.4-12.4z"/>
			<path id="&lt;Path&gt;" class="s0" d="m78.8 106.1c-2.1 5.5 11.5 13.6 26.2 13-5.2-10-23.6-19.9-26.2-13z"/>
			<path id="&lt;Path&gt;" class="s0" d="m70.2 120.4c-1.5-4-13.5-3-21.5 11 9.5 1.1 23.4-6 21.5-11z"/>
			<path id="&lt;Path&gt;" class="s0" d="m74.5 108.3c0.8-4.2-9.8-9.7-24.1-2.1 7.5 6 23.1 7.4 24.1 2.1z"/>
			<path id="&lt;Path&gt;" class="s0" d="m100.6 98.2c2.6 2.3 4.2 3.2 6.7 5.1-12.3 2.4-23.7-2.1-22.4-7 1.1-4.1 9.4-3.5 15.7 1.9z"/>
			<path id="&lt;Path&gt;" class="s0" d="m79.9 96.5c2.6-3.3-2.8-11.9-17.1-10.1 2.7 7.8 13.8 14.4 17.1 10.1z"/>
		</g>
		<g id="&lt;Group&gt;">
			<path id="&lt;Path&gt;" class="s0" d="m19 99.3c-2.8-2.9-13 0.5-18.2 16.5 12.3-1.1 21.4-13.2 18.2-16.5z"/>
			<path id="&lt;Path&gt;" class="s0" d="m29.9 92.3c-5.9 0.4-9.4 12.7-4.2 26.5 7.9-8.1 13.4-27.1 4.2-26.5z"/>
			<path id="&lt;Path&gt;" class="s0" d="m29.6 89.1c3.6-4.9-3.6-11.4-19.6-9.7 4.6 8.3 16.5 14.1 19.6 9.7z"/>
			<path id="&lt;Path&gt;" class="s0" d="m44.3 86.9c-5.9 0.5-7.2 15.1-0.3 28.2 6.8-8.9 7.6-28.7 0.3-28.2z"/>
			<path id="&lt;Path&gt;" class="s0" d="m44.2 82.7c3-3.1-3-13.5-19.1-14.8 3.1 9 15.4 18.6 19.1 14.8z"/>
			<path id="&lt;Path&gt;" class="s0" d="m52.9 81.7c4.1-1 4.6-13.1-8.4-22.6-2.2 9.3 1.4 24.4 8.4 22.6z"/>
		</g>
		<path id="&lt;Path&gt;" class="s1" d="m18.7 98.1c4.3-4.3 9.5-7.8 15-10.4 5.5-2.6 11.5-4.4 17.6-5.2 6-0.8 12.3-0.6 18.3 0.6 4.1 0.7 8.1 2 12 3.6q-1.9-2-3.5-4.3c-2.1-3-3.8-6.4-5-10-0.5-1.7-0.9-3.6-1.3-5.4l-0.6-2.6-0.6-2.7c-0.9-3.5-1.9-7-3.1-10.4-1.2-3.4-2.6-6.8-4.2-10l-0.6-1.3q-0.4-0.5-0.7-1.1l-1.4-2.4c-1-1.5-1.9-3.1-3-4.5-4.2-5.9-9.7-10.8-16.1-14.3-0.2-0.2-0.2-0.4-0.1-0.6 0.1-0.2 0.3-0.3 0.5-0.2 6.5 3.5 12.2 8.5 16.6 14.4 1.2 1.5 2.2 3 3.2 4.6l1.4 2.4q0.3 0.5 0.7 1.2l0.6 1.2c1.7 3.2 3.1 6.7 4.4 10.1 1.3 3.5 2.3 7 3.2 10.6l0.6 2.7 0.6 2.7c0.4 1.7 0.8 3.5 1.3 5.2 1.1 3.4 2.8 6.6 4.8 9.5 1.1 1.5 7.6 6.9 7.8 6.7 2.4-3.1 5-6.1 7.8-8.8 0.8-0.7 1.5-1.3 2.2-1.9l2.4-1.9 2.4-1.7 2.4-1.6q4.8-3.2 9.2-6.9 4.5-3.7 8.4-8 3.9-4.2 7.1-9c2.1-3.2 3.8-6.7 5.2-10.2 1.4-3.6 2.3-7.4 2.8-11.2 0-0.2 0.2-0.4 0.5-0.4 0.2 0.1 0.4 0.3 0.3 0.5-0.4 3.9-1.2 7.7-2.5 11.4-1.4 3.7-3.1 7.3-5.2 10.6q-3.2 4.9-7.1 9.3-4 4.4-8.5 8.2-4.5 3.7-9.3 7.1l-2.4 1.6-2.4 1.6-2.2 1.8c-0.7 0.7-1.4 1.3-2.1 1.9-3 2.8-5.1 5.1-7.5 8.3 5.1 1.6 9.7 4.3 14.6 6.7 5.1 2.5 10.1 5.5 14.6 9.1 4.4 3.7 8.4 8 11.5 12.8 3.2 4.9 5.4 10.3 6.7 15.9 0.1 0.2-0.1 0.4-0.3 0.5-0.2 0-0.4-0.1-0.5-0.3-1.3-5.5-3.6-10.8-6.7-15.5-3.1-4.8-7.1-8.9-11.5-12.4-4.4-3.6-9.3-6.5-14.4-8.9-5-2.4-10.2-4.3-15.4-5.8q-1.5 2-3 4c-4.3 7.5-7.9 15.4-10.1 23.8-1.2 4.8-1.9 9.9-1.9 14.9 0 5.1 0.8 10.1 2.4 14.9 0.1 0.2 0 0.5-0.2 0.5-0.3 0.1-0.5 0-0.6-0.2-1.7-4.9-2.6-10-2.7-15.2-0.1-5.1 0.6-10.3 1.8-15.3 2.4-10 6.1-19.7 11.5-28.4-5-2.6-9.6-4.3-15.1-5.4-5.9-1.2-11.9-1.4-17.9-0.7-5.9 0.7-11.8 2.3-17.3 4.8-5.4 2.5-10.5 5.8-14.9 10-0.1 0.2-0.4 0.2-0.5 0-0.2-0.2-0.2-0.4 0-0.6z"/>
		<g id="&lt;Group&gt;">
			<path id="&lt;Path&gt;" class="s0" d="m136.8 134.7c3.9-1 6.5 4 2.4 20.2-9.9-7.5-6.8-19.1-2.4-20.2z"/>
			<path id="&lt;Path&gt;" class="s0" d="m129.6 122.5c7.7 5.2-2.7 13.6-10.6 24.6-2.3-11 3-29.8 10.6-24.6z"/>
			<path id="&lt;Path&gt;" class="s0" d="m131.5 120c-0.3-6.1 12.5-7.9 25.2 2.1-12.2 2-24.8 3.2-25.2-2.1z"/>
			<path id="&lt;Path&gt;" class="s0" d="m119.8 109.8c4.3 3.1-3.4 17.4-14.7 24-1-11.2 8.8-28.4 14.7-24z"/>
			<path id="&lt;Path&gt;" class="s0" d="m122.4 107.8c-0.8-4.2 9.8-9.8 24.1-2.2-7.4 6-23 7.5-24.1 2.2z"/>
			<path id="&lt;Path&gt;" class="s0" d="m113.8 101.5c-3-3.1 3-13.5 19.2-14.7-3.1 9.1-15.5 18.6-19.2 14.7z"/>
		</g>
		<g id="&lt;Group&gt;">
			<path id="&lt;Path&gt;" class="s0" d="m132.9 38.7c4.3-4-0.9-15.7-13.7-23-0.8 11.2 7 29.4 13.7 23z"/>
			<path id="&lt;Path&gt;" class="s0" d="m135.1 41c0.4 6.1 10 6.5 21.3-5-8.8-3.5-21.6-0.4-21.3 5z"/>
			<path id="&lt;Path&gt;" class="s0" d="m124.1 52.8c4.2-4.1-4.1-16.2-17.7-22 0.5 11.3 12.4 27.1 17.7 22z"/>
			<path id="&lt;Path&gt;" class="s0" d="m115 63.9c4.2-4.1-4.7-17.2-18.3-22.9 0.5 11.3 13 28 18.3 22.9z"/>
			<path id="&lt;Path&gt;" class="s0" d="m128.3 54.3c-0.3 4.2 11 8.5 24.2-0.9-8.1-5-23.8-4.5-24.2 0.9z"/>
			<path id="&lt;Path&gt;" class="s0" d="m118.6 63.6c-2.5 3.4 4.8 13 20.9 12.1-4.2-8.5-17.7-16.4-20.9-12.1z"/>
			<path id="&lt;Path&gt;" class="s0" d="m90.3 63.8c-1.4-3.1-2.5-4.6-3.9-7.4 12.1 3 20.5 11.9 17.2 15.8-2.7 3.3-9.9-0.8-13.3-8.4z"/>
			<path id="&lt;Path&gt;" class="s0" d="m108 73.2c-3.8 2-2.5 12 11.2 16.5 0.8-8.2-6.4-18.9-11.2-16.5z"/>
			<path id="&lt;Path&gt;" class="s0" d="m99.6 80c-4.1 1.2-5.1 10.1 7.2 15.7 2.5-7.1-2.1-17.3-7.2-15.7z"/>
			<path id="&lt;Path&gt;" class="s0" d="m137.7 27.8c4 0.5 9-3 2.8-18.6-8.8 8.7-7.3 18.1-2.8 18.6z"/>
		</g>
		<circle id="&lt;Path&gt;" class="s1" cx="128.3" cy="43.5" r="2.4"/>
		<circle id="&lt;Path&gt;" class="s1" cx="134.8" cy="47" r="2.4"/>
		<circle id="&lt;Path&gt;" class="s1" cx="140.3" cy="32.2" r="2.4"/>
		<path id="&lt;Path&gt;" class="s1" d="m64.7 59.8c-1.3-0.5-1.8-2-1.3-3.2 0.6-1.2 2-1.7 3.2-1.2 1.2 0.5 1.8 2 1.2 3.2-0.5 1.2-1.9 1.7-3.1 1.2z"/>
		<path id="&lt;Path&gt;" class="s1" d="m36.2 93.2c-1.2-0.6-1.7-2-1.2-3.2 0.6-1.2 2-1.8 3.2-1.2 1.2 0.5 1.8 1.9 1.2 3.1-0.5 1.3-2 1.8-3.2 1.3z"/>
		<path id="&lt;Path&gt;" class="s1" d="m18.1 95.2c-1.2-0.5-1.8-2-1.3-3.2 0.6-1.2 2-1.7 3.2-1.2 1.2 0.5 1.8 2 1.2 3.2-0.5 1.2-1.9 1.7-3.1 1.2z"/>
		<path id="&lt;Path&gt;" class="s1" d="m32.5 86.1c-1.2-0.5-1.8-2-1.2-3.2 0.5-1.2 1.9-1.7 3.1-1.2 1.3 0.6 1.8 2 1.3 3.2-0.6 1.2-2 1.8-3.2 1.2z"/>
		<path id="&lt;Path&gt;" class="s1" d="m68.5 149.2c-1.2-0.6-1.8-2-1.2-3.2 0.5-1.2 2-1.8 3.2-1.2 1.2 0.5 1.7 1.9 1.2 3.1-0.6 1.3-2 1.8-3.2 1.3z"/>
		<path id="&lt;Path&gt;" class="s1" d="m75.1 132.6c-1.2-0.6-1.8-2-1.2-3.2 0.5-1.2 1.9-1.8 3.1-1.2 1.3 0.5 1.8 1.9 1.3 3.1-0.6 1.2-2 1.8-3.2 1.3z"/>
		<path id="&lt;Path&gt;" class="s1" d="m66.6 131.9c-1.2-0.5-1.7-1.9-1.2-3.2 0.5-1.2 2-1.7 3.2-1.2 1.2 0.6 1.7 2 1.2 3.2-0.5 1.2-2 1.8-3.2 1.2z"/>
		<path id="&lt;Path&gt;" class="s1" d="m138 131.7c-1.2-0.6-1.7-2-1.2-3.2 0.6-1.2 2-1.7 3.2-1.2 1.2 0.5 1.8 2 1.2 3.2-0.5 1.2-1.9 1.7-3.2 1.2z"/>
		<path id="&lt;Path&gt;" class="s1" d="m124.5 120.5c-1.2-0.5-1.7-1.9-1.2-3.2 0.6-1.2 2-1.7 3.2-1.2 1.2 0.6 1.8 2 1.2 3.2-0.5 1.2-1.9 1.8-3.2 1.2z"/>
		<path id="&lt;Path&gt;" class="s1" d="m130.1 115.8c-1.3-0.5-1.8-1.9-1.3-3.1 0.6-1.3 2-1.8 3.2-1.3 1.2 0.6 1.8 2 1.2 3.2-0.5 1.2-1.9 1.8-3.1 1.2z"/>
		<path id="&lt;Path&gt;" class="s1" d="m71 53.1c-1.2-0.5-1.8-2-1.2-3.2 0.5-1.2 2-1.7 3.2-1.2 1.2 0.5 1.7 2 1.2 3.2-0.6 1.2-2 1.7-3.2 1.2z"/>
		<path id="&lt;Path&gt;" class="s1" d="m59.6 45c-1.2-0.5-1.7-2-1.2-3.2 0.5-1.2 2-1.7 3.2-1.2 1.2 0.5 1.7 2 1.2 3.2-0.5 1.2-2 1.7-3.2 1.2z"/>
		<path id="&lt;Path&gt;" class="s1" d="m65.8 41.4c-1.2-0.6-1.7-2-1.2-3.2 0.6-1.2 2-1.8 3.2-1.2 1.2 0.5 1.8 1.9 1.2 3.1-0.5 1.2-1.9 1.8-3.2 1.3z"/>
		<path id="&lt;Path&gt;" class="s1" d="m58.6 28.7c-1.3-0.6-1.8-2-1.3-3.2 0.6-1.2 2-1.8 3.2-1.2 1.2 0.5 1.8 1.9 1.2 3.1-0.5 1.3-1.9 1.8-3.1 1.3z"/>
		<path id="&lt;Path&gt;" class="s1" d="m52.2 33.4c-1.2-0.6-1.7-2-1.2-3.2 0.5-1.2 2-1.8 3.2-1.2 1.2 0.5 1.7 1.9 1.2 3.1-0.5 1.3-2 1.8-3.2 1.3z"/>
		<circle id="&lt;Path&gt;" class="s1" cx="126.5" cy="59.1" r="2.4"/>
		<circle id="&lt;Path&gt;" class="s1" cx="120" cy="55.7" r="2.4"/>
	</g>
</svg>