<svg version="1.2" xmlns="http://www.w3.org/2000/svg" viewBox="0 0 94 102" width="94" height="102">
	<title>New Project</title>
	<style>
		.s0 { fill: #ffffff;stroke: #000000;stroke-width: 2.2 } 
	</style>
	<g id="&lt;Group&gt;">
		<path id="&lt;Path&gt;" class="s0" d="m62.1 4.1q1.1 0.4 2.1 0.8-1-0.4-2.1-0.8z"/>
		<path id="&lt;Path&gt;" class="s0" d="m75.4 11.7q-1.7-1.4-3.5-2.6 1.8 1.2 3.5 2.6z"/>
		<g id="&lt;Group&gt;">
			<path id="&lt;Path&gt;" class="s0" d="m46.5 15.1q3 0 5.9 0.5l-3.6 0.6-3.3-1.1q0.5 0 1 0z"/>
			<path id="&lt;Path&gt;" class="s0" d="m91.9 74.1v9.7c0 9-7.3 16.3-16.3 16.3h-58.1c-9 0-16.3-7.3-16.3-16.3v-9.7c0 3.5 2.8 6.4 6.3 6.4 3.5 0 6.3-2.9 6.3-6.4v-26.3c0-14.7 9.7-27.1 23-31.2l4.7 16.5-2.2 18.6 14.5-7.1 22.1 1.5-3.8-16.5 0.4-1.7c4.3 5.6 6.8 12.5 6.8 19.9v26.3c0 3.5 2.8 6.4 6.3 6.4 3.5 0 6.3-2.9 6.3-6.4z"/>
			<path id="&lt;Path&gt;" class="s0" d="m46.5 1.3c-11.9 0-22.7 4.6-30.8 12.1 8.1-7.5 18.9-12.1 30.8-12.1z"/>
			<path id="&lt;Path&gt;" class="s0" d="m14.8 14.3q-0.4 0.4-0.8 0.8 0.4-0.4 0.8-0.8z"/>
		</g>
		<path id="&lt;Path&gt;" class="s0" d="m68.2 6.8q0.9 0.5 1.9 1.1-1-0.6-1.9-1.1z"/>
		<path id="&lt;Path&gt;" class="s0" d="m70.1 7.9q0.9 0.6 1.8 1.2-0.9-0.6-1.8-1.2z"/>
		<g id="&lt;Group&gt;">
			<path id="&lt;Path&gt;" class="s0" d="m91.9 46.7v27.4q0 0 0 0c0 3.5-2.8 6.4-6.3 6.4-3.5 0-6.3-2.9-6.3-6.4v-26.3c0-7.4-2.5-14.3-6.8-19.9l4-15.2q1.3 1.1 2.6 2.4c7.9 8.2 12.8 19.3 12.8 31.6z"/>
			<path id="&lt;Path&gt;" class="s0" d="m75.4 11.7l-23 3.9q-2.9-0.5-5.9-0.5-0.5 0-1 0l-10-3.3 1.3 4.8c-13.3 4.1-23 16.5-23 31.2v26.3c0 3.5-2.8 6.4-6.3 6.4-3.5 0-6.3-2.9-6.3-6.4v-13.7-13.7q0-4.1 0.7-8 0.4-2.6 1.2-5.1 0.3-0.9 0.6-1.8 0.6-1.7 1.3-3.3 0.3-0.7 0.6-1.4 0.7-1.5 1.6-3 1.1-1.9 2.3-3.6 0.7-0.9 1.3-1.8 0.4-0.4 0.7-0.8c8.3-10.1 20.9-16.6 35-16.6 4.2 0 8.2 0.6 12 1.6q1.3 0.4 2.6 0.8 0.5 0.2 1 0.4 1.1 0.4 2.1 0.8 2 0.9 4 1.9 0.9 0.5 1.9 1.1 0.9 0.6 1.8 1.2 1.8 1.2 3.5 2.6z"/>
		</g>
		<path id="&lt;Path&gt;" class="s0" d="m72.5 27.9l-0.4 1.7 3.8 16.5-22.1-1.5-14.5 7.1 2.2-18.6-4.7-16.5-1.3-4.8 10 3.3 3.3 1.1 3.6-0.6 24.4-4.1z"/>
	</g>
</svg>