<svg version="1.2" xmlns="http://www.w3.org/2000/svg" viewBox="0 0 222 121" width="222" height="121">
	<title>New Project</title>
	<style>
		.s0 { fill: #ffffff;stroke: #000000;stroke-linecap: square;stroke-width: 2.2 } 
	</style>
	<g id="&lt;Group&gt;">
		<path id="&lt;Path&gt;" class="s0" d="m220.3 13v94.3c0 6.6-3.7 12-8.4 12h-12.7c-4.6 0-8.4-5.3-8.4-12v-70.5h-159.7v70.5c0 6.7-3.8 12-8.4 12h-12.8c-4.6 0-8.3-5.4-8.3-12v-94.3c0-6.5 3.7-11.9 8.2-11.9h1.5 193.2 7.6c4.5 0 8.2 5.4 8.2 11.9z"/>
		<path id="&lt;Path&gt;" class="s0" d="m31.1 109.5v-72.7h79.8v72.7c0 5.4-4.4 9.8-9.8 9.8h-60.2c-5.4 0-9.8-4.4-9.8-9.8z"/>
		<path id="&lt;Path&gt;" class="s0" d="m110.9 109.5v-72.7h79.9v72.7c0 5.4-4.4 9.8-9.8 9.8h-60.2c-5.5 0-9.9-4.4-9.9-9.8z"/>
	</g>
</svg>