<svg version="1.2" xmlns="http://www.w3.org/2000/svg" viewBox="0 0 96 74" width="96" height="74">
	<title>template</title>
	<style>
		.s0 { fill: #ffffff;stroke: #494949;stroke-width: 2 } 
	</style>
	<g id="&lt;Group&gt;">
		<g id="&lt;Group&gt;">
			<path id="&lt;Path&gt;" class="s0" d="m93.7 62.9h-91v-60.4h91z"/>
			<path id="&lt;Path&gt;" class="s0" d="m91.8 67.3h-87.2v-4.4h87.2z"/>
			<path id="&lt;Path&gt;" class="s0" d="m91.8 64.8h-87.2v-2.2h87.2z"/>
			<path id="&lt;Path&gt;" class="s0" d="m52.7 69.4h-9v-4.1h9z"/>
			<path id="&lt;Path&gt;" class="s0" d="m57.1 70.4c0 1.2-4 2.1-8.9 2.1-5 0-9-0.9-9-2.1 0-1.1 4-2.1 9-2.1 4.9 0 8.9 1 8.9 2.1z"/>
		</g>
	</g>
	<g id="&lt;Group&gt;">
		<path id="&lt;Path&gt;" class="s0" d="m54.1 57.6l-8.5-14.3c-0.8-1.4-0.4-3 0.9-3.8l30.2-17.9c1.4-0.8 3.1-0.3 3.8 1l8.5 14.4c0.8 1.3 0.4 3-0.9 3.7l-30.3 17.9c-1.3 0.8-3 0.4-3.7-1z"/>
		<path id="&lt;Path&gt;" class="s0" d="m60.5 54.9l-9.4-16 27.3-16.2 9.5 16.1z"/>
		<path id="&lt;Path&gt;" class="s0" d="m54 50.7c-1.1 0.6-2.5 0.3-3.2-0.8-0.6-1.1-0.3-2.6 0.8-3.2 1.1-0.7 2.6-0.3 3.2 0.8 0.7 1.1 0.3 2.5-0.8 3.2z"/>
	</g>
</svg>