<svg version="1.2" xmlns="http://www.w3.org/2000/svg" viewBox="0 0 174 61" width="174" height="61">
	<title>New Project</title>
	<style>
		.s0 { fill: #ffffff;stroke: #494949;stroke-width: 2 } 
		.s1 { opacity: .1;fill: #ffffff;stroke: #494949;stroke-width: 2 } 
	</style>
	<g id="&lt;Group&gt;">
		<path id="&lt;Path&gt;" class="s0" d="m172.5 1.7v53.7h-170.9v-53.7z"/>
		<path id="&lt;Path&gt;" class="s0" d="m172.5 1.7v4.1h-170.9v-4.1z"/>
		<path id="&lt;Path&gt;" class="s0" d="m7.3 1.7v58h-5.7v-58z"/>
		<path id="&lt;Path&gt;" class="s0" d="m172.5 1.7v58h-5.7v-58z"/>
		<g id="&lt;Group&gt;">
			<g id="&lt;Group&gt;">
				<g id="&lt;Group&gt;">
					<path id="&lt;Path&gt;" class="s0" d="m145.4 32.7c-0.4-3.1-1.5-6.1-1.5-9.1 0-3.8 1.3-7.6 2.8-11 0.8-1.9 1.9-3.7 3.7-4.6 1.7-0.7 4.5-1 6.1 0.1 1 0.7 1.7 1.9 2.3 3 1.2 2.2 2 4.7 2.6 7.2 0.5 1.7 1 3.5 1.2 5.4 0.3 3-0.2 6.1-0.5 9.1-0.2 2.4-16.2 3.4-16.7-0.1z"/>
				</g>
				<g id="&lt;Group&gt;">
					<path id="&lt;Path&gt;" class="s0" d="m144.2 23.7q0-0.6 0-1.1 0.1-1.2 0.3-2.3c0.5-2.5 1.4-4.9 2.4-7.2 0.8-1.9 1.8-3.6 3.6-4.4 1.6-0.8 4.3-1 5.9 0 1 0.7 1.7 1.9 2.2 2.9 1.2 2.2 2 4.6 2.6 7q0.4 1.4 0.7 2.8 0.2 0.5 0.3 1.1 0.1 0.6 0.1 1.3c0.3 3 0.1 6-0.2 8.9q0 0.1 0 0.2c-0.3 2.2-0.6 4.4-0.7 6.6-0.2 1.7-0.2 3.5-0.3 5.2-0.1 4.6-0.6 9.2-4 12.7-2.1 2.1-4.6 2.7-7.3 1.4-2.3-1.1-3.8-3.3-4.3-5.8-0.6-3.3-0.1-6.7 0.1-10q0-0.1 0-0.2c0.2-3.4 0.3-6.8-0.2-10.2q-0.1-0.8-0.2-1.5c-0.4-2.4-1-4.9-1-7.4z"/>
				</g>
				<g id="&lt;Group&gt;">
					<path id="&lt;Path&gt;" class="s0" d="m158.4 49.4c-0.3 5.5-1.7 7.4-3.2 8.4-1.3 0.9-3.8 0.9-5.2 0-1.9-1.2-2.5-3.1-2.4-8.3 0-5.6 1.3-8.6 1.3-8.6 0 0 1.6 1.1 4.2 1.1 2.7 0 4.4-1.1 4.4-1.1 0 0 1.2 3.1 0.9 8.5z"/>
				</g>
				<g id="&lt;Group&gt;">
					<path id="&lt;Path&gt;" class="s0" d="m152.7 57.2c-8.8 0-4.1-16.8-4.1-16.8 0 0 2.3 0.9 4.5 0.9 2.2 0 4.7-0.9 4.7-0.9 0 0 4.4 16.8-5.1 16.8z"/>
				</g>
				<g id="&lt;Group&gt;">
					<path id="&lt;Path&gt;" class="s0" d="m148.8 41.1v-15.3h8.9v15.6q-0.2-0.5-0.2-0.5c0 0-1.7 1.1-4.4 1.1-2.6 0-4.2-1.1-4.2-1.1q0 0-0.1 0.2z"/>
				</g>
				<g id="&lt;Group&gt;">
					<path id="&lt;Path&gt;" class="s0" d="m145.2 31.1c0.6-1.3 1.2-2.9 1.9-4.1 1.2-2.2 4.2-2.2 6.4-2.3 2.1 0 4.7 0.3 5.8 2.3 1.1 1.8 2 4.3 2.8 5.9-0.3 2.2-0.6 4.4-0.7 6.6-0.2 1.7-0.2 3.5-0.3 5.2-0.2-1.8-0.6-3.7-1.1-3.8-1-0.1-0.4 1.8-1.3 1.7-0.9-0.1-3.5-6.9-4.2-9.9-0.4-1.9-0.5-3.9-0.6-5.1h-1.3c-0.1 1.2-0.2 3.2-0.7 5.1-0.6 3-3.3 9.8-4.1 9.9-0.9 0.1-0.4-1.8-1.3-1.7-0.4 0-0.6 0.9-0.9 2.1q0-0.1 0-0.2c0.2-3.4 0.3-6.8-0.2-10.2q-0.1-0.8-0.2-1.5z"/>
				</g>
				<g id="&lt;Group&gt;">
					<g id="&lt;Group&gt;">
						<g id="&lt;Group&gt;">
							<path id="&lt;Compound Path&gt;" class="s0" d="m153.7 25.3q0.1 0 0.3 0v0.1q-0.2 0-0.4 0v-0.1q0 0 0.1 0zm-0.6 0v0.1q-0.2 0-0.4 0v-0.1q0.2 0 0.4 0zm1.3 0q0.2 0 0.4 0v0.1q-0.2 0-0.4 0zm-2.1 0v0.1q-0.2 0.1-0.5 0.1v-0.1q0.2 0 0.5-0.1zm3 0.1q0.2 0 0.4 0.1v0.1q-0.2-0.1-0.5-0.1zm-3.8 0v0.1q-0.2 0.1-0.4 0.1v-0.1q0.2 0 0.4-0.1zm4.7 0.2q0.2 0 0.4 0.1v0.1q-0.2-0.1-0.4-0.1zm-5.6 0v0.1q-0.2 0-0.4 0.1v-0.1q0.2-0.1 0.4-0.1zm-0.8 0.2v0.1q-0.2 0.1-0.4 0.1v-0.1q0.2 0 0.4-0.1zm7.2 0q0.2 0.1 0.4 0.2v0.1q-0.2-0.1-0.4-0.2zm-8.1 0.3l0.1 0.1q-0.2 0.1-0.4 0.2v-0.1q0.1-0.1 0.3-0.2zm8.8 0.1q0.2 0.1 0.4 0.2v0.1q-0.2-0.1-0.4-0.2zm-9.6 0.4h0.1q-0.2 0.2-0.3 0.3l-0.1-0.1q0.2-0.1 0.3-0.2zm10.3 0.1q0.2 0.1 0.3 0.2v0.1q-0.2-0.1-0.4-0.3zm-10.9 0.5l0.1 0.1q-0.1 0.1-0.3 0.3 0.1-0.2 0.2-0.4zm11.6 0.2q0.1 0.1 0.2 0.3l-0.1 0.1q-0.1-0.2-0.2-0.4zm-12.1 0.6h0.1q-0.1 0.2-0.2 0.4h-0.1q0.1-0.2 0.2-0.4zm12.5 0.2q0.1 0.1 0.2 0.3l-0.1 0.1q-0.1-0.2-0.2-0.4zm-12.8 0.6v0.1q0 0.1-0.1 0.3h-0.1q0.1-0.2 0.2-0.4zm13.2 0.2q0.1 0.2 0.2 0.4h-0.1q-0.1-0.2-0.2-0.4zm-13.6 0.6l0.1 0.1q-0.1 0.2-0.2 0.4l-0.1-0.1q0.1-0.2 0.2-0.4zm14 0.2q0.1 0.2 0.2 0.4h-0.1q-0.1-0.2-0.2-0.4zm-14.4 0.7h0.1q-0.1 0.2-0.1 0.4h-0.1q0-0.2 0.1-0.4zm14.7 0.1q0.1 0.2 0.2 0.4l-0.1 0.1q-0.1-0.2-0.1-0.4zm-15.1 0.6h0.1l-0.2 0.4h-0.1zm15.4 0.2l0.2 0.3-0.1 0.1-0.2-0.4zm0.4 0.8q0 0.2 0.1 0.4h-0.1q-0.1-0.2-0.1-0.4zm0.3 0.8q0.1 0.2 0.2 0.4h-0.1q-0.1-0.1-0.2-0.3z"/>
						</g>
					</g>
				</g>
				<g id="&lt;Group&gt;">
					<path id="&lt;Path&gt;" class="s0" d="m155.8 19.8c0.3 0 3.4 0.8 6.1 1.6q0.2 0.5 0.3 1.1c-3-1.8-6.2-2.7-6.4-2.7z"/>
				</g>
				<g id="&lt;Group&gt;">
					<path id="&lt;Path&gt;" class="s0" d="m144.2 22.6q0.1-1.2 0.3-2.3 0.2 0 0.3 0c3.5 0.5 6.9 0.8 6.9 0.8 0 0-4.7-0.1-7.5 1.5z"/>
				</g>
				<g id="&lt;Group&gt;">
					<path id="&lt;Path&gt;" class="s0" d="m158.3 22.7c-0.8 0.2-1.7 0.4-2.3 0.4-3.1 0.3-5.7-0.8-7-1.2 6.7 1.4 6.2 0.3 9.3 0.8z"/>
				</g>
				<g id="&lt;Group&gt;">
					<path id="&lt;Path&gt;" class="s0" d="m149.8 32.7c0.3 0 0.5 0.2 0.5 0.5 0 0.3-0.2 0.5-0.5 0.5-0.3 0-0.5-0.2-0.5-0.5 0-0.3 0.2-0.5 0.5-0.5z"/>
				</g>
				<g id="&lt;Group&gt;">
					<path id="&lt;Path&gt;" class="s0" d="m150.2 33.2c0 0.2-0.2 0.4-0.4 0.4-0.2 0-0.4-0.2-0.4-0.4 0-0.2 0.2-0.4 0.4-0.4 0.2 0 0.4 0.2 0.4 0.4z"/>
				</g>
				<g id="&lt;Group&gt;">
					<path id="&lt;Path&gt;" class="s0" d="m157.2 38.6c0.3 0 0.6 0.3 0.6 0.6 0 0.3-0.3 0.5-0.6 0.5-0.2 0-0.5-0.2-0.5-0.5 0-0.3 0.3-0.6 0.5-0.6z"/>
				</g>
				<g id="&lt;Group&gt;">
					<path id="&lt;Path&gt;" class="s0" d="m157.7 39.2c0 0.2-0.2 0.4-0.5 0.4-0.2 0-0.4-0.2-0.4-0.4 0-0.3 0.2-0.5 0.4-0.5 0.3 0 0.5 0.2 0.5 0.5z"/>
				</g>
				<g id="&lt;Group&gt;">
					<path id="&lt;Path&gt;" class="s0" d="m148.7 38.6c0.3 0 0.5 0.3 0.5 0.6 0 0.3-0.2 0.5-0.5 0.5-0.3 0-0.6-0.2-0.6-0.5 0-0.3 0.3-0.6 0.6-0.6z"/>
				</g>
				<g id="&lt;Group&gt;">
					<path id="&lt;Path&gt;" class="s0" d="m149.1 39.2c0 0.2-0.2 0.4-0.4 0.4-0.3 0-0.4-0.2-0.4-0.4 0-0.3 0.1-0.5 0.4-0.5 0.2 0 0.4 0.2 0.4 0.5z"/>
				</g>
				<g id="&lt;Group&gt;">
					<path id="&lt;Path&gt;" class="s0" d="m148.9 36.6c0.3 0 0.6 0.3 0.6 0.6 0 0.3-0.3 0.5-0.6 0.5-0.2 0-0.5-0.2-0.5-0.5 0-0.3 0.3-0.6 0.5-0.6z"/>
				</g>
				<g id="&lt;Group&gt;">
					<path id="&lt;Path&gt;" class="s0" d="m149.4 37.2c0 0.2-0.2 0.4-0.5 0.4-0.2 0-0.4-0.2-0.4-0.4 0-0.3 0.2-0.4 0.4-0.4 0.3 0 0.5 0.1 0.5 0.4z"/>
				</g>
				<g id="&lt;Group&gt;">
					<path id="&lt;Path&gt;" class="s0" d="m157 36.6c0.3 0 0.6 0.3 0.6 0.6 0 0.3-0.3 0.5-0.6 0.5-0.3 0-0.5-0.2-0.5-0.5 0-0.3 0.2-0.6 0.5-0.6z"/>
				</g>
				<g id="&lt;Group&gt;">
					<path id="&lt;Path&gt;" class="s0" d="m157.5 37.2c0 0.2-0.2 0.4-0.5 0.4-0.2 0-0.4-0.2-0.4-0.4 0-0.3 0.2-0.4 0.4-0.4 0.3 0 0.5 0.1 0.5 0.4z"/>
				</g>
				<g id="&lt;Group&gt;">
					<path id="&lt;Path&gt;" class="s0" d="m149.4 34.7c0.3 0 0.5 0.2 0.5 0.5 0 0.3-0.2 0.5-0.5 0.5-0.3 0-0.6-0.2-0.6-0.5 0-0.3 0.3-0.5 0.6-0.5z"/>
				</g>
				<g id="&lt;Group&gt;">
					<path id="&lt;Path&gt;" class="s0" d="m149.8 35.2c0 0.2-0.2 0.4-0.4 0.4-0.3 0-0.5-0.2-0.5-0.4 0-0.2 0.2-0.4 0.5-0.4 0.2 0 0.4 0.2 0.4 0.4z"/>
				</g>
				<g id="&lt;Group&gt;">
					<path id="&lt;Path&gt;" class="s0" d="m156.6 34.7c0.3 0 0.5 0.2 0.5 0.5 0 0.3-0.2 0.5-0.5 0.5-0.3 0-0.5-0.2-0.5-0.5 0-0.3 0.2-0.5 0.5-0.5z"/>
				</g>
				<g id="&lt;Group&gt;">
					<path id="&lt;Path&gt;" class="s0" d="m157 35.2c0 0.2-0.2 0.4-0.4 0.4-0.2 0-0.4-0.2-0.4-0.4 0-0.2 0.2-0.4 0.4-0.4 0.2 0 0.4 0.2 0.4 0.4z"/>
				</g>
				<g id="&lt;Group&gt;">
					<path id="&lt;Path&gt;" class="s0" d="m156.2 32.7c0.3 0 0.5 0.2 0.5 0.5 0 0.3-0.2 0.5-0.5 0.5-0.3 0-0.5-0.2-0.5-0.5 0-0.3 0.2-0.5 0.5-0.5z"/>
				</g>
				<g id="&lt;Group&gt;">
					<path id="&lt;Path&gt;" class="s0" d="m156.6 33.2c0 0.2-0.2 0.4-0.4 0.4-0.3 0-0.4-0.2-0.4-0.4 0-0.2 0.1-0.4 0.4-0.4 0.2 0 0.4 0.2 0.4 0.4z"/>
				</g>
				<g id="&lt;Group&gt;">
					<path id="&lt;Path&gt;" class="s0" d="m150.3 30.7c0.3 0 0.6 0.2 0.6 0.5 0 0.3-0.3 0.6-0.6 0.6-0.3 0-0.5-0.3-0.5-0.6 0-0.3 0.2-0.5 0.5-0.5z"/>
				</g>
				<g id="&lt;Group&gt;">
					<path id="&lt;Path&gt;" class="s0" d="m150.8 31.2c0 0.3-0.2 0.4-0.5 0.4-0.2 0-0.4-0.1-0.4-0.4 0-0.2 0.2-0.4 0.4-0.4 0.3 0 0.5 0.2 0.5 0.4z"/>
				</g>
				<g id="&lt;Group&gt;">
					<path id="&lt;Path&gt;" class="s0" d="m150.9 28.7c0.3 0 0.5 0.2 0.5 0.5 0 0.3-0.2 0.6-0.5 0.6-0.3 0-0.6-0.3-0.6-0.6 0-0.3 0.3-0.5 0.6-0.5z"/>
				</g>
				<g id="&lt;Group&gt;">
					<path id="&lt;Path&gt;" class="s0" d="m151.3 29.2c0 0.3-0.2 0.5-0.4 0.5-0.3 0-0.4-0.2-0.4-0.5 0-0.2 0.1-0.4 0.4-0.4 0.2 0 0.4 0.2 0.4 0.4z"/>
				</g>
				<g id="&lt;Group&gt;">
					<path id="&lt;Path&gt;" class="s0" d="m155.1 28.7c0.3 0 0.5 0.2 0.5 0.5 0 0.3-0.2 0.6-0.5 0.6-0.3 0-0.5-0.3-0.5-0.6 0-0.3 0.2-0.5 0.5-0.5z"/>
				</g>
				<g id="&lt;Group&gt;">
					<path id="&lt;Path&gt;" class="s0" d="m155.5 29.2c0 0.3-0.2 0.5-0.4 0.5-0.2 0-0.4-0.2-0.4-0.5 0-0.2 0.2-0.4 0.4-0.4 0.2 0 0.4 0.2 0.4 0.4z"/>
				</g>
				<g id="&lt;Group&gt;">
					<path id="&lt;Path&gt;" class="s0" d="m155.6 30.7c0.3 0 0.6 0.2 0.6 0.5 0 0.3-0.3 0.6-0.6 0.6-0.2 0-0.5-0.3-0.5-0.6 0-0.3 0.3-0.5 0.5-0.5z"/>
				</g>
				<g id="&lt;Group&gt;">
					<path id="&lt;Path&gt;" class="s0" d="m156.1 31.2c0 0.3-0.2 0.4-0.5 0.4-0.2 0-0.4-0.1-0.4-0.4 0-0.2 0.2-0.4 0.4-0.4 0.3 0 0.5 0.2 0.5 0.4z"/>
				</g>
				<g id="&lt;Group&gt;">
					<path id="&lt;Path&gt;" class="s0" d="m148.9 38.8h8.2c0.2 0 0.3 0.2 0.3 0.4 0 0.2-0.1 0.3-0.3 0.3h-8.2c-0.2 0-0.3-0.1-0.3-0.3 0-0.2 0.1-0.4 0.3-0.4z"/>
				</g>
				<g id="&lt;Group&gt;">
					<path id="&lt;Path&gt;" class="s0" d="m149.2 36.8h7.6c0.2 0 0.3 0.2 0.3 0.4 0 0.2-0.1 0.3-0.3 0.3h-7.6c-0.2 0-0.4-0.1-0.4-0.3 0-0.2 0.2-0.4 0.4-0.4z"/>
				</g>
				<g id="&lt;Group&gt;">
					<path id="&lt;Path&gt;" class="s0" d="m149.6 34.8h6.8c0.2 0 0.3 0.2 0.3 0.4 0 0.2-0.1 0.3-0.3 0.3h-6.8c-0.2 0-0.3-0.1-0.3-0.3 0-0.2 0.1-0.4 0.3-0.4z"/>
				</g>
				<g id="&lt;Group&gt;">
					<path id="&lt;Path&gt;" class="s0" d="m150 32.9h5.9c0.2 0 0.4 0.1 0.4 0.3 0 0.2-0.2 0.4-0.4 0.4h-5.9c-0.1 0-0.3-0.2-0.3-0.4 0-0.2 0.2-0.3 0.3-0.3z"/>
				</g>
				<g id="&lt;Group&gt;">
					<path id="&lt;Path&gt;" class="s0" d="m150.6 30.9h4.8c0.2 0 0.4 0.1 0.4 0.3 0 0.2-0.2 0.4-0.4 0.4h-4.8c-0.2 0-0.4-0.2-0.4-0.4 0-0.2 0.2-0.3 0.4-0.3z"/>
				</g>
				<g id="&lt;Group&gt;">
					<path id="&lt;Path&gt;" class="s0" d="m151.1 28.9h3.8c0.2 0 0.3 0.1 0.3 0.3 0 0.2-0.1 0.4-0.3 0.4h-3.8c-0.2 0-0.3-0.2-0.3-0.4 0-0.2 0.1-0.3 0.3-0.3z"/>
				</g>
			</g>
			<g id="&lt;Group&gt;">
				<g id="&lt;Group&gt;">
					<path id="&lt;Path&gt;" class="s0" d="m122.3 32.8c-0.4-3-0.8-6.1-0.5-9.1 0.1-1.9 0.6-3.7 1.1-5.4 0.7-2.5 1.5-5 2.7-7.2 0.6-1.1 1.3-2.3 2.3-3 1.6-1.1 4.4-0.8 6.1-0.1 1.8 0.9 2.9 2.7 3.7 4.6 1.5 3.4 2.8 7.2 2.8 11 0 3-1.1 6-1.5 9.1-0.5 3.5-16.5 2.5-16.7 0.1z"/>
				</g>
				<g id="&lt;Group&gt;">
					<path id="&lt;Path&gt;" class="s0" d="m139.2 31.1q-0.2 0.7-0.3 1.5c-0.4 3.4-0.4 6.8-0.2 10.2q0 0.1 0 0.2c0.3 3.3 0.8 6.7 0.1 10-0.5 2.5-2 4.7-4.2 5.8-2.7 1.3-5.3 0.7-7.3-1.4-3.4-3.5-3.9-8.1-4.1-12.7 0-1.7 0-3.5-0.2-5.2-0.2-2.2-0.4-4.4-0.7-6.6q0-0.1 0-0.2c-0.3-2.9-0.5-5.9-0.3-8.9q0.1-0.7 0.2-1.3 0.1-0.6 0.2-1.1 0.4-1.4 0.8-2.8c0.6-2.4 1.4-4.8 2.6-7 0.5-1 1.2-2.2 2.2-2.9 1.6-1 4.3-0.8 5.9 0 1.8 0.8 2.8 2.5 3.6 4.4 1 2.3 1.9 4.7 2.4 7.2q0.2 1.1 0.3 2.3 0 0.5 0 1.1c0 2.5-0.6 5-1 7.4z"/>
				</g>
				<g id="&lt;Group&gt;">
					<path id="&lt;Path&gt;" class="s0" d="m126.9 40.9c0 0 1.7 1.1 4.4 1.1 2.6 0 4.2-1.1 4.2-1.1 0 0 1.3 3 1.3 8.6 0.1 5.2-0.5 7.1-2.4 8.3-1.4 0.9-3.9 0.9-5.2 0-1.6-1-2.9-2.9-3.2-8.4-0.3-5.4 0.9-8.5 0.9-8.5z"/>
				</g>
				<g id="&lt;Group&gt;">
					<path id="&lt;Path&gt;" class="s0" d="m126.6 40.4c0 0 2.5 0.9 4.7 0.9 2.1 0 4.5-0.9 4.5-0.9 0 0 4.7 16.8-4.1 16.8-9.5 0-5.1-16.8-5.1-16.8z"/>
				</g>
				<g id="&lt;Group&gt;">
					<path id="&lt;Path&gt;" class="s0" d="m135.5 40.9c0 0-1.6 1.1-4.2 1.1-2.7 0-4.4-1.1-4.4-1.1q-0.1 0-0.2 0.5v-15.6h8.8v15.3q0-0.2 0-0.2z"/>
				</g>
				<g id="&lt;Group&gt;">
					<path id="&lt;Path&gt;" class="s0" d="m138.9 32.6c-0.4 3.4-0.4 6.8-0.2 10.2q0 0.1 0 0.2c-0.2-1.2-0.5-2.1-0.8-2.1-1-0.1-0.4 1.8-1.3 1.7-0.9-0.1-3.5-6.9-4.2-9.9-0.4-1.9-0.5-3.9-0.6-5.1h-1.3c-0.1 1.2-0.2 3.2-0.6 5.1-0.7 3-3.4 9.8-4.2 9.9-0.9 0.1-0.3-1.8-1.3-1.7-0.5 0.1-0.9 2-1.2 3.8 0-1.7 0-3.5-0.2-5.2-0.2-2.2-0.4-4.4-0.7-6.6 0.8-1.6 1.7-4.1 2.7-5.9 1.2-2 3.8-2.3 5.9-2.3 2.2 0.1 5.1 0.1 6.4 2.3 0.7 1.2 1.3 2.8 1.9 4.1q-0.2 0.7-0.3 1.5z"/>
				</g>
				<g id="&lt;Group&gt;">
					<g id="&lt;Group&gt;">
						<g id="&lt;Group&gt;">
							<path id="&lt;Compound Path&gt;" class="s0" d="m130.8 25.3v0.1q-0.2 0-0.4 0v-0.1q0.1 0 0.3 0 0.1 0 0.1 0zm0.9 0v0.1q-0.2 0-0.5 0l0.1-0.1q0.2 0 0.4 0zm-1.7 0.1q-0.2 0-0.5 0v-0.1q0.2 0 0.5 0zm2.5 0v0.1q-0.2-0.1-0.4-0.1v-0.1q0.2 0 0.4 0.1zm-3.4 0.1q-0.2 0-0.4 0.1v-0.2q0.2 0 0.4 0zm4.3 0v0.1q-0.2-0.1-0.5-0.1v-0.1q0.3 0 0.5 0.1zm-5.1 0.1q-0.2 0.1-0.5 0.1v-0.1q0.2 0 0.4-0.1zm6 0v0.1q-0.2 0-0.4-0.1v-0.1q0.2 0.1 0.4 0.1zm0.8 0.3v0.1q-0.2-0.1-0.4-0.1v-0.1q0.2 0 0.4 0.1zm-7.6 0q-0.2 0.1-0.4 0.1v-0.1q0.2 0 0.4-0.1zm8.4 0.4l-0.1 0.1q-0.2-0.1-0.4-0.2l0.1-0.1q0.2 0.1 0.4 0.2zm-9.2-0.1q-0.2 0.1-0.4 0.3v-0.1q0.2-0.2 0.4-0.3zm9.8 0.6l-0.1 0.1q-0.1-0.2-0.3-0.3l0.1-0.1q0.1 0.2 0.3 0.3zm-10.5-0.1q-0.2 0.1-0.4 0.3v-0.1q0.1-0.1 0.3-0.3zm11.1 0.8h-0.1q-0.1-0.1-0.2-0.3v-0.1q0.2 0.2 0.3 0.4zm-11.7-0.2q-0.1 0.2-0.2 0.4l-0.1-0.1q0.1-0.2 0.2-0.3zm12.2 0.8l-0.1 0.1q-0.1-0.2-0.2-0.4h0.1q0.1 0.2 0.2 0.3zm-12.6-0.1q-0.1 0.2-0.2 0.4l-0.1-0.1q0.1-0.2 0.2-0.4zm12.9 1h-0.1q0-0.2-0.1-0.4h0.1q0.1 0.2 0.1 0.4zm-13.3-0.2q-0.1 0.2-0.2 0.4l-0.1-0.1q0.1-0.2 0.2-0.4zm13.7 1h-0.1q-0.1-0.2-0.2-0.3l0.1-0.1q0.1 0.2 0.2 0.4zm-14.1-0.2q-0.1 0.2-0.2 0.4h-0.1q0.1-0.2 0.2-0.4zm14.5 0.9l-0.1 0.1q-0.1-0.2-0.2-0.4l0.1-0.1q0.1 0.2 0.2 0.4zm-14.8-0.1q-0.1 0.2-0.2 0.4l-0.1-0.1q0.1-0.2 0.2-0.4zm15.1 1h-0.1l-0.2-0.4h0.1zm-15.4-0.2l-0.2 0.4h-0.1l0.2-0.4zm-0.4 0.8q-0.1 0.2-0.1 0.4l-0.1-0.1q0-0.2 0.1-0.4zm-0.3 0.8q-0.1 0.2-0.2 0.4h-0.1q0.1-0.2 0.2-0.4z"/>
						</g>
					</g>
				</g>
				<g id="&lt;Group&gt;">
					<path id="&lt;Path&gt;" class="s0" d="m122.2 22.5q0.1-0.6 0.2-1.1c2.8-0.8 5.9-1.6 6.2-1.6-0.3 0-3.4 0.9-6.4 2.7z"/>
				</g>
				<g id="&lt;Group&gt;">
					<path id="&lt;Path&gt;" class="s0" d="m132.7 21.1c0 0 3.4-0.3 6.8-0.8q0.2 0 0.4 0 0.2 1.1 0.3 2.3c-2.8-1.6-7.5-1.5-7.5-1.5z"/>
				</g>
				<g id="&lt;Group&gt;">
					<path id="&lt;Path&gt;" class="s0" d="m135.4 21.9c-1.3 0.4-3.9 1.5-7 1.2-0.7 0-1.5-0.2-2.3-0.4 3.1-0.5 2.6 0.6 9.3-0.8z"/>
				</g>
				<g id="&lt;Group&gt;">
					<path id="&lt;Path&gt;" class="s0" d="m135.1 33.2c0 0.3-0.2 0.5-0.5 0.5-0.3 0-0.6-0.2-0.6-0.5 0-0.3 0.3-0.5 0.6-0.5 0.3 0 0.5 0.2 0.5 0.5z"/>
				</g>
				<g id="&lt;Group&gt;">
					<path id="&lt;Path&gt;" class="s0" d="m134.6 32.8c0.2 0 0.4 0.2 0.4 0.4 0 0.2-0.2 0.4-0.4 0.4-0.3 0-0.4-0.2-0.4-0.4 0-0.2 0.1-0.4 0.4-0.4z"/>
				</g>
				<g id="&lt;Group&gt;">
					<path id="&lt;Path&gt;" class="s0" d="m127.7 39.2c0 0.3-0.3 0.5-0.6 0.5-0.3 0-0.5-0.2-0.5-0.5 0-0.3 0.2-0.6 0.5-0.6 0.3 0 0.6 0.3 0.6 0.6z"/>
				</g>
				<g id="&lt;Group&gt;">
					<path id="&lt;Path&gt;" class="s0" d="m127.1 38.7c0.3 0 0.4 0.2 0.4 0.5 0 0.2-0.1 0.4-0.4 0.4-0.2 0-0.4-0.2-0.4-0.4 0-0.3 0.2-0.5 0.4-0.5z"/>
				</g>
				<g id="&lt;Group&gt;">
					<path id="&lt;Path&gt;" class="s0" d="m136.2 39.2c0 0.3-0.2 0.5-0.5 0.5-0.3 0-0.5-0.2-0.5-0.5 0-0.3 0.2-0.6 0.5-0.6 0.3 0 0.5 0.3 0.5 0.6z"/>
				</g>
				<g id="&lt;Group&gt;">
					<path id="&lt;Path&gt;" class="s0" d="m135.7 38.7c0.2 0 0.4 0.2 0.4 0.5 0 0.2-0.2 0.4-0.4 0.4-0.2 0-0.4-0.2-0.4-0.4 0-0.3 0.2-0.5 0.4-0.5z"/>
				</g>
				<g id="&lt;Group&gt;">
					<path id="&lt;Path&gt;" class="s0" d="m136 37.2c0 0.3-0.3 0.5-0.6 0.5-0.3 0-0.5-0.2-0.5-0.5 0-0.3 0.2-0.6 0.5-0.6 0.3 0 0.6 0.3 0.6 0.6z"/>
				</g>
				<g id="&lt;Group&gt;">
					<path id="&lt;Path&gt;" class="s0" d="m135.4 36.8c0.3 0 0.5 0.1 0.5 0.4 0 0.2-0.2 0.4-0.5 0.4-0.2 0-0.4-0.2-0.4-0.4 0-0.3 0.2-0.4 0.4-0.4z"/>
				</g>
				<g id="&lt;Group&gt;">
					<path id="&lt;Path&gt;" class="s0" d="m127.9 37.2c0 0.3-0.3 0.5-0.6 0.5-0.3 0-0.5-0.2-0.5-0.5 0-0.3 0.2-0.6 0.5-0.6 0.3 0 0.6 0.3 0.6 0.6z"/>
				</g>
				<g id="&lt;Group&gt;">
					<path id="&lt;Path&gt;" class="s0" d="m127.3 36.8c0.3 0 0.5 0.1 0.5 0.4 0 0.2-0.2 0.4-0.5 0.4-0.2 0-0.4-0.2-0.4-0.4 0-0.3 0.2-0.4 0.4-0.4z"/>
				</g>
				<g id="&lt;Group&gt;">
					<path id="&lt;Path&gt;" class="s0" d="m135.5 35.2c0 0.3-0.2 0.5-0.5 0.5-0.3 0-0.5-0.2-0.5-0.5 0-0.3 0.2-0.5 0.5-0.5 0.3 0 0.5 0.2 0.5 0.5z"/>
				</g>
				<g id="&lt;Group&gt;">
					<path id="&lt;Path&gt;" class="s0" d="m135 34.8c0.2 0 0.4 0.2 0.4 0.4 0 0.2-0.2 0.4-0.4 0.4-0.2 0-0.4-0.2-0.4-0.4 0-0.2 0.2-0.4 0.4-0.4z"/>
				</g>
				<g id="&lt;Group&gt;">
					<path id="&lt;Path&gt;" class="s0" d="m128.3 35.2c0 0.3-0.2 0.5-0.5 0.5-0.3 0-0.6-0.2-0.6-0.5 0-0.3 0.3-0.5 0.6-0.5 0.3 0 0.5 0.2 0.5 0.5z"/>
				</g>
				<g id="&lt;Group&gt;">
					<path id="&lt;Path&gt;" class="s0" d="m127.8 34.8c0.2 0 0.4 0.2 0.4 0.4 0 0.2-0.2 0.4-0.4 0.4-0.3 0-0.5-0.2-0.5-0.4 0-0.2 0.2-0.4 0.5-0.4z"/>
				</g>
				<g id="&lt;Group&gt;">
					<path id="&lt;Path&gt;" class="s0" d="m128.7 33.2c0 0.3-0.2 0.5-0.5 0.5-0.3 0-0.5-0.2-0.5-0.5 0-0.3 0.2-0.5 0.5-0.5 0.3 0 0.5 0.2 0.5 0.5z"/>
				</g>
				<g id="&lt;Group&gt;">
					<path id="&lt;Path&gt;" class="s0" d="m128.2 32.8c0.2 0 0.4 0.2 0.4 0.4 0 0.2-0.2 0.4-0.4 0.4-0.2 0-0.4-0.2-0.4-0.4 0-0.2 0.2-0.4 0.4-0.4z"/>
				</g>
				<g id="&lt;Group&gt;">
					<path id="&lt;Path&gt;" class="s0" d="m134.6 31.2c0 0.3-0.3 0.6-0.6 0.6-0.3 0-0.5-0.3-0.5-0.6 0-0.3 0.2-0.5 0.5-0.5 0.3 0 0.6 0.2 0.6 0.5z"/>
				</g>
				<g id="&lt;Group&gt;">
					<path id="&lt;Path&gt;" class="s0" d="m134 30.8c0.3 0 0.5 0.2 0.5 0.4 0 0.3-0.2 0.4-0.5 0.4-0.2 0-0.4-0.1-0.4-0.4 0-0.2 0.2-0.4 0.4-0.4z"/>
				</g>
				<g id="&lt;Group&gt;">
					<path id="&lt;Path&gt;" class="s0" d="m134 29.2c0 0.3-0.2 0.6-0.5 0.6-0.3 0-0.5-0.3-0.5-0.6 0-0.3 0.2-0.5 0.5-0.5 0.3 0 0.5 0.2 0.5 0.5z"/>
				</g>
				<g id="&lt;Group&gt;">
					<path id="&lt;Path&gt;" class="s0" d="m133.5 28.8c0.2 0 0.4 0.2 0.4 0.4 0 0.3-0.2 0.5-0.4 0.5-0.2 0-0.4-0.2-0.4-0.5 0-0.2 0.2-0.4 0.4-0.4z"/>
				</g>
				<g id="&lt;Group&gt;">
					<path id="&lt;Path&gt;" class="s0" d="m129.8 29.2c0 0.3-0.2 0.6-0.5 0.6-0.3 0-0.6-0.3-0.6-0.6 0-0.3 0.3-0.5 0.6-0.5 0.3 0 0.5 0.2 0.5 0.5z"/>
				</g>
				<g id="&lt;Group&gt;">
					<path id="&lt;Path&gt;" class="s0" d="m129.3 28.8c0.2 0 0.4 0.2 0.4 0.4 0 0.3-0.2 0.5-0.4 0.5-0.3 0-0.5-0.2-0.5-0.5 0-0.2 0.2-0.4 0.5-0.4z"/>
				</g>
				<g id="&lt;Group&gt;">
					<path id="&lt;Path&gt;" class="s0" d="m129.3 31.2c0 0.3-0.3 0.6-0.6 0.6-0.3 0-0.5-0.3-0.5-0.6 0-0.3 0.2-0.5 0.5-0.5 0.3 0 0.6 0.2 0.6 0.5z"/>
				</g>
				<g id="&lt;Group&gt;">
					<path id="&lt;Path&gt;" class="s0" d="m128.7 30.8c0.3 0 0.5 0.2 0.5 0.4 0 0.3-0.2 0.4-0.5 0.4-0.2 0-0.4-0.1-0.4-0.4 0-0.2 0.2-0.4 0.4-0.4z"/>
				</g>
				<g id="&lt;Group&gt;">
					<path id="&lt;Path&gt;" class="s0" d="m135.8 39.2c0 0.2-0.2 0.3-0.3 0.3h-8.2c-0.2 0-0.3-0.1-0.3-0.3 0-0.2 0.1-0.4 0.3-0.4h8.2c0.1 0 0.3 0.2 0.3 0.4z"/>
				</g>
				<g id="&lt;Group&gt;">
					<path id="&lt;Path&gt;" class="s0" d="m135.5 37.2c0 0.2-0.1 0.3-0.3 0.3h-7.6c-0.2 0-0.4-0.1-0.4-0.3 0-0.2 0.2-0.4 0.4-0.4h7.6c0.2 0 0.3 0.2 0.3 0.4z"/>
				</g>
				<g id="&lt;Group&gt;">
					<path id="&lt;Path&gt;" class="s0" d="m135.1 35.2c0 0.2-0.1 0.3-0.3 0.3h-6.8c-0.2 0-0.3-0.1-0.3-0.3 0-0.2 0.1-0.4 0.3-0.4h6.8c0.2 0 0.3 0.2 0.3 0.4z"/>
				</g>
				<g id="&lt;Group&gt;">
					<path id="&lt;Path&gt;" class="s0" d="m134.7 33.2c0 0.2-0.2 0.4-0.4 0.4h-5.9c-0.2 0-0.3-0.2-0.3-0.4 0-0.2 0.1-0.3 0.3-0.3h5.9c0.2 0 0.4 0.1 0.4 0.3z"/>
				</g>
				<g id="&lt;Group&gt;">
					<path id="&lt;Path&gt;" class="s0" d="m134.1 31.2c0 0.2-0.1 0.4-0.3 0.4h-4.8c-0.2 0-0.4-0.2-0.4-0.4 0-0.2 0.2-0.3 0.4-0.3h4.8c0.2 0 0.3 0.1 0.3 0.3z"/>
				</g>
				<g id="&lt;Group&gt;">
					<path id="&lt;Path&gt;" class="s0" d="m133.6 29.2c0 0.2-0.1 0.4-0.3 0.4h-3.8c-0.2 0-0.3-0.2-0.3-0.4 0-0.2 0.1-0.3 0.3-0.3h3.8c0.2 0 0.3 0.1 0.3 0.3z"/>
				</g>
			</g>
		</g>
		<g id="&lt;Group&gt;">
			<g id="&lt;Group&gt;">
				<g id="&lt;Group&gt;">
					<path id="&lt;Path&gt;" class="s0" d="m37 32.7c-0.4-3.1-1.5-6.1-1.5-9.1 0-3.8 1.3-7.6 2.8-11 0.8-1.9 1.9-3.7 3.7-4.6 1.7-0.7 4.5-1 6.1 0.1 1 0.7 1.7 1.9 2.3 3 1.2 2.2 2 4.7 2.7 7.2 0.4 1.7 1 3.5 1.1 5.4 0.3 3-0.2 6.1-0.5 9.1-0.2 2.4-16.2 3.4-16.7-0.1z"/>
				</g>
				<g id="&lt;Group&gt;">
					<path id="&lt;Path&gt;" class="s0" d="m35.8 23.7q0-0.6 0-1.1 0.1-1.2 0.3-2.3c0.5-2.5 1.4-4.9 2.4-7.2 0.8-1.9 1.8-3.6 3.6-4.4 1.6-0.8 4.3-1 5.9 0 1 0.7 1.7 1.9 2.2 2.9 1.2 2.2 2 4.6 2.6 7q0.4 1.4 0.7 2.8 0.2 0.5 0.3 1.1 0.1 0.6 0.1 1.3c0.3 3 0.1 6-0.2 8.9q0 0.1 0 0.2c-0.3 2.2-0.6 4.4-0.7 6.6-0.2 1.7-0.2 3.5-0.3 5.2-0.1 4.6-0.6 9.2-4 12.7-2 2.1-4.6 2.7-7.3 1.4-2.3-1.1-3.7-3.3-4.2-5.8-0.7-3.3-0.2-6.7 0-10q0-0.1 0.1-0.2c0.1-3.4 0.2-6.8-0.3-10.2q-0.1-0.8-0.2-1.5c-0.4-2.4-1-4.9-1-7.4z"/>
				</g>
				<g id="&lt;Group&gt;">
					<path id="&lt;Path&gt;" class="s0" d="m50 49.4c-0.3 5.5-1.6 7.4-3.2 8.4-1.3 0.9-3.8 0.9-5.2 0-1.9-1.2-2.5-3.1-2.4-8.3 0-5.6 1.3-8.6 1.3-8.6 0 0 1.6 1.1 4.2 1.1 2.7 0 4.4-1.1 4.4-1.1 0 0 1.2 3.1 0.9 8.5z"/>
				</g>
				<g id="&lt;Group&gt;">
					<path id="&lt;Path&gt;" class="s0" d="m44.3 57.2c-8.8 0-4.1-16.8-4.1-16.8 0 0 2.3 0.9 4.5 0.9 2.2 0 4.7-0.9 4.7-0.9 0 0 4.4 16.8-5.1 16.8z"/>
				</g>
				<g id="&lt;Group&gt;">
					<path id="&lt;Path&gt;" class="s0" d="m40.5 41.1v-15.3h8.8v15.6q-0.2-0.5-0.2-0.5c0 0-1.7 1.1-4.4 1.1-2.6 0-4.2-1.1-4.2-1.1q0 0 0 0.2z"/>
				</g>
				<g id="&lt;Group&gt;">
					<path id="&lt;Path&gt;" class="s0" d="m36.8 31.1c0.6-1.3 1.2-2.9 1.9-4.1 1.3-2.2 4.2-2.2 6.4-2.3 2.1 0 4.7 0.3 5.9 2.3 1 1.8 1.9 4.3 2.7 5.9-0.3 2.2-0.6 4.4-0.7 6.6-0.2 1.7-0.2 3.5-0.3 5.2-0.2-1.8-0.6-3.7-1.1-3.8-1-0.1-0.4 1.8-1.3 1.7-0.9-0.1-3.5-6.9-4.2-9.9-0.4-1.9-0.5-3.9-0.6-5.1h-1.3c-0.1 1.2-0.2 3.2-0.6 5.1-0.7 3-3.4 9.8-4.2 9.9-0.9 0.1-0.3-1.8-1.3-1.7-0.3 0-0.6 0.9-0.9 2.1q0-0.1 0.1-0.2c0.1-3.4 0.2-6.8-0.3-10.2q-0.1-0.8-0.2-1.5z"/>
				</g>
				<g id="&lt;Group&gt;">
					<g id="&lt;Group&gt;">
						<g id="&lt;Group&gt;">
							<path id="&lt;Compound Path&gt;" class="s0" d="m45.3 25.3q0.1 0 0.3 0v0.1q-0.2 0-0.4 0v-0.1q0 0 0.1 0zm-0.6 0v0.1q-0.2 0-0.4 0v-0.1q0.2 0 0.4 0zm1.3 0q0.2 0 0.5 0l-0.1 0.1q-0.2 0-0.4 0zm-2.1 0v0.1q-0.2 0.1-0.4 0.1l-0.1-0.1q0.3 0 0.5-0.1zm3 0.1q0.2 0 0.4 0.1v0.1q-0.2-0.1-0.4-0.1zm-3.9 0v0.1q-0.2 0.1-0.4 0.1v-0.1q0.2 0 0.4-0.1zm4.7 0.2q0.2 0 0.4 0.1v0.1q-0.2-0.1-0.4-0.1zm-5.6 0v0.1q-0.2 0-0.4 0.1v-0.1q0.2-0.1 0.4-0.1zm-0.8 0.2v0.1q-0.2 0.1-0.4 0.1v-0.1q0.2 0 0.4-0.1zm7.2 0q0.2 0.1 0.4 0.2v0.1q-0.2-0.1-0.4-0.2zm-8.1 0.3l0.1 0.1q-0.2 0.1-0.4 0.2v-0.1q0.1-0.1 0.3-0.2zm8.9 0.1q0.2 0.1 0.3 0.2v0.1q-0.2-0.1-0.4-0.2zm-9.5 0.4q-0.2 0.2-0.3 0.3l-0.1-0.1q0.2-0.1 0.4-0.2zm10.2 0.1q0.2 0.1 0.3 0.2v0.1q-0.2-0.1-0.3-0.3zm-11 0.5l0.1 0.1q-0.1 0.1-0.2 0.3h-0.1q0.1-0.2 0.2-0.4zm11.6 0.2q0.1 0.1 0.2 0.3l-0.1 0.1q-0.1-0.2-0.2-0.4zm-12 0.6h0.1q-0.1 0.2-0.3 0.4 0.1-0.2 0.2-0.4zm12.4 0.2q0.1 0.1 0.2 0.3v0.1q-0.1-0.2-0.2-0.4zm-12.9 0.6l0.1 0.1q-0.1 0.1-0.2 0.3h-0.1q0.1-0.2 0.2-0.4zm13.2 0.2q0.1 0.2 0.2 0.4h-0.1q-0.1-0.2-0.2-0.4zm-13.6 0.6l0.1 0.1q-0.1 0.2-0.2 0.4l-0.1-0.1q0.1-0.2 0.2-0.4zm14 0.2q0.1 0.2 0.2 0.4h-0.1q-0.1-0.2-0.2-0.4zm-14.3 0.7q0 0.2-0.1 0.4h-0.1q0.1-0.2 0.2-0.4zm14.7 0.1q0 0.2 0.1 0.4l-0.1 0.1q0-0.2-0.1-0.4zm-15.1 0.6h0.1l-0.2 0.4h-0.1zm15.4 0.2l0.2 0.3-0.1 0.1-0.2-0.4zm0.4 0.8q0.1 0.2 0.1 0.4h-0.1q0-0.2-0.1-0.4zm0.3 0.8q0.1 0.2 0.2 0.4h-0.1q-0.1-0.1-0.2-0.3z"/>
						</g>
					</g>
				</g>
				<g id="&lt;Group&gt;">
					<path id="&lt;Path&gt;" class="s0" d="m47.4 19.8c0.3 0 3.4 0.8 6.1 1.6q0.2 0.5 0.3 1.1c-3-1.8-6.1-2.7-6.4-2.7z"/>
				</g>
				<g id="&lt;Group&gt;">
					<path id="&lt;Path&gt;" class="s0" d="m35.8 22.6q0.1-1.2 0.3-2.3 0.2 0 0.3 0c3.5 0.5 6.9 0.8 6.9 0.8 0 0-4.7-0.1-7.5 1.5z"/>
				</g>
				<g id="&lt;Group&gt;">
					<path id="&lt;Path&gt;" class="s0" d="m49.9 22.7c-0.8 0.2-1.6 0.4-2.3 0.4-3.1 0.3-5.7-0.8-7-1.2 6.7 1.4 6.2 0.3 9.3 0.8z"/>
				</g>
				<g id="&lt;Group&gt;">
					<path id="&lt;Path&gt;" class="s0" d="m41.4 32.7c0.3 0 0.5 0.2 0.5 0.5 0 0.3-0.2 0.5-0.5 0.5-0.3 0-0.5-0.2-0.5-0.5 0-0.3 0.2-0.5 0.5-0.5z"/>
				</g>
				<g id="&lt;Group&gt;">
					<path id="&lt;Path&gt;" class="s0" d="m41.8 33.2c0 0.2-0.2 0.4-0.4 0.4-0.2 0-0.4-0.2-0.4-0.4 0-0.2 0.2-0.4 0.4-0.4 0.2 0 0.4 0.2 0.4 0.4z"/>
				</g>
				<g id="&lt;Group&gt;">
					<path id="&lt;Path&gt;" class="s0" d="m48.9 38.6c0.3 0 0.5 0.3 0.5 0.6 0 0.3-0.2 0.5-0.5 0.5-0.3 0-0.6-0.2-0.6-0.5 0-0.3 0.3-0.6 0.6-0.6z"/>
				</g>
				<g id="&lt;Group&gt;">
					<path id="&lt;Path&gt;" class="s0" d="m49.3 39.2c0 0.2-0.2 0.4-0.4 0.4-0.3 0-0.5-0.2-0.5-0.4 0-0.3 0.2-0.5 0.5-0.5 0.2 0 0.4 0.2 0.4 0.5z"/>
				</g>
				<g id="&lt;Group&gt;">
					<path id="&lt;Path&gt;" class="s0" d="m40.3 38.6c0.3 0 0.5 0.3 0.5 0.6 0 0.3-0.2 0.5-0.5 0.5-0.3 0-0.5-0.2-0.5-0.5 0-0.3 0.2-0.6 0.5-0.6z"/>
				</g>
				<g id="&lt;Group&gt;">
					<path id="&lt;Path&gt;" class="s0" d="m40.7 39.2c0 0.2-0.2 0.4-0.4 0.4-0.2 0-0.4-0.2-0.4-0.4 0-0.3 0.2-0.5 0.4-0.5 0.2 0 0.4 0.2 0.4 0.5z"/>
				</g>
				<g id="&lt;Group&gt;">
					<path id="&lt;Path&gt;" class="s0" d="m40.6 36.6c0.3 0 0.5 0.3 0.5 0.6 0 0.3-0.2 0.5-0.5 0.5-0.3 0-0.6-0.2-0.6-0.5 0-0.3 0.3-0.6 0.6-0.6z"/>
				</g>
				<g id="&lt;Group&gt;">
					<path id="&lt;Path&gt;" class="s0" d="m41 37.2c0 0.2-0.2 0.4-0.4 0.4-0.3 0-0.5-0.2-0.5-0.4 0-0.3 0.2-0.4 0.5-0.4 0.2 0 0.4 0.1 0.4 0.4z"/>
				</g>
				<g id="&lt;Group&gt;">
					<path id="&lt;Path&gt;" class="s0" d="m48.6 36.6c0.3 0 0.6 0.3 0.6 0.6 0 0.3-0.3 0.5-0.6 0.5-0.2 0-0.5-0.2-0.5-0.5 0-0.3 0.3-0.6 0.5-0.6z"/>
				</g>
				<g id="&lt;Group&gt;">
					<path id="&lt;Path&gt;" class="s0" d="m49.1 37.2c0 0.2-0.2 0.4-0.5 0.4-0.2 0-0.4-0.2-0.4-0.4 0-0.3 0.2-0.4 0.4-0.4 0.3 0 0.5 0.1 0.5 0.4z"/>
				</g>
				<g id="&lt;Group&gt;">
					<path id="&lt;Path&gt;" class="s0" d="m41 34.7c0.3 0 0.5 0.2 0.5 0.5 0 0.3-0.2 0.5-0.5 0.5-0.3 0-0.5-0.2-0.5-0.5 0-0.3 0.2-0.5 0.5-0.5z"/>
				</g>
				<g id="&lt;Group&gt;">
					<path id="&lt;Path&gt;" class="s0" d="m41.4 35.2c0 0.2-0.2 0.4-0.4 0.4-0.2 0-0.4-0.2-0.4-0.4 0-0.2 0.2-0.4 0.4-0.4 0.2 0 0.4 0.2 0.4 0.4z"/>
				</g>
				<g id="&lt;Group&gt;">
					<path id="&lt;Path&gt;" class="s0" d="m48.2 34.7c0.3 0 0.6 0.2 0.6 0.5 0 0.3-0.3 0.5-0.6 0.5-0.3 0-0.5-0.2-0.5-0.5 0-0.3 0.2-0.5 0.5-0.5z"/>
				</g>
				<g id="&lt;Group&gt;">
					<path id="&lt;Path&gt;" class="s0" d="m48.6 35.2c0 0.2-0.1 0.4-0.4 0.4-0.2 0-0.4-0.2-0.4-0.4 0-0.2 0.2-0.4 0.4-0.4 0.3 0 0.4 0.2 0.4 0.4z"/>
				</g>
				<g id="&lt;Group&gt;">
					<path id="&lt;Path&gt;" class="s0" d="m47.8 32.7c0.3 0 0.5 0.2 0.5 0.5 0 0.3-0.2 0.5-0.5 0.5-0.3 0-0.5-0.2-0.5-0.5 0-0.3 0.2-0.5 0.5-0.5z"/>
				</g>
				<g id="&lt;Group&gt;">
					<path id="&lt;Path&gt;" class="s0" d="m48.2 33.2c0 0.2-0.2 0.4-0.4 0.4-0.2 0-0.4-0.2-0.4-0.4 0-0.2 0.2-0.4 0.4-0.4 0.2 0 0.4 0.2 0.4 0.4z"/>
				</g>
				<g id="&lt;Group&gt;">
					<path id="&lt;Path&gt;" class="s0" d="m42 30.7c0.2 0 0.5 0.2 0.5 0.5 0 0.3-0.3 0.6-0.5 0.6-0.3 0-0.6-0.3-0.6-0.6 0-0.3 0.3-0.5 0.6-0.5z"/>
				</g>
				<g id="&lt;Group&gt;">
					<path id="&lt;Path&gt;" class="s0" d="m42.4 31.2c0 0.3-0.2 0.4-0.4 0.4-0.3 0-0.5-0.1-0.5-0.4 0-0.2 0.2-0.4 0.5-0.4 0.2 0 0.4 0.2 0.4 0.4z"/>
				</g>
				<g id="&lt;Group&gt;">
					<path id="&lt;Path&gt;" class="s0" d="m42.5 28.7c0.3 0 0.5 0.2 0.5 0.5 0 0.3-0.2 0.6-0.5 0.6-0.3 0-0.5-0.3-0.5-0.6 0-0.3 0.2-0.5 0.5-0.5z"/>
				</g>
				<g id="&lt;Group&gt;">
					<path id="&lt;Path&gt;" class="s0" d="m42.9 29.2c0 0.3-0.2 0.5-0.4 0.5-0.2 0-0.4-0.2-0.4-0.5 0-0.2 0.2-0.4 0.4-0.4 0.2 0 0.4 0.2 0.4 0.4z"/>
				</g>
				<g id="&lt;Group&gt;">
					<path id="&lt;Path&gt;" class="s0" d="m46.7 28.7c0.3 0 0.6 0.2 0.6 0.5 0 0.3-0.3 0.6-0.6 0.6-0.3 0-0.5-0.3-0.5-0.6 0-0.3 0.2-0.5 0.5-0.5z"/>
				</g>
				<g id="&lt;Group&gt;">
					<path id="&lt;Path&gt;" class="s0" d="m47.1 29.2c0 0.3-0.1 0.5-0.4 0.5-0.2 0-0.4-0.2-0.4-0.5 0-0.2 0.2-0.4 0.4-0.4 0.3 0 0.4 0.2 0.4 0.4z"/>
				</g>
				<g id="&lt;Group&gt;">
					<path id="&lt;Path&gt;" class="s0" d="m47.3 30.7c0.3 0 0.5 0.2 0.5 0.5 0 0.3-0.2 0.6-0.5 0.6-0.3 0-0.6-0.3-0.6-0.6 0-0.3 0.3-0.5 0.6-0.5z"/>
				</g>
				<g id="&lt;Group&gt;">
					<path id="&lt;Path&gt;" class="s0" d="m47.7 31.2c0 0.3-0.2 0.4-0.4 0.4-0.3 0-0.5-0.1-0.5-0.4 0-0.2 0.2-0.4 0.5-0.4 0.2 0 0.4 0.2 0.4 0.4z"/>
				</g>
				<g id="&lt;Group&gt;">
					<path id="&lt;Path&gt;" class="s0" d="m40.5 38.8h8.2c0.2 0 0.3 0.2 0.3 0.4 0 0.2-0.1 0.3-0.3 0.3h-8.2c-0.2 0-0.3-0.1-0.3-0.3 0-0.2 0.1-0.4 0.3-0.4z"/>
				</g>
				<g id="&lt;Group&gt;">
					<path id="&lt;Path&gt;" class="s0" d="m40.8 36.8h7.6c0.2 0 0.4 0.2 0.4 0.4 0 0.2-0.2 0.3-0.4 0.3h-7.6c-0.2 0-0.3-0.1-0.3-0.3 0-0.2 0.1-0.4 0.3-0.4z"/>
				</g>
				<g id="&lt;Group&gt;">
					<path id="&lt;Path&gt;" class="s0" d="m41.2 34.8h6.8c0.2 0 0.3 0.2 0.3 0.4 0 0.2-0.1 0.3-0.3 0.3h-6.8c-0.2 0-0.3-0.1-0.3-0.3 0-0.2 0.1-0.4 0.3-0.4z"/>
				</g>
				<g id="&lt;Group&gt;">
					<path id="&lt;Path&gt;" class="s0" d="m41.7 32.9h5.9c0.1 0 0.3 0.1 0.3 0.3 0 0.2-0.2 0.4-0.3 0.4h-5.9c-0.2 0-0.4-0.2-0.4-0.4 0-0.2 0.2-0.3 0.4-0.3z"/>
				</g>
				<g id="&lt;Group&gt;">
					<path id="&lt;Path&gt;" class="s0" d="m42.2 30.9h4.8c0.2 0 0.4 0.1 0.4 0.3 0 0.2-0.2 0.4-0.4 0.4h-4.8c-0.2 0-0.4-0.2-0.4-0.4 0-0.2 0.2-0.3 0.4-0.3z"/>
				</g>
				<g id="&lt;Group&gt;">
					<path id="&lt;Path&gt;" class="s0" d="m42.7 28.9h3.8c0.2 0 0.3 0.1 0.3 0.3 0 0.2-0.1 0.4-0.3 0.4h-3.8c-0.2 0-0.3-0.2-0.3-0.4 0-0.2 0.1-0.3 0.3-0.3z"/>
				</g>
			</g>
			<g id="&lt;Group&gt;">
				<g id="&lt;Group&gt;">
					<path id="&lt;Path&gt;" class="s0" d="m13.9 32.8c-0.3-3-0.8-6.1-0.5-9.1 0.1-1.9 0.7-3.7 1.1-5.4 0.7-2.5 1.5-5 2.7-7.2 0.6-1.1 1.3-2.3 2.3-3 1.6-1.1 4.4-0.8 6.1-0.1 1.8 0.9 2.9 2.7 3.7 4.6 1.5 3.4 2.8 7.2 2.8 11 0 3-1.1 6-1.5 9.1-0.5 3.5-16.5 2.5-16.7 0.1z"/>
				</g>
				<g id="&lt;Group&gt;">
					<path id="&lt;Path&gt;" class="s0" d="m30.8 31.1q-0.1 0.7-0.2 1.5c-0.5 3.4-0.4 6.8-0.2 10.2q0 0.1 0 0.2c0.2 3.3 0.7 6.7 0 10-0.5 2.5-1.9 4.7-4.2 5.8-2.7 1.3-5.3 0.7-7.3-1.4-3.4-3.5-3.9-8.1-4-12.7-0.1-1.7-0.1-3.5-0.3-5.2-0.1-2.2-0.4-4.4-0.7-6.6q0-0.1 0-0.2c-0.3-2.9-0.5-5.9-0.2-8.9q0-0.7 0.1-1.3 0.1-0.6 0.3-1.1 0.3-1.4 0.7-2.8c0.6-2.4 1.4-4.8 2.6-7 0.5-1 1.2-2.2 2.2-2.9 1.6-1 4.3-0.8 5.9 0 1.8 0.8 2.8 2.5 3.6 4.4 1 2.3 1.9 4.7 2.4 7.2q0.2 1.1 0.3 2.3 0 0.5 0 1.1c0 2.5-0.6 5-1 7.4z"/>
				</g>
				<g id="&lt;Group&gt;">
					<path id="&lt;Path&gt;" class="s0" d="m18.5 40.9c0 0 1.7 1.1 4.4 1.1 2.6 0 4.2-1.1 4.2-1.1 0 0 1.3 3 1.3 8.6 0.1 5.2-0.5 7.1-2.4 8.3-1.4 0.9-3.9 0.9-5.2 0-1.6-1-2.9-2.9-3.2-8.4-0.3-5.4 0.9-8.5 0.9-8.5z"/>
				</g>
				<g id="&lt;Group&gt;">
					<path id="&lt;Path&gt;" class="s0" d="m18.2 40.4c0 0 2.5 0.9 4.7 0.9 2.2 0 4.5-0.9 4.5-0.9 0 0 4.7 16.8-4.1 16.8-9.5 0-5.1-16.8-5.1-16.8z"/>
				</g>
				<g id="&lt;Group&gt;">
					<path id="&lt;Path&gt;" class="s0" d="m27.1 40.9c0 0-1.6 1.1-4.2 1.1-2.7 0-4.4-1.1-4.4-1.1q0 0-0.2 0.5v-15.6h8.9v15.3q-0.1-0.2-0.1-0.2z"/>
				</g>
				<g id="&lt;Group&gt;">
					<path id="&lt;Path&gt;" class="s0" d="m30.6 32.6c-0.5 3.4-0.4 6.8-0.2 10.2q0 0.1 0 0.2c-0.3-1.2-0.6-2.1-0.9-2.1-1-0.1-0.4 1.8-1.3 1.7-0.8-0.1-3.5-6.9-4.2-9.9-0.4-1.9-0.5-3.9-0.6-5.1h-1.3c-0.1 1.2-0.2 3.2-0.6 5.1-0.7 3-3.3 9.8-4.2 9.9-0.9 0.1-0.3-1.8-1.3-1.7-0.5 0.1-0.9 2-1.1 3.8-0.1-1.7-0.1-3.5-0.3-5.2-0.1-2.2-0.4-4.4-0.7-6.6 0.8-1.6 1.7-4.1 2.7-5.9 1.2-2 3.8-2.3 5.9-2.3 2.2 0.1 5.2 0.1 6.4 2.3 0.7 1.2 1.3 2.8 1.9 4.1q-0.1 0.7-0.2 1.5z"/>
				</g>
				<g id="&lt;Group&gt;">
					<g id="&lt;Group&gt;">
						<g id="&lt;Group&gt;">
							<path id="&lt;Compound Path&gt;" class="s0" d="m22.4 25.3v0.1q-0.2 0-0.4 0v-0.1q0.2 0 0.3 0 0.1 0 0.1 0zm0.9 0v0.1q-0.2 0-0.4 0v-0.1q0.2 0 0.4 0zm-1.7 0.1q-0.2 0-0.4 0l-0.1-0.1q0.3 0 0.5 0zm2.5 0v0.1q-0.2-0.1-0.4-0.1v-0.1q0.2 0 0.4 0.1zm-3.4 0.1q-0.2 0-0.4 0.1v-0.2q0.2 0 0.4 0zm4.3 0v0.1q-0.2-0.1-0.5-0.1l0.1-0.1q0.2 0 0.4 0.1zm-5.1 0.1q-0.2 0.1-0.4 0.1l-0.1-0.1q0.2 0 0.4-0.1zm6 0v0.1q-0.2 0-0.4-0.1v-0.1q0.2 0.1 0.4 0.1zm0.8 0.3v0.1q-0.2-0.1-0.4-0.1v-0.1q0.2 0 0.4 0.1zm-7.6 0q-0.2 0.1-0.4 0.1v-0.1q0.2 0 0.4-0.1zm8.4 0.4l-0.1 0.1q-0.2-0.1-0.4-0.2l0.1-0.1q0.2 0.1 0.4 0.2zm-9.2-0.1q-0.2 0.1-0.3 0.3l-0.1-0.1q0.2-0.2 0.4-0.3zm9.8 0.6l-0.1 0.1q-0.1-0.2-0.3-0.3l0.1-0.1q0.2 0.2 0.3 0.3zm-10.5-0.1q-0.2 0.1-0.3 0.3l-0.1-0.1q0.1-0.1 0.3-0.3zm11.1 0.8h-0.1q-0.1-0.1-0.2-0.3l0.1-0.1q0.1 0.2 0.2 0.4zm-11.7-0.2q-0.1 0.2-0.2 0.4l-0.1-0.1q0.1-0.2 0.2-0.3zm12.2 0.8l-0.1 0.1q-0.1-0.2-0.2-0.4h0.1q0.1 0.2 0.2 0.3zm-12.6-0.1q-0.1 0.2-0.2 0.4l-0.1-0.1q0.1-0.2 0.2-0.4zm13 1h-0.1q-0.1-0.2-0.2-0.4h0.1q0.1 0.2 0.2 0.4zm-13.4-0.2q-0.1 0.2-0.2 0.4l-0.1-0.1q0.1-0.2 0.2-0.4zm13.7 1h-0.1q-0.1-0.2-0.2-0.3l0.1-0.1q0.1 0.2 0.2 0.4zm-14.1-0.2q-0.1 0.2-0.1 0.4h-0.1q0-0.2 0.1-0.4zm14.5 0.9l-0.1 0.1q-0.1-0.2-0.2-0.4l0.1-0.1q0.1 0.2 0.2 0.4zm-14.8-0.1q-0.1 0.2-0.2 0.4l-0.1-0.1q0.1-0.2 0.2-0.4zm15.1 1h-0.1l-0.2-0.4h0.1zm-15.4-0.2l-0.2 0.4h-0.1l0.2-0.4zm-0.4 0.8q0 0.2-0.1 0.4l-0.1-0.1q0.1-0.2 0.1-0.4zm-0.3 0.8q-0.1 0.2-0.2 0.4h-0.1q0.1-0.2 0.2-0.4z"/>
						</g>
					</g>
				</g>
				<g id="&lt;Group&gt;">
					<path id="&lt;Path&gt;" class="s0" d="m13.8 22.5q0.1-0.6 0.3-1.1c2.7-0.8 5.8-1.6 6.1-1.6-0.3 0-3.4 0.9-6.4 2.7z"/>
				</g>
				<g id="&lt;Group&gt;">
					<path id="&lt;Path&gt;" class="s0" d="m24.3 21.1c0 0 3.4-0.3 6.9-0.8q0.1 0 0.3 0 0.2 1.1 0.3 2.3c-2.8-1.6-7.5-1.5-7.5-1.5z"/>
				</g>
				<g id="&lt;Group&gt;">
					<path id="&lt;Path&gt;" class="s0" d="m27 21.9c-1.3 0.4-3.9 1.5-7 1.2-0.7 0-1.5-0.2-2.3-0.4 3.1-0.5 2.6 0.6 9.3-0.8z"/>
				</g>
				<g id="&lt;Group&gt;">
					<path id="&lt;Path&gt;" class="s0" d="m26.7 33.2c0 0.3-0.2 0.5-0.5 0.5-0.3 0-0.5-0.2-0.5-0.5 0-0.3 0.2-0.5 0.5-0.5 0.3 0 0.5 0.2 0.5 0.5z"/>
				</g>
				<g id="&lt;Group&gt;">
					<path id="&lt;Path&gt;" class="s0" d="m26.2 32.8c0.2 0 0.4 0.2 0.4 0.4 0 0.2-0.2 0.4-0.4 0.4-0.2 0-0.4-0.2-0.4-0.4 0-0.2 0.2-0.4 0.4-0.4z"/>
				</g>
				<g id="&lt;Group&gt;">
					<path id="&lt;Path&gt;" class="s0" d="m19.3 39.2c0 0.3-0.3 0.5-0.6 0.5-0.3 0-0.5-0.2-0.5-0.5 0-0.3 0.2-0.6 0.5-0.6 0.3 0 0.6 0.3 0.6 0.6z"/>
				</g>
				<g id="&lt;Group&gt;">
					<path id="&lt;Path&gt;" class="s0" d="m18.7 38.7c0.3 0 0.5 0.2 0.5 0.5 0 0.2-0.2 0.4-0.5 0.4-0.2 0-0.4-0.2-0.4-0.4 0-0.3 0.2-0.5 0.4-0.5z"/>
				</g>
				<g id="&lt;Group&gt;">
					<path id="&lt;Path&gt;" class="s0" d="m27.8 39.2c0 0.3-0.2 0.5-0.5 0.5-0.3 0-0.5-0.2-0.5-0.5 0-0.3 0.2-0.6 0.5-0.6 0.3 0 0.5 0.3 0.5 0.6z"/>
				</g>
				<g id="&lt;Group&gt;">
					<path id="&lt;Path&gt;" class="s0" d="m27.3 38.7c0.2 0 0.4 0.2 0.4 0.5 0 0.2-0.2 0.4-0.4 0.4-0.2 0-0.4-0.2-0.4-0.4 0-0.3 0.2-0.5 0.4-0.5z"/>
				</g>
				<g id="&lt;Group&gt;">
					<path id="&lt;Path&gt;" class="s0" d="m27.6 37.2c0 0.3-0.3 0.5-0.6 0.5-0.2 0-0.5-0.2-0.5-0.5 0-0.3 0.3-0.6 0.5-0.6 0.3 0 0.6 0.3 0.6 0.6z"/>
				</g>
				<g id="&lt;Group&gt;">
					<path id="&lt;Path&gt;" class="s0" d="m27 36.8c0.3 0 0.5 0.1 0.5 0.4 0 0.2-0.2 0.4-0.5 0.4-0.2 0-0.4-0.2-0.4-0.4 0-0.3 0.2-0.4 0.4-0.4z"/>
				</g>
				<g id="&lt;Group&gt;">
					<path id="&lt;Path&gt;" class="s0" d="m19.5 37.2c0 0.3-0.3 0.5-0.5 0.5-0.3 0-0.6-0.2-0.6-0.5 0-0.3 0.3-0.6 0.6-0.6 0.2 0 0.5 0.3 0.5 0.6z"/>
				</g>
				<g id="&lt;Group&gt;">
					<path id="&lt;Path&gt;" class="s0" d="m19 36.8c0.2 0 0.4 0.1 0.4 0.4 0 0.2-0.2 0.4-0.4 0.4-0.3 0-0.5-0.2-0.5-0.4 0-0.3 0.2-0.4 0.5-0.4z"/>
				</g>
				<g id="&lt;Group&gt;">
					<path id="&lt;Path&gt;" class="s0" d="m27.1 35.2c0 0.3-0.2 0.5-0.5 0.5-0.3 0-0.5-0.2-0.5-0.5 0-0.3 0.2-0.5 0.5-0.5 0.3 0 0.5 0.2 0.5 0.5z"/>
				</g>
				<g id="&lt;Group&gt;">
					<path id="&lt;Path&gt;" class="s0" d="m26.6 34.8c0.3 0 0.4 0.2 0.4 0.4 0 0.2-0.1 0.4-0.4 0.4-0.2 0-0.4-0.2-0.4-0.4 0-0.2 0.2-0.4 0.4-0.4z"/>
				</g>
				<g id="&lt;Group&gt;">
					<path id="&lt;Path&gt;" class="s0" d="m19.9 35.2c0 0.3-0.2 0.5-0.5 0.5-0.3 0-0.6-0.2-0.6-0.5 0-0.3 0.3-0.5 0.6-0.5 0.3 0 0.5 0.2 0.5 0.5z"/>
				</g>
				<g id="&lt;Group&gt;">
					<path id="&lt;Path&gt;" class="s0" d="m19.4 34.8c0.2 0 0.4 0.2 0.4 0.4 0 0.2-0.2 0.4-0.4 0.4-0.3 0-0.4-0.2-0.4-0.4 0-0.2 0.1-0.4 0.4-0.4z"/>
				</g>
				<g id="&lt;Group&gt;">
					<path id="&lt;Path&gt;" class="s0" d="m20.3 33.2c0 0.3-0.2 0.5-0.5 0.5-0.3 0-0.5-0.2-0.5-0.5 0-0.3 0.2-0.5 0.5-0.5 0.3 0 0.5 0.2 0.5 0.5z"/>
				</g>
				<g id="&lt;Group&gt;">
					<path id="&lt;Path&gt;" class="s0" d="m19.8 32.8c0.2 0 0.4 0.2 0.4 0.4 0 0.2-0.2 0.4-0.4 0.4-0.2 0-0.4-0.2-0.4-0.4 0-0.2 0.2-0.4 0.4-0.4z"/>
				</g>
				<g id="&lt;Group&gt;">
					<path id="&lt;Path&gt;" class="s0" d="m26.2 31.2c0 0.3-0.3 0.6-0.5 0.6-0.3 0-0.6-0.3-0.6-0.6 0-0.3 0.3-0.5 0.6-0.5 0.2 0 0.5 0.2 0.5 0.5z"/>
				</g>
				<g id="&lt;Group&gt;">
					<path id="&lt;Path&gt;" class="s0" d="m25.7 30.8c0.2 0 0.4 0.2 0.4 0.4 0 0.3-0.2 0.4-0.4 0.4-0.3 0-0.5-0.1-0.5-0.4 0-0.2 0.2-0.4 0.5-0.4z"/>
				</g>
				<g id="&lt;Group&gt;">
					<path id="&lt;Path&gt;" class="s0" d="m25.6 29.2c0 0.3-0.2 0.6-0.5 0.6-0.3 0-0.5-0.3-0.5-0.6 0-0.3 0.2-0.5 0.5-0.5 0.3 0 0.5 0.2 0.5 0.5z"/>
				</g>
				<g id="&lt;Group&gt;">
					<path id="&lt;Path&gt;" class="s0" d="m25.1 28.8c0.2 0 0.4 0.2 0.4 0.4 0 0.3-0.2 0.5-0.4 0.5-0.2 0-0.4-0.2-0.4-0.5 0-0.2 0.2-0.4 0.4-0.4z"/>
				</g>
				<g id="&lt;Group&gt;">
					<path id="&lt;Path&gt;" class="s0" d="m21.4 29.2c0 0.3-0.2 0.6-0.5 0.6-0.3 0-0.6-0.3-0.6-0.6 0-0.3 0.3-0.5 0.6-0.5 0.3 0 0.5 0.2 0.5 0.5z"/>
				</g>
				<g id="&lt;Group&gt;">
					<path id="&lt;Path&gt;" class="s0" d="m20.9 28.8c0.2 0 0.4 0.2 0.4 0.4 0 0.3-0.2 0.5-0.4 0.5-0.3 0-0.4-0.2-0.4-0.5 0-0.2 0.1-0.4 0.4-0.4z"/>
				</g>
				<g id="&lt;Group&gt;">
					<path id="&lt;Path&gt;" class="s0" d="m20.9 31.2c0 0.3-0.3 0.6-0.6 0.6-0.2 0-0.5-0.3-0.5-0.6 0-0.3 0.3-0.5 0.5-0.5 0.3 0 0.6 0.2 0.6 0.5z"/>
				</g>
				<g id="&lt;Group&gt;">
					<path id="&lt;Path&gt;" class="s0" d="m20.3 30.8c0.3 0 0.5 0.2 0.5 0.4 0 0.3-0.2 0.4-0.5 0.4-0.2 0-0.4-0.1-0.4-0.4 0-0.2 0.2-0.4 0.4-0.4z"/>
				</g>
				<g id="&lt;Group&gt;">
					<path id="&lt;Path&gt;" class="s0" d="m27.4 39.2c0 0.2-0.1 0.3-0.3 0.3h-8.2c-0.2 0-0.3-0.1-0.3-0.3 0-0.2 0.1-0.4 0.3-0.4h8.2c0.2 0 0.3 0.2 0.3 0.4z"/>
				</g>
				<g id="&lt;Group&gt;">
					<path id="&lt;Path&gt;" class="s0" d="m27.2 37.2c0 0.2-0.2 0.3-0.4 0.3h-7.6c-0.2 0-0.4-0.1-0.4-0.3 0-0.2 0.2-0.4 0.4-0.4h7.6c0.2 0 0.4 0.2 0.4 0.4z"/>
				</g>
				<g id="&lt;Group&gt;">
					<path id="&lt;Path&gt;" class="s0" d="m26.7 35.2c0 0.2-0.1 0.3-0.3 0.3h-6.8c-0.2 0-0.3-0.1-0.3-0.3 0-0.2 0.1-0.4 0.3-0.4h6.8c0.2 0 0.3 0.2 0.3 0.4z"/>
				</g>
				<g id="&lt;Group&gt;">
					<path id="&lt;Path&gt;" class="s0" d="m26.3 33.2c0 0.2-0.2 0.4-0.4 0.4h-5.9c-0.1 0-0.3-0.2-0.3-0.4 0-0.2 0.2-0.3 0.3-0.3h5.9c0.2 0 0.4 0.1 0.4 0.3z"/>
				</g>
				<g id="&lt;Group&gt;">
					<path id="&lt;Path&gt;" class="s0" d="m25.8 31.2c0 0.2-0.2 0.4-0.4 0.4h-4.8c-0.2 0-0.4-0.2-0.4-0.4 0-0.2 0.2-0.3 0.4-0.3h4.8c0.2 0 0.4 0.1 0.4 0.3z"/>
				</g>
				<g id="&lt;Group&gt;">
					<path id="&lt;Path&gt;" class="s0" d="m25.2 29.2c0 0.2-0.1 0.4-0.3 0.4h-3.8c-0.2 0-0.3-0.2-0.3-0.4 0-0.2 0.1-0.3 0.3-0.3h3.8c0.2 0 0.3 0.1 0.3 0.3z"/>
				</g>
			</g>
		</g>
		<g id="&lt;Group&gt;">
			<g id="&lt;Group&gt;">
				<path id="&lt;Path&gt;" class="s0" d="m85.6 19q0 0.2 0 0.4c0 0 0.4 7.1-0.3 9.3-2.8 9.4-1.3 16.5-0.9 20.1 0.2 1.7 0.1 3.5-0.5 5-1.3 3.3-4.1 5.6-7.4 5.6-4.3 0-7.9-4.1-8.1-9.1l-0.7-21.6-0.2-9.3c-0.2-6 3.9-11 9-11 5.1 0 9.1 4.8 9.1 10.6z"/>
				<g id="&lt;Group&gt;">
					<path id="&lt;Compound Path&gt;" class="s0" d="m76.5 58.1q-0.6 0-1.2-0.1l0.1-0.4q0.5 0.2 1.1 0.2h0.1v0.3zm1.3-0.1v-0.4q0.6-0.1 1.1-0.4l0.1 0.4q-0.5 0.2-1.2 0.4zm-3.7-0.4q-0.6-0.2-1.1-0.6l0.1-0.3q0.5 0.3 1.1 0.6zm6.1-0.7l-0.2-0.3q0.5-0.4 1-0.8l0.2 0.3q-0.5 0.4-1 0.8zm-8.2-0.8q-0.5-0.4-0.9-1l0.2-0.2q0.4 0.5 0.9 1zm10-1.2l-0.2-0.2q0.3-0.5 0.6-1.1l0.3 0.1q-0.3 0.7-0.7 1.2zm-11.6-1.1q-0.3-0.6-0.5-1.3l0.3-0.1q0.2 0.7 0.4 1.3zm12.9-1.5l-0.3-0.1q0.1-0.6 0.2-1.3h0.3q-0.1 0.8-0.2 1.4zm-13.7-1.3q0-0.4 0-1l-0.1-0.4h0.3l0.1 0.4q0 0.5 0 1zm13.6-1.6q0-0.3-0.1-0.6 0-0.4-0.1-0.7l0.3-0.1q0.1 0.4 0.1 0.7 0.1 0.4 0.1 0.7zm-13.7-1.3v-1.4h0.3v1.4zm13.4-1.5q-0.1-0.6-0.2-1.4h0.3q0.1 0.7 0.2 1.4zm-13.5-1.4v-1.4h0.3v1.4zm13.1-1.5q0-0.6-0.1-1.4h0.3q0.1 0.7 0.1 1.4zm-13.2-1.4v-1.4h0.3v1.4zm13.1-1.5q-0.1-0.6-0.1-1.2v-0.2h0.3v0.2q0 0.6 0.1 1.2zm-13.2-1.3v-1.4h0.3v1.4zm13.5-1.5h-0.3q0-0.7 0.1-1.4h0.3q-0.1 0.7-0.1 1.4zm-13.5-1.4l-0.1-1.4h0.3l0.1 1.4zm13.7-1.4l-0.3-0.1q0.1-0.7 0.2-1.4l0.3 0.1q-0.1 0.7-0.2 1.4zm-13.8-1.4l-0.1-1.4h0.3l0.1 1.4zm14.2-1.4l-0.3-0.1q0.1-0.7 0.3-1.4l0.3 0.1q-0.2 0.7-0.3 1.4zm-14.3-1.4l-0.1-1.5h0.3l0.1 1.4zm14.9-1.3l-0.3-0.1q0.2-0.6 0.4-1.3l0.3 0.1q-0.2 0.7-0.4 1.3zm-15-1.5v-1.4h0.3v1.4zm15.7-1.2l-0.3-0.1q0.1-0.5 0.1-1.4l0.3 0.1q0 0.8-0.1 1.4zm-15.8-1.6v-1.4l0.3-0.1v1.5zm15.9-1.3h-0.3q0-0.5 0-0.9 0-0.3 0-0.5h0.3q0.1 0.2 0.1 0.5 0 0.4-0.1 0.9zm-16-1.6v-1.4h0.3v1.4zm15.7-1.2q0-0.8 0-1.4h0.3q0 0.6 0 1.4zm-15.8-1.6v-0.8q0-0.1 0-0.3 0-0.2 0-0.3h0.3q0 0.1 0 0.3 0 0.1 0 0.3v0.8zm15.8-1.3q0-0.7-0.1-1.4h0.3q0.1 0.7 0.1 1.4zm-15.3-1.5l-0.3-0.1q0.1-0.7 0.3-1.4l0.3 0.1q-0.2 0.7-0.3 1.4zm14.9-1.2q-0.2-0.7-0.5-1.3l0.3-0.1q0.3 0.6 0.5 1.3zm-14.1-1.5l-0.3-0.1q0.3-0.7 0.7-1.2l0.2 0.2q-0.4 0.5-0.6 1.1zm13-1q-0.4-0.5-0.8-1l0.2-0.3q0.4 0.5 0.8 1.1zm-11.6-1.2l-0.2-0.2q0.5-0.5 1-0.9l0.2 0.3q-0.5 0.4-1 0.8zm9.9-0.7q-0.5-0.4-1-0.7l0.1-0.4q0.6 0.4 1.1 0.8zm-7.9-0.8l-0.2-0.3q0.6-0.4 1.2-0.6l0.1 0.4q-0.6 0.2-1.1 0.5zm5.8-0.5q-0.6-0.2-1.2-0.3l0.1-0.4q0.6 0.2 1.2 0.4zm-3.6-0.4v-0.3q0.6-0.1 1.2-0.1v0.3q-0.6 0-1.2 0.1z"/>
				</g>
				<path id="&lt;Path&gt;" class="s0" d="m86.6 20.4q-0.1 0.2-0.1 0.5l-0.9 11.5c-4.8-3.4-13.1-3.8-18.1-0.1l-1-11.4c-0.2-7.4 4.4-13.5 10-13.5 5.6 0 10.1 5.8 10.1 13z"/>
				<path id="&lt;Path&gt;" class="s0" d="m85.9 28.3l-0.3 4.1c-4.8-3.4-13.1-3.8-18.1-0.1l-0.4-4.1c5.4-3.5 13.7-3.1 18.8 0.1z"/>
				<path id="&lt;Path&gt;" class="s1" d="m69.6 31.1q-1.2 0.5-2.1 1.2l-1-11.4c-0.2-7.4 4.4-13.5 10-13.5 3.2 0 6 1.9 7.9 4.9-1.6-1.3-3.4-2.1-5.4-2.1-5.7 0-10.3 6.1-10 13.5z"/>
			</g>
			<g id="&lt;Group&gt;">
				<path id="&lt;Path&gt;" class="s0" d="m97.6 8.4c5.2 0 9.3 5 9.1 11l-0.3 9.3-0.7 21.6c-0.2 5-3.7 9.1-8.1 9.1-3.3 0-6.1-2.3-7.4-5.6-0.6-1.5-0.7-3.3-0.5-5 0.4-3.6 1.9-10.7-0.9-20.1-0.6-2.2-0.3-9.3-0.3-9.3q0-0.2 0-0.4c0-5.8 4.1-10.6 9.1-10.6z"/>
				<g id="&lt;Group&gt;">
					<path id="&lt;Compound Path&gt;" class="s0" d="m97.5 58.1v-0.3h0.1q0.6 0 1.2-0.2v0.4q-0.6 0.1-1.2 0.1zm-2.4-0.5l0.1-0.4q0.5 0.3 1.1 0.4v0.4q-0.6-0.2-1.2-0.4zm4.8-0.3q0.6-0.3 1.1-0.6l0.1 0.3q-0.5 0.4-1.1 0.6zm-6.9-1.2l0.2-0.2q0.4 0.4 0.9 0.8l-0.1 0.3q-0.6-0.4-1-0.9zm9-0.2q0.4-0.4 0.8-1l0.2 0.3q-0.4 0.5-0.8 1zm-10.6-2.1l0.3-0.1q0.3 0.6 0.6 1.1l-0.2 0.3q-0.4-0.6-0.7-1.3zm12.1 0q0.3-0.6 0.5-1.3l0.2 0.1q-0.2 0.7-0.5 1.3zm-12.7-2.6l0.3-0.1q0 0.7 0.2 1.4l-0.3 0.1q-0.2-0.7-0.2-1.4zm13.5 0q0.1-0.4 0.1-0.9v-0.4h0.3v0.4q0 0.5-0.1 1zm-13.5-1.5q0-0.4 0-0.7 0.1-0.4 0.1-0.7h0.3q0 0.4-0.1 0.7 0 0.4 0 0.7zm13.6-1.3l0.1-1.4h0.3v1.4zm-13.4-1.5q0.1-0.7 0.2-1.4h0.3q-0.1 0.8-0.2 1.5zm13.4-1.3l0.1-1.5 0.3 0.1-0.1 1.4zm-13.1-1.5q0.1-0.7 0.1-1.4h0.3q0 0.7-0.1 1.4zm13.2-1.3l0.1-1.4h0.3l-0.1 1.4zm-13-1.5q0-0.6 0-1.2v-0.2h0.3v0.2q0 0.6 0 1.2zm13.1-1.3l0.1-1.4h0.3l-0.1 1.4zm-13.2-2.9h0.3q0.1 0.7 0.1 1.4h-0.3q0-0.7-0.1-1.4zm13.3 0.1l0.1-1.5 0.3 0.1-0.1 1.4zm-13.6-2.9h0.3q0.1 0.7 0.2 1.4h-0.3q-0.1-0.7-0.2-1.4zm13.7 0l0.1-1.4h0.3l-0.1 1.5zm-14.2-2.8l0.3-0.1q0.2 0.7 0.3 1.4l-0.3 0.1q-0.1-0.7-0.3-1.4zm14.3-0.1l0.1-1.4h0.3l-0.1 1.4zm-15-2.6l0.3-0.1q0.2 0.7 0.4 1.3l-0.3 0.1q-0.2-0.6-0.4-1.3zm15.1-0.2l0.1-1.4h0.3l-0.1 1.4zm-15.5-2.6h0.3q0.1 0.8 0.1 1.4h-0.3q0-0.6-0.1-1.4zm15.6-0.2l0.1-1.4h0.3l-0.1 1.4zm-15.6-2.2q0-0.2 0-0.4h0.3q0 0.2 0 0.4 0 0.5 0 1h-0.3q0-0.5 0-1zm15.7-0.6v-1.4h0.4l-0.1 1.4zm-15.7-1.3q0-0.7 0.1-1.4h0.3q-0.1 0.7-0.1 1.5zm15.8-1.6v-0.8q0-0.2 0-0.3 0-0.2 0-0.3l0.3-0.1q0 0.2 0 0.4 0 0.2 0 0.3v0.8zm-15.7-1.3q0-0.7 0.1-1.4l0.3 0.1q-0.1 0.6-0.1 1.3zm15.3-2.8l0.3-0.2q0.2 0.7 0.3 1.4l-0.3 0.1q-0.1-0.7-0.3-1.3zm-14.9 0q0.2-0.7 0.5-1.3l0.3 0.2q-0.3 0.6-0.5 1.2zm13.7-2.5l0.3-0.2q0.4 0.6 0.7 1.2l-0.3 0.2q-0.3-0.6-0.7-1.2zm-12.6 0q0.4-0.6 0.9-1.1l0.2 0.2q-0.5 0.5-0.8 1.1zm10.9-1.9l0.1-0.2q0.5 0.4 1 0.9l-0.2 0.2q-0.4-0.5-0.9-0.9zm-9.2-0.1q0.5-0.5 1.1-0.8l0.1 0.3q-0.5 0.3-1 0.8zm7-1.1l0.1-0.3q0.6 0.2 1.1 0.5l-0.1 0.3q-0.5-0.3-1.1-0.5zm-4.8-0.3q0.6-0.2 1.2-0.3l0.1 0.4q-0.6 0.1-1.2 0.3zm2.5-0.1l-0.1-0.4h0.1q0.6 0 1.2 0.1l-0.1 0.4q-0.5-0.1-1.1-0.1z"/>
				</g>
				<path id="&lt;Path&gt;" class="s0" d="m97.6 7.4c5.7 0 10.2 6.1 10 13.5l-0.9 11.4c-5.1-3.7-13.4-3.3-18.2 0.1l-0.9-11.5q0-0.3 0-0.5c0-7.2 4.5-13 10-13z"/>
				<path id="&lt;Path&gt;" class="s0" d="m107 28.2l-0.3 4.1c-5.1-3.7-13.4-3.3-18.2 0.1l-0.3-4.1c5.2-3.2 13.4-3.6 18.8-0.1z"/>
				<path id="&lt;Path&gt;" class="s1" d="m90.6 31.1q-1.1 0.5-2.1 1.2l-0.9-11.4c-0.2-7.4 4.3-13.5 10-13.5 3.2 0 6 1.9 7.8 4.9-1.5-1.3-3.4-2.1-5.4-2.1-5.6 0-10.2 6.1-10 13.5z"/>
			</g>
		</g>
	</g>
</svg>