<svg version="1.2" xmlns="http://www.w3.org/2000/svg" viewBox="0 0 89 70" width="89" height="70">
	<title>New Project</title>
	<defs>
		<clipPath clipPathUnits="userSpaceOnUse" id="cp1">
			<path d="m43.72 68.66c-18.75 0-34.01-15.26-34.01-34.01 0-18.75 15.26-34.01 34.01-34.01 18.75 0 34.01 15.26 34.01 34.01 0 18.75-15.26 34.01-34.01 34.01zm0-67.02c-18.2 0-33.01 14.81-33.01 33.01 0 18.2 14.81 33.01 33.01 33.01 18.2 0 33.01-14.81 33.01-33.01 0-18.2-14.81-33.01-33.01-33.01zm0 59.11c-14.39 0-26.1-11.71-26.1-26.1 0-14.39 11.71-26.1 26.1-26.1 14.39 0 26.1 11.71 26.1 26.1 0 14.39-11.71 26.1-26.1 26.1zm0-51.2c-13.84 0-25.1 11.26-25.1 25.1 0 13.84 11.26 25.1 25.1 25.1 13.84 0 25.1-11.26 25.1-25.1 0-13.84-11.26-25.1-25.1-25.1z"/>
		</clipPath>
		<linearGradient id="g1" x1="42.3" y1="34.6" x2="42.3" y2="34.6" gradientUnits="userSpaceOnUse">
			<stop offset="0" stop-color="#ffffff"/>
			<stop offset="1" stop-color="#ffffff"/>
		</linearGradient>
		<linearGradient id="g2" x1="42.3" y1="34.6" x2="42.3" y2="34.6" gradientUnits="userSpaceOnUse">
			<stop offset="0" stop-color="#ffffff"/>
			<stop offset="1" stop-color="#ffffff"/>
		</linearGradient>
		<clipPath clipPathUnits="userSpaceOnUse" id="cp2">
			<path d="m43.72 68.66c-18.75 0-34.01-15.26-34.01-34.01 0-18.75 15.26-34.01 34.01-34.01 18.75 0 34.01 15.26 34.01 34.01 0 18.75-15.26 34.01-34.01 34.01zm0-67.02c-18.2 0-33.01 14.81-33.01 33.01 0 18.2 14.81 33.01 33.01 33.01 18.2 0 33.01-14.81 33.01-33.01 0-18.2-14.81-33.01-33.01-33.01zm0 59.11c-14.39 0-26.1-11.71-26.1-26.1 0-14.39 11.71-26.1 26.1-26.1 14.39 0 26.1 11.71 26.1 26.1 0 14.39-11.71 26.1-26.1 26.1zm0-51.2c-13.84 0-25.1 11.26-25.1 25.1 0 13.84 11.26 25.1 25.1 25.1 13.84 0 25.1-11.26 25.1-25.1 0-13.84-11.26-25.1-25.1-25.1z"/>
		</clipPath>
		<linearGradient id="g3" x1="38.3" y1="21.1" x2="38.3" y2="21.1" gradientUnits="userSpaceOnUse">
			<stop offset="0" stop-color="#ffffff"/>
			<stop offset="1" stop-color="#ffffff"/>
		</linearGradient>
		<linearGradient id="g4" x1="38.3" y1="21.1" x2="38.3" y2="21.1" gradientUnits="userSpaceOnUse">
			<stop offset="0" stop-color="#ffffff"/>
			<stop offset="1" stop-color="#ffffff"/>
		</linearGradient>
		<clipPath clipPathUnits="userSpaceOnUse" id="cp3">
			<path d="m43.77 68.66c-18.75 0-34-15.26-34-34.01 0-18.75 15.25-34.01 34-34.01 18.76 0 34.01 15.26 34.01 34.01 0 18.75-15.25 34.01-34.01 34.01zm0-67.02c-18.2 0-33 14.81-33 33.01 0 18.2 14.8 33.01 33 33.01 18.2 0 33.01-14.81 33.01-33.01 0-18.2-14.81-33.01-33.01-33.01zm0 59.11c-14.39 0-26.1-11.71-26.1-26.1 0-14.39 11.71-26.1 26.1-26.1 14.4 0 26.11 11.71 26.11 26.1 0 14.39-11.71 26.1-26.11 26.1zm0-51.2c-13.84 0-25.1 11.26-25.1 25.1 0 13.84 11.26 25.1 25.1 25.1 13.85 0 25.11-11.26 25.11-25.1 0-13.84-11.26-25.1-25.11-25.1z"/>
		</clipPath>
		<linearGradient id="g5" x1="38.4" y1="21.1" x2="38.4" y2="21.1" gradientUnits="userSpaceOnUse">
			<stop offset="0" stop-color="#ffffff"/>
			<stop offset="1" stop-color="#ffffff"/>
		</linearGradient>
		<linearGradient id="g6" x1="38.4" y1="21.1" x2="38.4" y2="21.1" gradientUnits="userSpaceOnUse">
			<stop offset="0" stop-color="#ffffff"/>
			<stop offset="1" stop-color="#ffffff"/>
		</linearGradient>
	</defs>
	<style>
		.s0 { fill: #ffffff } 
		.s1 { mix-blend-mode: multiply;fill: #ffffff;stroke: #000000;stroke-linecap: round;stroke-linejoin: round } 
		.s2 { fill: #000000 } 
		.s3 { fill: none } 
		.s4 { fill: url(#g1) } 
		.s5 { fill: url(#g2) } 
		.s6 { fill: url(#g3) } 
		.s7 { fill: url(#g4) } 
		.s8 { fill: url(#g5) } 
		.s9 { fill: url(#g6) } 
		.s10 { fill: #ffffff;stroke: #000000;stroke-linecap: round;stroke-linejoin: round } 
		.s11 { opacity: .6;mix-blend-mode: multiply;fill: #ffffff;stroke: #000000;stroke-linecap: round;stroke-linejoin: round } 
	</style>
	<g id="&lt;Group&gt;">
		<path id="&lt;Path&gt;" class="s0" d="m43.8 9.1c14.1 0 25.5 11.4 25.5 25.5 0 14.2-11.4 25.6-25.5 25.6-14.1 0-25.6-11.4-25.6-25.6 0-14.1 11.5-25.5 25.6-25.5z"/>
		<path id="&lt;Path&gt;" class="s1" d="m43.7 64.2c-16.3 0-29.5-13.3-29.5-29.6 0-16.2 13.2-29.5 29.5-29.5 16.3 0 29.6 13.3 29.6 29.5 0 16.3-13.3 29.6-29.6 29.6z"/>
		<g id="&lt;Group&gt;">
			<g id="&lt;Group&gt;">
				<path id="&lt;Compound Path&gt;" fill-rule="evenodd" class="s0" d="m77.2 34.6c0 18.5-15 33.6-33.5 33.6-18.5 0-33.5-15.1-33.5-33.6 0-18.4 15-33.5 33.5-33.5 18.5 0 33.5 15.1 33.5 33.5zm-59.1 0c0 14.2 11.5 25.7 25.6 25.7 14.2 0 25.6-11.5 25.6-25.7 0-14.1-11.4-25.6-25.6-25.6-14.1 0-25.6 11.5-25.6 25.6z"/>
				<path id="&lt;Compound Path&gt;" fill-rule="evenodd" class="s2" d="m43.7 68.7c-18.7 0-34-15.3-34-34.1 0-18.7 15.3-34 34-34 18.8 0 34 15.3 34 34 0 18.8-15.2 34.1-34 34.1zm0-67.1c-18.2 0-33 14.8-33 33 0 18.2 14.8 33.1 33 33.1 18.2 0 33-14.9 33-33.1 0-18.2-14.8-33-33-33zm0 59.2c-14.4 0-26.1-11.8-26.1-26.2 0-14.3 11.7-26.1 26.1-26.1 14.4 0 26.1 11.8 26.1 26.1 0 14.4-11.7 26.2-26.1 26.2zm0-51.3c-13.8 0-25.1 11.3-25.1 25.1 0 13.9 11.3 25.2 25.1 25.2 13.9 0 25.1-11.3 25.1-25.2 0-13.8-11.2-25.1-25.1-25.1z"/>
			</g>
		</g>
		<g id="&lt;Group&gt;">
			<g id="&lt;Group&gt;">
				<path id="&lt;Compound Path&gt;" fill-rule="evenodd" class="s0" d="m77.2 34.6c0 18.5-15 33.6-33.5 33.6-18.5 0-33.5-15.1-33.5-33.6 0-18.4 15-33.5 33.5-33.5 18.5 0 33.5 15.1 33.5 33.5zm-59.1 0c0 14.2 11.5 25.7 25.6 25.7 14.2 0 25.6-11.5 25.6-25.7 0-14.1-11.4-25.6-25.6-25.6-14.1 0-25.6 11.5-25.6 25.6z"/>
				<path id="&lt;Compound Path&gt;" fill-rule="evenodd" class="s2" d="m43.7 68.7c-18.7 0-34-15.3-34-34.1 0-18.7 15.3-34 34-34 18.8 0 34 15.3 34 34 0 18.8-15.2 34.1-34 34.1zm0-67.1c-18.2 0-33 14.8-33 33 0 18.2 14.8 33.1 33 33.1 18.2 0 33-14.9 33-33.1 0-18.2-14.8-33-33-33zm0 59.2c-14.4 0-26.1-11.8-26.1-26.2 0-14.3 11.7-26.1 26.1-26.1 14.4 0 26.1 11.8 26.1 26.1 0 14.4-11.7 26.2-26.1 26.2zm0-51.3c-13.8 0-25.1 11.3-25.1 25.1 0 13.9 11.3 25.2 25.1 25.2 13.9 0 25.1-11.3 25.1-25.2 0-13.8-11.2-25.1-25.1-25.1z"/>
			</g>
		</g>
		<g id="&lt;Group&gt;" style="opacity: .3;mix-blend-mode: multiply">
			<g id="&lt;Group&gt;">
				<path id="&lt;Compound Path&gt;" fill-rule="evenodd" class="s0" d="m77.2 34.6c0 18.5-15 33.6-33.5 33.6-18.5 0-33.5-15.1-33.5-33.6 0-18.4 15-33.5 33.5-33.5 18.5 0 33.5 15.1 33.5 33.5zm-59.1 0c0 14.2 11.5 25.7 25.6 25.7 14.2 0 25.6-11.5 25.6-25.7 0-14.1-11.4-25.6-25.6-25.6-14.1 0-25.6 11.5-25.6 25.6z"/>
				<path id="&lt;Compound Path&gt;" fill-rule="evenodd" class="s2" d="m43.7 68.7c-18.7 0-34-15.3-34-34.1 0-18.7 15.3-34 34-34 18.8 0 34 15.3 34 34 0 18.8-15.2 34.1-34 34.1zm0-67.1c-18.2 0-33 14.8-33 33 0 18.2 14.8 33.1 33 33.1 18.2 0 33-14.9 33-33.1 0-18.2-14.8-33-33-33zm0 59.2c-14.4 0-26.1-11.8-26.1-26.2 0-14.3 11.7-26.1 26.1-26.1 14.4 0 26.1 11.8 26.1 26.1 0 14.4-11.7 26.2-26.1 26.2zm0-51.3c-13.8 0-25.1 11.3-25.1 25.1 0 13.9 11.3 25.2 25.1 25.2 13.9 0 25.1-11.3 25.1-25.2 0-13.8-11.2-25.1-25.1-25.1z"/>
			</g>
			<g id="&lt;Clip Group&gt;" clip-path="url(#cp1)">
				<g id="&lt;Group&gt;">
					<path id="&lt;Compound Path&gt;" fill-rule="evenodd" class="s3" d="m77.2 34.6c0 18.5-15 33.6-33.5 33.6-18.5 0-33.5-15.1-33.5-33.6 0-18.4 15-33.5 33.5-33.5 18.5 0 33.5 15.1 33.5 33.5zm-59.1 0c0 14.2 11.5 25.7 25.6 25.7 14.2 0 25.6-11.5 25.6-25.7 0-14.1-11.4-25.6-25.6-25.6-14.1 0-25.6 11.5-25.6 25.6z"/>
					<path id="&lt;Compound Path&gt;" fill-rule="evenodd" class="s3" d="m43.7 68.7c-18.7 0-34-15.3-34-34.1 0-18.7 15.3-34 34-34 18.8 0 34 15.3 34 34 0 18.8-15.2 34.1-34 34.1zm0-67.1c-18.2 0-33 14.8-33 33 0 18.2 14.8 33.1 33 33.1 18.2 0 33-14.9 33-33.1 0-18.2-14.8-33-33-33zm0 59.2c-14.4 0-26.1-11.8-26.1-26.2 0-14.3 11.7-26.1 26.1-26.1 14.4 0 26.1 11.8 26.1 26.1 0 14.4-11.7 26.2-26.1 26.2zm0-51.3c-13.8 0-25.1 11.3-25.1 25.1 0 13.9 11.3 25.2 25.1 25.2 13.9 0 25.1-11.3 25.1-25.2 0-13.8-11.2-25.1-25.1-25.1z"/>
				</g>
				<path id="&lt;Mesh&gt;" class="s4" d="m42.3 34.6q-6.9-7.9-13.8-15.9c8.8-7.6 22.1-6.6 29.7 2.2q-8 6.9-15.9 13.7zm15.9-13.7c-7.6-8.8-20.9-9.8-29.7-2.2-9.6-11.1-6.9-7.9-8.3-9.5 14.1-12.2 35.4-10.6 47.5 3.4-1.6 1.4 1.6-1.3-9.5 8.3zm9.5-8.3c-12.1-14-33.4-15.6-47.5-3.4q-4.5-5.3-9-10.5c19.9-17.1 49.9-14.9 67 4.9q-5.2 4.5-10.5 9zm-25.4 22q-8 6.9-16 13.8c-7.6-8.8-6.6-22.1 2.2-29.7q6.9 8 13.8 15.9zm-13.8-15.9c-8.8 7.6-9.8 20.9-2.2 29.7-11.1 9.6-7.9 6.9-9.5 8.3-12.2-14.1-10.6-35.4 3.4-47.5 1.4 1.6-1.3-1.6 8.3 9.5zm-8.3-9.5c-14 12.1-15.6 33.4-3.4 47.5q-5.3 4.5-10.5 9c-17.1-19.9-14.9-49.8 4.9-67q4.5 5.2 9 10.5zm22.1 25.4q6.8 8 13.7 16c-8.8 7.6-22.1 6.6-29.7-2.2q8-6.9 16-13.8zm-16 13.8c7.6 8.8 20.9 9.8 29.7 2.2 9.6 11.1 6.9 7.9 8.3 9.5-14.1 12.2-35.4 10.6-47.5-3.4 1.6-1.4-1.6 1.3 9.5-8.3zm-9.5 8.3c12.1 14 33.4 15.6 47.5 3.4q4.5 5.3 9 10.5c-19.8 17.1-49.8 14.9-67-4.9q5.2-4.5 10.5-9zm25.5-22.1q7.9-6.8 15.9-13.7c7.6 8.8 6.6 22.1-2.2 29.7q-6.9-8-13.7-16zm13.7 16c8.8-7.6 9.8-20.9 2.2-29.7 11.1-9.6 7.9-6.9 9.5-8.3 12.2 14.1 10.6 35.4-3.4 47.5-1.4-1.6 1.3 1.6-8.3-9.5zm8.3 9.5c14-12.1 15.6-33.4 3.4-47.5q5.3-4.5 10.5-9c17.1 19.9 15 49.8-4.9 67q-4.5-5.2-9-10.5z"/>
				<path id="&lt;Mesh&gt;" class="s5" d="m42.3 34.6q-6.9-7.9-13.8-15.9c8.8-7.6 22.1-6.6 29.7 2.2q-8 6.9-15.9 13.7zm15.9-13.7c-7.6-8.8-20.9-9.8-29.7-2.2-9.6-11.1-6.9-7.9-8.3-9.5 14.1-12.2 35.4-10.6 47.5 3.4-1.6 1.4 1.6-1.3-9.5 8.3zm9.5-8.3c-12.1-14-33.4-15.6-47.5-3.4q-3.4-4-6.9-8c18.5-16 46.5-14 62.4 4.5q-4 3.5-8 6.9zm-25.4 22q-8 6.9-16 13.8c-7.6-8.8-6.6-22.1 2.2-29.7q6.9 8 13.8 15.9zm-13.8-15.9c-8.8 7.6-9.8 20.9-2.2 29.7-11.1 9.6-7.9 6.9-9.5 8.3-12.2-14.1-10.6-35.4 3.4-47.5 1.4 1.6-1.3-1.6 8.3 9.5zm-8.3-9.5c-14 12.1-15.6 33.4-3.4 47.5q-4 3.4-8 6.9c-16-18.5-13.9-46.5 4.5-62.4q3.5 4 6.9 8zm22.1 25.4q6.8 8 13.7 16c-8.8 7.6-22.1 6.6-29.7-2.2q8-6.9 16-13.8zm-16 13.8c7.6 8.8 20.9 9.8 29.7 2.2 9.6 11.1 6.9 7.9 8.3 9.5-14.1 12.2-35.4 10.6-47.5-3.4 1.6-1.4-1.6 1.3 9.5-8.3zm-9.5 8.3c12.1 14 33.4 15.6 47.5 3.4q3.4 4 6.9 8c-18.5 16-46.4 13.9-62.4-4.5q4-3.5 8-6.9zm25.5-22.1q7.9-6.8 15.9-13.7c7.6 8.8 6.6 22.1-2.2 29.7q-6.9-8-13.7-16zm13.7 16c8.8-7.6 9.8-20.9 2.2-29.7 11.1-9.6 7.9-6.9 9.5-8.3 12.2 14.1 10.6 35.4-3.4 47.5-1.4-1.6 1.3 1.6-8.3-9.5zm8.3 9.5c14-12.1 15.6-33.4 3.4-47.5q4-3.4 8-6.9c16 18.5 14 46.5-4.5 62.4q-3.5-4-6.9-8z"/>
			</g>
		</g>
		<g id="&lt;Group&gt;">
			<g id="&lt;Group&gt;">
				<path id="&lt;Compound Path&gt;" fill-rule="evenodd" class="s0" d="m77.2 34.6c0 18.5-15 33.6-33.5 33.6-18.5 0-33.5-15.1-33.5-33.6 0-18.4 15-33.5 33.5-33.5 18.5 0 33.5 15.1 33.5 33.5zm-59.1 0c0 14.2 11.5 25.7 25.6 25.7 14.2 0 25.6-11.5 25.6-25.7 0-14.1-11.4-25.6-25.6-25.6-14.1 0-25.6 11.5-25.6 25.6z"/>
				<path id="&lt;Compound Path&gt;" fill-rule="evenodd" class="s2" d="m43.7 68.7c-18.7 0-34-15.3-34-34.1 0-18.7 15.3-34 34-34 18.8 0 34 15.3 34 34 0 18.8-15.2 34.1-34 34.1zm0-67.1c-18.2 0-33 14.8-33 33 0 18.2 14.8 33.1 33 33.1 18.2 0 33-14.9 33-33.1 0-18.2-14.8-33-33-33zm0 59.2c-14.4 0-26.1-11.8-26.1-26.2 0-14.3 11.7-26.1 26.1-26.1 14.4 0 26.1 11.8 26.1 26.1 0 14.4-11.7 26.2-26.1 26.2zm0-51.3c-13.8 0-25.1 11.3-25.1 25.1 0 13.9 11.3 25.2 25.1 25.2 13.9 0 25.1-11.3 25.1-25.2 0-13.8-11.2-25.1-25.1-25.1z"/>
			</g>
		</g>
		<g id="&lt;Group&gt;" style="opacity: .3;mix-blend-mode: multiply">
			<g id="&lt;Group&gt;">
				<path id="&lt;Compound Path&gt;" fill-rule="evenodd" class="s0" d="m77.2 34.6c0 18.5-15 33.6-33.5 33.6-18.5 0-33.5-15.1-33.5-33.6 0-18.4 15-33.5 33.5-33.5 18.5 0 33.5 15.1 33.5 33.5zm-59.1 0c0 14.2 11.5 25.7 25.6 25.7 14.2 0 25.6-11.5 25.6-25.7 0-14.1-11.4-25.6-25.6-25.6-14.1 0-25.6 11.5-25.6 25.6z"/>
				<path id="&lt;Compound Path&gt;" fill-rule="evenodd" class="s2" d="m43.7 68.7c-18.7 0-34-15.3-34-34.1 0-18.7 15.3-34 34-34 18.8 0 34 15.3 34 34 0 18.8-15.2 34.1-34 34.1zm0-67.1c-18.2 0-33 14.8-33 33 0 18.2 14.8 33.1 33 33.1 18.2 0 33-14.9 33-33.1 0-18.2-14.8-33-33-33zm0 59.2c-14.4 0-26.1-11.8-26.1-26.2 0-14.3 11.7-26.1 26.1-26.1 14.4 0 26.1 11.8 26.1 26.1 0 14.4-11.7 26.2-26.1 26.2zm0-51.3c-13.8 0-25.1 11.3-25.1 25.1 0 13.9 11.3 25.2 25.1 25.2 13.9 0 25.1-11.3 25.1-25.2 0-13.8-11.2-25.1-25.1-25.1z"/>
			</g>
			<g id="&lt;Clip Group&gt;" clip-path="url(#cp2)">
				<g id="&lt;Group&gt;">
					<path id="&lt;Compound Path&gt;" fill-rule="evenodd" class="s3" d="m77.2 34.6c0 18.5-15 33.6-33.5 33.6-18.5 0-33.5-15.1-33.5-33.6 0-18.4 15-33.5 33.5-33.5 18.5 0 33.5 15.1 33.5 33.5zm-59.1 0c0 14.2 11.5 25.7 25.6 25.7 14.2 0 25.6-11.5 25.6-25.7 0-14.1-11.4-25.6-25.6-25.6-14.1 0-25.6 11.5-25.6 25.6z"/>
					<path id="&lt;Compound Path&gt;" fill-rule="evenodd" class="s3" d="m43.7 68.7c-18.7 0-34-15.3-34-34.1 0-18.7 15.3-34 34-34 18.8 0 34 15.3 34 34 0 18.8-15.2 34.1-34 34.1zm0-67.1c-18.2 0-33 14.8-33 33 0 18.2 14.8 33.1 33 33.1 18.2 0 33-14.9 33-33.1 0-18.2-14.8-33-33-33zm0 59.2c-14.4 0-26.1-11.8-26.1-26.2 0-14.3 11.7-26.1 26.1-26.1 14.4 0 26.1 11.8 26.1 26.1 0 14.4-11.7 26.2-26.1 26.2zm0-51.3c-13.8 0-25.1 11.3-25.1 25.1 0 13.9 11.3 25.2 25.1 25.2 13.9 0 25.1-11.3 25.1-25.2 0-13.8-11.2-25.1-25.1-25.1z"/>
				</g>
				<path id="&lt;Mesh&gt;" class="s6" d="m38.3 21.1q10.6-5.1 21.2-10.1c5.6 11.6 0.6 25.7-11.1 31.3q-5-10.6-10.1-21.2zm10.1 21.2c11.7-5.6 16.7-19.7 11.1-31.3 6.1-3 7.1-3.4 23.3-11.2 11.8 24.6 1.4 54-23.2 65.8-7.8-16.3-8.3-17.3-11.2-23.3zm11.2 23.3c24.6-11.8 35-41.2 23.2-65.8q4-1.9 7.9-3.8c13.8 29 1.6 63.6-27.4 77.5q-1.8-4-3.7-7.9zm-21.3-44.5q-5-10.6-10.1-21.2c11.7-5.6 25.7-0.6 31.3 11.1q-10.6 5-21.2 10.1zm21.2-10.1c-5.6-11.7-19.6-16.7-31.3-11.1-2.9-6.1-3.4-7.1-11.2-23.4 24.6-11.7 54.1-1.3 65.8 23.3-16.2 7.8-17.2 8.2-23.3 11.2zm23.3-11.2c-11.7-24.6-41.2-35-65.8-23.3q-1.8-3.9-3.7-7.8c28.9-13.8 63.6-1.6 77.4 27.3q-3.9 1.9-7.9 3.8zm-44.5 21.3q-10.6 5-21.2 10.1c-5.6-11.7-0.6-25.7 11.1-31.3q5.1 10.6 10.1 21.2zm-10.1-21.2c-11.7 5.6-16.7 19.6-11.1 31.3-6.1 2.9-7.1 3.4-23.3 11.2-11.8-24.6-1.4-54.1 23.2-65.9 7.8 16.3 8.3 17.3 11.2 23.4zm-11.2-23.4c-24.6 11.8-35 41.3-23.2 65.9q-3.9 1.8-7.9 3.7c-13.8-28.9-1.5-63.6 27.4-77.4q1.9 3.9 3.7 7.8zm21.3 44.6q5.1 10.6 10.1 21.2c-11.7 5.5-25.7 0.6-31.3-11.1q10.6-5.1 21.2-10.1zm-21.2 10.1c5.6 11.7 19.6 16.6 31.3 11.1 2.9 6 3.4 7 11.2 23.3-24.6 11.8-54.1 1.3-65.8-23.2 16.2-7.8 17.2-8.3 23.3-11.2zm-23.3 11.2c11.7 24.5 41.2 35 65.8 23.2q1.9 3.9 3.7 7.9c-28.9 13.8-63.5 1.5-77.4-27.4q4-1.9 7.9-3.7z"/>
				<path id="&lt;Mesh&gt;" class="s7" d="m38.3 21.1q10.6-5.1 21.2-10.1c5.6 11.6 0.6 25.7-11.1 31.3q-5-10.6-10.1-21.2zm10.1 21.2c11.7-5.6 16.7-19.7 11.1-31.3 6.1-3 7.1-3.4 23.3-11.2 11.8 24.6 1.4 54-23.2 65.8-7.8-16.3-8.3-17.3-11.2-23.3zm-10.1-21.2q-5-10.6-10.1-21.2c11.7-5.6 25.7-0.6 31.3 11.1q-10.6 5-21.2 10.1zm21.2-10.1c-5.6-11.7-19.6-16.7-31.3-11.1-2.9-6.1-3.4-7.1-11.2-23.4 24.6-11.7 54.1-1.3 65.8 23.3-16.2 7.8-17.2 8.2-23.3 11.2zm-21.2 10.1q-10.6 5-21.2 10.1c-5.6-11.7-0.6-25.7 11.1-31.3q5.1 10.6 10.1 21.2zm-10.1-21.2c-11.7 5.6-16.7 19.6-11.1 31.3-6.1 2.9-7.1 3.4-23.3 11.2-11.8-24.6-1.4-54.1 23.2-65.9 7.8 16.3 8.3 17.3 11.2 23.4zm10.1 21.2q5.1 10.6 10.1 21.2c-11.7 5.5-25.7 0.6-31.3-11.1q10.6-5.1 21.2-10.1zm-21.2 10.1c5.6 11.7 19.6 16.6 31.3 11.1 2.9 6 3.4 7 11.2 23.3-24.6 11.8-54.1 1.3-65.8-23.2 16.2-7.8 17.2-8.3 23.3-11.2z"/>
			</g>
		</g>
		<g id="&lt;Group&gt;">
			<path id="&lt;Compound Path&gt;" fill-rule="evenodd" class="s0" d="m77.3 34.6c0 18.5-15 33.6-33.5 33.6-18.5 0-33.5-15.1-33.5-33.6 0-18.4 15-33.5 33.5-33.5 18.5 0 33.5 15.1 33.5 33.5zm-59.1 0c0 14.2 11.4 25.7 25.6 25.7 14.1 0 25.6-11.5 25.6-25.7 0-14.1-11.5-25.6-25.6-25.6-14.2 0-25.6 11.5-25.6 25.6z"/>
			<path id="&lt;Compound Path&gt;" fill-rule="evenodd" class="s2" d="m43.8 68.7c-18.8 0-34-15.3-34-34.1 0-18.7 15.2-34 34-34 18.7 0 34 15.3 34 34 0 18.8-15.3 34.1-34 34.1zm0-67.1c-18.2 0-33 14.8-33 33 0 18.2 14.8 33.1 33 33.1 18.2 0 33-14.9 33-33.1 0-18.2-14.8-33-33-33zm0 59.2c-14.4 0-26.1-11.8-26.1-26.2 0-14.3 11.7-26.1 26.1-26.1 14.4 0 26.1 11.8 26.1 26.1 0 14.4-11.7 26.2-26.1 26.2zm0-51.3c-13.9 0-25.1 11.3-25.1 25.1 0 13.9 11.2 25.2 25.1 25.2 13.8 0 25.1-11.3 25.1-25.2 0-13.8-11.3-25.1-25.1-25.1z"/>
		</g>
		<g id="&lt;Clip Group&gt;" clip-path="url(#cp3)">
			<g id="&lt;Group&gt;">
				<path id="&lt;Compound Path&gt;" fill-rule="evenodd" class="s3" d="m77.3 34.6c0 18.5-15 33.6-33.5 33.6-18.5 0-33.5-15.1-33.5-33.6 0-18.4 15-33.5 33.5-33.5 18.5 0 33.5 15.1 33.5 33.5zm-59.1 0c0 14.2 11.4 25.7 25.6 25.7 14.1 0 25.6-11.5 25.6-25.7 0-14.1-11.5-25.6-25.6-25.6-14.2 0-25.6 11.5-25.6 25.6z"/>
				<path id="&lt;Compound Path&gt;" fill-rule="evenodd" class="s3" d="m43.8 68.7c-18.8 0-34-15.3-34-34.1 0-18.7 15.2-34 34-34 18.7 0 34 15.3 34 34 0 18.8-15.3 34.1-34 34.1zm0-67.1c-18.2 0-33 14.8-33 33 0 18.2 14.8 33.1 33 33.1 18.2 0 33-14.9 33-33.1 0-18.2-14.8-33-33-33zm0 59.2c-14.4 0-26.1-11.8-26.1-26.2 0-14.3 11.7-26.1 26.1-26.1 14.4 0 26.1 11.8 26.1 26.1 0 14.4-11.7 26.2-26.1 26.2zm0-51.3c-13.9 0-25.1 11.3-25.1 25.1 0 13.9 11.2 25.2 25.1 25.2 13.8 0 25.1-11.3 25.1-25.2 0-13.8-11.3-25.1-25.1-25.1z"/>
			</g>
			<path id="&lt;Mesh&gt;" class="s8" d="m38.4 21.1q10.6-5.1 21.2-10.1c5.5 11.6 0.6 25.7-11.1 31.3q-5.1-10.6-10.1-21.2zm10.1 21.2c11.7-5.6 16.6-19.7 11.1-31.3 17.9-8.6 17.6-8.5 23.3-11.2 11.8 24.6 1.3 54.1-23.3 65.8-2.7-5.7-2.5-5.4-11.1-23.3zm11.1 23.3c24.6-11.7 35.1-41.2 23.3-65.8q3.9-1.9 7.8-3.8c13.9 29 1.6 63.6-27.3 77.5q-1.9-4-3.8-7.9zm-21.2-44.5q-5.1-10.6-10.2-21.2c11.7-5.6 25.8-0.6 31.4 11.1q-10.6 5-21.2 10.1zm21.2-10.1c-5.6-11.7-19.7-16.7-31.4-11.1-8.5-18-8.4-17.6-11.1-23.4 24.6-11.7 54-1.3 65.8 23.3-5.7 2.7-5.4 2.6-23.3 11.2zm23.3-11.2c-11.8-24.6-41.2-35-65.8-23.3q-1.9-3.9-3.8-7.8c29-13.8 63.6-1.6 77.4 27.3q-3.9 1.9-7.8 3.8zm-44.5 21.3q-10.6 5-21.2 10.1c-5.6-11.7-0.6-25.7 11-31.3q5.1 10.6 10.2 21.2zm-10.2-21.2c-11.6 5.6-16.6 19.6-11 31.3-18 8.6-17.6 8.4-23.4 11.2-11.7-24.6-1.3-54.1 23.3-65.9 2.7 5.8 2.6 5.4 11.1 23.4zm-11.1-23.4c-24.6 11.8-35 41.3-23.3 65.9q-3.9 1.8-7.8 3.7c-13.8-28.9-1.6-63.6 27.3-77.4q1.9 3.9 3.8 7.8zm21.3 44.6q5 10.6 10.1 21.2c-11.7 5.5-25.7 0.6-31.3-11.1q10.6-5.1 21.2-10.1zm-21.2 10.1c5.6 11.7 19.6 16.6 31.3 11.1 8.6 17.9 8.4 17.6 11.1 23.3-24.5 11.8-54 1.3-65.8-23.2 5.8-2.8 5.4-2.6 23.4-11.2zm-23.4 11.2c11.8 24.5 41.3 35 65.8 23.2q1.9 3.9 3.8 7.9c-28.9 13.8-63.6 1.5-77.4-27.4q3.9-1.9 7.8-3.7z"/>
			<path id="&lt;Mesh&gt;" class="s9" d="m38.4 21.1q10.6-5.1 21.2-10.1c5.5 11.6 0.6 25.7-11.1 31.3q-5.1-10.6-10.1-21.2zm10.1 21.2c11.7-5.6 16.6-19.7 11.1-31.3 17.9-8.6 17.6-8.5 23.3-11.2 11.8 24.6 1.3 54.1-23.3 65.8-2.7-5.7-2.5-5.4-11.1-23.3zm-10.1-21.2q-5.1-10.6-10.2-21.2c11.7-5.6 25.8-0.6 31.4 11.1q-10.6 5-21.2 10.1zm21.2-10.1c-5.6-11.7-19.7-16.7-31.4-11.1-8.5-18-8.4-17.6-11.1-23.4 24.6-11.7 54-1.3 65.8 23.3-5.7 2.7-5.4 2.6-23.3 11.2zm-21.2 10.1q-10.6 5-21.2 10.1c-5.6-11.7-0.6-25.7 11-31.3q5.1 10.6 10.2 21.2zm-10.2-21.2c-11.6 5.6-16.6 19.6-11 31.3-18 8.6-17.6 8.4-23.4 11.2-11.7-24.6-1.3-54.1 23.3-65.9 2.7 5.8 2.6 5.4 11.1 23.4zm10.2 21.2q5 10.6 10.1 21.2c-11.7 5.5-25.7 0.6-31.3-11.1q10.6-5.1 21.2-10.1zm-21.2 10.1c5.6 11.7 19.6 16.6 31.3 11.1 8.6 17.9 8.4 17.6 11.1 23.3-24.5 11.8-54 1.3-65.8-23.2 5.8-2.8 5.4-2.6 23.4-11.2z"/>
		</g>
		<g id="&lt;Group&gt;">
			<g id="&lt;Group&gt;">
				<path id="&lt;Compound Path&gt;" fill-rule="evenodd" class="s10" d="m28.8 48.1l-0.6 4.2-2.6-5.6 1.9-3.8 3.1-0.8 9.7-4.9 2.8-4.1v-0.5l-7.6 4-6.7 4.9-8 1.3-12.3-8.1 11.7 3.4 5.9-3.6 11.1-3.8 5.9 1.8v-0.1l-9.5-4.2-14.5-3.8-1.6-8.6 2.5 2.4h7.3l10.5 7.1 5.3 6.9 0.2-0.3-3.3-7.5-6.5-4.1-2.4-11.9-0.6-5.8 5.6 3.4 2.5 10.7 4.7 6.3 0.5 8.4 5.9-18.7 7.2-9.7 8.5-1.8-8.7 6.5-3.6 10.5-9.3 14 9.8-5.9 10.1-3.2 14.5 6.7-15.6-1.7-6.8 4.8c1.6 1.2 11.8 9.9 11.8 9.9l9.7 1.6-10.6 3-4.9-5.8-9.2-5.4-9.1-3.5-0.1 0.1 8 9.2 12.2 4.1 2.8 12.1-5.7-2.6-2.1-6.8-10.8-1.7-4.4-14.3v0.1l1.4 6.8-7.3 9.3 2.1 7.2-6.6 9.8-2.1-17 11.4-10.9 0.7-4.4-1.2 3.7-8 5zm20.9-16.4l-5.8 0.9v0.2c1.9 0.1 7.9 0 10.5-0.1z"/>
			</g>
			<path id="&lt;Path&gt;" class="s10" d="m42.9 32.4c-1.3-1.4-2.7-2.6-4.2-3.7q-2.2-1.7-4.7-3.1-2.4-1.4-5-2.4-0.6-0.2-1.3-0.5l-1.3-0.4-1.4-0.4c-0.4-0.1-0.9-0.2-1.4-0.3-1.8-0.3-3.6-0.6-5.5-0.6-0.5 0-0.9 0-1.4 0.1h-0.7-0.7c-0.5 0.1-0.9 0.1-1.4 0.2l-1.4 0.2c-1.8 0.4-3.6 0.9-5.3 1.6-0.9 0.4-1.7 0.8-2.6 1.2-0.4 0.2-0.8 0.4-1.2 0.7l-1.2 0.7-0.1-0.2 1.2-0.7c0.4-0.3 0.8-0.5 1.2-0.7 0.9-0.4 1.7-0.8 2.6-1.2 1.7-0.7 3.6-1.2 5.4-1.6l1.4-0.3c0.4 0 0.9-0.1 1.4-0.1l0.7-0.1h0.7c0.5 0 0.9-0.1 1.4-0.1 1.9 0 3.8 0.3 5.6 0.6 0.5 0.1 0.9 0.2 1.4 0.3l1.4 0.4 1.3 0.4q0.7 0.2 1.3 0.5 2.7 1 5.1 2.4 2.5 1.4 4.7 3.1c1.6 1.1 3 2.3 4.3 3.7z"/>
			<path id="&lt;Path&gt;" class="s10" d="m10.2 22.6c-0.9 0.3-5.8 2-8.5 3.5-0.3 0.1-0.5-0.2-0.3-0.4 1.8-1.6 4.7-3.5 8.3-4.6 0.1 0 0.2 0 0.3 0.1 0.3 0.6 0.4 1 0.4 1.2q0 0.2-0.2 0.2z"/>
			<path id="&lt;Path&gt;" class="s10" d="m43.1 31.7q0 0.3 0 0.5-2.1-1.3-4.4-2.3-0.7-0.3-1.3-0.6l-1.3-0.5-1.4-0.4c-0.4-0.1-0.9-0.2-1.3-0.4-1.8-0.4-3.7-0.7-5.5-0.8-0.5-0.1-1 0-1.4 0l-0.7-0.1-0.7 0.1c-0.5 0-1 0-1.4 0.1l-1.4 0.2c-1.9 0.3-3.7 0.7-5.4 1.3-0.9 0.3-1.8 0.7-2.6 1.1-0.5 0.1-0.9 0.4-1.3 0.6l-1.2 0.6-0.1-0.2 1.2-0.6c0.4-0.2 0.8-0.5 1.3-0.6 0.8-0.4 1.7-0.8 2.6-1.1 1.7-0.7 3.6-1.1 5.4-1.4l1.4-0.2c0.5 0 1-0.1 1.5-0.1h0.7 0.7c0.4 0 0.9 0 1.4 0 1.9 0.1 3.7 0.4 5.6 0.8 0.4 0.2 0.9 0.2 1.3 0.4l1.4 0.4 1.3 0.5q0.6 0.3 1.3 0.5 2.2 1 4.3 2.2z"/>
			<path id="&lt;Path&gt;" class="s10" d="m19.9 28.4c-0.9 0.3-5.9 1.8-8.7 3.1-0.2 0.2-0.5-0.2-0.2-0.4 1.8-1.5 4.8-3.3 8.5-4.2 0.1 0 0.2 0 0.3 0.1 0.2 0.6 0.3 1 0.3 1.2q0 0.2-0.2 0.2z"/>
			<g id="&lt;Group&gt;">
				<path id="&lt;Path&gt;" class="s10" d="m42.2 40.3l1.4 7.1c0 0-0.7 7.3-1 7.6-0.4 0.3-4.8 5.8-4.8 5.8 0 0 1.9-6.7 2-7.6 0.1-0.9-1.3-12.2-1.3-12.2l4.6-8.6c0 0 0.3 0 0.3 0z"/>
				<path id="&lt;Path&gt;" class="s10" d="m51.8 44.6v9l3.7 6.5-3.5 9.3-6.8-11 0.2-16.8-2.2-9.2z"/>
				<path id="&lt;Path&gt;" class="s10" d="m43.6 32.2l-3.5 4.2-1.4 4.7-6.2 2.9-5.2 11.6 1.2-12.8 6.3-5.8z"/>
				<path id="&lt;Path&gt;" class="s10" d="m43.7 32.5l-14.3 0.9-11.6 8.2-5.6-0.8 4.4-4 10.3-8z"/>
				<path id="&lt;Path&gt;" class="s10" d="m43.3 32.8l-6.5-4.3-2.5-5.8-6.4-6.1-0.2-5.2 3.8 2.7 7.4 6.5 0.2 6.2 4.5 5.6z"/>
				<path id="&lt;Path&gt;" class="s10" d="m43.3 32.3l-2.8-6.7-0.7-10.2 2.9-5.1-0.6-2.7 5.3 4.6-3.2 11.7z"/>
				<path id="&lt;Path&gt;" class="s10" d="m43.4 32.6l1.1-5 7.1-6.2 4.9-2.6 2.4-9.5 0.6 11.8-4.1 5-6.1 2.7z"/>
				<path id="&lt;Path&gt;" class="s10" d="m47.5 34.1l12.2-3.7 11.1 8.3-9.5 0.7-4.2-4.4-9.4 1.3-4.4-4z"/>
				<path id="&lt;Path&gt;" class="s10" d="m47.8 32.2l7.3-4.8 1.8-1.8 3.5 0.2 2.8 4-3.2-1.3-6 1.2-6.7 3.6-4.3-0.4 0.3-0.5z"/>
				<path id="&lt;Path&gt;" class="s10" d="m43.8 32.5l4.1 3.6 3.5 1.1 1.9 0.3 1.4 2.1-1.2 3.5-0.6-2.5-3.4-3-2.5-0.6-3.8-4.5z"/>
			</g>
			<path id="&lt;Path&gt;" class="s10" d="m43.1 32.6c0.8-2.2 1.9-4.2 3-6.2q1.8-3 3.9-5.7 2.1-2.8 4.6-5.2 0.7-0.6 1.3-1.1l1.3-1.1 1.4-1.1c0.4-0.4 0.9-0.7 1.4-1 1.9-1.3 3.9-2.4 6.1-3.3 0.5-0.2 1-0.4 1.6-0.6l0.8-0.3 0.8-0.3c0.6-0.1 1.1-0.3 1.7-0.4l1.6-0.4c2.3-0.5 4.6-0.7 6.9-0.7 1.2-0.1 2.3 0 3.4 0.1 0.6 0 1.2 0.1 1.8 0.2l1.6 0.5-1.7-0.3c-0.5 0-1.1-0.1-1.7-0.1-1.1-0.1-2.3-0.2-3.4-0.1-2.3 0-4.6 0.3-6.8 0.7l-1.7 0.4c-0.5 0.1-1 0.3-1.6 0.5l-0.8 0.2-0.8 0.3c-0.5 0.2-1.1 0.4-1.6 0.6-2.1 0.9-4.1 2.1-6 3.3-0.4 0.4-0.9 0.7-1.4 1l-1.3 1.1-1.3 1.1q-0.7 0.5-1.3 1.1-2.4 2.4-4.5 5.1-2.1 2.8-3.8 5.7c-1.2 2-2.2 4-3.1 6.1z"/>
			<path id="&lt;Path&gt;" class="s10" d="m75.5 6.6c-0.1-0.3-0.2-0.8-0.1-1.5 0-0.1 0.1-0.2 0.3-0.3 4.5-0.5 8.8 0.3 11.5 1.3 0.4 0.1 0.3 0.6-0.1 0.5-3.8-0.3-10.1 0.1-11.3 0.2-0.1 0-0.2-0.1-0.3-0.2z"/>
			<path id="&lt;Compound Path&gt;" fill-rule="evenodd" class="s11" d="m87.1 6.6c-3.8-0.3-10.1 0.1-11.3 0.2-0.1 0-0.2-0.1-0.3-0.2 0-0.2-0.1-0.5-0.1-0.8q-1.4 0.1-2.7 0.4l-1.7 0.4c-0.5 0.1-1 0.3-1.6 0.5l-0.8 0.2-0.8 0.3c-0.5 0.2-1.1 0.4-1.6 0.6-2.1 0.9-4.1 2.1-6 3.3q-0.6 0.4-1.1 0.8l0.4 8.8-3.6 4.5 7.8-2.5 14.5 6.7-15.6-1.7-0.4 0.3 1 1.4-1.9-0.8-2.2 1.6 0.6-0.2 11.1 8.3-7.4 0.5c2.3 2 4.2 3.6 4.2 3.6l9.7 1.6-10.6 3-4.9-5.8-9.2-5.4-1.2-0.4-2.9 0.4 2.9 1 1.9 0.3 1.4 2.1-1.1 3.1 10 3.4 2.8 12.1-5.7-2.6-2.1-6.8-6.8-1.1v5.9l3.7 6.5-3.5 9.3-6.8-11 0.2-16.8-1.7-7.1 1.1 5.2-2.2 2.9 1 4.8c0 0-0.7 7.3-1 7.6-0.4 0.3-4.8 5.8-4.8 5.8 0 0 0.5-1.6 0.9-3.3l-5.7 8.5-2.1-17 7.7-7.3q-0.1-0.3-0.1-0.5l-6 2.8-5.2 11.6 0.4-4.3-2.1-4.6 1.9-3.8 1.3-0.3 5.6-5.2-5.6 4.1-8 1.3-2.4-1.6-0.6 0.4-5.6-0.8 2.3-2.1-6-4 7.9 2.3 0.2-0.2 10.3-8 9.6 2.1 0.7-0.2 4.4 1.4 0.9 0.2-0.8-0.5-8.1-3.6-14.5-3.8-0.6-3.4q-0.2 0-0.4 0c-0.5 0-0.9 0-1.4 0.1h-0.7-0.7c-0.5 0.1-0.9 0.1-1.4 0.2l-1.4 0.2q-1.1 0.3-2.2 0.6 0.1 0.2 0.1 0.3 0 0.2-0.2 0.2c-0.9 0.3-5.8 2-8.5 3.5-0.3 0.1-0.5-0.2-0.3-0.4 1.8-1.6 4.7-3.5 8.3-4.6 0.1 0 0.2 0 0.3 0.1q0.2 0.4 0.3 0.6 1.1-0.3 2.2-0.5l1.4-0.3c0.4 0 0.9-0.1 1.4-0.1l0.7-0.1h0.7c0.5 0 0.9-0.1 1.4-0.1q0.2 0 0.3 0l-0.9-4.9 2.5 2.4h7.3l7.1 4.8-0.1-0.3-6.4-6.1-0.2-5.2 3.8 2.7 0.9 0.8-1.3-6.5-0.6-5.8 5.6 3.4 2.5 10.7 1.4 1.9-0.2-3.2 2.9-5.1-0.6-2.7 5.3 4.6-3.2 11.7-0.6 5 0.1 2.1q0.1-0.1 0.1-0.1l0.7-3.3 0.6-0.5 4.6-14.4 7.2-9.7 8.5-1.8-8.7 6.5-3.1 8.8q0.5-0.5 1-1 0.7-0.6 1.3-1.1l1.3-1.1 0.9-0.7 0.8-3.3 0.1 2.6q0.5-0.4 1-0.7c1.9-1.3 3.9-2.4 6.1-3.3 0.5-0.2 1-0.4 1.6-0.6l0.8-0.3 0.8-0.3c0.6-0.1 1.1-0.3 1.7-0.4l1.6-0.4q1.4-0.3 2.8-0.5 0-0.1 0-0.3c0-0.1 0.1-0.2 0.3-0.3 3.8-0.4 7.3 0.1 10 0.8l0.7 0.2q0.4 0.1 0.8 0.3c0.4 0.1 0.3 0.6-0.1 0.5zm-47 29.8l-0.3 1.1 0.5-0.3 0.7-0.9 1.4-2.6zm-0.8 2.5l-0.3 1 0.6-1.2zm8.4-6.7l0.6-0.4-3 0.5zm1.8-3.5l-0.3 0.1-1.5 1zm-9.1-3.2l-0.5-1.1-1-0.7 0.1 3.1 3.9 4.9-2.5-6.1zm-5.3 11.3l2.2-1.2-1.9 1zm4 10.1l-1.7 2.1 1.8 6.2c0.3-0.9 0.5-1.7 0.5-2 0.1-0.4-0.3-3.4-0.6-6.3zm10.3-9.3l-2.4-0.5 4.3 4.9 2 0.7-0.5-2.1zm3.6-5.2l-3-0.6-1.9 1c1.3 0 2.6 0 3.8-0.1zm3.4-13.6l1.4-5.5-0.4 0.3-1.3 1.1q-0.6 0.6-1.2 1.2-0.9 0.8-1.7 1.6l-0.2 0.7-3.1 4.7 1.7-1.5z"/>
		</g>
	</g>
</svg>