<svg version="1.2" xmlns="http://www.w3.org/2000/svg" viewBox="0 0 83 83" width="83" height="83">
	<title>New Project</title>
	<defs>
		<clipPath clipPathUnits="userSpaceOnUse" id="cp1">
			<path d="m39.92 78.96c-18.75 0-34.01-15.26-34.01-34.01 0-18.75 15.26-34 34.01-34 18.75 0 34.01 15.25 34.01 34 0 18.75-15.26 34.01-34.01 34.01zm0-67.01c-18.2 0-33.01 14.8-33.01 33 0 18.2 14.81 33.01 33.01 33.01 18.2 0 33.01-14.81 33.01-33.01 0-18.2-14.81-33-33.01-33zm0 59.11c-14.39 0-26.1-11.71-26.1-26.11 0-14.39 11.71-26.1 26.1-26.1 14.39 0 26.1 11.71 26.1 26.1 0 14.4-11.71 26.11-26.1 26.11zm0-51.21c-13.84 0-25.1 11.26-25.1 25.1 0 13.84 11.26 25.11 25.1 25.11 13.84 0 25.1-11.27 25.1-25.11 0-13.84-11.26-25.1-25.1-25.1z"/>
		</clipPath>
		<linearGradient id="g1" x1="38.5" y1="45" x2="38.5" y2="45" gradientUnits="userSpaceOnUse">
			<stop offset="0" stop-color="#ffffff"/>
			<stop offset="1" stop-color="#ffffff"/>
		</linearGradient>
		<linearGradient id="g2" x1="38.5" y1="45" x2="38.5" y2="45" gradientUnits="userSpaceOnUse">
			<stop offset="0" stop-color="#ffffff"/>
			<stop offset="1" stop-color="#ffffff"/>
		</linearGradient>
		<clipPath clipPathUnits="userSpaceOnUse" id="cp2">
			<path d="m39.92 78.96c-18.75 0-34.01-15.26-34.01-34.01 0-18.75 15.26-34 34.01-34 18.75 0 34.01 15.25 34.01 34 0 18.75-15.26 34.01-34.01 34.01zm0-67.01c-18.2 0-33.01 14.8-33.01 33 0 18.2 14.81 33.01 33.01 33.01 18.2 0 33.01-14.81 33.01-33.01 0-18.2-14.81-33-33.01-33zm0 59.11c-14.39 0-26.1-11.71-26.1-26.11 0-14.39 11.71-26.1 26.1-26.1 14.39 0 26.1 11.71 26.1 26.1 0 14.4-11.71 26.11-26.1 26.11zm0-51.21c-13.84 0-25.1 11.26-25.1 25.1 0 13.84 11.26 25.11 25.1 25.11 13.84 0 25.1-11.27 25.1-25.11 0-13.84-11.26-25.1-25.1-25.1z"/>
		</clipPath>
		<linearGradient id="g3" x1="34.5" y1="31.4" x2="34.5" y2="31.4" gradientUnits="userSpaceOnUse">
			<stop offset="0" stop-color="#ffffff"/>
			<stop offset="1" stop-color="#ffffff"/>
		</linearGradient>
		<linearGradient id="g4" x1="34.5" y1="31.4" x2="34.5" y2="31.4" gradientUnits="userSpaceOnUse">
			<stop offset="0" stop-color="#ffffff"/>
			<stop offset="1" stop-color="#ffffff"/>
		</linearGradient>
	</defs>
	<style>
		.s0 { mix-blend-mode: multiply;fill: #ffffff;stroke: #000000;stroke-linecap: round;stroke-linejoin: round } 
		.s1 { fill: #ffffff } 
		.s2 { fill: #000000 } 
		.s3 { fill: none } 
		.s4 { fill: url(#g1) } 
		.s5 { fill: url(#g2) } 
		.s6 { fill: url(#g3) } 
		.s7 { fill: url(#g4) } 
		.s8 { fill: #ffffff;stroke: #000000;stroke-linecap: round;stroke-linejoin: round } 
	</style>
	<g id="&lt;Group&gt;">
		<g id="&lt;Group&gt;">
			<path id="&lt;Path&gt;" class="s0" d="m39.9 74.5c-16.3 0-29.5-13.2-29.5-29.5 0-16.3 13.2-29.6 29.5-29.6 16.3 0 29.6 13.3 29.6 29.6 0 16.3-13.3 29.5-29.6 29.5z"/>
			<g id="&lt;Group&gt;">
				<g id="&lt;Group&gt;">
					<path id="&lt;Compound Path&gt;" fill-rule="evenodd" class="s1" d="m73.4 45c0 18.4-15 33.5-33.5 33.5-18.5 0-33.5-15.1-33.5-33.5 0-18.5 15-33.6 33.5-33.6 18.5 0 33.5 15.1 33.5 33.6zm-59.1 0c0 14.1 11.5 25.6 25.6 25.6 14.2 0 25.6-11.5 25.6-25.6 0-14.2-11.4-25.6-25.6-25.6-14.1 0-25.6 11.4-25.6 25.6z"/>
					<path id="&lt;Compound Path&gt;" fill-rule="evenodd" class="s2" d="m39.9 79c-18.7 0-34-15.3-34-34 0-18.8 15.3-34.1 34-34.1 18.8 0 34 15.3 34 34.1 0 18.7-15.2 34-34 34zm0-67.1c-18.2 0-33 14.9-33 33.1 0 18.2 14.8 33 33 33 18.2 0 33-14.8 33-33 0-18.2-14.8-33.1-33-33.1zm0 59.2c-14.4 0-26.1-11.8-26.1-26.1 0-14.4 11.7-26.1 26.1-26.1 14.4 0 26.1 11.7 26.1 26.1 0 14.3-11.7 26.1-26.1 26.1zm0-51.2c-13.8 0-25.1 11.2-25.1 25.1 0 13.8 11.3 25.1 25.1 25.1 13.9 0 25.1-11.3 25.1-25.1 0-13.9-11.2-25.1-25.1-25.1z"/>
				</g>
			</g>
			<g id="&lt;Group&gt;">
				<g id="&lt;Group&gt;">
					<path id="&lt;Compound Path&gt;" fill-rule="evenodd" class="s1" d="m73.4 45c0 18.4-15 33.5-33.5 33.5-18.5 0-33.5-15.1-33.5-33.5 0-18.5 15-33.6 33.5-33.6 18.5 0 33.5 15.1 33.5 33.6zm-59.1 0c0 14.1 11.5 25.6 25.6 25.6 14.2 0 25.6-11.5 25.6-25.6 0-14.2-11.4-25.6-25.6-25.6-14.1 0-25.6 11.4-25.6 25.6z"/>
					<path id="&lt;Compound Path&gt;" fill-rule="evenodd" class="s2" d="m39.9 79c-18.7 0-34-15.3-34-34 0-18.8 15.3-34.1 34-34.1 18.8 0 34 15.3 34 34.1 0 18.7-15.2 34-34 34zm0-67.1c-18.2 0-33 14.9-33 33.1 0 18.2 14.8 33 33 33 18.2 0 33-14.8 33-33 0-18.2-14.8-33.1-33-33.1zm0 59.2c-14.4 0-26.1-11.8-26.1-26.1 0-14.4 11.7-26.1 26.1-26.1 14.4 0 26.1 11.7 26.1 26.1 0 14.3-11.7 26.1-26.1 26.1zm0-51.2c-13.8 0-25.1 11.2-25.1 25.1 0 13.8 11.3 25.1 25.1 25.1 13.9 0 25.1-11.3 25.1-25.1 0-13.9-11.2-25.1-25.1-25.1z"/>
				</g>
			</g>
			<g id="&lt;Group&gt;" style="opacity: .3;mix-blend-mode: multiply">
				<g id="&lt;Group&gt;">
					<path id="&lt;Compound Path&gt;" fill-rule="evenodd" class="s1" d="m73.4 45c0 18.4-15 33.5-33.5 33.5-18.5 0-33.5-15.1-33.5-33.5 0-18.5 15-33.6 33.5-33.6 18.5 0 33.5 15.1 33.5 33.6zm-59.1 0c0 14.1 11.5 25.6 25.6 25.6 14.2 0 25.6-11.5 25.6-25.6 0-14.2-11.4-25.6-25.6-25.6-14.1 0-25.6 11.4-25.6 25.6z"/>
					<path id="&lt;Compound Path&gt;" fill-rule="evenodd" class="s2" d="m39.9 79c-18.7 0-34-15.3-34-34 0-18.8 15.3-34.1 34-34.1 18.8 0 34 15.3 34 34.1 0 18.7-15.2 34-34 34zm0-67.1c-18.2 0-33 14.9-33 33.1 0 18.2 14.8 33 33 33 18.2 0 33-14.8 33-33 0-18.2-14.8-33.1-33-33.1zm0 59.2c-14.4 0-26.1-11.8-26.1-26.1 0-14.4 11.7-26.1 26.1-26.1 14.4 0 26.1 11.7 26.1 26.1 0 14.3-11.7 26.1-26.1 26.1zm0-51.2c-13.8 0-25.1 11.2-25.1 25.1 0 13.8 11.3 25.1 25.1 25.1 13.9 0 25.1-11.3 25.1-25.1 0-13.9-11.2-25.1-25.1-25.1z"/>
				</g>
				<g id="&lt;Clip Group&gt;" clip-path="url(#cp1)">
					<g id="&lt;Group&gt;">
						<path id="&lt;Compound Path&gt;" fill-rule="evenodd" class="s3" d="m73.4 45c0 18.4-15 33.5-33.5 33.5-18.5 0-33.5-15.1-33.5-33.5 0-18.5 15-33.6 33.5-33.6 18.5 0 33.5 15.1 33.5 33.6zm-59.1 0c0 14.1 11.5 25.6 25.6 25.6 14.2 0 25.6-11.5 25.6-25.6 0-14.2-11.4-25.6-25.6-25.6-14.1 0-25.6 11.4-25.6 25.6z"/>
						<path id="&lt;Compound Path&gt;" fill-rule="evenodd" class="s3" d="m39.9 79c-18.7 0-34-15.3-34-34 0-18.8 15.3-34.1 34-34.1 18.8 0 34 15.3 34 34.1 0 18.7-15.2 34-34 34zm0-67.1c-18.2 0-33 14.9-33 33.1 0 18.2 14.8 33 33 33 18.2 0 33-14.8 33-33 0-18.2-14.8-33.1-33-33.1zm0 59.2c-14.4 0-26.1-11.8-26.1-26.1 0-14.4 11.7-26.1 26.1-26.1 14.4 0 26.1 11.7 26.1 26.1 0 14.3-11.7 26.1-26.1 26.1zm0-51.2c-13.8 0-25.1 11.2-25.1 25.1 0 13.8 11.3 25.1 25.1 25.1 13.9 0 25.1-11.3 25.1-25.1 0-13.9-11.2-25.1-25.1-25.1z"/>
					</g>
					<path id="&lt;Mesh&gt;" class="s4" d="m38.5 45q-6.9-8-13.8-16c8.8-7.6 22.1-6.6 29.7 2.2q-8 6.9-15.9 13.8zm15.9-13.8c-7.6-8.8-20.9-9.8-29.7-2.2-9.6-11.1-6.9-7.9-8.3-9.5 14.1-12.2 35.4-10.6 47.5 3.4-1.6 1.4 1.6-1.3-9.5 8.3zm9.5-8.3c-12.1-14-33.4-15.6-47.5-3.4q-4.5-5.3-9-10.5c19.9-17.1 49.9-14.9 67 4.9q-5.2 4.5-10.5 9zm-25.4 22.1q-8 6.8-16 13.7c-7.6-8.8-6.6-22.1 2.2-29.7q6.9 8 13.8 16zm-13.8-16c-8.8 7.6-9.8 20.9-2.2 29.7-11.1 9.6-7.9 6.9-9.5 8.3-12.2-14.1-10.6-35.4 3.4-47.5 1.4 1.6-1.3-1.6 8.3 9.5zm-8.3-9.5c-14 12.1-15.6 33.4-3.4 47.5q-5.3 4.5-10.5 9c-17.1-19.8-14.9-49.8 4.9-67q4.5 5.2 9 10.5zm22.1 25.5q6.8 7.9 13.7 15.9c-8.8 7.6-22.1 6.6-29.7-2.2q8-6.9 16-13.7zm-16 13.7c7.6 8.8 20.9 9.8 29.7 2.2 9.6 11.1 6.9 7.9 8.3 9.5-14.1 12.2-35.4 10.6-47.5-3.4 1.6-1.4-1.6 1.3 9.5-8.3zm-9.5 8.3c12.1 14 33.4 15.6 47.5 3.4q4.5 5.3 9 10.5c-19.8 17.1-49.8 15-67-4.9q5.2-4.5 10.5-9zm25.5-22q7.9-6.9 15.9-13.8c7.6 8.8 6.6 22.1-2.2 29.7q-6.9-8-13.7-15.9zm13.7 15.9c8.8-7.6 9.8-20.9 2.2-29.7 11.1-9.6 7.9-6.9 9.5-8.3 12.2 14.1 10.6 35.4-3.4 47.5-1.4-1.6 1.3 1.6-8.3-9.5zm8.3 9.5c14-12.1 15.6-33.4 3.4-47.5q5.3-4.5 10.5-9c17.1 19.9 15 49.8-4.9 67q-4.5-5.2-9-10.5z"/>
					<path id="&lt;Mesh&gt;" class="s5" d="m38.5 45q-6.9-8-13.8-16c8.8-7.6 22.1-6.6 29.7 2.2q-8 6.9-15.9 13.8zm15.9-13.8c-7.6-8.8-20.9-9.8-29.7-2.2-9.6-11.1-6.9-7.9-8.3-9.5 14.1-12.2 35.4-10.6 47.5 3.4-1.6 1.4 1.6-1.3-9.5 8.3zm9.5-8.3c-12.1-14-33.4-15.6-47.5-3.4q-3.4-4-6.9-8c18.5-16 46.5-13.9 62.4 4.5q-4 3.5-8 6.9zm-25.4 22.1q-8 6.8-16 13.7c-7.6-8.8-6.6-22.1 2.2-29.7q6.9 8 13.8 16zm-13.8-16c-8.8 7.6-9.8 20.9-2.2 29.7-11.1 9.6-7.9 6.9-9.5 8.3-12.2-14.1-10.6-35.4 3.4-47.5 1.4 1.6-1.3-1.6 8.3 9.5zm-8.3-9.5c-14 12.1-15.6 33.4-3.4 47.5q-4 3.4-8 6.9c-16-18.5-13.9-46.4 4.5-62.4q3.5 4 6.9 8zm22.1 25.5q6.8 7.9 13.7 15.9c-8.8 7.6-22.1 6.6-29.7-2.2q8-6.9 16-13.7zm-16 13.7c7.6 8.8 20.9 9.8 29.7 2.2 9.6 11.1 6.9 7.9 8.3 9.5-14.1 12.2-35.4 10.6-47.5-3.4 1.6-1.4-1.6 1.3 9.5-8.3zm-9.5 8.3c12.1 14 33.4 15.6 47.5 3.4q3.4 4 6.9 8c-18.5 16-46.4 14-62.4-4.5q4-3.5 8-6.9zm25.5-22q7.9-6.9 15.9-13.8c7.6 8.8 6.6 22.1-2.2 29.7q-6.9-8-13.7-15.9zm13.7 15.9c8.8-7.6 9.8-20.9 2.2-29.7 11.1-9.6 7.9-6.9 9.5-8.3 12.2 14.1 10.6 35.4-3.4 47.5-1.4-1.6 1.3 1.6-8.3-9.5zm8.3 9.5c14-12.1 15.6-33.4 3.4-47.5q4-3.4 8-6.9c16 18.5 14 46.5-4.5 62.4q-3.5-4-6.9-8z"/>
				</g>
			</g>
			<g id="&lt;Group&gt;" style="opacity: .3;mix-blend-mode: multiply">
				<g id="&lt;Group&gt;">
					<path id="&lt;Compound Path&gt;" fill-rule="evenodd" class="s1" d="m73.4 45c0 18.4-15 33.5-33.5 33.5-18.5 0-33.5-15.1-33.5-33.5 0-18.5 15-33.6 33.5-33.6 18.5 0 33.5 15.1 33.5 33.6zm-59.1 0c0 14.1 11.5 25.6 25.6 25.6 14.2 0 25.6-11.5 25.6-25.6 0-14.2-11.4-25.6-25.6-25.6-14.1 0-25.6 11.4-25.6 25.6z"/>
					<path id="&lt;Compound Path&gt;" fill-rule="evenodd" class="s2" d="m39.9 79c-18.7 0-34-15.3-34-34 0-18.8 15.3-34.1 34-34.1 18.8 0 34 15.3 34 34.1 0 18.7-15.2 34-34 34zm0-67.1c-18.2 0-33 14.9-33 33.1 0 18.2 14.8 33 33 33 18.2 0 33-14.8 33-33 0-18.2-14.8-33.1-33-33.1zm0 59.2c-14.4 0-26.1-11.8-26.1-26.1 0-14.4 11.7-26.1 26.1-26.1 14.4 0 26.1 11.7 26.1 26.1 0 14.3-11.7 26.1-26.1 26.1zm0-51.2c-13.8 0-25.1 11.2-25.1 25.1 0 13.8 11.3 25.1 25.1 25.1 13.9 0 25.1-11.3 25.1-25.1 0-13.9-11.2-25.1-25.1-25.1z"/>
				</g>
				<g id="&lt;Clip Group&gt;" clip-path="url(#cp2)">
					<g id="&lt;Group&gt;">
						<path id="&lt;Compound Path&gt;" fill-rule="evenodd" class="s3" d="m73.4 45c0 18.4-15 33.5-33.5 33.5-18.5 0-33.5-15.1-33.5-33.5 0-18.5 15-33.6 33.5-33.6 18.5 0 33.5 15.1 33.5 33.6zm-59.1 0c0 14.1 11.5 25.6 25.6 25.6 14.2 0 25.6-11.5 25.6-25.6 0-14.2-11.4-25.6-25.6-25.6-14.1 0-25.6 11.4-25.6 25.6z"/>
						<path id="&lt;Compound Path&gt;" fill-rule="evenodd" class="s3" d="m39.9 79c-18.7 0-34-15.3-34-34 0-18.8 15.3-34.1 34-34.1 18.8 0 34 15.3 34 34.1 0 18.7-15.2 34-34 34zm0-67.1c-18.2 0-33 14.9-33 33.1 0 18.2 14.8 33 33 33 18.2 0 33-14.8 33-33 0-18.2-14.8-33.1-33-33.1zm0 59.2c-14.4 0-26.1-11.8-26.1-26.1 0-14.4 11.7-26.1 26.1-26.1 14.4 0 26.1 11.7 26.1 26.1 0 14.3-11.7 26.1-26.1 26.1zm0-51.2c-13.8 0-25.1 11.2-25.1 25.1 0 13.8 11.3 25.1 25.1 25.1 13.9 0 25.1-11.3 25.1-25.1 0-13.9-11.2-25.1-25.1-25.1z"/>
					</g>
					<path id="&lt;Mesh&gt;" class="s6" d="m34.5 31.4q10.6-5.1 21.2-10.1c5.6 11.7 0.6 25.7-11.1 31.3q-5-10.6-10.1-21.2zm10.1 21.2c11.7-5.6 16.7-19.6 11.1-31.3 6.1-3 7.1-3.4 23.3-11.2 11.8 24.6 1.4 54.1-23.2 65.8-7.8-16.3-8.3-17.3-11.2-23.3zm11.2 23.3c24.6-11.7 35-41.2 23.2-65.8q4-1.9 7.9-3.8c13.8 29 1.6 63.6-27.4 77.5q-1.8-4-3.7-7.9zm-21.3-44.5q-5-10.6-10.1-21.2c11.7-5.6 25.7-0.6 31.3 11.1q-10.6 5-21.2 10.1zm21.2-10.1c-5.6-11.7-19.6-16.7-31.3-11.1-2.9-6.1-3.4-7.1-11.2-23.3 24.6-11.8 54.1-1.4 65.8 23.2-16.2 7.8-17.2 8.2-23.3 11.2zm23.3-11.2c-11.7-24.6-41.2-35-65.8-23.2q-1.8-4-3.7-7.9c28.9-13.8 63.6-1.6 77.4 27.3q-3.9 1.9-7.9 3.8zm-44.5 21.3q-10.6 5-21.2 10.1c-5.6-11.7-0.6-25.7 11.1-31.3q5.1 10.6 10.1 21.2zm-10.1-21.2c-11.7 5.6-16.7 19.6-11.1 31.3-6.1 2.9-7.1 3.4-23.3 11.2-11.8-24.6-1.4-54.1 23.2-65.8 7.8 16.2 8.3 17.2 11.2 23.3zm-11.2-23.3c-24.6 11.7-35 41.2-23.2 65.8q-3.9 1.8-7.9 3.7c-13.8-28.9-1.5-63.6 27.4-77.4q1.9 3.9 3.7 7.9zm21.3 44.5q5.1 10.6 10.1 21.2c-11.7 5.5-25.7 0.6-31.3-11.1q10.6-5.1 21.2-10.1zm-21.2 10.1c5.6 11.7 19.6 16.6 31.3 11.1 2.9 6 3.4 7 11.2 23.3-24.6 11.8-54.1 1.3-65.8-23.2 16.2-7.8 17.2-8.3 23.3-11.2zm-23.3 11.2c11.7 24.5 41.2 35 65.8 23.2q1.9 3.9 3.7 7.9c-28.9 13.8-63.5 1.5-77.4-27.4q4-1.9 7.9-3.7z"/>
					<path id="&lt;Mesh&gt;" class="s7" d="m34.5 31.4q10.6-5.1 21.2-10.1c5.6 11.7 0.6 25.7-11.1 31.3q-5-10.6-10.1-21.2zm10.1 21.2c11.7-5.6 16.7-19.6 11.1-31.3 6.1-3 7.1-3.4 23.3-11.2 11.8 24.6 1.4 54.1-23.2 65.8-7.8-16.3-8.3-17.3-11.2-23.3zm-10.1-21.2q-5-10.6-10.1-21.2c11.7-5.6 25.7-0.6 31.3 11.1q-10.6 5-21.2 10.1zm21.2-10.1c-5.6-11.7-19.6-16.7-31.3-11.1-2.9-6.1-3.4-7.1-11.2-23.3 24.6-11.8 54.1-1.4 65.8 23.2-16.2 7.8-17.2 8.2-23.3 11.2zm-21.2 10.1q-10.6 5-21.2 10.1c-5.6-11.7-0.6-25.7 11.1-31.3q5.1 10.6 10.1 21.2zm-10.1-21.2c-11.7 5.6-16.7 19.6-11.1 31.3-6.1 2.9-7.1 3.4-23.3 11.2-11.8-24.6-1.4-54.1 23.2-65.8 7.8 16.2 8.3 17.2 11.2 23.3zm10.1 21.2q5.1 10.6 10.1 21.2c-11.7 5.5-25.7 0.6-31.3-11.1q10.6-5.1 21.2-10.1zm-21.2 10.1c5.6 11.7 19.6 16.6 31.3 11.1 2.9 6 3.4 7 11.2 23.3-24.6 11.8-54.1 1.3-65.8-23.2 16.2-7.8 17.2-8.3 23.3-11.2z"/>
				</g>
			</g>
		</g>
		<g id="&lt;Group&gt;">
			<path id="&lt;Path&gt;" class="s8" d="m18 8.8c1-2 0.2-5.3-9.3-5.2 2.8 6.4 8.1 7.5 9.3 5.2z"/>
			<path id="&lt;Path&gt;" class="s8" d="m22.1 13.1c-1.2-3-8.4-2.7-14.9 2.6 5.8 2.7 16.9 2.3 14.9-2.6z"/>
			<path id="&lt;Path&gt;" class="s8" d="m23.8 12.4c3.3 1 5.4-4 1.6-12.3-3.6 4-4.5 11.4-1.6 12.3z"/>
			<path id="&lt;Path&gt;" class="s8" d="m27.8 20.2c-1.3-3.1-9.3-1.1-15.1 4.9 6 2.1 16.7-1.1 15.1-4.9z"/>
			<path id="&lt;Path&gt;" class="s8" d="m31.1 26.4c-1.3-3.1-10-1.1-15.8 5 6.1 2 17.4-1.2 15.8-5z"/>
			<path id="&lt;Path&gt;" class="s8" d="m29.4 18.7c2.2 1 6.7-4.1 4.5-12.9-4.3 3.2-7.2 11.6-4.5 12.9z"/>
			<path id="&lt;Path&gt;" class="s8" d="m32.4 25.3c1.3 2 7.9 0.1 10.6-8.6-5.3 0.5-12.2 6-10.6 8.6z"/>
			<path id="&lt;Path&gt;" class="s8" d="m28.5 37.9c-1.3 0.1-2.1 0.3-3.3 0.4 2.9-4.1 7.4-6 8.4-4.2 0.8 1.5-1.7 3.6-5.1 3.8z"/>
			<path id="&lt;Path&gt;" class="s8" d="m35 33.4c1.1 2.2 6.8 1.3 9.1-6.5-4.6-0.3-10.6 3.9-9.1 6.5z"/>
			<path id="&lt;Path&gt;" class="s8" d="m36.8 38.9c-0.2 2.5 4.3 4.8 9.7-0.6-3.2-2.8-9.5-2.4-9.7 0.6z"/>
		</g>
		<g id="&lt;Group&gt;">
			<path id="&lt;Path&gt;" class="s8" d="m14 66c-1.5-0.8-4-0.2-3.9 6.8 4.8-2 5.6-5.9 3.9-6.8z"/>
			<path id="&lt;Path&gt;" class="s8" d="m17.2 62.9c-2.2 0.9-2 6.3 1.9 11.1 2-4.2 1.7-12.5-1.9-11.1z"/>
			<path id="&lt;Path&gt;" class="s8" d="m21.9 59.8c-2 1.4-0.7 6.6 4.2 10.4 1.1-4.6-1-12.6-4.2-10.4z"/>
			<path id="&lt;Path&gt;" class="s8" d="m16.7 61.7c0.8-2.4-2.9-4.1-9.1-1.3 3 2.7 8.4 3.5 9.1 1.3z"/>
			<path id="&lt;Path&gt;" class="s8" d="m21.4 57.5c0.8-1.6-3-4.9-9.6-3.3 2.4 3.2 8.6 5.4 9.6 3.3z"/>
			<path id="&lt;Path&gt;" class="s8" d="m26.3 55.3c1.5-0.9 0.1-5.8-6.3-7.9 0.3 4 4.4 9.2 6.3 7.9z"/>
			<path id="&lt;Path&gt;" class="s8" d="m35.7 58.3c0 1 0.2 1.6 0.3 2.5-3.1-2.2-4.4-5.6-3.1-6.3 1.1-0.6 2.6 1.3 2.8 3.8z"/>
			<path id="&lt;Path&gt;" class="s8" d="m32.4 53.5c1.6-0.8 1-5-4.8-6.8-0.3 3.4 2.8 7.9 4.8 6.8z"/>
			<path id="&lt;Path&gt;" class="s8" d="m36.5 52.2c1.8 0.1 3.5-3.2-0.4-7.3-2.1 2.4-1.9 7.1 0.4 7.3z"/>
		</g>
		<path id="&lt;Path&gt;" class="s8" d="m28.3 63.3c0.1-1.6-4-3.2-9 0.2 3 1.9 8.8 1.8 9-0.2z"/>
		<path id="&lt;Path&gt;" class="s8" d="m31.7 59.9c1-1.2-1.7-4.8-7.7-4.5 1.5 3.1 6.5 6.1 7.7 4.5z"/>
		<path id="&lt;Path&gt;" class="s8" d="m40.4 59.5c0.3 0.8 0.6 1.2 1 1.9-3.2-0.8-5.4-3.2-4.5-4.2 0.7-0.8 2.6 0.3 3.5 2.3z"/>
		<path id="&lt;Path&gt;" class="s8" d="m36.2 56.5c1-1.2-0.8-4.5-6.1-4.1 0.8 2.9 4.7 5.6 6.1 4.1z"/>
		<path id="&lt;Path&gt;" class="s8" d="m42.7 48.5c1.5-0.4 1.9-3.7-2.6-5.8-1 2.6 0.7 6.4 2.6 5.8z"/>
		<g id="&lt;Group&gt;">
			<path id="&lt;Path&gt;" class="s8" d="m70.1 53c0.5 1.4 2.5 2.6 6.7-2-4.3-1.6-7.2 0.4-6.7 2z"/>
			<path id="&lt;Path&gt;" class="s8" d="m66.2 53.1c2 0.8 5.1-2.8 5.5-8.3-3.9 1.5-8.7 7.1-5.5 8.3z"/>
			<path id="&lt;Path&gt;" class="s8" d="m65.8 54.2c-2 1.1-0.6 4.4 5.1 6.3-0.3-3.5-3.4-7.3-5.1-6.3z"/>
			<path id="&lt;Path&gt;" class="s8" d="m60.2 52.6c2.1 0.8 4.8-4 4.5-9.4-3.7 1.9-7 8.5-4.5 9.4z"/>
			<path id="&lt;Path&gt;" class="s8" d="m55.8 51.4c2.1 0.7 5-4.3 4.7-9.8-3.6 2-7.2 8.8-4.7 9.8z"/>
			<path id="&lt;Path&gt;" class="s8" d="m60.3 54.1c-1.5 0.6-1.1 5 4.1 7.9 0.4-3.5-2.3-8.7-4.1-7.9z"/>
			<path id="&lt;Path&gt;" class="s8" d="m55.7 52.5c-1.5-0.3-3.5 3.7-0.6 9 2.2-2.8 2.6-8.6 0.6-9z"/>
			<path id="&lt;Path&gt;" class="s8" d="m51.5 45c0.6-0.7 0.8-1.2 1.3-1.8 0.7 3.2-0.5 6.2-1.8 5.9-1.1-0.3-0.9-2.4 0.5-4.1z"/>
			<path id="&lt;Path&gt;" class="s8" d="m50.7 50.1c-1.5-0.4-3.7 2.6-1 7.3 2.3-2.1 2.9-6.8 1-7.3z"/>
			<path id="&lt;Path&gt;" class="s8" d="m47.3 48.4c-1.1-1.1-4.2 0-4.1 5 2.7-0.3 5.4-3.5 4.1-5z"/>
		</g>
		<g id="&lt;Group&gt;">
			<path id="&lt;Path&gt;" class="s8" d="m51.9 76.1c-1.1 1.5-1 4.4 7 5.8-1.4-5.8-5.6-7.5-7-5.8z"/>
			<path id="&lt;Path&gt;" class="s8" d="m49.1 71.8c0.6 2.8 6.7 3.6 12.9 0.2-4.4-3.2-13.8-4.5-12.9-0.2z"/>
			<path id="&lt;Path&gt;" class="s8" d="m47.6 72.2c-2.6-1.4-5.2 2.4-3.3 10 3.7-2.8 5.6-8.8 3.3-10z"/>
			<path id="&lt;Path&gt;" class="s8" d="m47.6 50c1.2 0.2 1.8 0.1 2.9 0.2-3.1 3-7.2 3.9-7.7 2.3-0.5-1.4 2-2.8 4.8-2.5z"/>
			<path id="&lt;Path&gt;" class="s8" d="m48.6 56.9c1.2 0.2 1.8 0.1 2.9 0.2-3.1 3-7.2 3.9-7.7 2.2-0.5-1.4 2-2.7 4.8-2.4z"/>
			<path id="&lt;Path&gt;" class="s8" d="m48.6 56.9c1.2 0.2 1.8 0.1 2.9 0.2-3.1 3-7.2 3.9-7.7 2.2-0.5-1.4 2-2.7 4.8-2.4z"/>
			<path id="&lt;Path&gt;" class="s8" d="m51.1 60.8c1.3 0.2 2.1 0.1 3.4 0.2-3.7 3.6-8.5 4.6-9.2 2.7-0.5-1.7 2.4-3.3 5.8-2.9z"/>
			<path id="&lt;Path&gt;" class="s8" d="m52.1 65.2c1.4 0.2 2.2 0.1 3.4 0.2-3.6 3.6-8.4 4.6-9.1 2.7-0.5-1.7 2.4-3.3 5.7-2.9z"/>
			<path id="&lt;Path&gt;" class="s8" d="m41.7 53.6c-0.6-2-5.5-2.2-8.7 4 3.9 1 9.5-1.6 8.7-4z"/>
			<path id="&lt;Path&gt;" class="s8" d="m43.8 65c-0.6-1.9-5.5-2.1-8.7 4.1 3.8 1 9.5-1.6 8.7-4.1z"/>
			<path id="&lt;Path&gt;" class="s8" d="m44.3 70.1c-0.9-1.3-4.5-0.2-5.3 5.1 3.1-0.2 6.5-3.5 5.3-5.1z"/>
			<path id="&lt;Path&gt;" class="s8" d="m42.8 59.5c-0.7-1.9-5.5-2.1-8.7 4.1 3.8 1 9.5-1.6 8.7-4.1z"/>
			<path id="&lt;Path&gt;" class="s8" d="m40.8 47.9c0.6-2-2.8-4.6-8.2-1 2.2 2.8 7.6 3.5 8.2 1z"/>
		</g>
		<g id="&lt;Group&gt;">
			<path id="&lt;Path&gt;" class="s8" d="m74.4 21.6c2 1.1 5.4 0.4 5.5-9.1-6.5 2.7-7.7 7.9-5.5 9.1z"/>
			<path id="&lt;Path&gt;" class="s8" d="m70 25.7c3.1-1.2 2.9-8.4-2.2-15-2.8 5.7-2.7 16.9 2.2 15z"/>
			<path id="&lt;Path&gt;" class="s8" d="m70.7 27.4c-1.1 3.2 3.8 5.5 12.2 1.9-3.9-3.7-11.3-4.8-12.2-1.9z"/>
			<path id="&lt;Path&gt;" class="s8" d="m56.5 34.3c3.1-1.2 1.3-10-4.6-15.9-2.1 6 0.8 17.4 4.6 15.9z"/>
			<path id="&lt;Path&gt;" class="s8" d="m57.6 35.7c-2.1 1.2-0.3 7.8 8.3 10.8-0.4-5.4-5.7-12.4-8.3-10.8z"/>
			<path id="&lt;Path&gt;" class="s8" d="m63.8 30.9c2.8-1.2 1.2-9.5-4.1-15.1-2 5.7 0.6 16.6 4.1 15.1z"/>
			<path id="&lt;Path&gt;" class="s8" d="m64.7 32.9c-1.4 2 2.8 7.3 11.9 6.7-2.4-4.8-10.1-9.2-11.9-6.7z"/>
			<path id="&lt;Path&gt;" class="s8" d="m45.1 31.4c-0.1-1.3-0.3-2.1-0.3-3.3 4 3 5.7 7.6 4 8.5-1.6 0.8-3.6-1.8-3.7-5.2z"/>
			<path id="&lt;Path&gt;" class="s8" d="m49.4 38c-2.2 1.1-1.5 6.7 6.3 9.3 0.4-4.6-3.6-10.7-6.3-9.3z"/>
			<path id="&lt;Path&gt;" class="s8" d="m43.8 39.7c-2.4-0.3-4.8 4.1 0.4 9.7 2.9-3.1 2.6-9.4-0.4-9.7z"/>
		</g>
		<g id="&lt;Group&gt;">
			<path id="&lt;Path&gt;" class="s8" d="m42.1 22.9c-1.3-0.7-2.2-2.7 2.8-6.4 1.1 4.5-1.3 7.1-2.8 6.4z"/>
			<path id="&lt;Path&gt;" class="s8" d="m41.6 26.8c-0.5-2.1 3.4-4.8 8.9-4.5-2 3.7-8 7.8-8.9 4.5z"/>
			<path id="&lt;Path&gt;" class="s8" d="m40.5 27.1c-1.4 1.8-4.5 0-5.7-5.8 3.5 0.6 6.8 4.2 5.7 5.8z"/>
			<path id="&lt;Path&gt;" class="s8" d="m41.4 32.8c-0.5-2.2 4.5-4.3 9.9-3.4-2.4 3.4-9.2 6-9.9 3.4z"/>
			<path id="&lt;Path&gt;" class="s8" d="m42.1 37.3c-0.5-2.2 4.9-4.5 10.3-3.6-2.4 3.5-9.6 6.2-10.3 3.6z"/>
			<path id="&lt;Path&gt;" class="s8" d="m39.9 32.6c-0.7 1.4-5.1 0.5-7.3-5.1 3.5 0.1 8.3 3.3 7.3 5.1z"/>
			<path id="&lt;Path&gt;" class="s8" d="m41 37.2c0.1 1.6-4.1 3.2-9-0.3 3-1.9 8.8-1.7 9 0.3z"/>
			<path id="&lt;Path&gt;" class="s8" d="m43.8 42.3c-0.2-1.3 3-2.1 6.1-1.1-0.7 0.5-1.2 0.7-1.9 1.2-1.9 1.2-4 1.1-4.2-0.1z"/>
			<path id="&lt;Path&gt;" class="s8" d="m42.8 42.5c0.3 1.6-3 3.4-7.3 0.2 2.3-2 7-2.1 7.3-0.2z"/>
			<path id="&lt;Path&gt;" class="s8" d="m44 46.1c1.1 1.2-0.4 4.2-5.3 3.5 0.6-2.7 4-5 5.3-3.5z"/>
		</g>
		<g id="&lt;Group&gt;">
			<path id="&lt;Path&gt;" class="s8" d="m8.4 39c-0.6-1.6-2.9-2.7-7.3 2.8 5 1.4 8.1-1 7.3-2.8z"/>
			<path id="&lt;Path&gt;" class="s8" d="m12.9 38.7c-2.4-0.8-5.6 3.5-5.6 9.7 4.3-2 9.3-8.6 5.6-9.7z"/>
			<path id="&lt;Path&gt;" class="s8" d="m13.3 37.4c2.1-1.4 0.3-5-6.3-6.8 0.6 4 4.4 8 6.3 6.8z"/>
			<path id="&lt;Path&gt;" class="s8" d="m19.6 38.8c-2.3-0.7-5 4.8-4.3 11 4-2.5 7.3-10.1 4.3-11z"/>
			<path id="&lt;Path&gt;" class="s8" d="m24.7 39.8c-2.4-0.7-5.3 5.3-4.6 11.4 4-2.5 7.6-10.5 4.6-11.4z"/>
			<path id="&lt;Path&gt;" class="s8" d="m19.5 37.1c1.7-0.7 0.9-5.7-5.3-8.6-0.1 4 3.3 9.6 5.3 8.6z"/>
			<path id="&lt;Path&gt;" class="s8" d="m24.7 38.5c1.8 0.3 3.8-4.4 0.1-10.1-2.2 3.3-2.3 9.9-0.1 10.1z"/>
			<path id="&lt;Path&gt;" class="s8" d="m30.1 46.8c-0.6 0.8-0.8 1.3-1.4 2.1-1-3.6 0.1-7.1 1.6-6.8 1.3 0.2 1.3 2.7-0.2 4.7z"/>
			<path id="&lt;Path&gt;" class="s8" d="m30.6 41c1.8 0.3 4-3.3 0.6-8.4-2.4 2.5-2.8 7.9-0.6 8.4z"/>
			<path id="&lt;Path&gt;" class="s8" d="m34.6 42.6c1.3 1.2 4.7-0.3 4.3-5.9-3.2 0.5-5.9 4.3-4.3 5.9z"/>
		</g>
		<g id="&lt;Group&gt;">
			<path id="&lt;Path&gt;" class="s8" d="m64.4 59.8c1.3-0.7 3.5-0.2 3.6 6-4.3-1.7-5.1-5.1-3.6-6z"/>
			<path id="&lt;Path&gt;" class="s8" d="m61.4 57.2c2.1 0.8 2 5.5-1.3 9.9-2-3.7-1.9-11.1 1.3-9.9z"/>
			<path id="&lt;Path&gt;" class="s8" d="m61.8 56.1c-0.7-2.2 2.5-3.7 8.1-1.4-2.5 2.5-7.4 3.3-8.1 1.4z"/>
			<path id="&lt;Path&gt;" class="s8" d="m55.8 53.1c2.1 0.7 2 5.5-1.3 9.9-1.9-3.8-1.9-11.1 1.3-9.9z"/>
			<path id="&lt;Path&gt;" class="s8" d="m50.6 52.6c1.7 0.6 1.6 4.5-1 8-1.6-3-1.6-8.9 1-8z"/>
			<path id="&lt;Path&gt;" class="s8" d="m57.3 51.6c-1.3-1.9 1.5-4.2 7.5-3.3-1.9 3-6.4 5-7.5 3.3z"/>
			<path id="&lt;Path&gt;" class="s8" d="m53.1 50.3c-1.9-1.3-0.2-4.5 5.6-5.9-0.5 3.5-4 7-5.6 5.9z"/>
			<path id="&lt;Path&gt;" class="s8" d="m47.3 50.1c1.2 0.6 0.1 3.7-2.6 5.7 0.1-0.9 0.2-1.3 0.2-2.3 0.1-2.2 1.4-3.9 2.4-3.4z"/>
			<path id="&lt;Path&gt;" class="s8" d="m47.7 49.2c-1.4-0.7-1-4.5 4.1-6.2 0.3 3.1-2.3 7.1-4.1 6.2z"/>
			<path id="&lt;Path&gt;" class="s8" d="m44 48.1c-1.6 0.2-3.2-2.7 0.2-6.4 1.9 2 1.8 6.2-0.2 6.4z"/>
		</g>
	</g>
</svg>