<svg version="1.2" xmlns="http://www.w3.org/2000/svg" viewBox="0 0 205 145" width="205" height="145">
	<title>New Project</title>
	<style>
		.s0 { fill: #ffffff;stroke: #000000;stroke-width: 2.2 } 
	</style>
	<g id="&lt;Group&gt;">
		<path id="&lt;Path&gt;" class="s0" d="m79.8 20.7c-1.7-5.4-3.1-10.8-4.4-16.3 8.8-1.7 17.9-2.6 27.2-2.6 6.4 0 12.9 0.5 19.1 1.3q-7.5 7.7-14.8 15.6-2.2-0.1-4.3-0.1c-7.9 0-15.6 0.7-22.8 2.1z"/>
		<path id="&lt;Path&gt;" class="s0" d="m31.6 30.4c-1.2-2.1-1.9-4.4-2.3-6.8q2.4-1.7 4.9-3.3c11.8-7.6 25.9-13 41.2-15.9 1.3 5.5 2.7 10.9 4.4 16.3-16.2 2.9-30.4 8.9-41 16.8-2.9-1.9-5.4-4.2-7.2-7.1z"/>
		<path id="&lt;Path&gt;" class="s0" d="m106.9 18.7q7.3-7.9 14.8-15.6c8.7 1.1 17.1 3.1 25 5.7-1.8 1-3.3 2.2-4.1 4-0.6 1.5-0.6 3.2-0.4 4.9 0.2 2.6 0.7 5.2 1.3 7.8-10.9-3.9-23.4-6.3-36.6-6.8z"/>
		<path id="&lt;Path&gt;" class="s0" d="m123.6 124.5q5.2-0.8 10.2-2.1-3 1.8-6.3 3-1.5 0.5-3 0.8-0.5-0.8-0.9-1.7z"/>
		<path id="&lt;Path&gt;" class="s0" d="m146.7 8.8c8.8 3 16.9 6.8 24.2 11.5 9.7 6.2 17.4 13.6 22.9 22 3 4.5 5.3 9.3 6.9 14.2q0.7 2.1 1.1 4.1-7.9 2.8-16.1 4.7c-3.6-17.1-19.7-31.7-42.2-39.8-0.6-2.6-1.1-5.2-1.3-7.8-0.2-1.7-0.2-3.4 0.4-4.9 0.8-1.8 2.3-3 4.1-4z"/>
		<path id="&lt;Path&gt;" class="s0" d="m18.5 33.1q4.8-5.1 10.8-9.5c0.4 2.4 1.1 4.7 2.3 6.8 1.8 2.9 4.3 5.2 7.2 7.1q-4.4 3.3-7.9 7-6.5-5.4-12.4-11.4z"/>
		<path id="&lt;Path&gt;" class="s0" d="m124.5 126.2q3.7 7 7.8 13.8c-9.5 2-19.5 3-29.7 3q-6.4 0-12.6-0.5c0.3-1.8 0.7-3.5 1.6-5.1 1.9-3.3 5.3-5.5 8.9-6.8 7.6-2.8 16.1-2.4 24-4.4z"/>
		<path id="&lt;Path&gt;" class="s0" d="m185.4 100.7q4.5 0.6 9 1-0.3 0.5-0.6 0.9c-5.5 8.4-13.2 15.8-22.9 22-11.1 7.2-24.3 12.4-38.6 15.4q-4.1-6.8-7.8-13.8 1.5-0.3 3-0.8 3.3-1.2 6.3-3c17.4-4.5 32-12.7 41.3-23q5.2 0.7 10.3 1.3z"/>
		<path id="&lt;Path&gt;" class="s0" d="m91.6 137.4c-0.9 1.6-1.3 3.3-1.6 5.1-15.2-1.3-29.7-4.9-42.5-10.7 0.9-2.7 2.2-5.3 3.8-7.7 1.7-2.4 3.7-4.4 5.9-6.4 13.1 5.4 28.7 8.5 45.4 8.5 7.2 0 14.3-0.6 21-1.7q0.4 0.9 0.9 1.7c-7.9 2-16.4 1.6-24 4.4-3.6 1.3-7 3.5-8.9 6.8z"/>
		<path id="&lt;Path&gt;" class="s0" d="m21.3 59.3q-8.1-2.5-16-5.5c1.5-3.9 3.5-7.8 6-11.5q3.1-4.8 7.2-9.2 5.9 6 12.4 11.4c-4.3 4.5-7.6 9.5-9.6 14.8z"/>
		<path id="&lt;Path&gt;" class="s0" d="m200.7 88.4c-1.5 4.6-3.6 9.1-6.3 13.3q-4.5-0.4-9-1-5.1-0.6-10.3-1.3c7.2-7.9 11.3-17.1 11.3-27q0-3.6-0.7-7.1 8.2-1.9 16.1-4.7 1.4 5.9 1.4 11.8c0 5.4-0.8 10.8-2.5 16z"/>
		<path id="&lt;Path&gt;" class="s0" d="m51.3 124.1c-1.6 2.4-2.9 5-3.8 7.7q-3.7-1.7-7.3-3.6 2.6-8.1 5.8-16.1 5.2 3.1 11.2 5.6c-2.2 2-4.2 4-5.9 6.4z"/>
		<path id="&lt;Path&gt;" class="s0" d="m46 112.1q-3.2 8-5.8 16.1-3.1-1.7-6-3.6c-9.7-6.2-17.4-13.6-22.9-22-3-4.5-5.3-9.3-6.9-14.2-1.6-5.2-2.5-10.6-2.5-16 0-5.3 0.9-10.7 2.5-15.9q0.4-1.3 0.9-2.7 7.9 3 16 5.5c-1.7 4.2-2.6 8.6-2.6 13.1 0 15.8 10.5 29.9 27.3 39.7z"/>
		<path id="&lt;Path&gt;" class="s0" d="m186.4 72.4c0 9.9-4.1 19.1-11.3 27-9.3 10.3-23.9 18.5-41.3 23q-5 1.3-10.2 2.1c-6.7 1.1-13.8 1.7-21 1.7-16.7 0-32.3-3.1-45.4-8.5q-6-2.5-11.2-5.6c-16.8-9.8-27.3-23.9-27.3-39.7 0-4.5 0.9-8.9 2.6-13.1 2-5.3 5.3-10.3 9.6-14.8q3.5-3.7 7.9-7c10.6-7.9 24.8-13.9 41-16.8 7.2-1.4 14.9-2.1 22.8-2.1q2.1 0 4.3 0.1c13.2 0.5 25.7 2.9 36.6 6.8 22.5 8.1 38.6 22.7 42.2 39.8q0.7 3.5 0.7 7.1z"/>
	</g>
</svg>