<svg version="1.2" xmlns="http://www.w3.org/2000/svg" viewBox="0 0 109 109" width="109" height="109">
	<title>New Project</title>
	<style>
		.s0 { fill: #ffffff;stroke: #000000;stroke-width: 2.2 } 
		.s1 { fill: #ffffff;stroke: #000000;stroke-linecap: round;stroke-linejoin: round;stroke-width: 1.5 } 
		.s2 { fill: #ffffff } 
		.s3 { fill: #000000 } 
	</style>
	<g id="&lt;Group&gt;">
		<path id="&lt;Path&gt;" class="s0" d="m-394.9 894.1q1.1 0.4 2.1 0.8-1-0.4-2.1-0.8z"/>
		<path id="&lt;Path&gt;" class="s0" d="m-381.6 901.7q-1.7-1.4-3.5-2.6 1.8 1.2 3.5 2.6z"/>
		<g id="&lt;Group&gt;">
			<path id="&lt;Path&gt;" class="s0" d="m-410.5 905.1q3 0 5.9 0.5l-3.6 0.6-3.3-1.1q0.5 0 1 0z"/>
			<path id="&lt;Path&gt;" class="s0" d="m-365.1 964.1v9.7c0 9-7.3 16.3-16.3 16.3h-58.1c-9 0-16.3-7.3-16.3-16.3v-9.7c0 3.5 2.8 6.4 6.3 6.4 3.5 0 6.3-2.9 6.3-6.4v-26.3c0-14.7 9.7-27.1 23-31.2l4.7 16.5-2.2 18.6 14.5-7.1 22.1 1.5-3.8-16.5 0.4-1.7c4.3 5.6 6.8 12.5 6.8 19.9v26.3c0 3.5 2.8 6.4 6.3 6.4 3.5 0 6.3-2.9 6.3-6.4z"/>
			<path id="&lt;Path&gt;" class="s0" d="m-410.5 891.3c-11.9 0-22.7 4.6-30.8 12.1 8.1-7.5 18.9-12.1 30.8-12.1z"/>
			<path id="&lt;Path&gt;" class="s0" d="m-442.2 904.3q-0.4 0.4-0.8 0.8 0.4-0.4 0.8-0.8z"/>
		</g>
		<path id="&lt;Path&gt;" class="s0" d="m-388.8 896.8q0.9 0.5 1.9 1.1-1-0.6-1.9-1.1z"/>
		<path id="&lt;Path&gt;" class="s0" d="m-386.9 897.9q0.9 0.6 1.8 1.2-0.9-0.6-1.8-1.2z"/>
		<g id="&lt;Group&gt;">
			<path id="&lt;Path&gt;" class="s0" d="m-365.1 936.7v27.4q0 0 0 0c0 3.5-2.8 6.4-6.3 6.4-3.5 0-6.3-2.9-6.3-6.4v-26.3c0-7.4-2.5-14.3-6.8-19.9l4-15.2q1.3 1.1 2.6 2.4c7.9 8.2 12.8 19.3 12.8 31.6z"/>
			<path id="&lt;Path&gt;" class="s0" d="m-381.6 901.7l-23 3.9q-2.9-0.5-5.9-0.5-0.5 0-1 0l-10-3.3 1.3 4.8c-13.3 4.1-23 16.5-23 31.2v26.3c0 3.5-2.8 6.4-6.3 6.4-3.5 0-6.3-2.9-6.3-6.4v-13.7-13.7q0-4.1 0.7-8 0.4-2.6 1.2-5.1 0.3-0.9 0.6-1.8 0.6-1.7 1.3-3.3 0.3-0.7 0.6-1.4 0.7-1.5 1.6-3 1.1-1.9 2.3-3.6 0.7-0.9 1.3-1.8 0.4-0.4 0.7-0.8c8.3-10.1 20.9-16.6 35-16.6 4.2 0 8.2 0.6 12 1.6q1.3 0.4 2.6 0.8 0.5 0.2 1 0.4 1.1 0.4 2.1 0.8 2 0.9 4 1.9 0.9 0.5 1.9 1.1 0.9 0.6 1.8 1.2 1.8 1.2 3.5 2.6z"/>
		</g>
		<path id="&lt;Path&gt;" class="s0" d="m-384.5 917.9l-0.4 1.7 3.8 16.5-22.1-1.5-14.5 7.1 2.2-18.6-4.7-16.5-1.3-4.8 10 3.3 3.3 1.1 3.6-0.6 24.4-4.1z"/>
	</g>
	<g id="&lt;Group&gt;">
		<circle id="&lt;Path&gt;" class="s1" cx="54.8" cy="54.6" r="45.6"/>
		<g id="&lt;Group&gt;">
			<g id="&lt;Group&gt;">
				<path id="&lt;Compound Path&gt;" fill-rule="evenodd" class="s2" d="m107.9 54.6c0 29.3-23.9 53.1-53.1 53.1-29.3 0-53.1-23.8-53.1-53.1 0-29.3 23.8-53.1 53.1-53.1 29.2 0 53.1 23.8 53.1 53.1zm-98.7 0c0 25.2 20.4 45.6 45.6 45.6 25.1 0 45.6-20.4 45.6-45.6 0-25.1-20.5-45.6-45.6-45.6-25.2 0-45.6 20.5-45.6 45.6z"/>
				<path id="&lt;Compound Path&gt;" fill-rule="evenodd" class="s3" d="m54.8 108.5c-29.7 0-53.9-24.2-53.9-53.9 0-29.7 24.2-53.8 53.9-53.8 29.7 0 53.8 24.1 53.8 53.8 0 29.7-24.1 53.9-53.8 53.9zm0-106.2c-28.9 0-52.4 23.5-52.4 52.3 0 28.9 23.5 52.4 52.4 52.4 28.8 0 52.3-23.5 52.3-52.4 0-28.8-23.5-52.3-52.3-52.3zm0 98.7c-25.6 0-46.4-20.8-46.4-46.4 0-25.5 20.8-46.3 46.4-46.3 25.5 0 46.3 20.8 46.3 46.3 0 25.6-20.8 46.4-46.3 46.4zm0-91.2c-24.8 0-44.9 20.1-44.9 44.8 0 24.8 20.1 44.9 44.9 44.9 24.7 0 44.8-20.1 44.8-44.9 0-24.7-20.1-44.8-44.8-44.8z"/>
			</g>
		</g>
	</g>
</svg>