<svg version="1.2" xmlns="http://www.w3.org/2000/svg" viewBox="0 0 269 105" width="269" height="105">
	<title>New Project</title>
	<style>
		.s0 { fill: #ffffff } 
		.s1 { fill: #000000 } 
	</style>
	<g id="&lt;Group&gt;">
		<g id="&lt;Group&gt;">
			<path id="&lt;Path&gt;" class="s0" d="m1.7 94.1v-92.5h265.6v92.5"/>
			<path id="&lt;Path&gt;" class="s1" d="m268.8 94.1h-2.9v-91.1h-262.8v91.1h-2.9v-94h268.6z"/>
		</g>
		<path id="&lt;Path&gt;" class="s1" d="m267.4 48.7h-265.8v-1.7h265.8z"/>
		<g id="&lt;Group&gt;">
			<path id="&lt;Path&gt;" class="s1" d="m19.3 81.4l-12.7-64.8 2.1-0.4 12.8 64.8z"/>
		</g>
		<g id="&lt;Group&gt;">
			<path id="&lt;Path&gt;" class="s1" d="m22.6 79.4l-0.9-68.9 2.2-0.1 0.8 69z"/>
		</g>
		<g id="&lt;Group&gt;">
			<path id="&lt;Path&gt;" class="s1" d="m31.4 87.5l-2.2-0.2c1.5-24.3 4.2-70.7 4.2-71.9h2.2c0 1.3-4.1 69.2-4.2 72.1z"/>
		</g>
		<g id="&lt;Group&gt;">
			<path id="&lt;Path&gt;" class="s1" d="m54.9 80l-10.4-61.6 2.1-0.4 10.4 61.7z"/>
		</g>
		<g id="&lt;Group&gt;">
			<path id="&lt;Path&gt;" class="s1" d="m58.8 70.4l-2.1-0.2q4.2-51.2 4.4-53.4l2.1 0.2q-0.1 2.2-4.4 53.4z"/>
		</g>
		<g id="&lt;Group&gt;">
			<path id="&lt;Path&gt;" class="s1" d="m42.5 82h-2.2l0.4-65.9h2.1z"/>
		</g>
		<g id="&lt;Group&gt;">
			<path id="&lt;Path&gt;" class="s1" d="m65.3 81.5l-2.1-0.3c1.5-11.2 9.2-67 9.8-68.5l2 0.7-1-0.4 1 0.4c-0.4 1.7-6 41.6-9.7 68.1z"/>
		</g>
		<g id="&lt;Group&gt;">
			<path id="&lt;Path&gt;" class="s1" d="m79 81.4l-2.2-0.1c0-0.5 0.9-56.6 0.9-57.7h2.1c0 1.1-0.8 55.5-0.8 57.8z"/>
		</g>
		<g id="&lt;Group&gt;">
			<path id="&lt;Path&gt;" class="s1" d="m84.7 84.5l-2.2-0.3c2.7-22.8 7.7-66.4 7.8-67.5h2.2c0 0.7-6 52.1-7.8 67.8z"/>
		</g>
		<g id="&lt;Group&gt;">
			<path id="&lt;Path&gt;" class="s1" d="m105.8 79.6l-2.1-0.3c0.4-2.8 1.6-40.9 2.2-60.6h2.2c-0.1 2.4-1.7 57.3-2.3 60.9z"/>
		</g>
		<g id="&lt;Group&gt;">
			<path id="&lt;Path&gt;" class="s1" d="m92.1 77.9l-2.1-0.4c1.5-6.9 11.1-60.9 11.2-61.4l2.1 0.4c-0.1 0.5-9.7 54.6-11.2 61.4z"/>
		</g>
		<g id="&lt;Group&gt;">
			<path id="&lt;Path&gt;" class="s1" d="m119.2 80.4l-10.4-61.6 2.1-0.3 10.4 61.6z"/>
		</g>
		<g id="&lt;Group&gt;">
			<path id="&lt;Path&gt;" class="s1" d="m123.1 70.8l-2.2-0.1q4.3-51.3 4.4-53.4l2.2 0.2q-0.2 2.1-4.4 53.3z"/>
		</g>
		<g id="&lt;Group&gt;">
			<path id="&lt;Path&gt;" class="s1" d="m129.6 81.9l-2.1-0.3c1.5-11.1 9.2-66.9 9.7-68.5l2.1 0.7-1-0.3 1 0.3c-0.5 1.7-6 41.7-9.7 68.1z"/>
		</g>
		<g id="&lt;Group&gt;">
			<path id="&lt;Path&gt;" class="s1" d="m143.2 81.8h-2.1c0-0.6 0.8-56.7 0.8-57.7h2.2c0 1-0.8 55.4-0.9 57.7z"/>
		</g>
		<g id="&lt;Group&gt;">
			<path id="&lt;Path&gt;" class="s1" d="m149 84.9l-2.2-0.2c2.7-22.9 7.7-66.4 7.8-67.6h2.1c0 0.7-5.9 52.1-7.7 67.8z"/>
		</g>
		<g id="&lt;Group&gt;">
			<path id="&lt;Path&gt;" class="s1" d="m170.1 80l-2.2-0.3c0.5-2.8 1.7-40.9 2.3-60.6l2.1 0.1c0 2.3-1.6 57.2-2.2 60.8z"/>
		</g>
		<g id="&lt;Group&gt;">
			<path id="&lt;Path&gt;" class="s1" d="m156.4 78.3l-2.1-0.4c1.4-6.8 11.1-60.8 11.2-61.4l2.1 0.4c-0.1 0.5-9.7 54.6-11.2 61.4z"/>
		</g>
		<g id="&lt;Group&gt;">
			<path id="&lt;Path&gt;" class="s1" d="m224.1 72.1l-2.2-0.1q4.3-51.3 4.4-53.4l2.2 0.1q-0.2 2.2-4.4 53.4z"/>
		</g>
		<g id="&lt;Group&gt;">
			<path id="&lt;Path&gt;" class="s1" d="m230.6 83.2l-2.1-0.3c1.5-11.1 9.2-67 9.7-68.5l2.1 0.7-1-0.3 1 0.3c-0.5 1.7-6 41.7-9.7 68.1z"/>
		</g>
		<g id="&lt;Group&gt;">
			<path id="&lt;Path&gt;" class="s1" d="m244.2 83.1h-2.1c0-0.6 0.8-56.7 0.8-57.7h2.2c0 1-0.8 55.4-0.9 57.7z"/>
		</g>
		<g id="&lt;Group&gt;">
			<path id="&lt;Path&gt;" class="s1" d="m250 86.2l-2.2-0.2c2.7-22.9 7.7-66.4 7.8-67.6h2.1c0 0.7-5.9 52.1-7.7 67.8z"/>
		</g>
		<g id="&lt;Group&gt;">
			<path id="&lt;Path&gt;" class="s1" d="m261.9 81.3l-2.2-0.3c0.5-2.8 1.7-40.9 2.3-60.6l2.2 0.1c-0.1 2.3-1.7 57.2-2.3 60.8z"/>
		</g>
		<g id="&lt;Group&gt;">
			<path id="&lt;Path&gt;" class="s1" d="m178.2 74.5l-2.2-0.2q4.3-51.2 4.4-53.4l2.2 0.2q-0.2 2.2-4.4 53.4z"/>
		</g>
		<g id="&lt;Group&gt;">
			<path id="&lt;Path&gt;" class="s1" d="m184.7 85.6l-2.1-0.3c1.5-11.2 9.2-67 9.7-68.5l2.1 0.7-1.1-0.4 1.1 0.4c-0.5 1.7-6.1 41.6-9.7 68.1z"/>
		</g>
		<g id="&lt;Group&gt;">
			<path id="&lt;Path&gt;" class="s1" d="m198.3 85.5l-2.2-0.1c0.1-0.5 0.9-56.6 0.9-57.7h2.2c0 1.1-0.8 55.5-0.9 57.8z"/>
		</g>
		<g id="&lt;Group&gt;">
			<path id="&lt;Path&gt;" class="s1" d="m204 88.6l-2.1-0.2c2.6-22.9 7.7-66.4 7.8-67.6h2.1c0 0.7-5.9 52.1-7.8 67.8z"/>
		</g>
		<g id="&lt;Group&gt;">
			<path id="&lt;Path&gt;" class="s1" d="m216 83.7l-2.2-0.3c0.5-2.8 1.7-40.9 2.3-60.6l2.2 0.1c-0.1 2.3-1.7 57.2-2.3 60.8z"/>
		</g>
		<g id="&lt;Group&gt;">
			<path id="&lt;Path&gt;" class="s1" d="m95 98.5h-93.3v-2.2h93.3z"/>
		</g>
		<g id="&lt;Group&gt;">
			<path id="&lt;Path&gt;" class="s1" d="m185.4 104.1h-101.8v-2.2h101.8z"/>
		</g>
		<g id="&lt;Group&gt;">
			<path id="&lt;Path&gt;" class="s1" d="m267.4 98.5h-94.2v-2.2h94.2z"/>
		</g>
	</g>
</svg>