<svg version="1.2" xmlns="http://www.w3.org/2000/svg" viewBox="0 0 143 54" width="143" height="54">
	<title>template</title>
	<style>
		.s0 { fill: #ffffff;stroke: #494949;stroke-width: 2 } 
	</style>
	<g id="&lt;Group&gt;">
		<path id="&lt;Path&gt;" class="s0" d="m140.8 2.5v49.5h-138v-49.5z"/>
		<g id="&lt;Group&gt;">
			<path id="&lt;Compound Path&gt;" class="s0" d="m40.4 28.2c0.2-1.5 0.5-2.9 0.8-4.2l1.1-3.9h3.6v0.2l-4.1 14.2h-2.4l-2.2-6.5-2.1 6.5h-2.5l-4.1-14.2v-0.2h3.6l1.2 3.9c0.3 1.3 0.6 2.7 0.8 4.2l2.1-7.8h2.3l1.9 7.8z"/>
			<path id="&lt;Compound Path&gt;" class="s0" d="m50.8 25.4h3.8v3.3h-3.8v2.3h4.3v3.4h-7.8v-14.3h7.6v3.3h-4.1z"/>
			<path id="&lt;Compound Path&gt;" class="s0" d="m64.6 34.4h-7.4v-14.3h3.5v10.9h3.9z"/>
			<path id="&lt;Compound Path&gt;" class="s0" d="m71.5 19.9c2.6 0 5.4 1.7 5.8 5.5h-3.4c-0.3-1.5-1.2-2.1-2.4-2.1-1.6 0-2.6 1.6-2.6 4 0 2.3 1 3.9 2.7 3.9 1.2 0 2.1-0.7 2.3-2.3h3.4c-0.4 4.1-3.1 5.7-5.8 5.7-3.7 0-6.1-2.9-6.1-7.3 0-4.4 2.4-7.4 6.1-7.4z"/>
			<path id="&lt;Compound Path&gt;" fill-rule="evenodd" class="s0" d="m78.5 27.3c0-4.1 2.8-7.4 6.2-7.4 3.5 0 6.3 3.3 6.3 7.4 0 4-2.8 7.3-6.3 7.3-3.4 0-6.2-3.3-6.2-7.3zm6.2 3.8c1.5 0 2.7-1.7 2.7-3.8 0-2.2-1.2-3.9-2.7-3.9-1.5 0-2.7 1.7-2.7 3.9 0 2.1 1.2 3.8 2.7 3.8z"/>
			<path id="&lt;Compound Path&gt;" class="s0" d="m104.8 34.4h-3.5v-6.5l-2.3 3.1h-0.4l-2.2-3.1v6.5h-3.6v-14.3h1.3l4.7 6.1 4.8-6.1h1.2z"/>
			<path id="&lt;Compound Path&gt;" class="s0" d="m110.8 25.4h3.8v3.3h-3.8v2.3h4.4v3.4h-7.9v-14.3h7.7v3.3h-4.2z"/>
		</g>
	</g>
</svg>