<svg version="1.2" xmlns="http://www.w3.org/2000/svg" viewBox="0 0 113 113" width="113" height="113">
	<title>New Project</title>
	<style>
		.s0 { fill: #ffffff;stroke: #000000;stroke-width: 2.2 } 
		.s1 { fill: none;stroke: #000000;stroke-width: .8 } 
		.s2 { fill: #000000 } 
	</style>
	<g id="&lt;Group&gt;">
		<path id="&lt;Path&gt;" class="s0" d="m111.9 91.9h-110.5v-90.4h110.5z"/>
		<path id="&lt;Path&gt;" class="s0" d="m111.9 102h-110.5v-10.1h110.5z"/>
		<g id="&lt;Group&gt;">
			<g id="&lt;Group&gt;">
				<path id="&lt;Path&gt;" class="s1" d="m33.2 100c-1.2-0.5-2-1.7-2-3.1 0-1.4 0.8-2.6 2-3.1z"/>
				<path id="&lt;Path&gt;" class="s1" d="m37.8 96.9c0 1.4-0.8 2.6-2 3.1v-6.2c1.2 0.5 2 1.7 2 3.1z"/>
			</g>
			<path id="&lt;Path&gt;" class="s1" d="m35.8 100.9h-2.6v-8h2.6z"/>
		</g>
		<g id="&lt;Group&gt;">
			<g id="&lt;Group&gt;">
				<path id="&lt;Path&gt;" class="s1" d="m48.2 100c-1.2-0.5-2.1-1.7-2.1-3.1 0-1.4 0.9-2.6 2.1-3.1z"/>
				<path id="&lt;Path&gt;" class="s1" d="m52.8 96.9c0 1.4-0.9 2.6-2.1 3.1v-6.2c1.2 0.5 2.1 1.7 2.1 3.1z"/>
			</g>
			<path id="&lt;Path&gt;" class="s1" d="m50.7 100.9h-2.5v-8h2.5z"/>
		</g>
		<g id="&lt;Group&gt;">
			<g id="&lt;Group&gt;">
				<path id="&lt;Path&gt;" class="s1" d="m63.1 100c-1.2-0.5-2-1.7-2-3.1 0-1.4 0.8-2.6 2-3.1z"/>
				<path id="&lt;Path&gt;" class="s1" d="m67.7 96.9c0 1.4-0.8 2.6-2 3.1v-6.2c1.2 0.5 2 1.7 2 3.1z"/>
			</g>
			<path id="&lt;Path&gt;" class="s1" d="m65.7 100.9h-2.6v-8h2.6z"/>
		</g>
		<g id="&lt;Group&gt;">
			<g id="&lt;Group&gt;">
				<path id="&lt;Path&gt;" class="s1" d="m78.1 100c-1.2-0.5-2.1-1.7-2.1-3.1 0-1.4 0.9-2.6 2.1-3.1z"/>
				<path id="&lt;Path&gt;" class="s1" d="m82.7 96.9c0 1.4-0.9 2.6-2.1 3.1v-6.2c1.2 0.5 2.1 1.7 2.1 3.1z"/>
			</g>
			<path id="&lt;Path&gt;" class="s1" d="m80.6 100.9h-2.5v-8h2.5z"/>
		</g>
		<path id="&lt;Compound Path&gt;" fill-rule="evenodd" class="s2" d="m81.3 31.5q-0.1 0-0.3 0c-2.5-0.1-4.9-1.1-6.7-3-1.8-1.8-2.7-4.3-2.7-6.9 0.2-5.3 4.6-9.5 9.9-9.4 5.3 0.2 9.6 4.6 9.4 9.9-0.1 5.2-4.4 9.4-9.6 9.4zm0-18.1c-4.6 0-8.4 3.6-8.5 8.3-0.1 2.2 0.8 4.4 2.3 6 1.6 1.7 3.7 2.6 6 2.7q0.1 0 0.2 0c4.6 0 8.4-3.7 8.5-8.3 0-2.3-0.8-4.4-2.4-6.1-1.5-1.6-3.6-2.6-5.9-2.6q-0.1 0-0.2 0z"/>
		<g id="&lt;Group&gt;">
			<g id="&lt;Group&gt;">
				<path id="&lt;Compound Path&gt;" fill-rule="evenodd" class="s2" d="m29.7 40q-0.2 0-0.4 0c-4.4-0.1-8.5-1.9-11.5-5.1-3-3.2-4.6-7.4-4.5-11.8 0.2-9.1 7.8-16.3 16.8-16 4.4 0.1 8.5 1.9 11.6 5.1 3 3.2 4.6 7.3 4.5 11.7-0.1 4.4-1.9 8.5-5.1 11.5-3.1 3-7.1 4.6-11.4 4.6zm-11.1-5.9c2.9 3 6.7 4.6 10.8 4.7 4.1 0.1 7.9-1.4 10.9-4.2 3-2.8 4.7-6.6 4.8-10.7 0.1-4.1-1.4-8-4.3-11-2.8-2.9-6.6-4.6-10.7-4.7-8.4-0.2-15.5 6.5-15.7 14.9-0.1 4.1 1.4 8 4.2 11z"/>
			</g>
			<path id="&lt;Path&gt;" class="s2" d="m49.5 22.9v1.2h-10.1c-0.2 2.4-1.2 4.7-3 6.4-1.7 1.6-3.8 2.5-6.1 2.7v10.1h-1.1v-10.1c-2.5-0.2-4.8-1.2-6.5-3-1.6-1.7-2.5-3.8-2.6-6.1h-10.1v-1.2h10.1c0.1-2.4 1.2-4.7 3-6.4 1.7-1.6 3.8-2.5 6.1-2.6v-10.2h1.1v10.2c4.9 0.3 8.8 4.2 9.1 9z"/>
		</g>
		<path id="&lt;Path&gt;" class="s2" d="m94.1 21.2v1.2h-7.3c-0.2 1.3-0.8 2.5-1.7 3.4-0.9 0.8-2 1.4-3.2 1.5v7.4h-1.2v-7.4c-2.6-0.3-4.6-2.4-4.9-4.9h-7.4v-1.2h7.4c0.3-2.6 2.3-4.6 4.9-4.9v-7.3h1.2v7.3c1.3 0.2 2.5 0.7 3.4 1.7 0.8 0.9 1.3 2 1.5 3.2z"/>
		<path id="&lt;Path&gt;" class="s2" d="m105.4 63v1.1h-12.1c-0.3 6.2-5.3 11.1-11.4 11.4v12.2h-1.2v-12.2c-6.2-0.3-11.1-5.2-11.4-11.4h-12.2v-1.1h12.2c0.2-3.1 1.5-6 3.7-8.1 2.1-2 4.8-3.2 7.7-3.3v-12.2h1.2v12.2c6.1 0.3 11.1 5.3 11.4 11.4z"/>
		<g id="&lt;Group&gt;">
			<g id="&lt;Group&gt;">
				<path id="&lt;Compound Path&gt;" fill-rule="evenodd" class="s2" d="m29.7 79.7q-0.1 0-0.3 0c-7.8-0.2-14-6.7-13.8-14.5 0.1-3.8 1.6-7.3 4.4-9.9 2.7-2.6 6.3-4 10.1-3.9 3.8 0.1 7.3 1.7 9.9 4.4 2.6 2.8 4 6.3 3.9 10.1-0.2 7.7-6.5 13.8-14.2 13.8zm0-27.1c-3.3 0-6.5 1.2-8.9 3.5-2.6 2.4-4 5.7-4.1 9.2-0.2 7.1 5.5 13.1 12.7 13.3q0.2 0 0.3 0c7.1 0 12.9-5.6 13.1-12.7 0-3.5-1.2-6.8-3.6-9.3-2.4-2.5-5.7-4-9.1-4q-0.2 0-0.4 0z"/>
			</g>
			<path id="&lt;Path&gt;" class="s2" d="m47.5 66.1h-10.4c-0.3 3.7-3.2 6.6-6.8 6.8v10.5h-1.1v-10.5c-3.7-0.2-6.5-3.2-6.8-6.8h-10.4v-1.1h10.4c0.3-3.6 3.2-6.5 6.8-6.8v-10.4h1.1v10.4c3.6 0.3 6.5 3.2 6.8 6.8h10.4z"/>
		</g>
		<g id="&lt;Group&gt;">
			<path id="&lt;Path&gt;" class="s0" d="m93.6 111.7h-74v-9.7h4.2v6.3h65.6v-6.3h4.2z"/>
		</g>
		<path id="&lt;Compound Path&gt;" fill-rule="evenodd" class="s2" d="m81.3 84.5q-0.3 0-0.5 0c-5.6-0.2-10.8-2.5-14.7-6.5-3.8-4.1-5.9-9.4-5.7-15 0.1-5.5 2.4-10.7 6.5-14.6 4-3.8 9.3-5.9 14.9-5.8 5.6 0.2 10.8 2.5 14.6 6.5 3.9 4.1 5.9 9.4 5.8 15-0.1 5.6-2.4 10.8-6.5 14.6-3.9 3.8-9 5.8-14.4 5.8zm0-40.7c-5.1 0-9.9 1.9-13.7 5.4-3.8 3.7-6 8.6-6.1 13.9-0.1 5.3 1.8 10.3 5.4 14.1 3.7 3.8 8.6 6 13.9 6.1 5.3 0.2 10.3-1.8 14.1-5.4 3.9-3.6 6-8.6 6.2-13.8 0.1-5.3-1.8-10.3-5.5-14.2-3.6-3.8-8.5-6-13.8-6.1q-0.3 0-0.5 0z"/>
	</g>
</svg>