<svg version="1.2" xmlns="http://www.w3.org/2000/svg" viewBox="0 0 203 134" width="203" height="134">
	<title>New Project</title>
	<style>
		.s0 { fill: #ffffff;stroke: #000000;stroke-linecap: square;stroke-width: 2.2 } 
		.s1 { fill: none;stroke: #000000;stroke-linecap: square;stroke-width: 2.2 } 
		.s2 { fill: #000000 } 
		.s3 { fill: none;stroke: #000000;stroke-width: 2.2 } 
	</style>
	<g id="&lt;Group&gt;">
		<g id="&lt;Group&gt;">
			<path id="&lt;Path&gt;" class="s0" d="m196.5 126.5h-189.9v-119.4h189.9z"/>
			<path id="&lt;Path&gt;" class="s1" d="m185.9 114.3h-168.6v-95.1h168.6z"/>
			<g id="&lt;Group&gt;">
				<g id="&lt;Group&gt;">
					<path id="&lt;Path&gt;" class="s2" d="m7.1 7.9q-0.1 0-0.1 0c-0.3 0-0.5-0.2-0.6-0.5-0.1-0.1-0.6-1.5-0.9-2.5-0.1-0.4 0.1-0.8 0.5-0.9 0.4-0.1 0.8 0.1 0.9 0.5q0.1 0.4 0.3 0.8l1.6-3.3c0.2-0.3 0.6-0.5 1-0.3 0.3 0.2 0.5 0.6 0.3 1l-2.4 4.8c-0.1 0.2-0.4 0.4-0.6 0.4z"/>
				</g>
				<g id="&lt;Group&gt;">
					<path id="&lt;Path&gt;" class="s2" d="m10.4 7.9c-0.4 0-0.7-0.3-0.8-0.7l-0.4-3.8c0-0.4 0.3-0.8 0.7-0.8 0.4-0.1 0.7 0.2 0.8 0.6l0.4 3.9c0 0.4-0.3 0.7-0.7 0.8q0 0 0 0z"/>
				</g>
				<g id="&lt;Group&gt;">
					<path id="&lt;Path&gt;" class="s2" d="m13.6 7.9q0 0 0 0c-0.5 0-0.8-0.4-0.8-0.8 0.1-1.9 0.3-4.8 0.3-5 0-0.4 0.3-0.7 0.7-0.7q0 0 0 0c0.4 0 0.7 0.3 0.7 0.7 0 0.2-0.1 4.3-0.2 5.1 0 0.4-0.3 0.7-0.7 0.7z"/>
				</g>
				<g id="&lt;Group&gt;">
					<path id="&lt;Path&gt;" class="s2" d="m16.3 7.9c-0.4 0-0.7-0.3-0.7-0.7 0-0.6-0.2-5.8-0.2-6.1 0-0.4 0.3-0.7 0.7-0.7 0.4 0 0.8 0.3 0.8 0.7 0 0.2 0.1 3.7 0.2 6 0 0.4-0.3 0.8-0.7 0.8q-0.1 0-0.1 0z"/>
				</g>
				<g id="&lt;Group&gt;">
					<path id="&lt;Path&gt;" class="s2" d="m22 7.9c-0.4 0-0.7-0.3-0.7-0.7l-0.4-3.8c-0.1-0.4 0.2-0.8 0.6-0.8 0.4-0.1 0.8 0.2 0.8 0.6l0.4 3.9c0.1 0.4-0.2 0.7-0.6 0.8q0 0-0.1 0z"/>
				</g>
				<g id="&lt;Group&gt;">
					<path id="&lt;Path&gt;" class="s2" d="m25.2 7.9q0 0 0 0c-0.4 0-0.7-0.4-0.7-0.8 0.1-1.9 0.2-4.8 0.2-5 0-0.4 0.4-0.7 0.8-0.7q0 0 0 0c0.4 0 0.7 0.3 0.7 0.7 0 0.2-0.2 4.3-0.2 5.1 0 0.4-0.4 0.7-0.8 0.7z"/>
				</g>
				<g id="&lt;Group&gt;">
					<path id="&lt;Path&gt;" class="s2" d="m28 7.9c-0.4 0-0.7-0.3-0.7-0.7-0.1-0.6-0.3-5.8-0.3-6.1 0-0.4 0.4-0.7 0.8-0.7 0.4 0 0.7 0.3 0.7 0.7 0 0.2 0.1 3.7 0.2 6 0 0.4-0.3 0.8-0.7 0.8q0 0 0 0z"/>
				</g>
				<g id="&lt;Group&gt;">
					<path id="&lt;Path&gt;" class="s2" d="m27 7.9c-0.4 0-0.7-0.3-0.8-0.7l-0.4-3.8c0-0.4 0.2-0.8 0.7-0.8 0.4-0.1 0.7 0.2 0.8 0.6l0.4 3.9c0 0.4-0.3 0.7-0.7 0.8q0 0 0 0z"/>
				</g>
				<g id="&lt;Group&gt;">
					<path id="&lt;Path&gt;" class="s2" d="m30.2 7.9q0 0 0 0c-0.5 0-0.8-0.4-0.8-0.8 0.1-1.9 0.3-4.8 0.3-5 0-0.4 0.3-0.7 0.7-0.7q0 0 0 0c0.4 0 0.7 0.3 0.7 0.7 0 0.2-0.1 4.3-0.2 5.1 0 0.4-0.3 0.7-0.7 0.7z"/>
				</g>
				<g id="&lt;Group&gt;">
					<path id="&lt;Path&gt;" class="s2" d="m32.9 7.9c-0.4 0-0.7-0.3-0.7-0.7 0-0.6-0.2-5.8-0.2-6.1 0-0.4 0.3-0.7 0.7-0.7 0.4 0 0.8 0.3 0.8 0.7 0 0.2 0.1 3.7 0.2 6 0 0.4-0.3 0.8-0.7 0.8q-0.1 0-0.1 0z"/>
				</g>
				<g id="&lt;Group&gt;">
					<path id="&lt;Path&gt;" class="s2" d="m19.4 7.9c-0.3 0-0.6-0.2-0.7-0.5l-1.6-3.8c-0.2-0.4 0-0.8 0.4-1 0.3-0.1 0.8 0 0.9 0.4l0.8 1.7 0.6-3c0.1-0.3 0.5-0.6 0.9-0.5 0.4 0.1 0.7 0.5 0.6 0.9l-1.2 5.2c0 0.3-0.3 0.5-0.6 0.6q-0.1 0-0.1 0z"/>
				</g>
				<g id="&lt;Group&gt;">
					<g id="&lt;Group&gt;">
						<path id="&lt;Path&gt;" class="s2" d="m34.2 7.9q0 0 0 0c-0.3 0-0.6-0.2-0.7-0.5 0-0.1-0.6-1.5-0.8-2.5-0.1-0.4 0.1-0.8 0.5-0.9 0.4-0.1 0.8 0.1 0.9 0.5q0.1 0.4 0.2 0.8l1.6-3.3c0.2-0.3 0.7-0.5 1-0.3 0.4 0.2 0.5 0.6 0.4 1l-2.4 4.8c-0.2 0.2-0.4 0.4-0.7 0.4z"/>
					</g>
					<g id="&lt;Group&gt;">
						<path id="&lt;Path&gt;" class="s2" d="m37.5 7.9c-0.4 0-0.7-0.3-0.7-0.7l-0.4-3.8c-0.1-0.4 0.2-0.8 0.6-0.8 0.4-0.1 0.8 0.2 0.8 0.6l0.5 3.9c0 0.4-0.3 0.7-0.7 0.8q0 0-0.1 0z"/>
					</g>
					<g id="&lt;Group&gt;">
						<path id="&lt;Path&gt;" class="s2" d="m40.7 7.9q0 0 0 0c-0.4 0-0.7-0.4-0.7-0.8 0.1-1.9 0.2-4.8 0.2-5 0-0.4 0.4-0.7 0.8-0.7q0 0 0 0c0.4 0 0.7 0.3 0.7 0.7 0 0.2-0.2 4.3-0.2 5.1 0 0.4-0.4 0.7-0.8 0.7z"/>
					</g>
					<g id="&lt;Group&gt;">
						<path id="&lt;Path&gt;" class="s2" d="m43.5 7.9c-0.4 0-0.7-0.3-0.7-0.7-0.1-0.6-0.3-5.8-0.3-6.1 0-0.4 0.4-0.7 0.8-0.7 0.4 0 0.7 0.3 0.7 0.7 0 0.2 0.1 3.7 0.2 6 0 0.4-0.3 0.8-0.7 0.8q0 0 0 0z"/>
					</g>
					<g id="&lt;Group&gt;">
						<path id="&lt;Path&gt;" class="s2" d="m49.2 7.9c-0.4 0-0.7-0.3-0.8-0.7l-0.4-3.8c0-0.4 0.3-0.8 0.7-0.8 0.4-0.1 0.7 0.2 0.8 0.6l0.4 3.9c0.1 0.4-0.2 0.7-0.6 0.8q-0.1 0-0.1 0z"/>
					</g>
					<g id="&lt;Group&gt;">
						<path id="&lt;Path&gt;" class="s2" d="m52.4 7.9q0 0 0 0c-0.4 0-0.7-0.4-0.7-0.8 0.1-1.9 0.2-4.8 0.2-5 0-0.4 0.3-0.7 0.7-0.7q0 0 0 0c0.4 0 0.8 0.3 0.8 0.7 0 0.2-0.2 4.3-0.3 5.1 0 0.4-0.3 0.7-0.7 0.7z"/>
					</g>
					<g id="&lt;Group&gt;">
						<path id="&lt;Path&gt;" class="s2" d="m55.2 7.9c-0.4 0-0.8-0.3-0.8-0.7 0-0.6-0.2-5.8-0.2-6.1 0-0.4 0.3-0.7 0.7-0.7 0.5 0 0.8 0.3 0.8 0.7 0 0.2 0.1 3.7 0.2 6 0 0.4-0.3 0.8-0.7 0.8q0 0 0 0z"/>
					</g>
					<g id="&lt;Group&gt;">
						<path id="&lt;Path&gt;" class="s2" d="m54.1 7.9c-0.4 0-0.7-0.3-0.7-0.7l-0.4-3.8c-0.1-0.4 0.2-0.8 0.6-0.8 0.4-0.1 0.8 0.2 0.8 0.6l0.4 3.9c0.1 0.4-0.2 0.7-0.6 0.8q0 0-0.1 0z"/>
					</g>
					<g id="&lt;Group&gt;">
						<path id="&lt;Path&gt;" class="s2" d="m57.3 7.9q0 0 0 0c-0.4 0-0.7-0.4-0.7-0.8 0.1-1.9 0.2-4.8 0.2-5 0-0.4 0.4-0.7 0.8-0.7q0 0 0 0c0.4 0 0.7 0.3 0.7 0.7 0 0.2-0.2 4.3-0.2 5.1 0 0.4-0.4 0.7-0.8 0.7z"/>
					</g>
					<g id="&lt;Group&gt;">
						<path id="&lt;Path&gt;" class="s2" d="m60.1 7.9c-0.4 0-0.7-0.3-0.7-0.7-0.1-0.6-0.3-5.8-0.3-6.1 0-0.4 0.4-0.7 0.8-0.7 0.4 0 0.7 0.3 0.7 0.7 0 0.2 0.1 3.7 0.2 6 0 0.4-0.3 0.8-0.7 0.8q0 0 0 0z"/>
					</g>
					<g id="&lt;Group&gt;">
						<path id="&lt;Path&gt;" class="s2" d="m46.6 7.9c-0.3 0-0.6-0.2-0.7-0.5l-1.7-3.8c-0.1-0.4 0.1-0.8 0.4-1 0.4-0.1 0.8 0 1 0.4l0.7 1.7 0.7-3c0.1-0.3 0.5-0.6 0.9-0.5 0.4 0.1 0.6 0.5 0.5 0.9l-1.1 5.2c-0.1 0.3-0.3 0.5-0.7 0.6q0 0 0 0z"/>
					</g>
				</g>
				<g id="&lt;Group&gt;">
					<path id="&lt;Path&gt;" class="s2" d="m62.5 7.9c-0.4 0-0.7-0.3-0.7-0.7-0.1-0.6-0.3-5.8-0.3-6.1 0-0.4 0.4-0.7 0.8-0.7 0.4 0 0.7 0.3 0.7 0.7 0 0.2 0.1 3.7 0.2 6 0 0.4-0.3 0.8-0.7 0.8q0 0 0 0z"/>
				</g>
				<g id="&lt;Group&gt;">
					<path id="&lt;Path&gt;" class="s2" d="m61.5 7.9c-0.4 0-0.7-0.3-0.8-0.7l-0.4-3.8c0-0.4 0.2-0.8 0.6-0.8 0.5-0.1 0.8 0.2 0.9 0.6l0.4 3.9c0 0.4-0.3 0.7-0.7 0.8q0 0 0 0z"/>
				</g>
				<g id="&lt;Group&gt;">
					<path id="&lt;Path&gt;" class="s2" d="m64.7 7.9q0 0-0.1 0c-0.4 0-0.7-0.4-0.7-0.8 0.1-1.9 0.3-4.8 0.3-5 0-0.4 0.3-0.7 0.7-0.7q0 0 0 0c0.4 0 0.7 0.3 0.7 0.7 0 0.2-0.2 4.3-0.2 5.1 0 0.4-0.3 0.7-0.7 0.7z"/>
				</g>
				<g id="&lt;Group&gt;">
					<path id="&lt;Path&gt;" class="s2" d="m67.4 7.9c-0.4 0-0.7-0.3-0.7-0.7 0-0.6-0.2-5.8-0.2-6.1 0-0.4 0.3-0.7 0.7-0.7 0.4 0 0.8 0.3 0.8 0.7 0 0.2 0.1 3.7 0.2 6 0 0.4-0.3 0.8-0.7 0.8q-0.1 0-0.1 0z"/>
				</g>
				<g id="&lt;Group&gt;">
					<g id="&lt;Group&gt;">
						<path id="&lt;Path&gt;" class="s2" d="m68.7 7.9q0 0 0 0c-0.3 0-0.6-0.2-0.7-0.5 0-0.1-0.6-1.5-0.8-2.5-0.1-0.4 0.1-0.8 0.5-0.9 0.4-0.1 0.8 0.1 0.9 0.5q0.1 0.4 0.2 0.8l1.6-3.3c0.2-0.3 0.7-0.5 1-0.3 0.4 0.2 0.5 0.6 0.4 1l-2.4 4.8c-0.2 0.2-0.4 0.4-0.7 0.4z"/>
					</g>
					<g id="&lt;Group&gt;">
						<path id="&lt;Path&gt;" class="s2" d="m72 7.9c-0.4 0-0.7-0.3-0.7-0.7l-0.4-3.8c-0.1-0.4 0.2-0.8 0.6-0.8 0.4-0.1 0.8 0.2 0.8 0.6l0.4 3.9c0.1 0.4-0.2 0.7-0.6 0.8q0 0-0.1 0z"/>
					</g>
					<g id="&lt;Group&gt;">
						<path id="&lt;Path&gt;" class="s2" d="m75.2 7.9q0 0 0 0c-0.4 0-0.7-0.4-0.7-0.8 0.1-1.9 0.2-4.8 0.2-5 0-0.4 0.4-0.7 0.8-0.7q0 0 0 0c0.4 0 0.7 0.3 0.7 0.7 0 0.2-0.2 4.3-0.2 5.1 0 0.4-0.4 0.7-0.8 0.7z"/>
					</g>
					<g id="&lt;Group&gt;">
						<path id="&lt;Path&gt;" class="s2" d="m78 7.9c-0.4 0-0.7-0.3-0.7-0.7-0.1-0.6-0.3-5.8-0.3-6.1 0-0.4 0.4-0.7 0.8-0.7 0.4 0 0.7 0.3 0.7 0.7 0 0.2 0.1 3.7 0.2 6 0 0.4-0.3 0.8-0.7 0.8q0 0 0 0z"/>
					</g>
					<g id="&lt;Group&gt;">
						<path id="&lt;Path&gt;" class="s2" d="m83.7 7.9c-0.4 0-0.7-0.3-0.8-0.7l-0.4-3.8c0-0.4 0.3-0.8 0.7-0.8 0.4-0.1 0.7 0.2 0.8 0.6l0.4 3.9c0.1 0.4-0.2 0.7-0.6 0.8q-0.1 0-0.1 0z"/>
					</g>
					<g id="&lt;Group&gt;">
						<path id="&lt;Path&gt;" class="s2" d="m86.9 7.9q0 0 0 0c-0.4 0-0.7-0.4-0.7-0.8 0.1-1.9 0.2-4.8 0.2-5 0-0.4 0.3-0.7 0.7-0.7q0 0 0 0c0.4 0 0.7 0.3 0.7 0.7 0 0.2-0.1 4.3-0.2 5.1 0 0.4-0.3 0.7-0.7 0.7z"/>
					</g>
					<g id="&lt;Group&gt;">
						<path id="&lt;Path&gt;" class="s2" d="m89.7 7.9c-0.4 0-0.8-0.3-0.8-0.7 0-0.6-0.2-5.8-0.2-6.1 0-0.4 0.3-0.7 0.7-0.7 0.4 0 0.8 0.3 0.8 0.7 0 0.2 0.1 3.7 0.2 6 0 0.4-0.3 0.8-0.7 0.8q0 0 0 0z"/>
					</g>
					<g id="&lt;Group&gt;">
						<path id="&lt;Path&gt;" class="s2" d="m88.6 7.9c-0.4 0-0.7-0.3-0.7-0.7l-0.4-3.8c-0.1-0.4 0.2-0.8 0.6-0.8 0.4-0.1 0.8 0.2 0.8 0.6l0.4 3.9c0.1 0.4-0.2 0.7-0.6 0.8q0 0-0.1 0z"/>
					</g>
					<g id="&lt;Group&gt;">
						<path id="&lt;Path&gt;" class="s2" d="m91.8 7.9q0 0 0 0c-0.4 0-0.7-0.4-0.7-0.8 0.1-1.9 0.2-4.8 0.2-5 0-0.4 0.3-0.7 0.8-0.7q0 0 0 0c0.4 0 0.7 0.3 0.7 0.7 0 0.2-0.2 4.3-0.2 5.1 0 0.4-0.4 0.7-0.8 0.7z"/>
					</g>
					<g id="&lt;Group&gt;">
						<path id="&lt;Path&gt;" class="s2" d="m94.6 7.9c-0.4 0-0.7-0.3-0.7-0.7-0.1-0.6-0.3-5.8-0.3-6.1 0-0.4 0.4-0.7 0.8-0.7 0.4 0 0.7 0.3 0.7 0.7 0 0.2 0.1 3.7 0.2 6 0 0.4-0.3 0.8-0.7 0.8q0 0 0 0z"/>
					</g>
					<g id="&lt;Group&gt;">
						<path id="&lt;Path&gt;" class="s2" d="m81.1 7.9c-0.3 0-0.6-0.2-0.7-0.5l-1.7-3.8c-0.1-0.4 0.1-0.8 0.4-1 0.4-0.1 0.8 0 1 0.4l0.7 1.7 0.7-3c0.1-0.3 0.5-0.6 0.9-0.5 0.4 0.1 0.6 0.5 0.5 0.9l-1.1 5.2c-0.1 0.3-0.4 0.5-0.7 0.6q0 0 0 0z"/>
					</g>
				</g>
				<g id="&lt;Group&gt;">
					<path id="&lt;Path&gt;" class="s2" d="m97 7.9c-0.4 0-0.7-0.3-0.7-0.7-0.1-0.6-0.3-5.8-0.3-6.1 0-0.4 0.4-0.7 0.8-0.7 0.4 0 0.7 0.3 0.7 0.7 0 0.2 0.1 3.7 0.2 6 0 0.4-0.3 0.8-0.7 0.8q0 0 0 0z"/>
				</g>
				<g id="&lt;Group&gt;">
					<path id="&lt;Path&gt;" class="s2" d="m95.9 7.9c-0.3 0-0.6-0.3-0.7-0.7l-0.4-3.8c-0.1-0.4 0.2-0.8 0.6-0.8 0.5-0.1 0.8 0.2 0.9 0.6l0.4 3.9c0 0.4-0.3 0.7-0.7 0.8q0 0-0.1 0z"/>
				</g>
				<g id="&lt;Group&gt;">
					<path id="&lt;Path&gt;" class="s2" d="m99.2 7.9q0 0-0.1 0c-0.4 0-0.7-0.4-0.7-0.8 0.1-1.9 0.2-4.8 0.3-5 0-0.4 0.3-0.7 0.7-0.7q0 0 0 0c0.4 0 0.7 0.3 0.7 0.7 0 0.2-0.2 4.3-0.2 5.1 0 0.4-0.3 0.7-0.7 0.7z"/>
				</g>
				<g id="&lt;Group&gt;">
					<path id="&lt;Path&gt;" class="s2" d="m101.9 7.9c-0.4 0-0.7-0.3-0.7-0.7 0-0.6-0.2-5.8-0.2-6.1 0-0.4 0.3-0.7 0.7-0.7 0.4 0 0.7 0.3 0.7 0.7 0 0.2 0.2 3.7 0.3 6 0 0.4-0.3 0.8-0.7 0.8q-0.1 0-0.1 0z"/>
				</g>
				<g id="&lt;Group&gt;">
					<g id="&lt;Group&gt;">
						<path id="&lt;Path&gt;" class="s2" d="m103.2 7.9q0 0 0 0c-0.3 0-0.6-0.2-0.7-0.5 0-0.1-0.6-1.5-0.8-2.5-0.2-0.4 0.1-0.8 0.5-0.9 0.4-0.1 0.8 0.1 0.9 0.5q0.1 0.4 0.2 0.8l1.6-3.3c0.2-0.3 0.7-0.5 1-0.3 0.4 0.2 0.5 0.6 0.3 1l-2.3 4.8c-0.2 0.2-0.4 0.4-0.7 0.4z"/>
					</g>
					<g id="&lt;Group&gt;">
						<path id="&lt;Path&gt;" class="s2" d="m106.5 7.9c-0.4 0-0.7-0.3-0.7-0.7l-0.4-3.8c-0.1-0.4 0.2-0.8 0.6-0.8 0.4-0.1 0.8 0.2 0.8 0.6l0.4 3.9c0.1 0.4-0.2 0.7-0.6 0.8q0 0-0.1 0z"/>
					</g>
					<g id="&lt;Group&gt;">
						<path id="&lt;Path&gt;" class="s2" d="m109.7 7.9q0 0 0 0c-0.4 0-0.7-0.4-0.7-0.8 0.1-1.9 0.2-4.8 0.2-5 0-0.4 0.3-0.7 0.8-0.7q0 0 0 0c0.4 0 0.7 0.3 0.7 0.7 0 0.2-0.2 4.3-0.2 5.1 0 0.4-0.4 0.7-0.8 0.7z"/>
					</g>
					<g id="&lt;Group&gt;">
						<path id="&lt;Path&gt;" class="s2" d="m112.5 7.9c-0.4 0-0.7-0.3-0.7-0.7-0.1-0.6-0.3-5.8-0.3-6.1 0-0.4 0.4-0.7 0.8-0.7 0.4 0 0.7 0.3 0.7 0.7 0 0.2 0.1 3.7 0.2 6 0 0.4-0.3 0.8-0.7 0.8q0 0 0 0z"/>
					</g>
					<g id="&lt;Group&gt;">
						<path id="&lt;Path&gt;" class="s2" d="m118.2 7.9c-0.4 0-0.7-0.3-0.8-0.7l-0.4-3.8c0-0.4 0.3-0.8 0.7-0.8 0.4-0.1 0.7 0.2 0.8 0.6l0.4 3.9c0 0.4-0.2 0.7-0.6 0.8q-0.1 0-0.1 0z"/>
					</g>
					<g id="&lt;Group&gt;">
						<path id="&lt;Path&gt;" class="s2" d="m121.4 7.9q0 0 0 0c-0.4 0-0.8-0.4-0.7-0.8 0-1.9 0.2-4.8 0.2-5 0-0.4 0.3-0.7 0.7-0.7q0 0 0 0c0.4 0 0.7 0.3 0.7 0.7 0 0.2-0.1 4.3-0.2 5.1 0 0.4-0.3 0.7-0.7 0.7z"/>
					</g>
					<g id="&lt;Group&gt;">
						<path id="&lt;Path&gt;" class="s2" d="m124.1 7.9c-0.3 0-0.7-0.3-0.7-0.7 0-0.6-0.2-5.8-0.2-6.1 0-0.4 0.3-0.7 0.7-0.7 0.4 0 0.8 0.3 0.8 0.7 0 0.2 0.1 3.7 0.2 6 0 0.4-0.3 0.8-0.7 0.8q0 0-0.1 0z"/>
					</g>
					<g id="&lt;Group&gt;">
						<path id="&lt;Path&gt;" class="s2" d="m123.1 7.9c-0.4 0-0.7-0.3-0.7-0.7l-0.4-3.8c-0.1-0.4 0.2-0.8 0.6-0.8 0.4-0.1 0.8 0.2 0.8 0.6l0.4 3.9c0.1 0.4-0.2 0.7-0.6 0.8q0 0-0.1 0z"/>
					</g>
					<g id="&lt;Group&gt;">
						<path id="&lt;Path&gt;" class="s2" d="m126.3 7.9q0 0 0 0c-0.4 0-0.7-0.4-0.7-0.8 0.1-1.9 0.2-4.8 0.2-5 0-0.4 0.3-0.7 0.7-0.7q0.1 0 0.1 0c0.4 0 0.7 0.3 0.7 0.7 0 0.2-0.2 4.3-0.2 5.1 0 0.4-0.4 0.7-0.8 0.7z"/>
					</g>
					<g id="&lt;Group&gt;">
						<path id="&lt;Path&gt;" class="s2" d="m129.1 7.9c-0.4 0-0.7-0.3-0.7-0.7-0.1-0.6-0.3-5.8-0.3-6.1 0-0.4 0.4-0.7 0.8-0.7 0.4 0 0.7 0.3 0.7 0.7 0 0.2 0.1 3.7 0.2 6 0 0.4-0.3 0.8-0.7 0.8q0 0 0 0z"/>
					</g>
					<g id="&lt;Group&gt;">
						<path id="&lt;Path&gt;" class="s2" d="m115.6 7.9c-0.3 0-0.6-0.2-0.7-0.5l-1.7-3.8c-0.1-0.4 0.1-0.8 0.4-1 0.4-0.1 0.8 0 1 0.4l0.7 1.7 0.7-3c0.1-0.3 0.5-0.6 0.9-0.5 0.4 0.1 0.6 0.5 0.5 0.9l-1.1 5.2c-0.1 0.3-0.4 0.5-0.7 0.6q0 0 0 0z"/>
					</g>
				</g>
				<g id="&lt;Group&gt;">
					<path id="&lt;Path&gt;" class="s2" d="m131.5 7.9c-0.4 0-0.7-0.3-0.8-0.7 0-0.6-0.2-5.8-0.2-6.1 0-0.4 0.4-0.7 0.8-0.7 0.4 0 0.7 0.3 0.7 0.7 0 0.2 0.1 3.7 0.2 6 0 0.4-0.3 0.8-0.7 0.8q0 0 0 0z"/>
				</g>
				<g id="&lt;Group&gt;">
					<path id="&lt;Path&gt;" class="s2" d="m130.4 7.9c-0.3 0-0.6-0.3-0.7-0.7l-0.4-3.8c-0.1-0.4 0.2-0.8 0.6-0.8 0.4-0.1 0.8 0.2 0.9 0.6l0.4 3.9c0 0.4-0.3 0.7-0.7 0.8q0 0-0.1 0z"/>
				</g>
				<g id="&lt;Group&gt;">
					<path id="&lt;Path&gt;" class="s2" d="m133.7 7.9q0 0-0.1 0c-0.4 0-0.7-0.4-0.7-0.8 0.1-1.9 0.2-4.8 0.2-5 0.1-0.4 0.4-0.7 0.8-0.7q0 0 0 0c0.4 0 0.7 0.3 0.7 0.7 0 0.2-0.2 4.3-0.2 5.1 0 0.4-0.3 0.7-0.7 0.7z"/>
				</g>
				<g id="&lt;Group&gt;">
					<path id="&lt;Path&gt;" class="s2" d="m136.4 7.9c-0.4 0-0.7-0.3-0.7-0.7 0-0.6-0.2-5.8-0.2-6.1 0-0.4 0.3-0.7 0.7-0.7 0.4 0 0.7 0.3 0.7 0.7 0 0.2 0.2 3.7 0.3 6 0 0.4-0.3 0.8-0.8 0.8q0 0 0 0z"/>
				</g>
				<g id="&lt;Group&gt;">
					<g id="&lt;Group&gt;">
						<path id="&lt;Path&gt;" class="s2" d="m137.7 7.9q0 0 0 0c-0.3 0-0.6-0.2-0.7-0.5 0-0.1-0.6-1.5-0.8-2.5-0.2-0.4 0.1-0.8 0.5-0.9 0.4-0.1 0.8 0.1 0.9 0.5q0.1 0.4 0.2 0.8l1.6-3.3c0.2-0.3 0.6-0.5 1-0.3 0.4 0.2 0.5 0.6 0.3 1l-2.3 4.8c-0.2 0.2-0.4 0.4-0.7 0.4z"/>
					</g>
					<g id="&lt;Group&gt;">
						<path id="&lt;Path&gt;" class="s2" d="m141 7.9c-0.4 0-0.7-0.3-0.7-0.7l-0.4-3.8c-0.1-0.4 0.2-0.8 0.6-0.8 0.4-0.1 0.8 0.2 0.8 0.6l0.4 3.9c0.1 0.4-0.2 0.7-0.6 0.8q-0.1 0-0.1 0z"/>
					</g>
					<g id="&lt;Group&gt;">
						<path id="&lt;Path&gt;" class="s2" d="m144.2 7.9q0 0 0 0c-0.4 0-0.7-0.4-0.7-0.8 0.1-1.9 0.2-4.8 0.2-5 0-0.4 0.3-0.7 0.7-0.7q0 0 0 0c0.5 0 0.8 0.3 0.8 0.7 0 0.2-0.2 4.3-0.2 5.1 0 0.4-0.4 0.7-0.8 0.7z"/>
					</g>
					<g id="&lt;Group&gt;">
						<path id="&lt;Path&gt;" class="s2" d="m147 7.9c-0.4 0-0.7-0.3-0.7-0.7-0.1-0.6-0.3-5.8-0.3-6.1 0-0.4 0.4-0.7 0.8-0.7 0.4 0 0.7 0.3 0.7 0.7 0 0.2 0.1 3.7 0.2 6 0 0.4-0.3 0.8-0.7 0.8q0 0 0 0z"/>
					</g>
					<g id="&lt;Group&gt;">
						<path id="&lt;Path&gt;" class="s2" d="m152.7 7.9c-0.4 0-0.7-0.3-0.8-0.7l-0.4-3.8c0-0.4 0.3-0.8 0.7-0.8 0.4-0.1 0.7 0.2 0.8 0.6l0.4 3.9c0 0.4-0.2 0.7-0.7 0.8q0 0 0 0z"/>
					</g>
					<g id="&lt;Group&gt;">
						<path id="&lt;Path&gt;" class="s2" d="m155.9 7.9q0 0 0 0c-0.4 0-0.8-0.4-0.7-0.8 0-1.9 0.2-4.8 0.2-5 0-0.4 0.3-0.7 0.7-0.7q0 0 0 0c0.4 0 0.7 0.3 0.7 0.7 0 0.2-0.1 4.3-0.2 5.1 0 0.4-0.3 0.7-0.7 0.7z"/>
					</g>
					<g id="&lt;Group&gt;">
						<path id="&lt;Path&gt;" class="s2" d="m158.6 7.9c-0.3 0-0.7-0.3-0.7-0.7 0-0.6-0.2-5.8-0.2-6.1 0-0.4 0.3-0.7 0.7-0.7 0.4 0 0.8 0.3 0.8 0.7 0 0.2 0.1 3.7 0.2 6 0 0.4-0.3 0.8-0.7 0.8q0 0-0.1 0z"/>
					</g>
					<g id="&lt;Group&gt;">
						<path id="&lt;Path&gt;" class="s2" d="m157.6 7.9c-0.4 0-0.7-0.3-0.7-0.7l-0.4-3.8c-0.1-0.4 0.2-0.8 0.6-0.8 0.4-0.1 0.8 0.2 0.8 0.6l0.4 3.9c0.1 0.4-0.2 0.7-0.6 0.8q-0.1 0-0.1 0z"/>
					</g>
					<g id="&lt;Group&gt;">
						<path id="&lt;Path&gt;" class="s2" d="m160.8 7.9q0 0 0 0c-0.4 0-0.7-0.4-0.7-0.8 0.1-1.9 0.2-4.8 0.2-5 0-0.4 0.3-0.7 0.7-0.7q0 0 0 0c0.5 0 0.8 0.3 0.8 0.7 0 0.2-0.2 4.3-0.2 5.1 0 0.4-0.4 0.7-0.8 0.7z"/>
					</g>
					<g id="&lt;Group&gt;">
						<path id="&lt;Path&gt;" class="s2" d="m163.6 7.9c-0.4 0-0.7-0.3-0.8-0.7 0-0.6-0.2-5.8-0.2-6.1 0-0.4 0.4-0.7 0.8-0.7 0.4 0 0.7 0.3 0.7 0.7 0 0.2 0.1 3.7 0.2 6 0 0.4-0.3 0.8-0.7 0.8q0 0 0 0z"/>
					</g>
					<g id="&lt;Group&gt;">
						<path id="&lt;Path&gt;" class="s2" d="m150.1 7.9c-0.3 0-0.6-0.2-0.7-0.5l-1.7-3.8c-0.1-0.4 0.1-0.8 0.4-1 0.4-0.1 0.8 0 1 0.4l0.7 1.7 0.7-3c0.1-0.3 0.5-0.6 0.9-0.5 0.4 0.1 0.6 0.5 0.5 0.9l-1.1 5.2c-0.1 0.3-0.4 0.5-0.7 0.6q0 0 0 0z"/>
					</g>
				</g>
				<g id="&lt;Group&gt;">
					<path id="&lt;Path&gt;" class="s2" d="m166 7.9c-0.4 0-0.7-0.3-0.8-0.7 0-0.6-0.2-5.8-0.2-6.1 0-0.4 0.4-0.7 0.8-0.7 0.4 0 0.7 0.3 0.7 0.7 0 0.2 0.1 3.7 0.2 6 0 0.4-0.3 0.8-0.7 0.8q0 0 0 0z"/>
				</g>
				<g id="&lt;Group&gt;">
					<path id="&lt;Path&gt;" class="s2" d="m164.9 7.9c-0.3 0-0.6-0.3-0.7-0.7l-0.4-3.8c-0.1-0.4 0.2-0.8 0.6-0.8 0.4-0.1 0.8 0.2 0.8 0.6l0.5 3.9c0 0.4-0.3 0.7-0.7 0.8q0 0-0.1 0z"/>
				</g>
				<g id="&lt;Group&gt;">
					<path id="&lt;Path&gt;" class="s2" d="m168.2 7.9q0 0-0.1 0c-0.4 0-0.7-0.4-0.7-0.8 0.1-1.9 0.2-4.8 0.2-5 0-0.4 0.4-0.7 0.8-0.7q0 0 0 0c0.4 0 0.7 0.3 0.7 0.7 0 0.2-0.2 4.3-0.2 5.1 0 0.4-0.3 0.7-0.7 0.7z"/>
				</g>
				<g id="&lt;Group&gt;">
					<path id="&lt;Path&gt;" class="s2" d="m170.9 7.9c-0.4 0-0.7-0.3-0.7-0.7 0-0.6-0.2-5.8-0.2-6.1 0-0.4 0.3-0.7 0.7-0.7 0.4 0 0.7 0.3 0.7 0.7 0 0.2 0.2 3.7 0.3 6 0 0.4-0.3 0.8-0.8 0.8q0 0 0 0z"/>
				</g>
				<g id="&lt;Group&gt;">
					<g id="&lt;Group&gt;">
						<path id="&lt;Path&gt;" class="s2" d="m172.2 7.9q0 0 0 0c-0.3 0-0.6-0.2-0.7-0.5 0-0.1-0.6-1.5-0.9-2.5-0.1-0.4 0.2-0.8 0.6-0.9 0.3-0.1 0.8 0.1 0.9 0.5q0.1 0.4 0.2 0.8l1.6-3.3c0.2-0.3 0.6-0.5 1-0.3 0.4 0.2 0.5 0.6 0.3 1l-2.3 4.8c-0.2 0.2-0.4 0.4-0.7 0.4z"/>
					</g>
					<g id="&lt;Group&gt;">
						<path id="&lt;Path&gt;" class="s2" d="m175.5 7.9c-0.4 0-0.7-0.3-0.7-0.7l-0.4-3.8c-0.1-0.4 0.2-0.8 0.6-0.8 0.4-0.1 0.8 0.2 0.8 0.6l0.4 3.9c0.1 0.4-0.2 0.7-0.6 0.8q-0.1 0-0.1 0z"/>
					</g>
					<g id="&lt;Group&gt;">
						<path id="&lt;Path&gt;" class="s2" d="m178.7 7.9q0 0 0 0c-0.4 0-0.7-0.4-0.7-0.8 0.1-1.9 0.2-4.8 0.2-5 0-0.4 0.3-0.7 0.7-0.7q0 0 0 0c0.5 0 0.8 0.3 0.8 0.7 0 0.2-0.2 4.3-0.2 5.1-0.1 0.4-0.4 0.7-0.8 0.7z"/>
					</g>
					<g id="&lt;Group&gt;">
						<path id="&lt;Path&gt;" class="s2" d="m181.5 7.9c-0.4 0-0.7-0.3-0.8-0.7 0-0.6-0.2-5.8-0.2-6.1 0-0.4 0.4-0.7 0.8-0.7 0.4 0 0.7 0.3 0.7 0.7 0 0.2 0.1 3.7 0.2 6 0 0.4-0.3 0.8-0.7 0.8q0 0 0 0z"/>
					</g>
					<g id="&lt;Group&gt;">
						<path id="&lt;Path&gt;" class="s2" d="m187.2 7.9c-0.4 0-0.7-0.3-0.8-0.7l-0.4-3.8c0-0.4 0.3-0.8 0.7-0.8 0.4-0.1 0.7 0.2 0.8 0.6l0.4 3.9c0 0.4-0.3 0.7-0.7 0.8q0 0 0 0z"/>
					</g>
					<g id="&lt;Group&gt;">
						<path id="&lt;Path&gt;" class="s2" d="m190.4 7.9q0 0 0 0c-0.4 0-0.8-0.4-0.7-0.8 0-1.9 0.2-4.8 0.2-5 0-0.4 0.3-0.7 0.7-0.7q0 0 0 0c0.4 0 0.7 0.3 0.7 0.7 0 0.2-0.1 4.3-0.2 5.1 0 0.4-0.3 0.7-0.7 0.7z"/>
					</g>
					<g id="&lt;Group&gt;">
						<path id="&lt;Path&gt;" class="s2" d="m193.1 7.9c-0.4 0-0.7-0.3-0.7-0.7 0-0.6-0.2-5.8-0.2-6.1 0-0.4 0.3-0.7 0.7-0.7 0.4 0 0.8 0.3 0.8 0.7 0 0.2 0.1 3.7 0.2 6 0 0.4-0.3 0.8-0.7 0.8q0 0-0.1 0z"/>
					</g>
					<g id="&lt;Group&gt;">
						<path id="&lt;Path&gt;" class="s2" d="m192.1 7.9c-0.4 0-0.7-0.3-0.7-0.7l-0.5-3.8c0-0.4 0.3-0.8 0.7-0.8 0.4-0.1 0.8 0.2 0.8 0.6l0.4 3.9c0.1 0.4-0.2 0.7-0.6 0.8q-0.1 0-0.1 0z"/>
					</g>
					<g id="&lt;Group&gt;">
						<path id="&lt;Path&gt;" class="s2" d="m195.3 7.9q0 0 0 0c-0.4 0-0.7-0.4-0.7-0.8 0.1-1.9 0.2-4.8 0.2-5 0-0.4 0.3-0.7 0.7-0.7q0 0 0 0c0.4 0 0.8 0.3 0.8 0.7 0 0.2-0.2 4.3-0.2 5.1-0.1 0.4-0.4 0.7-0.8 0.7z"/>
					</g>
					<g id="&lt;Group&gt;">
						<path id="&lt;Path&gt;" class="s2" d="m184.5 7.9c-0.2 0-0.5-0.2-0.6-0.5l-1.7-3.8c-0.1-0.4 0-0.8 0.4-1 0.4-0.1 0.8 0 1 0.4l0.7 1.7 0.7-3c0.1-0.3 0.5-0.6 0.9-0.5 0.4 0.1 0.6 0.5 0.5 0.9l-1.1 5.2c-0.1 0.3-0.4 0.5-0.7 0.6q0 0-0.1 0z"/>
					</g>
				</g>
			</g>
			<g id="&lt;Group&gt;">
				<g id="&lt;Group&gt;">
					<path id="&lt;Path&gt;" class="s2" d="m192.4 132q-0.1 0-0.3-0.1c-0.4-0.2-0.5-0.6-0.3-1l2.3-4.8c0.2-0.2 0.4-0.4 0.7-0.4 0.3 0 0.6 0.2 0.7 0.5 0 0 0.6 1.5 0.9 2.5 0.1 0.4-0.2 0.8-0.6 0.9-0.3 0.1-0.8-0.1-0.9-0.5q-0.1-0.4-0.2-0.8l-1.6 3.3c-0.2 0.2-0.4 0.4-0.7 0.4z"/>
				</g>
				<g id="&lt;Group&gt;">
					<path id="&lt;Path&gt;" class="s2" d="m191.9 131c-0.3 0-0.7-0.2-0.7-0.6l-0.4-3.9c-0.1-0.4 0.2-0.7 0.6-0.8 0.4 0 0.8 0.3 0.8 0.7l0.5 3.8c0 0.4-0.3 0.8-0.7 0.8q0 0-0.1 0z"/>
				</g>
				<g id="&lt;Group&gt;">
					<path id="&lt;Path&gt;" class="s2" d="m188.1 132.2q0 0 0 0c-0.4 0-0.8-0.3-0.8-0.7 0-0.2 0.2-4.3 0.2-5.1 0.1-0.4 0.4-0.7 0.8-0.7 0.4 0 0.7 0.4 0.7 0.8-0.1 1.9-0.2 4.8-0.2 5 0 0.4-0.3 0.7-0.7 0.7z"/>
				</g>
				<g id="&lt;Group&gt;">
					<path id="&lt;Path&gt;" class="s2" d="m185.7 133.2c-0.4 0-0.7-0.3-0.7-0.7 0-0.2-0.1-3.7-0.2-6 0-0.4 0.3-0.8 0.7-0.8 0.4 0 0.7 0.3 0.8 0.7 0 0.6 0.2 5.8 0.2 6.1 0 0.4-0.4 0.7-0.8 0.7z"/>
				</g>
				<g id="&lt;Group&gt;">
					<path id="&lt;Path&gt;" class="s2" d="m180.3 131c-0.4 0-0.7-0.2-0.8-0.6l-0.4-3.9c0-0.4 0.3-0.7 0.7-0.8 0.4 0 0.7 0.3 0.8 0.7l0.4 3.8c0 0.4-0.3 0.8-0.7 0.8q0 0 0 0z"/>
				</g>
				<g id="&lt;Group&gt;">
					<path id="&lt;Path&gt;" class="s2" d="m176.4 132.2q0 0 0 0c-0.4 0-0.7-0.3-0.7-0.7 0-0.2 0.1-4.3 0.2-5.1 0-0.4 0.3-0.7 0.7-0.7 0.4 0 0.8 0.4 0.7 0.8 0 1.9-0.2 4.8-0.2 5 0 0.4-0.3 0.7-0.7 0.7z"/>
				</g>
				<g id="&lt;Group&gt;">
					<path id="&lt;Path&gt;" class="s2" d="m174.1 133.2c-0.4 0-0.8-0.3-0.8-0.7 0-0.2-0.1-3.7-0.2-6 0-0.4 0.3-0.8 0.7-0.8 0.4 0 0.8 0.3 0.8 0.7 0 0.6 0.2 5.8 0.2 6.1 0 0.4-0.3 0.7-0.7 0.7z"/>
				</g>
				<g id="&lt;Group&gt;">
					<path id="&lt;Path&gt;" class="s2" d="m175.3 131c-0.3 0-0.7-0.2-0.7-0.6l-0.4-3.9c-0.1-0.4 0.2-0.7 0.6-0.8 0.4 0 0.8 0.3 0.8 0.7l0.5 3.8c0 0.4-0.3 0.8-0.7 0.8q0 0-0.1 0z"/>
				</g>
				<g id="&lt;Group&gt;">
					<path id="&lt;Path&gt;" class="s2" d="m171.5 132.2q0 0 0 0c-0.4 0-0.8-0.3-0.8-0.7 0-0.2 0.2-4.3 0.2-5.1 0.1-0.4 0.4-0.7 0.8-0.7 0.4 0 0.7 0.4 0.7 0.8-0.1 1.9-0.2 4.8-0.2 5 0 0.4-0.3 0.7-0.7 0.7z"/>
				</g>
				<g id="&lt;Group&gt;">
					<path id="&lt;Path&gt;" class="s2" d="m169.1 133.2c-0.4 0-0.7-0.3-0.7-0.7 0-0.2-0.1-3.7-0.2-6 0-0.4 0.3-0.8 0.7-0.8 0.4 0 0.7 0.3 0.8 0.7 0 0.6 0.2 5.8 0.2 6.1 0 0.4-0.4 0.7-0.8 0.7z"/>
				</g>
				<g id="&lt;Group&gt;">
					<path id="&lt;Path&gt;" class="s2" d="m181.3 132.4q-0.1 0-0.2 0c-0.4-0.1-0.6-0.5-0.5-0.9l1.1-5.2c0.1-0.3 0.4-0.5 0.7-0.6 0.3 0 0.6 0.2 0.7 0.5l1.7 3.8c0.1 0.4 0 0.8-0.4 1-0.4 0.1-0.8 0-1-0.4l-0.7-1.7-0.7 2.9c-0.1 0.4-0.4 0.6-0.7 0.6z"/>
				</g>
				<g id="&lt;Group&gt;">
					<g id="&lt;Group&gt;">
						<path id="&lt;Path&gt;" class="s2" d="m165.3 132q-0.2 0-0.4-0.1c-0.3-0.2-0.5-0.6-0.3-1l2.4-4.8c0.1-0.2 0.4-0.4 0.7-0.4 0.3 0 0.5 0.2 0.6 0.5 0 0 0.6 1.5 0.9 2.5 0.1 0.4-0.1 0.8-0.5 0.9-0.4 0.1-0.8-0.1-0.9-0.5q-0.1-0.4-0.3-0.8l-1.6 3.3c-0.1 0.2-0.4 0.4-0.6 0.4z"/>
					</g>
					<g id="&lt;Group&gt;">
						<path id="&lt;Path&gt;" class="s2" d="m164.8 131c-0.4 0-0.7-0.2-0.8-0.6l-0.4-3.9c0-0.4 0.3-0.7 0.7-0.8 0.4 0 0.7 0.3 0.8 0.7l0.4 3.8c0 0.4-0.3 0.8-0.7 0.8q0 0 0 0z"/>
					</g>
					<g id="&lt;Group&gt;">
						<path id="&lt;Path&gt;" class="s2" d="m160.9 132.2q0 0 0 0c-0.4 0-0.7-0.3-0.7-0.7 0-0.2 0.1-4.3 0.2-5.1 0-0.4 0.3-0.7 0.7-0.7 0.4 0 0.8 0.4 0.7 0.8 0 1.9-0.2 4.8-0.2 5 0 0.4-0.3 0.7-0.7 0.7z"/>
					</g>
					<g id="&lt;Group&gt;">
						<path id="&lt;Path&gt;" class="s2" d="m158.6 133.2c-0.4 0-0.8-0.3-0.8-0.7 0-0.2-0.1-3.7-0.2-6 0-0.4 0.3-0.8 0.7-0.8 0.4 0 0.8 0.3 0.8 0.7 0 0.6 0.2 5.8 0.2 6.1 0 0.4-0.3 0.7-0.7 0.7z"/>
					</g>
					<g id="&lt;Group&gt;">
						<path id="&lt;Path&gt;" class="s2" d="m153.1 131c-0.4 0-0.7-0.2-0.7-0.6l-0.5-3.9c0-0.4 0.3-0.7 0.7-0.8 0.4 0 0.8 0.3 0.8 0.7l0.4 3.8c0.1 0.4-0.2 0.8-0.6 0.8q-0.1 0-0.1 0z"/>
					</g>
					<g id="&lt;Group&gt;">
						<path id="&lt;Path&gt;" class="s2" d="m149.2 132.2q0 0 0 0c-0.4 0-0.7-0.3-0.7-0.7 0-0.2 0.2-4.3 0.2-5.1 0-0.4 0.4-0.7 0.8-0.7 0.4 0 0.7 0.4 0.7 0.8-0.1 1.9-0.2 4.8-0.2 5 0 0.4-0.4 0.7-0.8 0.7z"/>
					</g>
					<g id="&lt;Group&gt;">
						<path id="&lt;Path&gt;" class="s2" d="m146.9 133.2c-0.4 0-0.7-0.3-0.7-0.7 0-0.2-0.2-3.7-0.2-6-0.1-0.4 0.3-0.8 0.7-0.8 0.4 0 0.7 0.3 0.7 0.7 0.1 0.6 0.2 5.8 0.2 6.1 0 0.4-0.3 0.7-0.7 0.7z"/>
					</g>
					<g id="&lt;Group&gt;">
						<path id="&lt;Path&gt;" class="s2" d="m148.2 131c-0.4 0-0.7-0.2-0.8-0.6l-0.4-3.9c0-0.4 0.3-0.7 0.7-0.8 0.4 0 0.7 0.3 0.8 0.7l0.4 3.8c0 0.4-0.3 0.8-0.7 0.8q0 0 0 0z"/>
					</g>
					<g id="&lt;Group&gt;">
						<path id="&lt;Path&gt;" class="s2" d="m144.3 132.2q0 0 0 0c-0.4 0-0.7-0.3-0.7-0.7 0-0.2 0.1-4.3 0.2-5.1 0-0.4 0.3-0.7 0.7-0.7 0.4 0 0.8 0.4 0.7 0.8 0 1.9-0.2 4.8-0.2 5 0 0.4-0.3 0.7-0.7 0.7z"/>
					</g>
					<g id="&lt;Group&gt;">
						<path id="&lt;Path&gt;" class="s2" d="m142 133.2c-0.4 0-0.8-0.3-0.8-0.7 0-0.2-0.1-3.7-0.2-6 0-0.4 0.3-0.8 0.7-0.8 0.4 0 0.8 0.3 0.8 0.7 0 0.6 0.2 5.8 0.2 6.1 0 0.4-0.3 0.7-0.7 0.7z"/>
					</g>
					<g id="&lt;Group&gt;">
						<path id="&lt;Path&gt;" class="s2" d="m154.1 132.4q-0.1 0-0.1 0c-0.4-0.1-0.7-0.5-0.6-0.9l1.2-5.2c0-0.3 0.3-0.5 0.6-0.6 0.3 0 0.6 0.2 0.8 0.5l1.6 3.8c0.2 0.4 0 0.8-0.4 1-0.4 0.1-0.8 0-0.9-0.4l-0.8-1.7-0.7 2.9c0 0.4-0.3 0.6-0.7 0.6z"/>
					</g>
				</g>
				<g id="&lt;Group&gt;">
					<path id="&lt;Path&gt;" class="s2" d="m139.6 133.2c-0.4 0-0.8-0.3-0.8-0.7 0-0.2-0.1-3.7-0.2-6 0-0.4 0.3-0.8 0.7-0.8 0.4 0 0.8 0.3 0.8 0.7 0 0.6 0.2 5.8 0.2 6.1 0 0.4-0.3 0.7-0.7 0.7z"/>
				</g>
				<g id="&lt;Group&gt;">
					<path id="&lt;Path&gt;" class="s2" d="m140.8 131c-0.3 0-0.7-0.2-0.7-0.6l-0.4-3.9c-0.1-0.4 0.2-0.7 0.6-0.8 0.4 0 0.8 0.3 0.8 0.7l0.5 3.8c0 0.4-0.3 0.8-0.7 0.8q0 0-0.1 0z"/>
				</g>
				<g id="&lt;Group&gt;">
					<path id="&lt;Path&gt;" class="s2" d="m137 132.2q0 0 0 0c-0.4 0-0.8-0.3-0.8-0.7 0-0.2 0.2-4.3 0.2-5.1 0.1-0.4 0.4-0.7 0.8-0.7 0.4 0 0.7 0.4 0.7 0.8-0.1 1.9-0.2 4.8-0.2 5 0 0.4-0.3 0.7-0.7 0.7z"/>
				</g>
				<g id="&lt;Group&gt;">
					<path id="&lt;Path&gt;" class="s2" d="m134.6 133.2c-0.4 0-0.7-0.3-0.7-0.7 0-0.2-0.1-3.7-0.2-6 0-0.4 0.3-0.8 0.7-0.8 0.4 0 0.7 0.3 0.8 0.7 0 0.6 0.2 5.8 0.2 6.1 0 0.4-0.4 0.7-0.8 0.7z"/>
				</g>
				<g id="&lt;Group&gt;">
					<g id="&lt;Group&gt;">
						<path id="&lt;Path&gt;" class="s2" d="m130.8 132q-0.2 0-0.4-0.1c-0.3-0.2-0.5-0.6-0.3-1l2.4-4.8c0.1-0.2 0.4-0.4 0.7-0.4 0.3 0 0.5 0.2 0.6 0.5 0 0 0.6 1.5 0.9 2.5 0.1 0.4-0.1 0.8-0.5 0.9-0.4 0.1-0.8-0.1-0.9-0.5q-0.1-0.4-0.3-0.8l-1.6 3.3c-0.1 0.2-0.4 0.4-0.6 0.4z"/>
					</g>
					<g id="&lt;Group&gt;">
						<path id="&lt;Path&gt;" class="s2" d="m130.3 131c-0.4 0-0.7-0.2-0.8-0.6l-0.4-3.9c0-0.4 0.3-0.7 0.7-0.8 0.4 0 0.7 0.3 0.8 0.7l0.4 3.8c0 0.4-0.3 0.8-0.7 0.8q0 0 0 0z"/>
					</g>
					<g id="&lt;Group&gt;">
						<path id="&lt;Path&gt;" class="s2" d="m126.4 132.2q0 0 0 0c-0.4 0-0.7-0.3-0.7-0.7 0-0.2 0.1-4.3 0.2-5.1 0-0.4 0.4-0.7 0.7-0.7 0.5 0 0.8 0.4 0.7 0.8 0 1.9-0.2 4.8-0.2 5 0 0.4-0.3 0.7-0.7 0.7z"/>
					</g>
					<g id="&lt;Group&gt;">
						<path id="&lt;Path&gt;" class="s2" d="m124.1 133.2c-0.4 0-0.8-0.3-0.8-0.7 0-0.2-0.1-3.7-0.2-6 0-0.4 0.3-0.8 0.7-0.8 0.4 0 0.8 0.3 0.8 0.7 0 0.6 0.2 5.8 0.2 6.1 0 0.4-0.3 0.7-0.7 0.7z"/>
					</g>
					<g id="&lt;Group&gt;">
						<path id="&lt;Path&gt;" class="s2" d="m118.6 131c-0.4 0-0.7-0.2-0.7-0.6l-0.5-3.9c0-0.4 0.3-0.7 0.7-0.8 0.4 0 0.8 0.3 0.8 0.7l0.4 3.8c0.1 0.4-0.2 0.8-0.6 0.8q-0.1 0-0.1 0z"/>
					</g>
					<g id="&lt;Group&gt;">
						<path id="&lt;Path&gt;" class="s2" d="m114.7 132.2q0 0 0 0c-0.4 0-0.7-0.3-0.7-0.7 0-0.2 0.2-4.3 0.2-5.1 0-0.4 0.4-0.7 0.8-0.7 0.4 0 0.7 0.4 0.7 0.8-0.1 1.9-0.2 4.8-0.2 5 0 0.4-0.4 0.7-0.8 0.7z"/>
					</g>
					<g id="&lt;Group&gt;">
						<path id="&lt;Path&gt;" class="s2" d="m112.4 133.2c-0.4 0-0.7-0.3-0.7-0.7 0-0.2-0.1-3.7-0.2-6 0-0.4 0.3-0.8 0.7-0.8 0.4 0 0.7 0.3 0.7 0.7 0.1 0.6 0.2 5.8 0.2 6.1 0 0.4-0.3 0.7-0.7 0.7z"/>
					</g>
					<g id="&lt;Group&gt;">
						<path id="&lt;Path&gt;" class="s2" d="m113.7 131c-0.4 0-0.7-0.2-0.8-0.6l-0.4-3.9c0-0.4 0.3-0.7 0.7-0.8 0.4 0 0.7 0.3 0.8 0.7l0.4 3.8c0 0.4-0.3 0.8-0.7 0.8q0 0 0 0z"/>
					</g>
					<g id="&lt;Group&gt;">
						<path id="&lt;Path&gt;" class="s2" d="m109.8 132.2q0 0 0 0c-0.4 0-0.7-0.3-0.7-0.7 0-0.2 0.1-4.3 0.2-5.1 0-0.4 0.4-0.7 0.7-0.7 0.5 0 0.8 0.4 0.7 0.8 0 1.9-0.2 4.8-0.2 5 0 0.4-0.3 0.7-0.7 0.7z"/>
					</g>
					<g id="&lt;Group&gt;">
						<path id="&lt;Path&gt;" class="s2" d="m107.5 133.2c-0.4 0-0.8-0.3-0.8-0.7 0-0.2-0.1-3.7-0.2-6 0-0.4 0.3-0.8 0.7-0.8 0.4 0 0.8 0.3 0.8 0.7 0 0.6 0.2 5.8 0.2 6.1 0 0.4-0.3 0.7-0.7 0.7z"/>
					</g>
					<g id="&lt;Group&gt;">
						<path id="&lt;Path&gt;" class="s2" d="m119.6 132.4q0 0-0.1 0c-0.4-0.1-0.7-0.5-0.6-0.9l1.2-5.2c0-0.3 0.3-0.5 0.6-0.6 0.4 0 0.6 0.2 0.8 0.5l1.6 3.8c0.2 0.4 0 0.8-0.4 1-0.4 0.1-0.8 0-0.9-0.4l-0.8-1.7-0.7 2.9c0 0.4-0.3 0.6-0.7 0.6z"/>
					</g>
				</g>
				<g id="&lt;Group&gt;">
					<path id="&lt;Path&gt;" class="s2" d="m105.1 133.2c-0.4 0-0.8-0.3-0.8-0.7 0-0.2-0.1-3.7-0.2-6 0-0.4 0.3-0.8 0.7-0.8 0.4 0 0.8 0.3 0.8 0.7 0 0.6 0.2 5.8 0.2 6.1 0 0.4-0.3 0.7-0.7 0.7z"/>
				</g>
				<g id="&lt;Group&gt;">
					<path id="&lt;Path&gt;" class="s2" d="m106.3 131c-0.3 0-0.7-0.2-0.7-0.6l-0.4-3.9c-0.1-0.4 0.2-0.7 0.6-0.8 0.4 0 0.8 0.3 0.8 0.7l0.5 3.8c0 0.4-0.3 0.8-0.7 0.8q0 0-0.1 0z"/>
				</g>
				<g id="&lt;Group&gt;">
					<path id="&lt;Path&gt;" class="s2" d="m102.5 132.2q0 0 0 0c-0.4 0-0.8-0.3-0.8-0.7 0-0.2 0.2-4.3 0.2-5.1 0.1-0.4 0.4-0.7 0.8-0.7 0.4 0 0.7 0.4 0.7 0.8-0.1 1.9-0.2 4.8-0.2 5 0 0.4-0.3 0.7-0.7 0.7z"/>
				</g>
				<g id="&lt;Group&gt;">
					<path id="&lt;Path&gt;" class="s2" d="m100.1 133.2c-0.4 0-0.7-0.3-0.7-0.7 0-0.2-0.1-3.7-0.2-6 0-0.4 0.3-0.8 0.7-0.8 0.4 0 0.7 0.3 0.8 0.7 0 0.6 0.2 5.8 0.2 6.1 0 0.4-0.4 0.7-0.8 0.7z"/>
				</g>
				<g id="&lt;Group&gt;">
					<g id="&lt;Group&gt;">
						<path id="&lt;Path&gt;" class="s2" d="m96.3 132q-0.2 0-0.4-0.1c-0.3-0.2-0.5-0.6-0.3-1l2.4-4.8c0.1-0.2 0.4-0.4 0.7-0.4 0.3 0 0.5 0.2 0.6 0.5 0.1 0 0.6 1.5 0.9 2.5 0.1 0.4-0.1 0.8-0.5 0.9-0.4 0.1-0.8-0.1-0.9-0.5q-0.1-0.4-0.3-0.8l-1.6 3.3c-0.1 0.2-0.4 0.4-0.6 0.4z"/>
					</g>
					<g id="&lt;Group&gt;">
						<path id="&lt;Path&gt;" class="s2" d="m95.8 131c-0.4 0-0.7-0.2-0.8-0.6l-0.4-3.9c0-0.4 0.3-0.7 0.7-0.8 0.4 0 0.7 0.3 0.8 0.7l0.4 3.8c0 0.4-0.2 0.8-0.7 0.8q0 0 0 0z"/>
					</g>
					<g id="&lt;Group&gt;">
						<path id="&lt;Path&gt;" class="s2" d="m91.9 132.2q0 0 0 0c-0.4 0-0.7-0.3-0.7-0.7 0-0.2 0.1-4.3 0.2-5.1 0-0.4 0.3-0.7 0.7-0.7 0.5 0 0.8 0.4 0.8 0.8-0.1 1.9-0.3 4.8-0.3 5 0 0.4-0.3 0.7-0.7 0.7z"/>
					</g>
					<g id="&lt;Group&gt;">
						<path id="&lt;Path&gt;" class="s2" d="m89.6 133.2c-0.4 0-0.8-0.3-0.8-0.7 0-0.2-0.1-3.7-0.2-6 0-0.4 0.3-0.8 0.7-0.8 0.4 0 0.8 0.3 0.8 0.7 0 0.6 0.2 5.8 0.2 6.1 0 0.4-0.3 0.7-0.7 0.7z"/>
					</g>
					<g id="&lt;Group&gt;">
						<path id="&lt;Path&gt;" class="s2" d="m84.1 131c-0.4 0-0.7-0.2-0.7-0.6l-0.4-3.9c-0.1-0.4 0.2-0.7 0.6-0.8 0.4 0 0.8 0.3 0.8 0.7l0.4 3.8c0.1 0.4-0.2 0.8-0.6 0.8q-0.1 0-0.1 0z"/>
					</g>
					<g id="&lt;Group&gt;">
						<path id="&lt;Path&gt;" class="s2" d="m80.2 132.2q0 0 0 0c-0.4 0-0.7-0.3-0.7-0.7 0-0.2 0.2-4.3 0.2-5.1 0-0.4 0.4-0.7 0.8-0.7 0.4 0 0.7 0.4 0.7 0.8-0.1 1.9-0.2 4.8-0.2 5 0 0.4-0.4 0.7-0.8 0.7z"/>
					</g>
					<g id="&lt;Group&gt;">
						<path id="&lt;Path&gt;" class="s2" d="m77.9 133.2c-0.4 0-0.7-0.3-0.7-0.7 0-0.2-0.1-3.7-0.2-6 0-0.4 0.3-0.8 0.7-0.8 0.4 0 0.7 0.3 0.7 0.7 0.1 0.6 0.3 5.8 0.3 6.1 0 0.4-0.4 0.7-0.8 0.7z"/>
					</g>
					<g id="&lt;Group&gt;">
						<path id="&lt;Path&gt;" class="s2" d="m79.2 131c-0.4 0-0.7-0.2-0.8-0.6l-0.4-3.9c0-0.4 0.3-0.7 0.7-0.8 0.4 0 0.7 0.3 0.8 0.7l0.4 3.8c0 0.4-0.2 0.8-0.7 0.8q0 0 0 0z"/>
					</g>
					<g id="&lt;Group&gt;">
						<path id="&lt;Path&gt;" class="s2" d="m75.3 132.2q0 0 0 0c-0.4 0-0.7-0.3-0.7-0.7 0-0.2 0.1-4.3 0.2-5.1 0-0.4 0.3-0.7 0.7-0.7 0.5 0 0.8 0.4 0.8 0.8-0.1 1.9-0.3 4.8-0.3 5 0 0.4-0.3 0.7-0.7 0.7z"/>
					</g>
					<g id="&lt;Group&gt;">
						<path id="&lt;Path&gt;" class="s2" d="m73 133.2c-0.4 0-0.8-0.3-0.8-0.7 0-0.2-0.1-3.7-0.2-6 0-0.4 0.3-0.8 0.7-0.8 0.4 0 0.8 0.3 0.8 0.7 0 0.6 0.2 5.8 0.2 6.1 0 0.4-0.3 0.7-0.7 0.7z"/>
					</g>
					<g id="&lt;Group&gt;">
						<path id="&lt;Path&gt;" class="s2" d="m85.1 132.4q0 0-0.1 0c-0.4-0.1-0.7-0.5-0.6-0.9l1.2-5.2c0.1-0.3 0.3-0.5 0.6-0.6 0.4 0 0.6 0.2 0.8 0.5l1.6 3.8c0.2 0.4 0 0.8-0.4 1-0.3 0.1-0.8 0-0.9-0.4l-0.8-1.7-0.6 2.9c-0.1 0.4-0.4 0.6-0.8 0.6z"/>
					</g>
				</g>
				<g id="&lt;Group&gt;">
					<path id="&lt;Path&gt;" class="s2" d="m70.6 133.2c-0.4 0-0.8-0.3-0.8-0.7 0-0.2-0.1-3.7-0.2-6 0-0.4 0.3-0.8 0.7-0.8 0.4 0 0.8 0.3 0.8 0.7 0 0.6 0.2 5.8 0.2 6.1 0 0.4-0.3 0.7-0.7 0.7z"/>
				</g>
				<g id="&lt;Group&gt;">
					<path id="&lt;Path&gt;" class="s2" d="m71.8 131c-0.3 0-0.7-0.2-0.7-0.6l-0.4-3.9c-0.1-0.4 0.2-0.7 0.6-0.8 0.4 0 0.8 0.3 0.8 0.7l0.5 3.8c0 0.4-0.3 0.8-0.7 0.8q0 0-0.1 0z"/>
				</g>
				<g id="&lt;Group&gt;">
					<path id="&lt;Path&gt;" class="s2" d="m68 132.2q0 0 0 0c-0.4 0-0.8-0.3-0.8-0.7 0-0.2 0.2-4.3 0.2-5.1 0.1-0.4 0.4-0.7 0.8-0.7 0.4 0 0.7 0.4 0.7 0.8-0.1 1.9-0.2 4.8-0.2 5 0 0.4-0.3 0.7-0.7 0.7z"/>
				</g>
				<g id="&lt;Group&gt;">
					<path id="&lt;Path&gt;" class="s2" d="m65.6 133.2c-0.4 0-0.7-0.3-0.7-0.7 0-0.2-0.1-3.7-0.2-6 0-0.4 0.3-0.8 0.7-0.8 0.4 0 0.8 0.3 0.8 0.7 0 0.6 0.2 5.8 0.2 6.1 0 0.4-0.3 0.7-0.8 0.7z"/>
				</g>
				<g id="&lt;Group&gt;">
					<g id="&lt;Group&gt;">
						<path id="&lt;Path&gt;" class="s2" d="m61.8 132q-0.2 0-0.4-0.1c-0.3-0.2-0.5-0.6-0.3-1l2.4-4.8c0.1-0.2 0.4-0.4 0.7-0.4 0.3 0 0.5 0.2 0.6 0.5 0.1 0 0.6 1.5 0.9 2.5 0.1 0.4-0.1 0.8-0.5 0.9-0.4 0.1-0.8-0.1-0.9-0.5q-0.1-0.4-0.3-0.8l-1.6 3.3c-0.1 0.2-0.4 0.4-0.6 0.4z"/>
					</g>
					<g id="&lt;Group&gt;">
						<path id="&lt;Path&gt;" class="s2" d="m61.3 131c-0.4 0-0.7-0.2-0.8-0.6l-0.4-3.9c0-0.4 0.3-0.7 0.7-0.8 0.4 0 0.7 0.3 0.8 0.7l0.4 3.8c0 0.4-0.2 0.8-0.6 0.8q-0.1 0-0.1 0z"/>
					</g>
					<g id="&lt;Group&gt;">
						<path id="&lt;Path&gt;" class="s2" d="m57.4 132.2q0 0 0 0c-0.4 0-0.7-0.3-0.7-0.7 0-0.2 0.2-4.3 0.2-5.1 0-0.4 0.4-0.7 0.8-0.7 0.4 0 0.7 0.4 0.7 0.8-0.1 1.9-0.3 4.8-0.3 5 0 0.4-0.3 0.7-0.7 0.7z"/>
					</g>
					<g id="&lt;Group&gt;">
						<path id="&lt;Path&gt;" class="s2" d="m55.1 133.2c-0.4 0-0.8-0.3-0.8-0.7 0-0.2-0.1-3.7-0.2-6 0-0.4 0.3-0.8 0.7-0.8 0.4 0 0.8 0.3 0.8 0.7 0 0.6 0.2 5.8 0.2 6.1 0 0.4-0.3 0.7-0.7 0.7z"/>
					</g>
					<g id="&lt;Group&gt;">
						<path id="&lt;Path&gt;" class="s2" d="m49.6 131c-0.4 0-0.7-0.2-0.7-0.6l-0.4-3.9c-0.1-0.4 0.2-0.7 0.6-0.8 0.4 0 0.8 0.3 0.8 0.7l0.4 3.8c0.1 0.4-0.2 0.8-0.6 0.8q-0.1 0-0.1 0z"/>
					</g>
					<g id="&lt;Group&gt;">
						<path id="&lt;Path&gt;" class="s2" d="m45.7 132.2q0 0 0 0c-0.4 0-0.7-0.3-0.7-0.7 0-0.2 0.2-4.3 0.2-5.1 0-0.4 0.4-0.7 0.8-0.7 0.4 0 0.7 0.4 0.7 0.8-0.1 1.9-0.2 4.8-0.2 5 0 0.4-0.3 0.7-0.8 0.7z"/>
					</g>
					<g id="&lt;Group&gt;">
						<path id="&lt;Path&gt;" class="s2" d="m43.4 133.2c-0.4 0-0.7-0.3-0.7-0.7 0-0.2-0.1-3.7-0.2-6 0-0.4 0.3-0.8 0.7-0.8 0.4 0 0.7 0.3 0.7 0.7 0.1 0.6 0.3 5.8 0.3 6.1 0 0.4-0.4 0.7-0.8 0.7z"/>
					</g>
					<g id="&lt;Group&gt;">
						<path id="&lt;Path&gt;" class="s2" d="m44.7 131c-0.4 0-0.7-0.2-0.8-0.6l-0.4-3.9c0-0.4 0.3-0.7 0.7-0.8 0.4 0 0.7 0.3 0.8 0.7l0.4 3.8c0 0.4-0.2 0.8-0.6 0.8q-0.1 0-0.1 0z"/>
					</g>
					<g id="&lt;Group&gt;">
						<path id="&lt;Path&gt;" class="s2" d="m40.8 132.2q0 0 0 0c-0.4 0-0.7-0.3-0.7-0.7 0-0.2 0.2-4.3 0.2-5.1 0-0.4 0.4-0.7 0.8-0.7 0.4 0 0.7 0.4 0.7 0.8-0.1 1.9-0.3 4.8-0.3 5 0 0.4-0.3 0.7-0.7 0.7z"/>
					</g>
					<g id="&lt;Group&gt;">
						<path id="&lt;Path&gt;" class="s2" d="m38.5 133.2c-0.4 0-0.8-0.3-0.8-0.7 0-0.2-0.1-3.7-0.2-6 0-0.4 0.3-0.8 0.7-0.8 0.4 0 0.8 0.3 0.8 0.7 0 0.6 0.2 5.8 0.2 6.1 0 0.4-0.3 0.7-0.7 0.7z"/>
					</g>
					<g id="&lt;Group&gt;">
						<path id="&lt;Path&gt;" class="s2" d="m50.6 132.4q0 0-0.1 0c-0.4-0.1-0.7-0.5-0.6-0.9l1.2-5.2c0.1-0.3 0.3-0.5 0.6-0.6 0.4 0 0.7 0.2 0.8 0.5l1.6 3.8c0.2 0.4 0 0.8-0.4 1-0.3 0.1-0.8 0-0.9-0.4l-0.8-1.7-0.6 2.9c-0.1 0.4-0.4 0.6-0.8 0.6z"/>
					</g>
				</g>
				<g id="&lt;Group&gt;">
					<path id="&lt;Path&gt;" class="s2" d="m36.1 133.2c-0.4 0-0.7-0.3-0.7-0.7 0-0.2-0.2-3.7-0.3-6 0-0.4 0.3-0.8 0.7-0.8 0.4 0 0.8 0.3 0.8 0.7 0 0.6 0.2 5.8 0.2 6.1 0 0.4-0.3 0.7-0.7 0.7z"/>
				</g>
				<g id="&lt;Group&gt;">
					<path id="&lt;Path&gt;" class="s2" d="m37.3 131c-0.3 0-0.7-0.2-0.7-0.6l-0.4-3.9c-0.1-0.4 0.2-0.7 0.6-0.8 0.4 0 0.8 0.3 0.8 0.7l0.5 3.8c0 0.4-0.3 0.8-0.7 0.8q0 0-0.1 0z"/>
				</g>
				<g id="&lt;Group&gt;">
					<path id="&lt;Path&gt;" class="s2" d="m33.5 132.2q0 0 0 0c-0.4 0-0.8-0.3-0.8-0.7 0-0.2 0.2-4.3 0.3-5.1 0-0.4 0.3-0.7 0.7-0.7 0.4 0 0.7 0.4 0.7 0.8-0.1 1.9-0.2 4.8-0.2 5 0 0.4-0.3 0.7-0.7 0.7z"/>
				</g>
				<g id="&lt;Group&gt;">
					<path id="&lt;Path&gt;" class="s2" d="m31.1 133.2c-0.4 0-0.7-0.3-0.7-0.7 0-0.2-0.1-3.7-0.2-6 0-0.4 0.3-0.8 0.7-0.8 0.4 0 0.8 0.3 0.8 0.7 0 0.6 0.2 5.8 0.2 6.1 0 0.4-0.3 0.7-0.8 0.7z"/>
				</g>
				<g id="&lt;Group&gt;">
					<g id="&lt;Group&gt;">
						<path id="&lt;Path&gt;" class="s2" d="m27.3 132q-0.2 0-0.4-0.1c-0.3-0.2-0.5-0.6-0.3-1l2.4-4.8c0.1-0.2 0.4-0.4 0.7-0.4 0.3 0 0.5 0.2 0.6 0.5 0.1 0 0.6 1.5 0.9 2.5 0.1 0.4-0.1 0.8-0.5 0.9-0.4 0.1-0.8-0.1-0.9-0.5q-0.1-0.4-0.2-0.8l-1.7 3.3c-0.1 0.2-0.4 0.4-0.6 0.4z"/>
					</g>
					<g id="&lt;Group&gt;">
						<path id="&lt;Path&gt;" class="s2" d="m26.8 131c-0.4 0-0.7-0.2-0.8-0.6l-0.4-3.9c0-0.4 0.3-0.7 0.7-0.8 0.4 0 0.7 0.3 0.8 0.7l0.4 3.8c0 0.4-0.2 0.8-0.6 0.8q-0.1 0-0.1 0z"/>
					</g>
					<g id="&lt;Group&gt;">
						<path id="&lt;Path&gt;" class="s2" d="m22.9 132.2q0 0 0 0c-0.4 0-0.7-0.3-0.7-0.7 0-0.2 0.2-4.3 0.2-5.1 0-0.4 0.4-0.7 0.8-0.7 0.4 0 0.7 0.4 0.7 0.8-0.1 1.9-0.3 4.8-0.3 5 0 0.4-0.3 0.7-0.7 0.7z"/>
					</g>
					<g id="&lt;Group&gt;">
						<path id="&lt;Path&gt;" class="s2" d="m20.6 133.2c-0.4 0-0.7-0.3-0.7-0.7 0-0.2-0.2-3.7-0.3-6 0-0.4 0.3-0.8 0.7-0.8 0.4 0 0.8 0.3 0.8 0.7 0 0.6 0.2 5.8 0.2 6.1 0 0.4-0.3 0.7-0.7 0.7z"/>
					</g>
					<g id="&lt;Group&gt;">
						<path id="&lt;Path&gt;" class="s2" d="m15.1 131c-0.4 0-0.7-0.2-0.7-0.6l-0.4-3.9c-0.1-0.4 0.2-0.7 0.6-0.8 0.4 0 0.8 0.3 0.8 0.7l0.4 3.8c0.1 0.4-0.2 0.8-0.6 0.8q0 0-0.1 0z"/>
					</g>
					<g id="&lt;Group&gt;">
						<path id="&lt;Path&gt;" class="s2" d="m11.3 132.2q0 0-0.1 0c-0.4 0-0.7-0.3-0.7-0.7 0-0.2 0.2-4.3 0.2-5.1 0-0.4 0.4-0.7 0.8-0.7 0.4 0 0.7 0.4 0.7 0.8-0.1 1.9-0.2 4.8-0.2 5 0 0.4-0.3 0.7-0.7 0.7z"/>
					</g>
					<g id="&lt;Group&gt;">
						<path id="&lt;Path&gt;" class="s2" d="m8.9 133.2c-0.4 0-0.7-0.3-0.7-0.7 0-0.2-0.1-3.7-0.2-6 0-0.4 0.3-0.8 0.7-0.8 0.4 0 0.7 0.3 0.7 0.7 0.1 0.6 0.3 5.8 0.3 6.1 0 0.4-0.4 0.7-0.8 0.7z"/>
					</g>
					<g id="&lt;Group&gt;">
						<path id="&lt;Path&gt;" class="s2" d="m10.2 131c-0.4 0-0.7-0.2-0.8-0.6l-0.4-3.9c0-0.4 0.3-0.7 0.7-0.8 0.4 0 0.7 0.3 0.8 0.7l0.4 3.8c0.1 0.4-0.2 0.8-0.6 0.8q-0.1 0-0.1 0z"/>
					</g>
					<g id="&lt;Group&gt;">
						<path id="&lt;Path&gt;" class="s2" d="m6.3 132.2q0 0 0 0c-0.4 0-0.7-0.3-0.7-0.7 0-0.2 0.2-4.3 0.2-5.1 0-0.4 0.4-0.7 0.8-0.7 0.4 0 0.7 0.4 0.7 0.8-0.1 1.9-0.2 4.8-0.3 5 0 0.4-0.3 0.7-0.7 0.7z"/>
					</g>
					<g id="&lt;Group&gt;">
						<path id="&lt;Path&gt;" class="s2" d="m16.1 132.4q0 0-0.1 0c-0.4-0.1-0.7-0.5-0.6-0.9l1.2-5.2c0.1-0.3 0.3-0.5 0.6-0.6 0.4 0 0.7 0.2 0.8 0.5l1.6 3.8c0.2 0.4 0 0.8-0.4 1-0.3 0.1-0.8 0-0.9-0.4l-0.8-1.7-0.6 2.9c-0.1 0.4-0.4 0.6-0.8 0.6z"/>
					</g>
				</g>
			</g>
			<g id="&lt;Group&gt;">
				<g id="&lt;Group&gt;">
					<path id="&lt;Path&gt;" class="s2" d="m200.9 10.7q-0.1 0-0.3-0.1l-4.4-2.5c-0.3-0.2-0.4-0.4-0.4-0.7 0-0.3 0.2-0.5 0.4-0.6 0.1-0.1 1.4-0.7 2.3-1 0.4-0.1 0.9 0.1 1 0.5 0.1 0.4-0.1 0.8-0.5 0.9q-0.4 0.1-0.8 0.3l3.1 1.9c0.4 0.2 0.5 0.6 0.3 1-0.2 0.2-0.4 0.3-0.7 0.3z"/>
				</g>
				<g id="&lt;Group&gt;">
					<path id="&lt;Path&gt;" class="s2" d="m196.5 11.7c-0.3 0-0.6-0.2-0.7-0.6 0-0.4 0.2-0.8 0.6-0.8l3.6-0.5c0.4 0 0.8 0.2 0.8 0.7 0.1 0.4-0.2 0.7-0.6 0.8l-3.6 0.4q0 0-0.1 0z"/>
				</g>
				<g id="&lt;Group&gt;">
					<path id="&lt;Path&gt;" class="s2" d="m201.2 15.5c-0.2 0-3.7-0.2-4.7-0.3-0.4 0-0.7-0.3-0.7-0.7 0-0.5 0.4-0.8 0.8-0.7 1.7 0 4.4 0.2 4.6 0.2 0.4 0 0.7 0.3 0.7 0.7 0 0.4-0.3 0.8-0.7 0.8z"/>
				</g>
				<g id="&lt;Group&gt;">
					<path id="&lt;Path&gt;" class="s2" d="m196.5 18.2c-0.4 0-0.7-0.3-0.7-0.7 0-0.4 0.3-0.8 0.7-0.8 0.5 0 5.3-0.2 5.6-0.2 0.4 0 0.7 0.3 0.8 0.7 0 0.4-0.4 0.8-0.8 0.8-0.2 0-3.4 0.1-5.5 0.2q0 0-0.1 0z"/>
				</g>
				<g id="&lt;Group&gt;">
					<path id="&lt;Path&gt;" class="s2" d="m196.5 24.3c-0.3 0-0.6-0.2-0.7-0.6 0-0.4 0.2-0.8 0.6-0.8l3.6-0.5c0.4 0 0.8 0.3 0.8 0.7 0.1 0.4-0.2 0.7-0.6 0.8l-3.6 0.4q0 0-0.1 0z"/>
				</g>
				<g id="&lt;Group&gt;">
					<path id="&lt;Path&gt;" class="s2" d="m201.2 28.1c-0.2 0-3.7-0.2-4.7-0.3-0.4 0-0.7-0.3-0.7-0.7 0-0.5 0.4-0.8 0.8-0.7 1.7 0 4.4 0.2 4.6 0.2 0.4 0 0.7 0.3 0.7 0.7 0 0.4-0.3 0.8-0.7 0.8z"/>
				</g>
				<g id="&lt;Group&gt;">
					<path id="&lt;Path&gt;" class="s2" d="m196.5 30.8c-0.4 0-0.7-0.3-0.7-0.7 0-0.4 0.3-0.8 0.7-0.8 0.5 0 5.3-0.2 5.6-0.2 0.4 0 0.7 0.3 0.8 0.7 0 0.4-0.4 0.8-0.8 0.8-0.2 0-3.4 0.1-5.5 0.2q0 0-0.1 0z"/>
				</g>
				<g id="&lt;Group&gt;">
					<path id="&lt;Path&gt;" class="s2" d="m196.5 29.7c-0.3 0-0.6-0.3-0.7-0.7 0-0.4 0.2-0.7 0.6-0.8l3.6-0.4c0.4-0.1 0.8 0.2 0.8 0.6 0.1 0.4-0.2 0.8-0.6 0.8l-3.6 0.5q0 0-0.1 0z"/>
				</g>
				<g id="&lt;Group&gt;">
					<path id="&lt;Path&gt;" class="s2" d="m201.2 33.4c-0.2 0-3.7-0.2-4.7-0.2-0.4-0.1-0.7-0.4-0.7-0.8 0-0.4 0.4-0.7 0.8-0.7 1.7 0.1 4.4 0.2 4.6 0.2 0.4 0 0.7 0.4 0.7 0.8 0 0.4-0.3 0.7-0.7 0.7z"/>
				</g>
				<g id="&lt;Group&gt;">
					<path id="&lt;Path&gt;" class="s2" d="m196.5 36.1c-0.4 0-0.7-0.3-0.7-0.7 0-0.4 0.3-0.7 0.7-0.7 0.5-0.1 5.3-0.3 5.6-0.3 0.4 0 0.7 0.4 0.8 0.8 0 0.4-0.4 0.7-0.8 0.7-0.2 0-3.4 0.1-5.5 0.2q0 0-0.1 0z"/>
				</g>
				<g id="&lt;Group&gt;">
					<path id="&lt;Path&gt;" class="s2" d="m201.4 22.8q-0.1 0-0.2-0.1l-4.8-1.2c-0.3-0.1-0.6-0.3-0.6-0.6 0-0.4 0.1-0.6 0.4-0.8l3.6-1.8c0.3-0.1 0.8 0 0.9 0.4 0.2 0.3 0.1 0.8-0.3 1l-1.8 0.9 3 0.7c0.3 0.1 0.6 0.5 0.5 0.9-0.1 0.4-0.4 0.6-0.7 0.6z"/>
				</g>
				<g id="&lt;Group&gt;">
					<path id="&lt;Path&gt;" class="s2" d="m196.5 38.7c-0.4 0-0.7-0.3-0.7-0.7 0-0.4 0.3-0.7 0.7-0.7 0.5-0.1 5.3-0.3 5.6-0.3 0.4 0 0.7 0.4 0.8 0.8 0 0.4-0.4 0.7-0.8 0.7-0.2 0-3.4 0.1-5.5 0.2q0 0-0.1 0z"/>
				</g>
				<g id="&lt;Group&gt;">
					<path id="&lt;Path&gt;" class="s2" d="m196.5 37.6c-0.3 0-0.6-0.3-0.7-0.6 0-0.4 0.2-0.8 0.6-0.9l3.6-0.4c0.4-0.1 0.8 0.2 0.8 0.6 0.1 0.4-0.2 0.8-0.6 0.8l-3.6 0.5q0 0-0.1 0z"/>
				</g>
				<g id="&lt;Group&gt;">
					<path id="&lt;Path&gt;" class="s2" d="m201.2 41.3c-0.2 0-3.7-0.2-4.7-0.2-0.4 0-0.7-0.4-0.7-0.8 0-0.4 0.4-0.7 0.8-0.7 1.7 0.1 4.4 0.2 4.6 0.2 0.4 0.1 0.7 0.4 0.7 0.8 0 0.4-0.3 0.7-0.7 0.7z"/>
				</g>
				<g id="&lt;Group&gt;">
					<path id="&lt;Path&gt;" class="s2" d="m196.5 44.1c-0.4 0-0.7-0.3-0.7-0.7 0-0.4 0.3-0.8 0.7-0.8 0.5 0 5.3-0.2 5.6-0.2 0.4 0 0.7 0.3 0.8 0.7 0 0.4-0.4 0.7-0.8 0.7-0.2 0-3.4 0.2-5.5 0.3q0 0-0.1 0z"/>
				</g>
				<g id="&lt;Group&gt;">
					<path id="&lt;Path&gt;" class="s2" d="m200.9 48q-0.1 0-0.3-0.1l-4.4-2.6c-0.3-0.1-0.4-0.3-0.4-0.6 0-0.3 0.2-0.5 0.4-0.7 0.1 0 1.4-0.6 2.3-0.9 0.4-0.1 0.9 0.1 1 0.5 0.1 0.4-0.1 0.8-0.5 0.9q-0.4 0.1-0.8 0.3l3.1 1.9c0.4 0.2 0.5 0.6 0.3 1-0.2 0.2-0.4 0.3-0.7 0.3z"/>
				</g>
				<g id="&lt;Group&gt;">
					<path id="&lt;Path&gt;" class="s2" d="m196.5 49c-0.3 0-0.6-0.3-0.7-0.6 0-0.4 0.2-0.8 0.6-0.8l3.6-0.5c0.4-0.1 0.8 0.2 0.8 0.6 0.1 0.4-0.2 0.8-0.6 0.9l-3.6 0.4q0 0-0.1 0z"/>
				</g>
				<g id="&lt;Group&gt;">
					<path id="&lt;Path&gt;" class="s2" d="m201.2 52.7c-0.2 0-3.7-0.1-4.7-0.2-0.4 0-0.7-0.4-0.7-0.8 0-0.4 0.4-0.7 0.8-0.7 1.7 0.1 4.4 0.3 4.6 0.3 0.4 0 0.7 0.3 0.7 0.7 0 0.4-0.3 0.7-0.7 0.7z"/>
				</g>
				<g id="&lt;Group&gt;">
					<path id="&lt;Path&gt;" class="s2" d="m196.5 55.5c-0.4 0-0.7-0.3-0.7-0.7 0-0.4 0.3-0.8 0.7-0.8 0.5 0 5.3-0.2 5.6-0.2 0.4 0 0.7 0.3 0.8 0.7 0 0.4-0.4 0.7-0.8 0.7-0.2 0.1-3.4 0.2-5.5 0.3q0 0-0.1 0z"/>
				</g>
				<g id="&lt;Group&gt;">
					<path id="&lt;Path&gt;" class="s2" d="m196.5 61.6c-0.3 0-0.6-0.2-0.7-0.6 0-0.4 0.2-0.8 0.6-0.8l3.6-0.5c0.4-0.1 0.8 0.2 0.8 0.6 0.1 0.4-0.2 0.8-0.6 0.9l-3.6 0.4q0 0-0.1 0z"/>
				</g>
				<g id="&lt;Group&gt;">
					<path id="&lt;Path&gt;" class="s2" d="m201.2 65.3c-0.2 0-3.7-0.1-4.7-0.2-0.4 0-0.7-0.4-0.7-0.8 0-0.4 0.4-0.7 0.8-0.7 1.7 0.1 4.4 0.3 4.6 0.3 0.4 0 0.7 0.3 0.7 0.7 0 0.4-0.3 0.7-0.7 0.7z"/>
				</g>
				<g id="&lt;Group&gt;">
					<path id="&lt;Path&gt;" class="s2" d="m196.5 68.1c-0.4 0-0.7-0.3-0.7-0.7 0-0.4 0.3-0.8 0.7-0.8 0.5 0 5.3-0.2 5.6-0.2 0.4 0 0.7 0.3 0.8 0.7 0 0.4-0.4 0.7-0.8 0.8-0.2 0-3.4 0.1-5.5 0.2q0 0-0.1 0z"/>
				</g>
				<g id="&lt;Group&gt;">
					<path id="&lt;Path&gt;" class="s2" d="m196.5 67c-0.3 0-0.6-0.3-0.7-0.7 0-0.4 0.2-0.8 0.6-0.8l3.6-0.5c0.4 0 0.8 0.3 0.8 0.7 0.1 0.4-0.2 0.7-0.6 0.8l-3.6 0.5q0 0-0.1 0z"/>
				</g>
				<g id="&lt;Group&gt;">
					<path id="&lt;Path&gt;" class="s2" d="m201.2 70.7c-0.2 0-3.7-0.2-4.7-0.3-0.4 0-0.7-0.3-0.7-0.7 0-0.4 0.4-0.7 0.8-0.7 1.7 0.1 4.4 0.2 4.6 0.2 0.4 0 0.7 0.3 0.7 0.7 0 0.4-0.3 0.8-0.7 0.8z"/>
				</g>
				<g id="&lt;Group&gt;">
					<path id="&lt;Path&gt;" class="s2" d="m196.5 73.4c-0.4 0-0.7-0.3-0.7-0.7 0-0.4 0.3-0.7 0.7-0.8 0.5 0 5.3-0.2 5.6-0.2 0.4 0 0.7 0.3 0.8 0.8 0 0.4-0.4 0.7-0.8 0.7-0.2 0-3.4 0.1-5.5 0.2q0 0-0.1 0z"/>
				</g>
				<g id="&lt;Group&gt;">
					<path id="&lt;Path&gt;" class="s2" d="m201.4 60.1q-0.1 0-0.2-0.1l-4.8-1.2c-0.3-0.1-0.6-0.4-0.6-0.7 0-0.3 0.1-0.6 0.4-0.7l3.6-1.8c0.3-0.2 0.8 0 0.9 0.4 0.2 0.3 0.1 0.8-0.3 0.9l-1.8 0.9 3 0.8c0.3 0.1 0.6 0.5 0.5 0.9-0.1 0.3-0.4 0.6-0.7 0.6z"/>
				</g>
				<g id="&lt;Group&gt;">
					<path id="&lt;Path&gt;" class="s2" d="m196.5 76c-0.4 0-0.7-0.3-0.7-0.7 0-0.4 0.3-0.7 0.7-0.8 0.5 0 5.3-0.2 5.6-0.2 0.4 0 0.7 0.3 0.8 0.7 0 0.4-0.4 0.8-0.8 0.8-0.2 0-3.4 0.1-5.5 0.2q0 0-0.1 0z"/>
				</g>
				<g id="&lt;Group&gt;">
					<path id="&lt;Path&gt;" class="s2" d="m196.5 74.9c-0.3 0-0.6-0.3-0.7-0.7 0-0.4 0.2-0.7 0.6-0.8l3.6-0.4c0.4-0.1 0.8 0.2 0.8 0.6 0.1 0.4-0.2 0.8-0.6 0.8l-3.6 0.5q0 0-0.1 0z"/>
				</g>
				<g id="&lt;Group&gt;">
					<path id="&lt;Path&gt;" class="s2" d="m201.2 78.6c-0.2 0-3.7-0.2-4.7-0.2-0.4-0.1-0.7-0.4-0.7-0.8 0-0.4 0.4-0.7 0.8-0.7 1.7 0.1 4.4 0.2 4.6 0.2 0.4 0 0.7 0.4 0.7 0.8 0 0.4-0.3 0.7-0.7 0.7z"/>
				</g>
				<g id="&lt;Group&gt;">
					<path id="&lt;Path&gt;" class="s2" d="m196.5 81.3c-0.4 0-0.7-0.3-0.7-0.7 0-0.4 0.3-0.7 0.7-0.7 0.5-0.1 5.3-0.3 5.6-0.3 0.4 0 0.7 0.4 0.8 0.8 0 0.4-0.4 0.7-0.8 0.7-0.2 0-3.4 0.2-5.5 0.2q0 0-0.1 0z"/>
				</g>
				<g id="&lt;Group&gt;">
					<path id="&lt;Path&gt;" class="s2" d="m200.9 85.3q-0.1 0-0.3-0.1l-4.4-2.6c-0.3-0.1-0.4-0.4-0.4-0.6 0-0.3 0.2-0.6 0.4-0.7 0.1 0 1.4-0.6 2.3-0.9 0.4-0.1 0.9 0.1 1 0.5 0.1 0.3-0.1 0.8-0.5 0.9q-0.4 0.1-0.8 0.3l3.1 1.8c0.4 0.2 0.5 0.7 0.3 1-0.2 0.3-0.4 0.4-0.7 0.4z"/>
				</g>
				<g id="&lt;Group&gt;">
					<path id="&lt;Path&gt;" class="s2" d="m196.5 86.3c-0.3 0-0.6-0.3-0.7-0.6 0-0.4 0.2-0.8 0.6-0.9l3.6-0.4c0.4-0.1 0.8 0.2 0.8 0.6 0.1 0.4-0.2 0.8-0.6 0.8l-3.6 0.5q0 0-0.1 0z"/>
				</g>
				<g id="&lt;Group&gt;">
					<path id="&lt;Path&gt;" class="s2" d="m201.2 90c-0.2 0-3.7-0.2-4.7-0.2-0.4 0-0.7-0.4-0.7-0.8 0-0.4 0.4-0.7 0.8-0.7 1.7 0.1 4.4 0.2 4.6 0.2 0.4 0.1 0.7 0.4 0.7 0.8 0 0.4-0.3 0.7-0.7 0.7z"/>
				</g>
				<g id="&lt;Group&gt;">
					<path id="&lt;Path&gt;" class="s2" d="m196.5 92.8c-0.4 0-0.7-0.3-0.7-0.7 0-0.5 0.3-0.8 0.7-0.8 0.5 0 5.3-0.2 5.6-0.2 0.4 0 0.7 0.3 0.8 0.7 0 0.4-0.4 0.7-0.8 0.7-0.2 0-3.4 0.2-5.5 0.3q0 0-0.1 0z"/>
				</g>
				<g id="&lt;Group&gt;">
					<path id="&lt;Path&gt;" class="s2" d="m196.5 98.9c-0.3 0-0.6-0.3-0.7-0.6 0-0.4 0.2-0.8 0.6-0.9l3.6-0.4c0.4-0.1 0.8 0.2 0.8 0.6 0.1 0.4-0.2 0.8-0.6 0.8l-3.6 0.5q0 0-0.1 0z"/>
				</g>
				<g id="&lt;Group&gt;">
					<path id="&lt;Path&gt;" class="s2" d="m201.2 102.6c-0.2 0-3.7-0.2-4.7-0.2-0.4 0-0.7-0.4-0.7-0.8 0-0.4 0.4-0.7 0.8-0.7 1.7 0.1 4.4 0.2 4.6 0.2 0.4 0.1 0.7 0.4 0.7 0.8 0 0.4-0.3 0.7-0.7 0.7z"/>
				</g>
				<g id="&lt;Group&gt;">
					<path id="&lt;Path&gt;" class="s2" d="m196.5 105.4c-0.4 0-0.7-0.3-0.7-0.7 0-0.4 0.3-0.8 0.7-0.8 0.5 0 5.3-0.2 5.6-0.2 0.4 0 0.7 0.3 0.8 0.7 0 0.4-0.4 0.7-0.8 0.7-0.2 0-3.4 0.2-5.5 0.3q0 0-0.1 0z"/>
				</g>
				<g id="&lt;Group&gt;">
					<path id="&lt;Path&gt;" class="s2" d="m196.5 104.2c-0.3 0-0.6-0.2-0.7-0.6 0-0.4 0.2-0.8 0.6-0.8l3.6-0.5c0.4 0 0.8 0.2 0.8 0.7 0.1 0.4-0.2 0.7-0.6 0.8l-3.6 0.4q0 0-0.1 0z"/>
				</g>
				<g id="&lt;Group&gt;">
					<path id="&lt;Path&gt;" class="s2" d="m201.2 108c-0.2 0-3.7-0.2-4.7-0.3-0.4 0-0.7-0.3-0.7-0.7 0-0.5 0.4-0.8 0.8-0.7 1.7 0 4.4 0.2 4.6 0.2 0.4 0 0.7 0.3 0.7 0.7 0 0.4-0.3 0.8-0.7 0.8z"/>
				</g>
				<g id="&lt;Group&gt;">
					<path id="&lt;Path&gt;" class="s2" d="m196.5 110.7c-0.4 0-0.7-0.3-0.7-0.7 0-0.4 0.3-0.8 0.7-0.8 0.5 0 5.3-0.2 5.6-0.2 0.4 0 0.7 0.3 0.8 0.7 0 0.4-0.4 0.8-0.8 0.8-0.2 0-3.4 0.1-5.5 0.2q0 0-0.1 0z"/>
				</g>
				<g id="&lt;Group&gt;">
					<path id="&lt;Path&gt;" class="s2" d="m201.4 97.3q-0.1 0-0.2 0l-4.8-1.3c-0.3 0-0.6-0.3-0.6-0.6 0-0.3 0.1-0.6 0.4-0.7l3.6-1.8c0.3-0.2 0.8 0 0.9 0.3 0.2 0.4 0.1 0.8-0.3 1l-1.8 0.9 3 0.8c0.3 0.1 0.6 0.5 0.5 0.9-0.1 0.3-0.4 0.5-0.7 0.5z"/>
				</g>
				<g id="&lt;Group&gt;">
					<path id="&lt;Path&gt;" class="s2" d="m196.5 113.3c-0.4 0-0.7-0.3-0.7-0.7 0-0.4 0.3-0.8 0.7-0.8 0.5 0 5.3-0.2 5.6-0.2 0.4 0 0.7 0.3 0.8 0.7 0 0.4-0.4 0.8-0.8 0.8-0.2 0-3.4 0.1-5.5 0.2q0 0-0.1 0z"/>
				</g>
				<g id="&lt;Group&gt;">
					<path id="&lt;Path&gt;" class="s2" d="m196.5 112.2c-0.3 0-0.6-0.3-0.7-0.7 0-0.4 0.2-0.7 0.6-0.8l3.6-0.5c0.4 0 0.8 0.3 0.8 0.7 0.1 0.4-0.2 0.7-0.6 0.8l-3.6 0.5q0 0-0.1 0z"/>
				</g>
				<g id="&lt;Group&gt;">
					<path id="&lt;Path&gt;" class="s2" d="m201.2 115.9c-0.2 0-3.7-0.2-4.7-0.3-0.4 0-0.7-0.3-0.7-0.7 0-0.4 0.4-0.7 0.8-0.7 1.7 0.1 4.4 0.2 4.6 0.2 0.4 0 0.7 0.3 0.7 0.7 0 0.5-0.3 0.8-0.7 0.8z"/>
				</g>
				<g id="&lt;Group&gt;">
					<path id="&lt;Path&gt;" class="s2" d="m196.5 118.6c-0.4 0-0.7-0.3-0.7-0.7 0-0.4 0.3-0.7 0.7-0.7 0.5-0.1 5.3-0.3 5.6-0.3 0.4 0 0.7 0.4 0.8 0.8 0 0.4-0.4 0.7-0.8 0.7-0.2 0-3.4 0.1-5.5 0.2q0 0-0.1 0z"/>
				</g>
				<g id="&lt;Group&gt;">
					<path id="&lt;Path&gt;" class="s2" d="m196.5 124.8c-0.4 0-0.7-0.3-0.7-0.7 0-0.4 0.3-0.7 0.7-0.8 0.5 0 5.3-0.2 5.6-0.2 0.4 0 0.7 0.3 0.8 0.7 0 0.5-0.4 0.8-0.8 0.8-0.2 0-3.4 0.1-5.5 0.2q0 0-0.1 0z"/>
				</g>
				<g id="&lt;Group&gt;">
					<path id="&lt;Path&gt;" class="s2" d="m200.9 122.6q-0.1 0-0.3-0.1l-4.4-2.6c-0.3-0.1-0.4-0.4-0.4-0.7 0-0.2 0.2-0.5 0.4-0.6 0.1 0 1.4-0.6 2.3-0.9 0.4-0.2 0.9 0.1 1 0.4 0.1 0.4-0.1 0.8-0.5 1q-0.4 0.1-0.8 0.3l3.1 1.8c0.4 0.2 0.5 0.7 0.3 1-0.2 0.3-0.4 0.4-0.7 0.4z"/>
				</g>
				<g id="&lt;Group&gt;">
					<path id="&lt;Path&gt;" class="s2" d="m196.5 123.6c-0.3 0-0.6-0.3-0.7-0.7 0-0.4 0.2-0.7 0.6-0.8l3.6-0.4c0.4-0.1 0.8 0.2 0.8 0.6 0.1 0.4-0.2 0.8-0.6 0.8l-3.6 0.5q0 0-0.1 0z"/>
				</g>
				<g id="&lt;Group&gt;">
					<path id="&lt;Path&gt;" class="s2" d="m201.2 127.3c-0.2 0-3.7-0.2-4.7-0.2-0.4-0.1-0.7-0.4-0.7-0.8 0-0.4 0.4-0.7 0.8-0.7 1.7 0.1 4.4 0.2 4.6 0.2 0.4 0 0.7 0.4 0.7 0.8 0 0.4-0.3 0.7-0.7 0.7z"/>
				</g>
			</g>
			<g id="&lt;Group&gt;">
				<g id="&lt;Group&gt;">
					<path id="&lt;Path&gt;" class="s2" d="m4.3 128c-0.3 0-0.6-0.2-0.7-0.5-0.1-0.4 0.1-0.8 0.5-0.9q0.4-0.1 0.9-0.3l-3.2-1.9c-0.3-0.2-0.5-0.6-0.3-1 0.2-0.3 0.7-0.4 1-0.2l4.5 2.5c0.2 0.2 0.3 0.4 0.3 0.7 0 0.3-0.2 0.5-0.4 0.6-0.1 0.1-1.4 0.7-2.3 1q-0.1 0-0.3 0z"/>
				</g>
				<g id="&lt;Group&gt;">
					<path id="&lt;Path&gt;" class="s2" d="m3 124c-0.3 0-0.7-0.3-0.7-0.6-0.1-0.4 0.2-0.8 0.6-0.9l3.6-0.4c0.4-0.1 0.8 0.2 0.8 0.6 0.1 0.4-0.2 0.8-0.6 0.8l-3.6 0.5q0 0-0.1 0z"/>
				</g>
				<g id="&lt;Group&gt;">
					<path id="&lt;Path&gt;" class="s2" d="m6.6 120.1q0 0-0.1 0c-1.7-0.1-4.4-0.3-4.6-0.3-0.4 0-0.7-0.3-0.7-0.7 0-0.4 0.3-0.7 0.7-0.7 0.2 0 3.7 0.1 4.7 0.2 0.4 0 0.7 0.4 0.7 0.8 0 0.3-0.3 0.7-0.7 0.7z"/>
				</g>
				<g id="&lt;Group&gt;">
					<path id="&lt;Path&gt;" class="s2" d="m1 117.3c-0.4 0-0.7-0.3-0.7-0.7 0-0.4 0.3-0.8 0.7-0.8 0.2 0 3.4-0.1 5.6-0.2 0.3 0 0.7 0.3 0.7 0.7 0 0.4-0.3 0.8-0.7 0.8-0.5 0-5.3 0.2-5.6 0.2z"/>
				</g>
				<g id="&lt;Group&gt;">
					<path id="&lt;Path&gt;" class="s2" d="m3 111.4c-0.3 0-0.7-0.3-0.7-0.6-0.1-0.4 0.2-0.8 0.6-0.9l3.6-0.4c0.4-0.1 0.8 0.2 0.8 0.6 0.1 0.4-0.2 0.8-0.6 0.8l-3.6 0.5q0 0-0.1 0z"/>
				</g>
				<g id="&lt;Group&gt;">
					<path id="&lt;Path&gt;" class="s2" d="m6.6 107.5q0 0-0.1 0c-1.7-0.1-4.4-0.3-4.6-0.3-0.4 0-0.7-0.3-0.7-0.7 0-0.4 0.3-0.7 0.7-0.7 0.2 0 3.7 0.1 4.7 0.2 0.4 0 0.7 0.4 0.7 0.8 0 0.3-0.3 0.7-0.7 0.7z"/>
				</g>
				<g id="&lt;Group&gt;">
					<path id="&lt;Path&gt;" class="s2" d="m1 104.7c-0.4 0-0.7-0.3-0.7-0.7 0-0.4 0.3-0.8 0.7-0.8 0.2 0 3.4-0.1 5.6-0.2 0.3 0 0.7 0.3 0.7 0.7 0 0.4-0.3 0.8-0.7 0.8-0.5 0-5.3 0.2-5.6 0.2z"/>
				</g>
				<g id="&lt;Group&gt;">
					<path id="&lt;Path&gt;" class="s2" d="m3 106.1c-0.3 0-0.7-0.3-0.7-0.7-0.1-0.4 0.2-0.8 0.6-0.8l3.6-0.5c0.4 0 0.8 0.3 0.8 0.7 0.1 0.4-0.2 0.7-0.6 0.8l-3.6 0.5q0 0-0.1 0z"/>
				</g>
				<g id="&lt;Group&gt;">
					<path id="&lt;Path&gt;" class="s2" d="m6.6 102.1q0 0-0.1 0c-1.7-0.1-4.4-0.2-4.6-0.2-0.4 0-0.7-0.3-0.7-0.8 0-0.4 0.3-0.7 0.7-0.7 0.2 0 3.7 0.2 4.7 0.2 0.4 0.1 0.7 0.4 0.7 0.8 0 0.4-0.3 0.7-0.7 0.7z"/>
				</g>
				<g id="&lt;Group&gt;">
					<path id="&lt;Path&gt;" class="s2" d="m1 99.4c-0.4 0-0.7-0.4-0.7-0.8 0-0.4 0.3-0.7 0.7-0.7 0.2 0 3.4-0.1 5.6-0.2 0.3 0 0.7 0.3 0.7 0.7 0 0.4-0.3 0.7-0.7 0.7-0.5 0.1-5.3 0.3-5.6 0.3z"/>
				</g>
				<g id="&lt;Group&gt;">
					<path id="&lt;Path&gt;" class="s2" d="m3 115.5c-0.2 0-0.5-0.1-0.6-0.4-0.2-0.3-0.1-0.8 0.3-1l1.8-0.9-2.9-0.7c-0.4-0.1-0.7-0.5-0.6-0.9 0.1-0.4 0.5-0.6 0.9-0.5l4.9 1.2c0.3 0.1 0.5 0.4 0.5 0.7 0 0.3-0.1 0.6-0.4 0.7l-3.5 1.8q-0.2 0-0.4 0z"/>
				</g>
				<g id="&lt;Group&gt;">
					<path id="&lt;Path&gt;" class="s2" d="m1 96.8c-0.4 0-0.7-0.3-0.7-0.7 0-0.5 0.3-0.8 0.7-0.8 0.2 0 3.4-0.1 5.6-0.2 0.3 0 0.7 0.3 0.7 0.7 0 0.4-0.3 0.7-0.7 0.8-0.5 0-5.3 0.2-5.6 0.2z"/>
				</g>
				<g id="&lt;Group&gt;">
					<path id="&lt;Path&gt;" class="s2" d="m3 98.1c-0.3 0-0.7-0.2-0.7-0.6-0.1-0.4 0.2-0.8 0.6-0.8l3.6-0.5c0.4 0 0.8 0.2 0.8 0.6 0.1 0.5-0.2 0.8-0.6 0.9l-3.6 0.4q0 0-0.1 0z"/>
				</g>
				<g id="&lt;Group&gt;">
					<path id="&lt;Path&gt;" class="s2" d="m6.6 94.2q0 0-0.1 0c-1.7-0.1-4.4-0.2-4.6-0.2-0.4 0-0.7-0.4-0.7-0.8 0-0.4 0.3-0.7 0.7-0.7 0.2 0 3.7 0.2 4.7 0.2 0.4 0 0.7 0.4 0.7 0.8 0 0.4-0.3 0.7-0.7 0.7z"/>
				</g>
				<g id="&lt;Group&gt;">
					<path id="&lt;Path&gt;" class="s2" d="m1 91.4c-0.4 0-0.7-0.3-0.7-0.7 0-0.4 0.3-0.7 0.7-0.7 0.2 0 3.4-0.2 5.6-0.3 0.3 0 0.7 0.3 0.7 0.8 0 0.4-0.3 0.7-0.7 0.7-0.5 0-5.3 0.2-5.6 0.2z"/>
				</g>
				<g id="&lt;Group&gt;">
					<path id="&lt;Path&gt;" class="s2" d="m4.3 90.7c-0.3 0-0.6-0.2-0.7-0.5-0.1-0.4 0.1-0.8 0.5-0.9q0.4-0.1 0.9-0.3l-3.2-1.8c-0.3-0.2-0.5-0.7-0.3-1 0.2-0.4 0.7-0.5 1-0.3l4.5 2.6c0.2 0.1 0.3 0.4 0.3 0.6 0 0.3-0.2 0.5-0.4 0.7-0.1 0-1.4 0.6-2.3 0.9q-0.1 0-0.3 0z"/>
				</g>
				<g id="&lt;Group&gt;">
					<path id="&lt;Path&gt;" class="s2" d="m3 86.7c-0.3 0-0.7-0.3-0.7-0.6-0.1-0.4 0.2-0.8 0.6-0.8l3.6-0.5c0.4-0.1 0.8 0.2 0.8 0.6 0.1 0.4-0.2 0.8-0.6 0.9l-3.6 0.4q0 0-0.1 0z"/>
				</g>
				<g id="&lt;Group&gt;">
					<path id="&lt;Path&gt;" class="s2" d="m6.6 82.8q0 0-0.1 0c-1.7-0.1-4.4-0.3-4.6-0.3-0.4 0-0.7-0.3-0.7-0.7 0-0.4 0.3-0.7 0.7-0.7 0.2 0 3.7 0.2 4.7 0.2 0.4 0 0.7 0.4 0.7 0.8 0 0.4-0.3 0.7-0.7 0.7z"/>
				</g>
				<g id="&lt;Group&gt;">
					<path id="&lt;Path&gt;" class="s2" d="m1 80c-0.4 0-0.7-0.3-0.7-0.7 0-0.4 0.3-0.7 0.7-0.7 0.2 0 3.4-0.2 5.6-0.3 0.3 0 0.7 0.3 0.7 0.7 0 0.4-0.3 0.8-0.7 0.8-0.5 0-5.3 0.2-5.6 0.2z"/>
				</g>
				<g id="&lt;Group&gt;">
					<path id="&lt;Path&gt;" class="s2" d="m3 74.1c-0.3 0-0.7-0.3-0.7-0.6-0.1-0.4 0.2-0.8 0.6-0.8l3.6-0.5c0.4-0.1 0.8 0.2 0.8 0.6 0.1 0.4-0.2 0.8-0.6 0.9l-3.6 0.4q0 0-0.1 0z"/>
				</g>
				<g id="&lt;Group&gt;">
					<path id="&lt;Path&gt;" class="s2" d="m6.6 70.2q0 0-0.1 0c-1.7-0.1-4.4-0.3-4.6-0.3-0.4 0-0.7-0.3-0.7-0.7 0-0.4 0.3-0.7 0.7-0.7 0.2 0 3.7 0.1 4.7 0.2 0.4 0 0.7 0.4 0.7 0.8 0 0.4-0.3 0.7-0.7 0.7z"/>
				</g>
				<g id="&lt;Group&gt;">
					<path id="&lt;Path&gt;" class="s2" d="m1 67.4c-0.4 0-0.7-0.3-0.7-0.7 0-0.4 0.3-0.7 0.7-0.7 0.2 0 3.4-0.2 5.6-0.3 0.3 0 0.7 0.3 0.7 0.7 0 0.4-0.3 0.8-0.7 0.8-0.5 0-5.3 0.2-5.6 0.2z"/>
				</g>
				<g id="&lt;Group&gt;">
					<path id="&lt;Path&gt;" class="s2" d="m3 68.8c-0.3 0-0.7-0.3-0.7-0.7-0.1-0.4 0.2-0.7 0.6-0.8l3.6-0.4c0.4-0.1 0.8 0.2 0.8 0.6 0.1 0.4-0.2 0.8-0.6 0.8l-3.6 0.5q0 0-0.1 0z"/>
				</g>
				<g id="&lt;Group&gt;">
					<path id="&lt;Path&gt;" class="s2" d="m6.6 64.8q0 0-0.1 0c-1.7-0.1-4.4-0.2-4.6-0.2-0.4 0-0.7-0.3-0.7-0.7 0-0.4 0.3-0.8 0.7-0.8 0.2 0 3.7 0.2 4.7 0.3 0.4 0 0.7 0.3 0.7 0.7 0 0.4-0.3 0.7-0.7 0.7z"/>
				</g>
				<g id="&lt;Group&gt;">
					<path id="&lt;Path&gt;" class="s2" d="m1 62.1c-0.4 0-0.7-0.3-0.7-0.7 0-0.4 0.3-0.8 0.7-0.8 0.2 0 3.4-0.1 5.6-0.2 0.3 0 0.7 0.3 0.7 0.7 0 0.4-0.3 0.7-0.7 0.8-0.5 0-5.3 0.2-5.6 0.2z"/>
				</g>
				<g id="&lt;Group&gt;">
					<path id="&lt;Path&gt;" class="s2" d="m3 78.3c-0.2 0-0.5-0.2-0.6-0.4-0.2-0.4-0.1-0.9 0.3-1l1.8-0.9-2.9-0.8c-0.4-0.1-0.7-0.5-0.6-0.9 0.1-0.4 0.5-0.6 0.9-0.5l4.9 1.2c0.3 0.1 0.5 0.4 0.5 0.7 0 0.3-0.1 0.6-0.4 0.7l-3.5 1.8q-0.2 0.1-0.4 0.1z"/>
				</g>
				<g id="&lt;Group&gt;">
					<path id="&lt;Path&gt;" class="s2" d="m1 59.5c-0.4 0-0.7-0.3-0.7-0.7 0-0.4 0.3-0.8 0.7-0.8 0.2 0 3.4-0.1 5.6-0.2 0.3 0 0.7 0.3 0.7 0.7 0 0.4-0.3 0.8-0.7 0.8-0.5 0-5.3 0.2-5.6 0.2z"/>
				</g>
				<g id="&lt;Group&gt;">
					<path id="&lt;Path&gt;" class="s2" d="m3 60.9c-0.3 0-0.7-0.3-0.7-0.7-0.1-0.4 0.2-0.8 0.6-0.8l3.6-0.5c0.4 0 0.8 0.3 0.8 0.7 0.1 0.4-0.2 0.7-0.6 0.8l-3.6 0.4q0 0.1-0.1 0.1z"/>
				</g>
				<g id="&lt;Group&gt;">
					<path id="&lt;Path&gt;" class="s2" d="m6.6 56.9q0 0-0.1 0c-1.7-0.1-4.4-0.2-4.6-0.2-0.4 0-0.7-0.4-0.7-0.8 0-0.4 0.3-0.7 0.7-0.7 0.2 0 3.7 0.2 4.7 0.2 0.4 0.1 0.7 0.4 0.7 0.8 0 0.4-0.3 0.7-0.7 0.7z"/>
				</g>
				<g id="&lt;Group&gt;">
					<path id="&lt;Path&gt;" class="s2" d="m1 54.2c-0.4 0-0.7-0.4-0.7-0.8 0-0.4 0.3-0.7 0.7-0.7 0.2 0 3.4-0.1 5.6-0.2 0.3-0.1 0.7 0.3 0.7 0.7 0 0.4-0.3 0.7-0.7 0.7-0.5 0.1-5.3 0.3-5.6 0.3z"/>
				</g>
				<g id="&lt;Group&gt;">
					<path id="&lt;Path&gt;" class="s2" d="m4.3 53.5c-0.3 0-0.6-0.2-0.7-0.5-0.1-0.4 0.1-0.8 0.5-1q0.4-0.1 0.9-0.3l-3.2-1.8c-0.3-0.2-0.5-0.7-0.3-1 0.2-0.4 0.7-0.5 1-0.3l4.5 2.6c0.2 0.1 0.3 0.4 0.3 0.6 0 0.3-0.2 0.6-0.4 0.7-0.1 0-1.4 0.6-2.3 0.9q-0.1 0.1-0.3 0.1z"/>
				</g>
				<g id="&lt;Group&gt;">
					<path id="&lt;Path&gt;" class="s2" d="m3 49.4c-0.3 0-0.7-0.2-0.7-0.6-0.1-0.4 0.2-0.8 0.6-0.8l3.6-0.5c0.4 0 0.8 0.2 0.8 0.7 0.1 0.4-0.2 0.7-0.6 0.8l-3.6 0.4q0 0-0.1 0z"/>
				</g>
				<g id="&lt;Group&gt;">
					<path id="&lt;Path&gt;" class="s2" d="m6.6 45.5q0 0-0.1 0c-1.7-0.1-4.4-0.2-4.6-0.2-0.4 0-0.7-0.4-0.7-0.8 0-0.4 0.3-0.7 0.7-0.7 0.2 0 3.7 0.2 4.7 0.2 0.4 0 0.7 0.4 0.7 0.8 0 0.4-0.3 0.7-0.7 0.7z"/>
				</g>
				<g id="&lt;Group&gt;">
					<path id="&lt;Path&gt;" class="s2" d="m1 42.8c-0.4 0-0.7-0.4-0.7-0.8 0-0.4 0.3-0.7 0.7-0.7 0.2 0 3.4-0.2 5.6-0.2 0.3-0.1 0.7 0.2 0.7 0.7 0 0.4-0.3 0.7-0.7 0.7-0.5 0-5.3 0.3-5.6 0.3z"/>
				</g>
				<g id="&lt;Group&gt;">
					<path id="&lt;Path&gt;" class="s2" d="m3 36.8c-0.3 0-0.7-0.2-0.7-0.6-0.1-0.4 0.2-0.8 0.6-0.8l3.6-0.5c0.4 0 0.8 0.2 0.8 0.7 0.1 0.4-0.2 0.7-0.6 0.8l-3.6 0.4q0 0-0.1 0z"/>
				</g>
				<g id="&lt;Group&gt;">
					<path id="&lt;Path&gt;" class="s2" d="m6.6 32.9q0 0-0.1 0c-1.7-0.1-4.4-0.2-4.6-0.2-0.4 0-0.7-0.4-0.7-0.8 0-0.4 0.3-0.7 0.7-0.7 0.2 0 3.7 0.2 4.7 0.2 0.4 0 0.7 0.4 0.7 0.8 0 0.4-0.3 0.7-0.7 0.7z"/>
				</g>
				<g id="&lt;Group&gt;">
					<path id="&lt;Path&gt;" class="s2" d="m1 30.1c-0.4 0-0.7-0.3-0.7-0.7 0-0.4 0.3-0.7 0.7-0.7 0.2 0 3.4-0.2 5.6-0.2 0.3-0.1 0.7 0.2 0.7 0.7 0 0.4-0.3 0.7-0.7 0.7-0.5 0-5.3 0.2-5.6 0.2z"/>
				</g>
				<g id="&lt;Group&gt;">
					<path id="&lt;Path&gt;" class="s2" d="m3 31.5c-0.3 0-0.7-0.3-0.7-0.6-0.1-0.4 0.2-0.8 0.6-0.9l3.6-0.4c0.4-0.1 0.8 0.2 0.8 0.6 0.1 0.4-0.2 0.8-0.6 0.8l-3.6 0.5q0 0-0.1 0z"/>
				</g>
				<g id="&lt;Group&gt;">
					<path id="&lt;Path&gt;" class="s2" d="m6.6 27.6q0 0-0.1 0c-1.7-0.1-4.4-0.3-4.6-0.3-0.4 0-0.7-0.3-0.7-0.7 0-0.4 0.3-0.7 0.7-0.7 0.2 0 3.7 0.1 4.7 0.2 0.4 0 0.7 0.4 0.7 0.8 0 0.4-0.3 0.7-0.7 0.7z"/>
				</g>
				<g id="&lt;Group&gt;">
					<path id="&lt;Path&gt;" class="s2" d="m1 24.8c-0.4 0-0.7-0.3-0.7-0.7 0-0.4 0.3-0.8 0.7-0.8 0.2 0 3.4-0.1 5.6-0.2 0.3 0 0.7 0.3 0.7 0.7 0 0.4-0.3 0.8-0.7 0.8-0.5 0-5.3 0.2-5.6 0.2z"/>
				</g>
				<g id="&lt;Group&gt;">
					<path id="&lt;Path&gt;" class="s2" d="m3 41c-0.2 0-0.5-0.2-0.6-0.4-0.2-0.4-0.1-0.8 0.3-1l1.8-0.9-2.9-0.8c-0.4-0.1-0.7-0.5-0.6-0.9 0.1-0.4 0.5-0.6 0.9-0.5l4.9 1.3c0.3 0 0.5 0.3 0.5 0.6 0 0.3-0.1 0.6-0.4 0.7l-3.5 1.8q-0.2 0.1-0.4 0.1z"/>
				</g>
				<g id="&lt;Group&gt;">
					<path id="&lt;Path&gt;" class="s2" d="m1 22.2c-0.4 0-0.7-0.3-0.7-0.7 0-0.4 0.3-0.7 0.7-0.7 0.2 0 3.4-0.2 5.6-0.3 0.3 0 0.7 0.3 0.7 0.7 0 0.4-0.3 0.8-0.7 0.8-0.5 0-5.3 0.2-5.6 0.2z"/>
				</g>
				<g id="&lt;Group&gt;">
					<path id="&lt;Path&gt;" class="s2" d="m3 23.6c-0.3 0-0.7-0.3-0.7-0.7-0.1-0.4 0.2-0.7 0.6-0.8l3.6-0.4c0.4-0.1 0.8 0.2 0.8 0.6 0.1 0.4-0.2 0.8-0.6 0.8l-3.6 0.5q0 0-0.1 0z"/>
				</g>
				<g id="&lt;Group&gt;">
					<path id="&lt;Path&gt;" class="s2" d="m6.6 19.6q0 0-0.1 0c-1.7-0.1-4.4-0.2-4.6-0.2-0.4 0-0.7-0.3-0.7-0.7 0-0.4 0.3-0.8 0.7-0.8 0.2 0 3.7 0.2 4.7 0.3 0.4 0 0.7 0.3 0.7 0.7 0 0.4-0.3 0.7-0.7 0.7z"/>
				</g>
				<g id="&lt;Group&gt;">
					<path id="&lt;Path&gt;" class="s2" d="m1 16.9c-0.4 0-0.7-0.3-0.7-0.7 0-0.5 0.3-0.8 0.7-0.8 0.2 0 3.4-0.1 5.6-0.2 0.3 0 0.7 0.3 0.7 0.7 0 0.4-0.3 0.7-0.7 0.8-0.5 0-5.3 0.2-5.6 0.2z"/>
				</g>
				<g id="&lt;Group&gt;">
					<path id="&lt;Path&gt;" class="s2" d="m1 10.7c-0.4 0-0.7-0.3-0.7-0.7 0-0.4 0.3-0.8 0.7-0.8 0.2 0 3.4-0.1 5.6-0.2 0.3 0 0.7 0.3 0.7 0.7 0 0.4-0.3 0.7-0.7 0.8-0.5 0-5.3 0.2-5.6 0.2z"/>
				</g>
				<g id="&lt;Group&gt;">
					<path id="&lt;Path&gt;" class="s2" d="m4.3 16.2c-0.3 0-0.6-0.2-0.7-0.5-0.1-0.4 0.1-0.8 0.5-0.9q0.4-0.2 0.9-0.4l-3.2-1.8c-0.3-0.2-0.5-0.7-0.3-1 0.2-0.4 0.7-0.5 1-0.3l4.5 2.6c0.2 0.1 0.3 0.4 0.3 0.7 0 0.2-0.2 0.5-0.4 0.6-0.1 0-1.4 0.7-2.3 0.9q-0.1 0.1-0.3 0.1z"/>
				</g>
				<g id="&lt;Group&gt;">
					<path id="&lt;Path&gt;" class="s2" d="m3 12.2c-0.3 0-0.7-0.3-0.7-0.7-0.1-0.4 0.2-0.8 0.6-0.8l3.6-0.5c0.4 0 0.8 0.3 0.8 0.7 0.1 0.4-0.2 0.7-0.6 0.8l-3.6 0.5q0 0-0.1 0z"/>
				</g>
				<g id="&lt;Group&gt;">
					<path id="&lt;Path&gt;" class="s2" d="m6.6 8.2q0 0-0.1 0c-1.7-0.1-4.4-0.2-4.6-0.2-0.4 0-0.7-0.4-0.7-0.8 0-0.4 0.3-0.7 0.7-0.7 0.2 0 3.7 0.2 4.7 0.2 0.4 0.1 0.7 0.4 0.7 0.8 0 0.4-0.3 0.7-0.7 0.7z"/>
				</g>
			</g>
		</g>
		<g id="&lt;Group&gt;">
			<path id="&lt;Path&gt;" class="s3" d="m31.9 43l-11.8-11.7 11.5-11.5 11.8 11.7z"/>
			<path id="&lt;Path&gt;" class="s3" d="m55 43.3l-11.7-11.8 11.5-11.5 11.7 11.8z"/>
			<path id="&lt;Path&gt;" class="s3" d="m78.2 43.5l-11.8-11.7 11.5-11.5 11.8 11.7z"/>
			<path id="&lt;Path&gt;" class="s3" d="m101.3 43.8l-11.8-11.8 11.6-11.5 11.7 11.8z"/>
			<path id="&lt;Path&gt;" class="s3" d="m124.5 44l-11.8-11.7 11.5-11.6 11.8 11.8z"/>
			<path id="&lt;Path&gt;" class="s3" d="m147.6 44.3l-11.8-11.8 11.6-11.5 11.7 11.8z"/>
			<path id="&lt;Path&gt;" class="s3" d="m170.8 44.5l-11.8-11.7 11.5-11.6 11.8 11.8z"/>
			<path id="&lt;Path&gt;" class="s3" d="m32.1 66.1l-11.7-11.7 11.5-11.5 11.7 11.7z"/>
			<path id="&lt;Path&gt;" class="s3" d="m55.3 66.4l-11.8-11.8 11.5-11.5 11.8 11.8z"/>
			<path id="&lt;Path&gt;" class="s3" d="m78.4 66.6l-11.8-11.7 11.6-11.5 11.7 11.7z"/>
			<path id="&lt;Path&gt;" class="s3" d="m101.6 66.9l-11.8-11.8 11.5-11.5 11.8 11.8z"/>
			<path id="&lt;Path&gt;" class="s3" d="m124.7 67.1l-11.8-11.7 11.6-11.5 11.7 11.7z"/>
			<path id="&lt;Path&gt;" class="s3" d="m147.9 67.4l-11.8-11.8 11.5-11.5 11.8 11.8z"/>
			<path id="&lt;Path&gt;" class="s3" d="m171 67.6l-11.8-11.7 11.6-11.6 11.7 11.8z"/>
			<path id="&lt;Path&gt;" class="s3" d="m32.4 89.2l-11.8-11.7 11.5-11.5 11.8 11.7z"/>
			<path id="&lt;Path&gt;" class="s3" d="m55.5 89.5l-11.8-11.8 11.6-11.5 11.7 11.8z"/>
			<path id="&lt;Path&gt;" class="s3" d="m78.7 89.7l-11.8-11.7 11.5-11.5 11.8 11.7z"/>
			<path id="&lt;Path&gt;" class="s3" d="m101.8 90l-11.8-11.8 11.6-11.5 11.7 11.8z"/>
			<path id="&lt;Path&gt;" class="s3" d="m125 90.2l-11.8-11.7 11.5-11.5 11.8 11.7z"/>
			<path id="&lt;Path&gt;" class="s3" d="m148.1 90.5l-11.8-11.8 11.6-11.5 11.7 11.8z"/>
			<path id="&lt;Path&gt;" class="s3" d="m171.3 90.7l-11.8-11.7 11.5-11.5 11.8 11.7z"/>
			<path id="&lt;Path&gt;" class="s3" d="m32.6 112.4l-11.8-11.8 11.6-11.5 11.7 11.7z"/>
			<path id="&lt;Path&gt;" class="s3" d="m55.8 112.6l-11.8-11.8 11.5-11.5 11.8 11.8z"/>
			<path id="&lt;Path&gt;" class="s3" d="m78.9 112.8l-11.8-11.7 11.6-11.5 11.7 11.7z"/>
			<path id="&lt;Path&gt;" class="s3" d="m102.1 113.1l-11.8-11.8 11.5-11.5 11.8 11.8z"/>
			<path id="&lt;Path&gt;" class="s3" d="m125.2 113.3l-11.8-11.7 11.6-11.5 11.7 11.7z"/>
			<path id="&lt;Path&gt;" class="s3" d="m148.4 113.6l-11.8-11.8 11.5-11.5 11.8 11.8z"/>
			<path id="&lt;Path&gt;" class="s3" d="m171.5 113.8l-11.8-11.7 11.5-11.5 11.8 11.7z"/>
		</g>
	</g>
</svg>