<svg version="1.2" xmlns="http://www.w3.org/2000/svg" viewBox="0 0 205 273" width="205" height="273">
	<title>New Project</title>
	<style>
		.s0 { fill: #ffffff;stroke: #000000;stroke-width: 2.2 } 
	</style>
	<g id="&lt;Group&gt;">
		<path id="&lt;Path&gt;" class="s0" d="m188.8 11.2h-174.8c-3.6 0-6.5-2.9-6.5-6.5v-3.5h187.8v3.5c0 3.6-2.9 6.5-6.5 6.5z"/>
		<path id="&lt;Compound Path&gt;" class="s0" d="m192.9 109.5q-1-1.2-2-2.3-0.6-0.7-1.3-1.3-0.6-0.7-1.3-1.4-1.1-1.1-2.2-2.3-0.5-0.5-0.9-0.9c-1.9-1.9-3.8-3.7-5.8-5.5q-0.5-0.4-1-0.9-1.9-1.8-3.9-3.4-2.2-2-4.4-3.7-0.4-0.3-0.9-0.6c-3.9-3.1-7.7-5.6-10.7-7.1-1.9-0.9-3.6-1.4-4.9-1.4q0 0 0 0c-10.6 0-144.2-0.4-146.1 4.7v-78.7c0 3.6 2.9 6.5 6.5 6.5h174.8c3.6 0 6.5-2.9 6.5-6.5v107.5q-0.3-0.3-0.5-0.6-0.9-1-1.9-2.1z"/>
		<path id="&lt;Path&gt;" class="s0" d="m2.3 254.6c2.6-8.6 3.8-10.2 4.8-18.5 0.2-1.3 0.3-5.8 0.4-12.4v-132q0.2 0.4 0.3 0.7 0 0 0 0c0.8-0.1 122.1-10.4 143.9-1q0.4 0.2 0.8 0.5 0.1 0.1 0.2 0.2 0.2 0.2 0.3 0.4 0.3 0.4 0.5 0.8 0.1 0.1 0.1 0.2 0.1 0.1 0.1 0.2 0.2 0.3 0.3 0.6 0.2 0.4 0.4 0.8 0.1 0.3 0.2 0.7 0.1 0.3 0.2 0.6 0.1 0.2 0.2 0.4 0.1 0.4 0.2 0.8 0.2 0.4 0.3 0.9 0.3 1.2 0.7 2.6 0.1 0.5 0.2 1 0.1 0.5 0.2 1 0.4 1.5 0.7 3.1 0.1 0.6 0.2 1.1 0.1 0.8 0.3 1.7 0.1 0.8 0.3 1.7 0.1 0.8 0.3 1.7 0.3 1.7 0.5 3.5 0.1 0.3 0.1 0.6 0.5 3.2 1 6.4 0.4 2.3 0.8 4.5c0.3 2.2 0.7 4.3 1.1 6.1q0.4 2.2 0.9 3.9 0.5 2.2 1.1 3.6c0.6 1.4 1.2 2.3 1.9 2.3 0.6 0.1 1.6 0 2.8-0.3q0.3 0 0.6-0.1 0.7-0.2 1.6-0.5 1.4-0.4 3.2-1.1 0.7-0.2 1.4-0.5 0.7-0.3 1.4-0.6 0.8-0.4 1.5-0.7 1.2-0.5 2.3-1.1 1.2-0.5 2.4-1.1 0.7-0.4 1.5-0.8 0.4-0.2 0.8-0.4 0.8-0.4 1.5-0.9 0.4-0.2 0.8-0.4 1.1-0.7 2.3-1.3 0.5-0.3 1-0.6 0.5-0.4 1.1-0.8 0.6-0.3 1.1-0.7 0.5-0.3 0.9-0.6 0.3-0.2 0.7-0.5 0.1-0.1 0.2-0.2 0.2-0.1 0.4-0.2v107c2.9 6.5 10.4 9.8 7.5 19.2-1.7 6-8 11.1-11.9 8.1-3.9-3-77.9-2.9-86.5-3h-21.9c-49.2 0.6-56.4 5.5-66.6 9.7-4.7 1.8-16.1-7.7-13.6-16.3z"/>
		<path id="&lt;Path&gt;" class="s0" d="m7.5 83.4c1.9-5.1 135.5-4.7 146.1-4.7q0 0 0 0c1.3 0 3 0.5 4.9 1.4 3 1.5 6.8 4 10.7 7.1q0.5 0.3 0.9 0.6 2.2 1.7 4.4 3.7 2 1.6 3.9 3.4 0.5 0.5 1 0.9c2 1.8 3.9 3.6 5.8 5.5q0.4 0.4 0.9 0.9 1.1 1.2 2.2 2.3 0.7 0.7 1.3 1.4 0.7 0.6 1.3 1.3 1 1.1 2 2.3 1 1.1 1.9 2.1 0.2 0.3 0.5 0.6 0.9 1.2 1.8 2.3 0.3 0.4 0.6 0.7 0.3 0.5 0.7 1 0.4 0.5 0.7 1 0.2 0.2 0.3 0.5 0.3 0.4 0.6 0.8 0.3 0.6 0.7 1.2 0.2 0.5 0.4 0.9 0.5 0.8 0.7 1.5 0 0.2 0 0.4-0.1 0.3-0.2 0.7-0.1 0.3-0.3 0.7-0.2 0.3-0.3 0.5-0.3 0.5-0.7 0.9-0.3 0.4-0.7 0.8-0.2 0.3-0.4 0.5-0.2 0.2-0.4 0.4-0.4 0.3-0.7 0.6-0.5 0.5-1.1 0.9-0.5 0.5-1.1 0.9-0.3 0.2-0.6 0.5-0.2 0.1-0.4 0.2-0.1 0.1-0.2 0.2-0.4 0.3-0.7 0.5-0.4 0.3-0.9 0.6-0.5 0.4-1.1 0.7-0.6 0.4-1.1 0.8-0.5 0.3-1 0.6-1.2 0.6-2.3 1.3-0.4 0.2-0.8 0.4-0.7 0.5-1.5 0.9-0.4 0.2-0.8 0.4-0.8 0.4-1.5 0.8-1.2 0.6-2.4 1.1-1.1 0.6-2.3 1.1-0.7 0.3-1.5 0.7-0.7 0.3-1.4 0.6-0.7 0.3-1.4 0.5-1.8 0.7-3.2 1.1-0.9 0.3-1.6 0.5-0.3 0.1-0.6 0.1c-1.2 0.3-2.2 0.4-2.8 0.3-0.7 0-1.3-0.9-1.9-2.3q-0.6-1.4-1.1-3.6-0.5-1.7-0.9-3.9c-0.4-1.8-0.8-3.9-1.1-6.1q-0.4-2.2-0.8-4.5-0.5-3.2-1-6.4 0-0.3-0.1-0.6-0.2-1.8-0.5-3.5-0.2-0.9-0.3-1.7-0.2-0.9-0.3-1.7-0.2-0.9-0.3-1.7-0.1-0.5-0.2-1.1-0.3-1.6-0.7-3.1-0.1-0.5-0.2-1-0.1-0.5-0.2-1-0.4-1.4-0.7-2.6-0.1-0.5-0.3-0.9-0.1-0.4-0.2-0.8-0.1-0.2-0.2-0.4-0.1-0.3-0.2-0.6-0.1-0.4-0.2-0.7-0.2-0.4-0.4-0.8-0.1-0.3-0.3-0.6 0-0.1-0.1-0.2 0-0.1-0.1-0.2-0.2-0.4-0.5-0.8-0.1-0.2-0.3-0.4-0.1-0.1-0.2-0.2-0.2-0.1-0.4-0.3-0.2-0.1-0.4-0.2c-21.8-9.4-143.1 0.9-143.9 1q0 0 0 0-0.1-0.3-0.3-0.7c-0.5-1.3-1.4-4.4 0-8.3z"/>
		<path id="&lt;Path&gt;" class="s0" d="m93.7 39.4q5.3 24.6 5.3 30.7c0 6-33.4-0.1-38.3 0-5 0-44.4 4.5-46.5 1-2.5-4.1 6.3-20.2 3.2-28.7-3-8.4-4-21.9-1.7-24.5 2.3-2.6 30.6 3.3 35.9 2.1 5.4-1.1 42.4-4.2 44.8-1.9q2.4 2.3-2.7 21.3z"/>
		<path id="&lt;Path&gt;" class="s0" d="m183.8 39.4q5.3 24.6 5.3 30.7c0 6-33.4-0.1-38.3 0-4.9 0-44.3 4.5-46.5 1-2.5-4.1 6.3-20.2 3.3-28.7-3-8.4-4.1-21.9-1.8-24.5 2.4-2.6 30.6 3.3 36 2.1 5.3-1.1 42.3-4.2 44.7-1.9q2.4 2.3-2.7 21.3z"/>
	</g>
</svg>