<svg version="1.2" xmlns="http://www.w3.org/2000/svg" viewBox="0 0 106 107" width="106" height="107">
	<title>New Project</title>
	<defs>
		<clipPath clipPathUnits="userSpaceOnUse" id="cp1">
			<path d="m1578.09 892.01c-23.98 0-43.5-19.51-43.5-43.49 0-23.99 19.52-43.5 43.5-43.5 23.99 0 43.5 19.51 43.5 43.5 0 23.98-19.51 43.49-43.5 43.49zm0-85.52c-23.17 0-42.03 18.85-42.03 42.03 0 23.17 18.86 42.02 42.03 42.02 23.18 0 42.03-18.85 42.03-42.02 0-23.18-18.85-42.03-42.03-42.03zm0 75.44c-18.42 0-33.41-14.99-33.41-33.41 0-18.43 14.99-33.41 33.41-33.41 18.42 0 33.41 14.98 33.41 33.41 0 18.42-14.99 33.41-33.41 33.41zm0-65.35c-17.61 0-31.94 14.32-31.94 31.94 0 17.61 14.33 31.94 31.94 31.94 17.61 0 31.94-14.33 31.94-31.94 0-17.62-14.33-31.94-31.94-31.94z"/>
		</clipPath>
		<linearGradient id="g1" x1="1576.2" y1="848.5" x2="1576.2" y2="848.5" gradientUnits="userSpaceOnUse">
			<stop offset="0" stop-color="#ffffff"/>
			<stop offset="1" stop-color="#ffffff"/>
		</linearGradient>
		<linearGradient id="g2" x1="1576.2" y1="848.5" x2="1576.2" y2="848.5" gradientUnits="userSpaceOnUse">
			<stop offset="0" stop-color="#ffffff"/>
			<stop offset="1" stop-color="#ffffff"/>
		</linearGradient>
		<clipPath clipPathUnits="userSpaceOnUse" id="cp2">
			<path d="m50.09 102.01c-23.98 0-43.5-19.51-43.5-43.49 0-23.99 19.52-43.5 43.5-43.5 23.99 0 43.5 19.51 43.5 43.5 0 23.98-19.51 43.49-43.5 43.49zm0-85.52c-23.17 0-42.03 18.85-42.03 42.03 0 23.17 18.86 42.02 42.03 42.02 23.18 0 42.03-18.85 42.03-42.02 0-23.18-18.85-42.03-42.03-42.03zm0 75.44c-18.42 0-33.41-14.99-33.41-33.41 0-18.43 14.99-33.41 33.41-33.41 18.42 0 33.41 14.98 33.41 33.41 0 18.42-14.99 33.41-33.41 33.41zm0-65.35c-17.61 0-31.94 14.32-31.94 31.94 0 17.61 14.33 31.94 31.94 31.94 17.61 0 31.94-14.33 31.94-31.94 0-17.62-14.33-31.94-31.94-31.94z"/>
		</clipPath>
		<linearGradient id="g3" x1="48.2" y1="58.5" x2="48.2" y2="58.5" gradientUnits="userSpaceOnUse">
			<stop offset="0" stop-color="#ffffff"/>
			<stop offset="1" stop-color="#ffffff"/>
		</linearGradient>
		<linearGradient id="g4" x1="48.2" y1="58.5" x2="48.2" y2="58.5" gradientUnits="userSpaceOnUse">
			<stop offset="0" stop-color="#ffffff"/>
			<stop offset="1" stop-color="#ffffff"/>
		</linearGradient>
	</defs>
	<style>
		.s0 { fill: #ffffff } 
		.s1 { fill: #000000 } 
		.s2 { fill: none } 
		.s3 { fill: url(#g1) } 
		.s4 { fill: url(#g2) } 
		.s5 { fill: #ffffff;stroke: #000000;stroke-linecap: round;stroke-linejoin: round;stroke-width: 1.5 } 
		.s6 { fill: url(#g3) } 
		.s7 { fill: url(#g4) } 
	</style>
	<g id="&lt;Group&gt;">
		<g id="&lt;Group&gt;">
			<g id="&lt;Group&gt;">
				<g id="&lt;Group&gt;">
					<path id="&lt;Compound Path&gt;" fill-rule="evenodd" class="s0" d="m1621.2 848.8c0 23.6-19.2 42.7-42.8 42.7-23.6 0-42.8-19.1-42.8-42.7 0-23.6 19.2-42.8 42.8-42.8 23.6 0 42.8 19.2 42.8 42.8zm-75.5 0c0 18 14.7 32.7 32.7 32.7 18 0 32.7-14.7 32.7-32.7 0-18.1-14.7-32.7-32.7-32.7-18 0-32.7 14.6-32.7 32.7z"/>
					<path id="&lt;Compound Path&gt;" fill-rule="evenodd" class="s1" d="m1578.4 892.3c-24 0-43.5-19.5-43.5-43.5 0-24 19.5-43.5 43.5-43.5 24 0 43.5 19.5 43.5 43.5 0 24-19.5 43.5-43.5 43.5zm0-85.5c-23.2 0-42 18.8-42 42 0 23.2 18.8 42 42 42 23.2 0 42-18.8 42-42 0-23.2-18.8-42-42-42zm0 75.4c-18.4 0-33.4-15-33.4-33.4 0-18.4 15-33.4 33.4-33.4 18.4 0 33.4 15 33.4 33.4 0 18.4-15 33.4-33.4 33.4zm0-65.4c-17.6 0-31.9 14.4-31.9 32 0 17.6 14.3 31.9 31.9 31.9 17.6 0 31.9-14.3 31.9-31.9 0-17.6-14.3-32-31.9-32z"/>
				</g>
			</g>
			<g id="&lt;Group&gt;">
				<g id="&lt;Group&gt;">
					<path id="&lt;Compound Path&gt;" fill-rule="evenodd" class="s0" d="m1621.2 848.8c0 23.6-19.2 42.7-42.8 42.7-23.6 0-42.8-19.1-42.8-42.7 0-23.6 19.2-42.8 42.8-42.8 23.6 0 42.8 19.2 42.8 42.8zm-75.5 0c0 18 14.7 32.7 32.7 32.7 18 0 32.7-14.7 32.7-32.7 0-18.1-14.7-32.7-32.7-32.7-18 0-32.7 14.6-32.7 32.7z"/>
					<path id="&lt;Compound Path&gt;" fill-rule="evenodd" class="s1" d="m1578.4 892.3c-24 0-43.5-19.5-43.5-43.5 0-24 19.5-43.5 43.5-43.5 24 0 43.5 19.5 43.5 43.5 0 24-19.5 43.5-43.5 43.5zm0-85.5c-23.2 0-42 18.8-42 42 0 23.2 18.8 42 42 42 23.2 0 42-18.8 42-42 0-23.2-18.8-42-42-42zm0 75.4c-18.4 0-33.4-15-33.4-33.4 0-18.4 15-33.4 33.4-33.4 18.4 0 33.4 15 33.4 33.4 0 18.4-15 33.4-33.4 33.4zm0-65.4c-17.6 0-31.9 14.4-31.9 32 0 17.6 14.3 31.9 31.9 31.9 17.6 0 31.9-14.3 31.9-31.9 0-17.6-14.3-32-31.9-32z"/>
				</g>
			</g>
			<circle id="&lt;Path&gt;" class="s0" cx="1578.1" cy="848.5" r="36.9"/>
			<g id="&lt;Group&gt;">
				<path id="&lt;Compound Path&gt;" fill-rule="evenodd" class="s0" d="m1620.9 848.5c0 23.6-19.2 42.8-42.8 42.8-23.6 0-42.8-19.2-42.8-42.8 0-23.6 19.2-42.7 42.8-42.7 23.6 0 42.8 19.1 42.8 42.7zm-75.5 0c0 18.1 14.6 32.7 32.7 32.7 18 0 32.7-14.6 32.7-32.7 0-18-14.7-32.7-32.7-32.7-18.1 0-32.7 14.7-32.7 32.7z"/>
				<path id="&lt;Compound Path&gt;" fill-rule="evenodd" class="s1" d="m1578.1 892c-24 0-43.5-19.5-43.5-43.5 0-24 19.5-43.5 43.5-43.5 24 0 43.5 19.5 43.5 43.5 0 24-19.5 43.5-43.5 43.5zm0-85.5c-23.2 0-42 18.8-42 42 0 23.2 18.8 42 42 42 23.2 0 42-18.8 42-42 0-23.2-18.8-42-42-42zm0 75.4c-18.4 0-33.4-15-33.4-33.4 0-18.4 15-33.4 33.4-33.4 18.4 0 33.4 15 33.4 33.4 0 18.4-15 33.4-33.4 33.4zm0-65.3c-17.6 0-31.9 14.3-31.9 31.9 0 17.6 14.3 32 31.9 32 17.6 0 31.9-14.4 31.9-32 0-17.6-14.3-31.9-31.9-31.9z"/>
			</g>
			<g id="&lt;Clip Group&gt;" clip-path="url(#cp1)">
				<g id="&lt;Group&gt;">
					<path id="&lt;Compound Path&gt;" fill-rule="evenodd" class="s2" d="m1620.9 848.5c0 23.6-19.2 42.8-42.8 42.8-23.6 0-42.8-19.2-42.8-42.8 0-23.6 19.2-42.7 42.8-42.7 23.6 0 42.8 19.1 42.8 42.7zm-75.5 0c0 18.1 14.6 32.7 32.7 32.7 18 0 32.7-14.6 32.7-32.7 0-18-14.7-32.7-32.7-32.7-18.1 0-32.7 14.7-32.7 32.7z"/>
					<path id="&lt;Compound Path&gt;" fill-rule="evenodd" class="s2" d="m1578.1 892c-24 0-43.5-19.5-43.5-43.5 0-24 19.5-43.5 43.5-43.5 24 0 43.5 19.5 43.5 43.5 0 24-19.5 43.5-43.5 43.5zm0-85.5c-23.2 0-42 18.8-42 42 0 23.2 18.8 42 42 42 23.2 0 42-18.8 42-42 0-23.2-18.8-42-42-42zm0 75.4c-18.4 0-33.4-15-33.4-33.4 0-18.4 15-33.4 33.4-33.4 18.4 0 33.4 15 33.4 33.4 0 18.4-15 33.4-33.4 33.4zm0-65.3c-17.6 0-31.9 14.3-31.9 31.9 0 17.6 14.3 32 31.9 32 17.6 0 31.9-14.4 31.9-32 0-17.6-14.3-31.9-31.9-31.9z"/>
				</g>
				<path id="&lt;Mesh&gt;" class="s3" d="m1576.2 848.5q-8.8-10.1-17.5-20.3c11.2-9.7 28.1-8.5 37.8 2.8q-10.1 8.7-20.3 17.5zm20.3-17.5c-9.7-11.3-26.6-12.5-37.8-2.8-12.3-14.2-8.8-10.2-10.6-12.2 18-15.5 45.1-13.5 60.6 4.4-2 1.8 2.1-1.7-12.2 10.6zm12.2-10.6c-15.5-17.9-42.6-19.9-60.6-4.4q-5.7-6.7-11.5-13.4c25.3-21.8 63.6-19 85.5 6.3q-6.7 5.8-13.4 11.5zm-32.5 28.1q-10.1 8.8-20.3 17.6c-9.7-11.3-8.5-28.2 2.8-37.9q8.7 10.2 17.5 20.3zm-17.5-20.3c-11.3 9.7-12.5 26.6-2.8 37.9-14.2 12.3-10.2 8.7-12.2 10.5-15.5-18-13.5-45.1 4.4-60.6 1.8 2-1.7-2 10.6 12.2zm-10.6-12.2c-17.9 15.5-19.9 42.6-4.4 60.6q-6.7 5.8-13.3 11.5c-21.9-25.3-19.1-63.6 6.2-85.5q5.8 6.7 11.5 13.4zm28.1 32.5q8.8 10.2 17.6 20.3c-11.2 9.7-28.2 8.5-37.9-2.7q10.2-8.8 20.3-17.6zm-20.3 17.6c9.7 11.2 26.7 12.4 37.9 2.7 12.3 14.3 8.8 10.2 10.5 12.2-17.9 15.5-45.1 13.6-60.6-4.4 2-1.8-2 1.8 12.2-10.5zm-12.2 10.5c15.5 18 42.7 19.9 60.6 4.4q5.8 6.7 11.5 13.4c-25.3 21.9-63.6 19.1-85.4-6.3q6.6-5.7 13.3-11.5zm32.5-28.1q10.2-8.8 20.3-17.5c9.7 11.2 8.5 28.1-2.7 37.8q-8.8-10.1-17.6-20.3zm17.6 20.3c11.2-9.7 12.4-26.6 2.7-37.8 14.3-12.3 10.2-8.8 12.2-10.6 15.6 18 13.6 45.1-4.4 60.6-1.7-2 1.8 2.1-10.5-12.2zm10.5 12.2c18-15.5 20-42.6 4.4-60.6q6.7-5.7 13.4-11.5c21.9 25.3 19.1 63.6-6.3 85.5q-5.7-6.7-11.5-13.4z"/>
				<path id="&lt;Mesh&gt;" class="s4" d="m1576.2 848.5q-8.8-10.1-17.5-20.3c11.2-9.7 28.1-8.5 37.8 2.8q-10.1 8.7-20.3 17.5zm20.3-17.5c-9.7-11.3-26.6-12.5-37.8-2.8-12.3-14.2-8.8-10.2-10.6-12.2 18-15.5 45.1-13.5 60.6 4.4-2 1.8 2.1-1.7-12.2 10.6zm12.2-10.6c-15.5-17.9-42.6-19.9-60.6-4.4q-4.4-5.1-8.8-10.2c23.6-20.4 59.3-17.8 79.6 5.8q-5.1 4.4-10.2 8.8zm-32.5 28.1q-10.1 8.8-20.3 17.6c-9.7-11.3-8.5-28.2 2.8-37.9q8.7 10.2 17.5 20.3zm-17.5-20.3c-11.3 9.7-12.5 26.6-2.8 37.9-14.2 12.3-10.2 8.7-12.2 10.5-15.5-18-13.5-45.1 4.4-60.6 1.8 2-1.7-2 10.6 12.2zm-10.6-12.2c-17.9 15.5-19.9 42.6-4.4 60.6q-5.1 4.4-10.2 8.8c-20.4-23.6-17.8-59.2 5.8-79.6q4.4 5.1 8.8 10.2zm28.1 32.5q8.8 10.2 17.6 20.3c-11.2 9.7-28.2 8.5-37.9-2.7q10.2-8.8 20.3-17.6zm-20.3 17.6c9.7 11.2 26.7 12.4 37.9 2.7 12.3 14.3 8.8 10.2 10.5 12.2-17.9 15.5-45.1 13.6-60.6-4.4 2-1.8-2 1.8 12.2-10.5zm-12.2 10.5c15.5 18 42.7 19.9 60.6 4.4q4.4 5.1 8.8 10.2c-23.6 20.4-59.2 17.8-79.6-5.8q5.1-4.4 10.2-8.8zm32.5-28.1q10.2-8.8 20.3-17.5c9.7 11.2 8.5 28.1-2.7 37.8q-8.8-10.1-17.6-20.3zm17.6 20.3c11.2-9.7 12.4-26.6 2.7-37.8 14.3-12.3 10.2-8.8 12.2-10.6 15.6 18 13.6 45.1-4.4 60.6-1.7-2 1.8 2.1-10.5-12.2zm10.5 12.2c18-15.5 20-42.6 4.4-60.6q5.1-4.4 10.2-8.8c20.4 23.6 17.8 59.3-5.8 79.6q-4.4-5.1-8.8-10.2z"/>
			</g>
		</g>
		<g id="&lt;Group&gt;">
			<path id="&lt;Path&gt;" class="s5" d="m1550.4 802.7c1.3-2.6 0.3-6.8-11.8-6.7 3.6 8.2 10.3 9.6 11.8 6.7z"/>
			<path id="&lt;Path&gt;" class="s5" d="m1555.7 808.2c-1.6-3.9-10.8-3.5-19 3.3 7.3 3.4 21.6 2.8 19-3.3z"/>
			<path id="&lt;Path&gt;" class="s5" d="m1557.8 807.3c4.2 1.3 7-5.1 2.1-15.7-4.6 5.1-5.8 14.5-2.1 15.7z"/>
			<path id="&lt;Path&gt;" class="s5" d="m1563 817.2c-1.7-3.9-12-1.4-19.3 6.3 7.7 2.6 21.3-1.4 19.3-6.3z"/>
			<path id="&lt;Path&gt;" class="s5" d="m1567.1 825.1c-1.7-3.9-12.8-1.3-20.1 6.4 7.7 2.5 22.2-1.6 20.1-6.4z"/>
			<path id="&lt;Path&gt;" class="s5" d="m1565 815.2c2.8 1.4 8.5-5.1 5.7-16.4-5.5 4.1-9.2 14.8-5.7 16.4z"/>
			<path id="&lt;Path&gt;" class="s5" d="m1568.9 823.7c1.6 2.6 9.9 0.1 13.5-11-6.9 0.7-15.6 7.7-13.5 11z"/>
			<path id="&lt;Path&gt;" class="s5" d="m1563.9 839.8c-1.8 0.1-2.7 0.3-4.3 0.5 3.7-5.3 9.5-7.6 10.7-5.4 1.1 1.9-2.2 4.6-6.4 4.9z"/>
			<path id="&lt;Path&gt;" class="s5" d="m1572.1 834.1c1.5 2.7 8.7 1.6 11.7-8.3-6-0.5-13.6 4.9-11.7 8.3z"/>
			<path id="&lt;Path&gt;" class="s5" d="m1574.4 841.1c-0.2 3.1 5.5 6 12.4-0.8-4.1-3.5-12.1-3-12.4 0.8z"/>
		</g>
		<g id="&lt;Group&gt;">
			<path id="&lt;Path&gt;" class="s5" d="m1545.3 875.6c-1.9-1-5-0.2-5 8.8 6.1-2.6 7.2-7.6 5-8.8z"/>
			<path id="&lt;Path&gt;" class="s5" d="m1549.4 871.7c-2.9 1.2-2.6 8 2.4 14.2 2.6-5.5 2.2-16-2.4-14.2z"/>
			<path id="&lt;Path&gt;" class="s5" d="m1555.4 867.7c-2.6 1.8-0.8 8.4 5.4 13.3 1.3-5.9-1.4-16.1-5.4-13.3z"/>
			<path id="&lt;Path&gt;" class="s5" d="m1548.8 870.2c1-3.2-3.7-5.2-11.6-1.7 3.7 3.5 10.7 4.4 11.6 1.7z"/>
			<path id="&lt;Path&gt;" class="s5" d="m1554.8 864.8c0.9-2-3.9-6.3-12.3-4.2 3.1 4 11 6.8 12.3 4.2z"/>
			<path id="&lt;Path&gt;" class="s5" d="m1561 862c2-1.2 0.2-7.4-8-10.1 0.4 5.1 5.6 11.7 8 10.1z"/>
			<path id="&lt;Path&gt;" class="s5" d="m1573 865.8c0 1.3 0.2 2 0.3 3.2-3.9-2.8-5.6-7.1-3.9-8 1.4-0.8 3.4 1.7 3.6 4.8z"/>
			<path id="&lt;Path&gt;" class="s5" d="m1568.8 859.7c2-1.1 1.3-6.4-6.1-8.7-0.4 4.4 3.6 10.1 6.1 8.7z"/>
			<path id="&lt;Path&gt;" class="s5" d="m1574 858c2.3 0.2 4.5-4-0.5-9.2-2.7 3-2.3 9 0.5 9.2z"/>
		</g>
		<path id="&lt;Path&gt;" class="s5" d="m1563.6 872.2c0.2-2-5.1-4.1-11.5 0.2 3.9 2.5 11.3 2.3 11.5-0.2z"/>
		<path id="&lt;Path&gt;" class="s5" d="m1567.9 867.9c1.2-1.6-2.2-6.2-9.8-5.8 1.9 4 8.3 7.8 9.8 5.8z"/>
		<path id="&lt;Path&gt;" class="s5" d="m1579 867.3c0.4 1.1 0.8 1.6 1.3 2.5-4.1-1-6.9-4.1-5.8-5.4 1-1.1 3.4 0.3 4.5 2.9z"/>
		<path id="&lt;Path&gt;" class="s5" d="m1573.6 863.5c1.3-1.5-1-5.7-7.8-5.3 1.1 3.8 6.1 7.3 7.8 5.3z"/>
		<path id="&lt;Path&gt;" class="s5" d="m1582 853.3c1.9-0.5 2.4-4.7-3.4-7.4-1.2 3.3 0.9 8.1 3.4 7.4z"/>
		<g id="&lt;Group&gt;">
			<path id="&lt;Path&gt;" class="s5" d="m1617 859.1c0.6 1.8 3.1 3.2 8.5-2.6-5.6-2-9.2 0.6-8.5 2.6z"/>
			<path id="&lt;Path&gt;" class="s5" d="m1611.9 859.2c2.6 1 6.6-3.6 7-10.6-4.9 1.9-11.1 9-7 10.6z"/>
			<path id="&lt;Path&gt;" class="s5" d="m1611.4 860.6c-2.5 1.4-0.7 5.6 6.6 8.1-0.4-4.5-4.4-9.4-6.6-8.1z"/>
			<path id="&lt;Path&gt;" class="s5" d="m1604.3 858.6c2.6 0.9 6.1-5.1 5.7-12.1-4.7 2.5-8.9 10.9-5.7 12.1z"/>
			<path id="&lt;Path&gt;" class="s5" d="m1598.7 857c2.6 1 6.4-5.5 6-12.5-4.7 2.5-9.2 11.3-6 12.5z"/>
			<path id="&lt;Path&gt;" class="s5" d="m1604.4 860.4c-1.9 0.8-1.4 6.4 5.3 10.2 0.5-4.5-3-11.1-5.3-10.2z"/>
			<path id="&lt;Path&gt;" class="s5" d="m1598.6 858.5c-2-0.4-4.6 4.7-0.9 11.4 2.8-3.6 3.4-11 0.9-11.4z"/>
			<path id="&lt;Path&gt;" class="s5" d="m1593.1 848.8c0.8-0.9 1.1-1.4 1.7-2.3 0.9 4.2-0.6 8-2.2 7.6-1.4-0.4-1.3-3.1 0.5-5.3z"/>
			<path id="&lt;Path&gt;" class="s5" d="m1592.2 855.3c-2-0.5-4.7 3.4-1.3 9.3 2.9-2.6 3.7-8.6 1.3-9.3z"/>
			<path id="&lt;Path&gt;" class="s5" d="m1587.8 853.2c-1.4-1.4-5.4 0-5.2 6.4 3.5-0.4 6.9-4.5 5.2-6.4z"/>
		</g>
		<g id="&lt;Group&gt;">
			<path id="&lt;Path&gt;" class="s5" d="m1593.8 888.5c-1.6 2-1.3 5.7 8.8 7.4-1.7-7.4-7.1-9.6-8.8-7.4z"/>
			<path id="&lt;Path&gt;" class="s5" d="m1590.1 883.1c0.8 3.5 8.6 4.6 16.5 0.2-5.6-4.1-17.6-5.8-16.5-0.2z"/>
			<path id="&lt;Path&gt;" class="s5" d="m1588.2 883.5c-3.3-1.7-6.6 3.2-4.2 12.8 4.7-3.5 7.2-11.3 4.2-12.8z"/>
			<path id="&lt;Path&gt;" class="s5" d="m1588.2 855.3c1.5 0.2 2.3 0.1 3.7 0.2-3.9 3.9-9.2 4.9-9.9 2.9-0.6-1.8 2.6-3.6 6.2-3.1z"/>
			<path id="&lt;Path&gt;" class="s5" d="m1589.5 864c1.5 0.2 2.3 0.2 3.7 0.3-3.9 3.8-9.2 4.9-9.9 2.8-0.6-1.7 2.6-3.5 6.2-3.1z"/>
			<path id="&lt;Path&gt;" class="s5" d="m1589.5 864c1.5 0.2 2.3 0.2 3.7 0.3-3.9 3.8-9.2 4.9-9.9 2.8-0.6-1.7 2.6-3.5 6.2-3.1z"/>
			<path id="&lt;Path&gt;" class="s5" d="m1592.6 869c1.8 0.3 2.8 0.2 4.4 0.3-4.7 4.6-10.9 5.9-11.7 3.4-0.7-2.1 3-4.2 7.3-3.7z"/>
			<path id="&lt;Path&gt;" class="s5" d="m1594 874.7c1.8 0.2 2.7 0.1 4.3 0.2-4.6 4.6-10.8 5.9-11.6 3.4-0.7-2.1 3-4.2 7.3-3.6z"/>
			<path id="&lt;Path&gt;" class="s5" d="m1580.7 859.8c-0.8-2.5-7-2.8-11.1 5.1 4.9 1.3 12.1-2 11.1-5.1z"/>
			<path id="&lt;Path&gt;" class="s5" d="m1583.3 874.4c-0.8-2.5-7-2.7-11 5.2 4.9 1.3 12.1-2.1 11-5.2z"/>
			<path id="&lt;Path&gt;" class="s5" d="m1584 880.8c-1.2-1.6-5.8-0.2-6.8 6.6 4-0.3 8.4-4.5 6.8-6.6z"/>
			<path id="&lt;Path&gt;" class="s5" d="m1582 867.4c-0.8-2.5-7-2.7-11.1 5.2 5 1.3 12.1-2.1 11.1-5.2z"/>
			<path id="&lt;Path&gt;" class="s5" d="m1579.6 852.5c0.6-2.5-3.7-5.9-10.6-1.2 2.9 3.6 9.7 4.4 10.6 1.2z"/>
		</g>
		<g id="&lt;Group&gt;">
			<path id="&lt;Path&gt;" class="s5" d="m1622.5 819c2.5 1.4 6.7 0.5 6.9-11.6-8.3 3.4-9.8 10-6.9 11.6z"/>
			<path id="&lt;Path&gt;" class="s5" d="m1616.8 824.2c4-1.5 3.8-10.7-2.8-19.1-3.6 7.2-3.4 21.5 2.8 19.1z"/>
			<path id="&lt;Path&gt;" class="s5" d="m1617.6 826.3c-1.4 4.2 4.9 7.1 15.6 2.6-4.9-4.8-14.3-6.2-15.6-2.6z"/>
			<path id="&lt;Path&gt;" class="s5" d="m1599.6 835.2c4-1.6 1.6-12.8-5.9-20.3-2.7 7.6 1 22.2 5.9 20.3z"/>
			<path id="&lt;Path&gt;" class="s5" d="m1600.9 836.9c-2.6 1.6-0.3 10 10.7 13.9-0.5-6.9-7.3-15.9-10.7-13.9z"/>
			<path id="&lt;Path&gt;" class="s5" d="m1608.8 830.8c3.6-1.5 1.6-12.1-5.1-19.2-2.6 7.3 0.7 21.1 5.1 19.2z"/>
			<path id="&lt;Path&gt;" class="s5" d="m1610 833.4c-1.8 2.5 3.6 9.3 15.2 8.6-3.1-6.2-12.9-11.7-15.2-8.6z"/>
			<path id="&lt;Path&gt;" class="s5" d="m1585 831.5c-0.1-1.7-0.3-2.7-0.4-4.3 5.2 3.9 7.4 9.7 5.1 10.9-2 1-4.6-2.3-4.7-6.6z"/>
			<path id="&lt;Path&gt;" class="s5" d="m1590.4 839.9c-2.7 1.4-1.8 8.6 8.1 11.9 0.6-5.9-4.6-13.7-8.1-11.9z"/>
			<path id="&lt;Path&gt;" class="s5" d="m1583.4 842c-3.1-0.3-6.2 5.4 0.5 12.5 3.6-4 3.3-12.1-0.5-12.5z"/>
		</g>
		<g id="&lt;Group&gt;">
			<path id="&lt;Path&gt;" class="s5" d="m1581.2 820.6c-1.7-0.8-2.8-3.4 3.6-8.1 1.3 5.7-1.7 9.1-3.6 8.1z"/>
			<path id="&lt;Path&gt;" class="s5" d="m1580.6 825.6c-0.7-2.7 4.3-6.1 11.3-5.7-2.5 4.7-10.3 10-11.3 5.7z"/>
			<path id="&lt;Path&gt;" class="s5" d="m1579.1 826c-1.7 2.3-5.7 0-7.3-7.5 4.5 0.9 8.8 5.4 7.3 7.5z"/>
			<path id="&lt;Path&gt;" class="s5" d="m1580.3 833.2c-0.7-2.7 5.7-5.4 12.6-4.3-3 4.4-11.8 7.7-12.6 4.3z"/>
			<path id="&lt;Path&gt;" class="s5" d="m1581.2 839c-0.7-2.7 6.2-5.7 13.1-4.5-3.1 4.3-12.3 7.9-13.1 4.5z"/>
			<path id="&lt;Path&gt;" class="s5" d="m1578.4 833c-0.9 1.8-6.5 0.6-9.4-6.5 4.5 0.1 10.6 4.2 9.4 6.5z"/>
			<path id="&lt;Path&gt;" class="s5" d="m1579.7 838.9c0.2 2.1-5.2 4-11.4-0.4 3.9-2.4 11.3-2.1 11.4 0.4z"/>
			<path id="&lt;Path&gt;" class="s5" d="m1583.4 845.4c-0.3-1.6 3.7-2.7 7.7-1.3-0.9 0.5-1.4 0.7-2.4 1.4-2.4 1.5-5.1 1.4-5.3-0.1z"/>
			<path id="&lt;Path&gt;" class="s5" d="m1582.1 845.7c0.3 2-3.9 4.3-9.4 0.2 3-2.6 9.1-2.7 9.4-0.2z"/>
			<path id="&lt;Path&gt;" class="s5" d="m1583.7 850.3c1.3 1.5-0.6 5.3-6.9 4.5 0.8-3.5 5.2-6.4 6.9-4.5z"/>
		</g>
		<g id="&lt;Group&gt;">
			<path id="&lt;Path&gt;" class="s5" d="m1538.2 841.2c-0.8-2-3.7-3.4-9.4 3.6 6.4 1.8 10.4-1.4 9.4-3.6z"/>
			<path id="&lt;Path&gt;" class="s5" d="m1543.9 840.8c-3-1-7.1 4.5-7.1 12.4 5.4-2.6 11.8-11 7.1-12.4z"/>
			<path id="&lt;Path&gt;" class="s5" d="m1544.4 839.1c2.7-1.8 0.4-6.4-8-8.6 0.8 5 5.6 10.2 8 8.6z"/>
			<path id="&lt;Path&gt;" class="s5" d="m1552.5 840.9c-3-0.9-6.4 6.2-5.6 14 5.2-3.2 9.4-12.9 5.6-14z"/>
			<path id="&lt;Path&gt;" class="s5" d="m1559 842.3c-3-0.9-6.8 6.6-5.9 14.5 5.1-3.2 9.6-13.4 5.9-14.5z"/>
			<path id="&lt;Path&gt;" class="s5" d="m1552.4 838.8c2-1 1.1-7.3-6.8-11.1-0.2 5.1 4.2 12.3 6.8 11.1z"/>
			<path id="&lt;Path&gt;" class="s5" d="m1559 840.6c2.3 0.3 4.8-5.6 0.2-12.9-2.9 4.2-3 12.6-0.2 12.9z"/>
			<path id="&lt;Path&gt;" class="s5" d="m1565.9 851.1c-0.8 1.1-1.1 1.7-1.8 2.7-1.2-4.6 0.2-9.1 2-8.7 1.6 0.3 1.6 3.4-0.2 6z"/>
			<path id="&lt;Path&gt;" class="s5" d="m1566.5 843.7c2.2 0.5 5.1-4.2 0.8-10.6-3.1 3.2-3.6 10-0.8 10.6z"/>
			<path id="&lt;Path&gt;" class="s5" d="m1571.6 845.7c1.7 1.6 6.1-0.3 5.4-7.5-3.9 0.7-7.5 5.5-5.4 7.5z"/>
		</g>
		<g id="&lt;Group&gt;">
			<path id="&lt;Path&gt;" class="s5" d="m1609.6 867.8c1.7-0.9 4.5-0.4 4.7 7.6-5.5-2.1-6.6-6.5-4.7-7.6z"/>
			<path id="&lt;Path&gt;" class="s5" d="m1605.8 864.4c2.7 1 2.6 7.1-1.7 12.7-2.5-4.8-2.4-14.2 1.7-12.7z"/>
			<path id="&lt;Path&gt;" class="s5" d="m1606.4 863c-1-2.7 3.2-4.7 10.3-1.8-3.3 3.2-9.5 4.2-10.3 1.8z"/>
			<path id="&lt;Path&gt;" class="s5" d="m1598.7 859.1c2.6 1 2.6 7.1-1.7 12.7-2.5-4.8-2.4-14.2 1.7-12.7z"/>
			<path id="&lt;Path&gt;" class="s5" d="m1592.1 858.6c2.1 0.8 2 5.6-1.4 10.1-2-3.8-1.9-11.4 1.4-10.1z"/>
			<path id="&lt;Path&gt;" class="s5" d="m1600.6 857.3c-1.6-2.5 1.9-5.4 9.5-4.2-2.4 3.8-8.1 6.3-9.5 4.2z"/>
			<path id="&lt;Path&gt;" class="s5" d="m1595.2 855.6c-2.4-1.7-0.3-5.7 7.2-7.6-0.7 4.5-5.1 9-7.2 7.6z"/>
			<path id="&lt;Path&gt;" class="s5" d="m1587.8 855.4c1.5 0.8 0.1 4.6-3.3 7.2 0.1-1.1 0.2-1.7 0.3-2.8 0-2.9 1.7-5.1 3-4.4z"/>
			<path id="&lt;Path&gt;" class="s5" d="m1588.3 854.2c-1.8-0.9-1.3-5.7 5.3-7.9 0.4 3.9-3 9-5.3 7.9z"/>
			<path id="&lt;Path&gt;" class="s5" d="m1583.6 852.8c-2 0.3-4-3.5 0.3-8.2 2.4 2.6 2.3 8-0.3 8.2z"/>
		</g>
	</g>
	<g id="&lt;Group&gt;">
		<g id="&lt;Group&gt;">
			<g id="&lt;Group&gt;">
				<g id="&lt;Group&gt;">
					<path id="&lt;Compound Path&gt;" fill-rule="evenodd" class="s0" d="m93.2 58.8c0 23.6-19.2 42.7-42.8 42.7-23.6 0-42.8-19.1-42.8-42.7 0-23.6 19.2-42.8 42.8-42.8 23.6 0 42.8 19.2 42.8 42.8zm-75.5 0c0 18 14.7 32.7 32.7 32.7 18 0 32.7-14.7 32.7-32.7 0-18.1-14.7-32.7-32.7-32.7-18 0-32.7 14.6-32.7 32.7z"/>
					<path id="&lt;Compound Path&gt;" fill-rule="evenodd" class="s1" d="m50.4 102.3c-24 0-43.5-19.5-43.5-43.5 0-24 19.5-43.5 43.5-43.5 24 0 43.5 19.5 43.5 43.5 0 24-19.5 43.5-43.5 43.5zm0-85.5c-23.2 0-42 18.8-42 42 0 23.2 18.8 42 42 42 23.2 0 42-18.8 42-42 0-23.2-18.8-42-42-42zm0 75.4c-18.4 0-33.4-15-33.4-33.4 0-18.4 15-33.4 33.4-33.4 18.4 0 33.4 15 33.4 33.4 0 18.4-15 33.4-33.4 33.4zm0-65.4c-17.6 0-31.9 14.4-31.9 32 0 17.6 14.3 31.9 31.9 31.9 17.6 0 31.9-14.3 31.9-31.9 0-17.6-14.3-32-31.9-32z"/>
				</g>
			</g>
			<g id="&lt;Group&gt;">
				<g id="&lt;Group&gt;">
					<path id="&lt;Compound Path&gt;" fill-rule="evenodd" class="s0" d="m93.2 58.8c0 23.6-19.2 42.7-42.8 42.7-23.6 0-42.8-19.1-42.8-42.7 0-23.6 19.2-42.8 42.8-42.8 23.6 0 42.8 19.2 42.8 42.8zm-75.5 0c0 18 14.7 32.7 32.7 32.7 18 0 32.7-14.7 32.7-32.7 0-18.1-14.7-32.7-32.7-32.7-18 0-32.7 14.6-32.7 32.7z"/>
					<path id="&lt;Compound Path&gt;" fill-rule="evenodd" class="s1" d="m50.4 102.3c-24 0-43.5-19.5-43.5-43.5 0-24 19.5-43.5 43.5-43.5 24 0 43.5 19.5 43.5 43.5 0 24-19.5 43.5-43.5 43.5zm0-85.5c-23.2 0-42 18.8-42 42 0 23.2 18.8 42 42 42 23.2 0 42-18.8 42-42 0-23.2-18.8-42-42-42zm0 75.4c-18.4 0-33.4-15-33.4-33.4 0-18.4 15-33.4 33.4-33.4 18.4 0 33.4 15 33.4 33.4 0 18.4-15 33.4-33.4 33.4zm0-65.4c-17.6 0-31.9 14.4-31.9 32 0 17.6 14.3 31.9 31.9 31.9 17.6 0 31.9-14.3 31.9-31.9 0-17.6-14.3-32-31.9-32z"/>
				</g>
			</g>
			<circle id="&lt;Path&gt;" class="s0" cx="50.1" cy="58.5" r="36.9"/>
			<g id="&lt;Group&gt;">
				<path id="&lt;Compound Path&gt;" fill-rule="evenodd" class="s0" d="m92.9 58.5c0 23.6-19.2 42.8-42.8 42.8-23.6 0-42.8-19.2-42.8-42.8 0-23.6 19.2-42.7 42.8-42.7 23.6 0 42.8 19.1 42.8 42.7zm-75.5 0c0 18.1 14.6 32.7 32.7 32.7 18 0 32.7-14.6 32.7-32.7 0-18-14.7-32.7-32.7-32.7-18.1 0-32.7 14.7-32.7 32.7z"/>
				<path id="&lt;Compound Path&gt;" fill-rule="evenodd" class="s1" d="m50.1 102c-24 0-43.5-19.5-43.5-43.5 0-24 19.5-43.5 43.5-43.5 24 0 43.5 19.5 43.5 43.5 0 24-19.5 43.5-43.5 43.5zm0-85.5c-23.2 0-42 18.8-42 42 0 23.2 18.8 42 42 42 23.2 0 42-18.8 42-42 0-23.2-18.8-42-42-42zm0 75.4c-18.4 0-33.4-15-33.4-33.4 0-18.4 15-33.4 33.4-33.4 18.4 0 33.4 15 33.4 33.4 0 18.4-15 33.4-33.4 33.4zm0-65.3c-17.6 0-31.9 14.3-31.9 31.9 0 17.6 14.3 32 31.9 32 17.6 0 31.9-14.4 31.9-32 0-17.6-14.3-31.9-31.9-31.9z"/>
			</g>
			<g id="&lt;Clip Group&gt;" clip-path="url(#cp2)">
				<g id="&lt;Group&gt;">
					<path id="&lt;Compound Path&gt;" fill-rule="evenodd" class="s2" d="m92.9 58.5c0 23.6-19.2 42.8-42.8 42.8-23.6 0-42.8-19.2-42.8-42.8 0-23.6 19.2-42.7 42.8-42.7 23.6 0 42.8 19.1 42.8 42.7zm-75.5 0c0 18.1 14.6 32.7 32.7 32.7 18 0 32.7-14.6 32.7-32.7 0-18-14.7-32.7-32.7-32.7-18.1 0-32.7 14.7-32.7 32.7z"/>
					<path id="&lt;Compound Path&gt;" fill-rule="evenodd" class="s2" d="m50.1 102c-24 0-43.5-19.5-43.5-43.5 0-24 19.5-43.5 43.5-43.5 24 0 43.5 19.5 43.5 43.5 0 24-19.5 43.5-43.5 43.5zm0-85.5c-23.2 0-42 18.8-42 42 0 23.2 18.8 42 42 42 23.2 0 42-18.8 42-42 0-23.2-18.8-42-42-42zm0 75.4c-18.4 0-33.4-15-33.4-33.4 0-18.4 15-33.4 33.4-33.4 18.4 0 33.4 15 33.4 33.4 0 18.4-15 33.4-33.4 33.4zm0-65.3c-17.6 0-31.9 14.3-31.9 31.9 0 17.6 14.3 32 31.9 32 17.6 0 31.9-14.4 31.9-32 0-17.6-14.3-31.9-31.9-31.9z"/>
				</g>
				<path id="&lt;Mesh&gt;" class="s6" d="m48.2 58.5q-8.8-10.1-17.5-20.3c11.2-9.7 28.1-8.5 37.8 2.8q-10.1 8.7-20.3 17.5zm20.3-17.5c-9.7-11.3-26.6-12.5-37.8-2.8-12.3-14.2-8.8-10.2-10.6-12.2 18-15.5 45.1-13.5 60.6 4.4-2 1.8 2.1-1.7-12.2 10.6zm12.2-10.6c-15.5-17.9-42.6-19.9-60.6-4.4q-5.7-6.7-11.5-13.4c25.3-21.8 63.6-19 85.5 6.3q-6.7 5.8-13.4 11.5zm-32.5 28.1q-10.1 8.8-20.3 17.6c-9.7-11.3-8.5-28.2 2.8-37.9q8.7 10.2 17.5 20.3zm-17.5-20.3c-11.3 9.7-12.5 26.6-2.8 37.9-14.2 12.3-10.2 8.7-12.2 10.5-15.5-18-13.5-45.1 4.4-60.6 1.8 2-1.7-2 10.6 12.2zm-10.6-12.2c-17.9 15.5-19.9 42.6-4.4 60.6q-6.7 5.8-13.3 11.5c-21.9-25.3-19.1-63.6 6.2-85.5q5.8 6.7 11.5 13.4zm28.1 32.5q8.8 10.2 17.6 20.3c-11.2 9.7-28.2 8.5-37.9-2.7q10.2-8.8 20.3-17.6zm-20.3 17.6c9.7 11.2 26.7 12.4 37.9 2.7 12.3 14.3 8.8 10.2 10.5 12.2-17.9 15.5-45.1 13.6-60.6-4.4 2-1.8-2 1.8 12.2-10.5zm-12.2 10.5c15.5 18 42.7 19.9 60.6 4.4q5.8 6.7 11.5 13.4c-25.3 21.9-63.6 19.1-85.4-6.3q6.6-5.7 13.3-11.5zm32.5-28.1q10.2-8.8 20.3-17.5c9.7 11.2 8.5 28.1-2.7 37.8q-8.8-10.1-17.6-20.3zm17.6 20.3c11.2-9.7 12.4-26.6 2.7-37.8 14.3-12.3 10.2-8.8 12.2-10.6 15.6 18 13.6 45.1-4.4 60.6-1.7-2 1.8 2.1-10.5-12.2zm10.5 12.2c18-15.5 20-42.6 4.4-60.6q6.7-5.7 13.4-11.5c21.9 25.3 19.1 63.6-6.3 85.5q-5.7-6.7-11.5-13.4z"/>
				<path id="&lt;Mesh&gt;" class="s7" d="m48.2 58.5q-8.8-10.1-17.5-20.3c11.2-9.7 28.1-8.5 37.8 2.8q-10.1 8.7-20.3 17.5zm20.3-17.5c-9.7-11.3-26.6-12.5-37.8-2.8-12.3-14.2-8.8-10.2-10.6-12.2 18-15.5 45.1-13.5 60.6 4.4-2 1.8 2.1-1.7-12.2 10.6zm12.2-10.6c-15.5-17.9-42.6-19.9-60.6-4.4q-4.4-5.1-8.8-10.2c23.6-20.4 59.3-17.8 79.6 5.8q-5.1 4.4-10.2 8.8zm-32.5 28.1q-10.1 8.8-20.3 17.6c-9.7-11.3-8.5-28.2 2.8-37.9q8.7 10.2 17.5 20.3zm-17.5-20.3c-11.3 9.7-12.5 26.6-2.8 37.9-14.2 12.3-10.2 8.7-12.2 10.5-15.5-18-13.5-45.1 4.4-60.6 1.8 2-1.7-2 10.6 12.2zm-10.6-12.2c-17.9 15.5-19.9 42.6-4.4 60.6q-5.1 4.4-10.2 8.8c-20.4-23.6-17.8-59.2 5.8-79.6q4.4 5.1 8.8 10.2zm28.1 32.5q8.8 10.2 17.6 20.3c-11.2 9.7-28.2 8.5-37.9-2.7q10.2-8.8 20.3-17.6zm-20.3 17.6c9.7 11.2 26.7 12.4 37.9 2.7 12.3 14.3 8.8 10.2 10.5 12.2-17.9 15.5-45.1 13.6-60.6-4.4 2-1.8-2 1.8 12.2-10.5zm-12.2 10.5c15.5 18 42.7 19.9 60.6 4.4q4.4 5.1 8.8 10.2c-23.6 20.4-59.2 17.8-79.6-5.8q5.1-4.4 10.2-8.8zm32.5-28.1q10.2-8.8 20.3-17.5c9.7 11.2 8.5 28.1-2.7 37.8q-8.8-10.1-17.6-20.3zm17.6 20.3c11.2-9.7 12.4-26.6 2.7-37.8 14.3-12.3 10.2-8.8 12.2-10.6 15.6 18 13.6 45.1-4.4 60.6-1.7-2 1.8 2.1-10.5-12.2zm10.5 12.2c18-15.5 20-42.6 4.4-60.6q5.1-4.4 10.2-8.8c20.4 23.6 17.8 59.3-5.8 79.6q-4.4-5.1-8.8-10.2z"/>
			</g>
		</g>
		<g id="&lt;Group&gt;">
			<path id="&lt;Path&gt;" class="s5" d="m22.4 12.7c1.3-2.6 0.3-6.8-11.8-6.7 3.6 8.2 10.3 9.6 11.8 6.7z"/>
			<path id="&lt;Path&gt;" class="s5" d="m27.7 18.2c-1.6-3.9-10.8-3.5-19 3.3 7.3 3.4 21.6 2.8 19-3.3z"/>
			<path id="&lt;Path&gt;" class="s5" d="m29.8 17.3c4.2 1.3 7-5.1 2.1-15.7-4.6 5.1-5.8 14.5-2.1 15.7z"/>
			<path id="&lt;Path&gt;" class="s5" d="m35 27.2c-1.7-3.9-12-1.4-19.3 6.3 7.7 2.6 21.3-1.4 19.3-6.3z"/>
			<path id="&lt;Path&gt;" class="s5" d="m39.1 35.1c-1.7-3.9-12.8-1.3-20.1 6.4 7.7 2.5 22.2-1.6 20.1-6.4z"/>
			<path id="&lt;Path&gt;" class="s5" d="m37 25.2c2.8 1.4 8.5-5.1 5.7-16.4-5.5 4.1-9.2 14.8-5.7 16.4z"/>
			<path id="&lt;Path&gt;" class="s5" d="m40.9 33.7c1.6 2.6 9.9 0.1 13.5-11-6.9 0.7-15.6 7.7-13.5 11z"/>
			<path id="&lt;Path&gt;" class="s5" d="m35.9 49.8c-1.8 0.1-2.7 0.3-4.3 0.5 3.7-5.3 9.5-7.6 10.7-5.4 1.1 1.9-2.2 4.6-6.4 4.9z"/>
			<path id="&lt;Path&gt;" class="s5" d="m44.1 44.1c1.5 2.7 8.7 1.6 11.7-8.3-6-0.5-13.6 4.9-11.7 8.3z"/>
			<path id="&lt;Path&gt;" class="s5" d="m46.4 51.1c-0.2 3.1 5.5 6 12.4-0.8-4.1-3.5-12.1-3-12.4 0.8z"/>
		</g>
		<g id="&lt;Group&gt;">
			<path id="&lt;Path&gt;" class="s5" d="m17.3 85.6c-1.9-1-5-0.2-5 8.8 6.1-2.6 7.2-7.6 5-8.8z"/>
			<path id="&lt;Path&gt;" class="s5" d="m21.4 81.7c-2.9 1.2-2.6 8 2.4 14.2 2.6-5.5 2.2-16-2.4-14.2z"/>
			<path id="&lt;Path&gt;" class="s5" d="m27.4 77.7c-2.6 1.8-0.8 8.4 5.4 13.3 1.3-5.9-1.4-16.1-5.4-13.3z"/>
			<path id="&lt;Path&gt;" class="s5" d="m20.8 80.2c1-3.2-3.7-5.2-11.6-1.7 3.7 3.5 10.7 4.4 11.6 1.7z"/>
			<path id="&lt;Path&gt;" class="s5" d="m26.8 74.8c0.9-2-3.9-6.3-12.3-4.2 3.1 4 11 6.8 12.3 4.2z"/>
			<path id="&lt;Path&gt;" class="s5" d="m33 72c2-1.2 0.2-7.4-8-10.1 0.4 5.1 5.6 11.7 8 10.1z"/>
			<path id="&lt;Path&gt;" class="s5" d="m45 75.8c0 1.3 0.2 2 0.3 3.2-3.9-2.8-5.6-7.1-3.9-8 1.4-0.8 3.4 1.7 3.6 4.8z"/>
			<path id="&lt;Path&gt;" class="s5" d="m40.8 69.7c2-1.1 1.3-6.4-6.1-8.7-0.4 4.4 3.6 10.1 6.1 8.7z"/>
			<path id="&lt;Path&gt;" class="s5" d="m46 68c2.3 0.2 4.5-4-0.5-9.2-2.7 3-2.3 9 0.5 9.2z"/>
		</g>
		<path id="&lt;Path&gt;" class="s5" d="m35.6 82.2c0.2-2-5.1-4.1-11.5 0.2 3.9 2.5 11.3 2.3 11.5-0.2z"/>
		<path id="&lt;Path&gt;" class="s5" d="m39.9 77.9c1.2-1.6-2.2-6.2-9.8-5.8 1.9 4 8.3 7.8 9.8 5.8z"/>
		<path id="&lt;Path&gt;" class="s5" d="m51 77.3c0.4 1.1 0.8 1.6 1.3 2.5-4.1-1-6.9-4.1-5.8-5.4 1-1.1 3.4 0.3 4.5 2.9z"/>
		<path id="&lt;Path&gt;" class="s5" d="m45.6 73.5c1.3-1.5-1-5.7-7.8-5.3 1.1 3.8 6.1 7.3 7.8 5.3z"/>
		<path id="&lt;Path&gt;" class="s5" d="m54 63.3c1.9-0.5 2.4-4.7-3.4-7.4-1.2 3.3 0.9 8.1 3.4 7.4z"/>
		<g id="&lt;Group&gt;">
			<path id="&lt;Path&gt;" class="s5" d="m89 69.1c0.6 1.8 3.1 3.2 8.5-2.6-5.6-2-9.2 0.6-8.5 2.6z"/>
			<path id="&lt;Path&gt;" class="s5" d="m83.9 69.2c2.6 1 6.6-3.6 7-10.6-4.9 1.9-11.1 9-7 10.6z"/>
			<path id="&lt;Path&gt;" class="s5" d="m83.4 70.6c-2.5 1.4-0.7 5.6 6.6 8.1-0.4-4.5-4.4-9.4-6.6-8.1z"/>
			<path id="&lt;Path&gt;" class="s5" d="m76.3 68.6c2.6 0.9 6.1-5.1 5.7-12.1-4.7 2.5-8.9 10.9-5.7 12.1z"/>
			<path id="&lt;Path&gt;" class="s5" d="m70.7 67c2.6 1 6.4-5.5 6-12.5-4.7 2.5-9.2 11.3-6 12.5z"/>
			<path id="&lt;Path&gt;" class="s5" d="m76.4 70.4c-1.9 0.8-1.4 6.4 5.3 10.2 0.5-4.5-3-11.1-5.3-10.2z"/>
			<path id="&lt;Path&gt;" class="s5" d="m70.6 68.5c-2-0.4-4.6 4.7-0.9 11.4 2.8-3.6 3.4-11 0.9-11.4z"/>
			<path id="&lt;Path&gt;" class="s5" d="m65.1 58.8c0.8-0.9 1.1-1.4 1.7-2.3 0.9 4.2-0.6 8-2.2 7.6-1.4-0.4-1.3-3.1 0.5-5.3z"/>
			<path id="&lt;Path&gt;" class="s5" d="m64.2 65.3c-2-0.5-4.7 3.4-1.3 9.3 2.9-2.6 3.7-8.6 1.3-9.3z"/>
			<path id="&lt;Path&gt;" class="s5" d="m59.8 63.2c-1.4-1.4-5.4 0-5.2 6.4 3.5-0.4 6.9-4.5 5.2-6.4z"/>
		</g>
		<g id="&lt;Group&gt;">
			<path id="&lt;Path&gt;" class="s5" d="m65.8 98.5c-1.6 2-1.3 5.7 8.8 7.4-1.7-7.4-7.1-9.6-8.8-7.4z"/>
			<path id="&lt;Path&gt;" class="s5" d="m62.1 93.1c0.8 3.5 8.6 4.6 16.5 0.2-5.6-4.1-17.6-5.8-16.5-0.2z"/>
			<path id="&lt;Path&gt;" class="s5" d="m60.2 93.5c-3.3-1.7-6.6 3.2-4.2 12.8 4.7-3.5 7.2-11.3 4.2-12.8z"/>
			<path id="&lt;Path&gt;" class="s5" d="m60.2 65.3c1.5 0.2 2.3 0.1 3.7 0.2-3.9 3.9-9.2 4.9-9.9 2.9-0.6-1.8 2.6-3.6 6.2-3.1z"/>
			<path id="&lt;Path&gt;" class="s5" d="m61.5 74c1.5 0.2 2.3 0.2 3.7 0.3-3.9 3.8-9.2 4.9-9.9 2.8-0.6-1.7 2.6-3.5 6.2-3.1z"/>
			<path id="&lt;Path&gt;" class="s5" d="m61.5 74c1.5 0.2 2.3 0.2 3.7 0.3-3.9 3.8-9.2 4.9-9.9 2.8-0.6-1.7 2.6-3.5 6.2-3.1z"/>
			<path id="&lt;Path&gt;" class="s5" d="m64.6 79c1.8 0.3 2.8 0.2 4.4 0.3-4.7 4.6-10.9 5.9-11.7 3.4-0.7-2.1 3-4.2 7.3-3.7z"/>
			<path id="&lt;Path&gt;" class="s5" d="m66 84.7c1.8 0.2 2.7 0.1 4.3 0.2-4.6 4.6-10.8 5.9-11.6 3.4-0.7-2.1 3-4.2 7.3-3.6z"/>
			<path id="&lt;Path&gt;" class="s5" d="m52.7 69.8c-0.8-2.5-7-2.8-11.1 5.1 4.9 1.3 12.1-2 11.1-5.1z"/>
			<path id="&lt;Path&gt;" class="s5" d="m55.3 84.4c-0.8-2.5-7-2.7-11 5.2 4.9 1.3 12.1-2.1 11-5.2z"/>
			<path id="&lt;Path&gt;" class="s5" d="m56 90.8c-1.2-1.6-5.8-0.2-6.8 6.6 4-0.3 8.4-4.5 6.8-6.6z"/>
			<path id="&lt;Path&gt;" class="s5" d="m54 77.4c-0.8-2.5-7-2.7-11.1 5.2 5 1.3 12.1-2.1 11.1-5.2z"/>
			<path id="&lt;Path&gt;" class="s5" d="m51.6 62.5c0.6-2.5-3.7-5.9-10.6-1.2 2.9 3.6 9.7 4.4 10.6 1.2z"/>
		</g>
		<g id="&lt;Group&gt;">
			<path id="&lt;Path&gt;" class="s5" d="m94.5 29c2.5 1.4 6.7 0.5 6.9-11.6-8.3 3.4-9.8 10-6.9 11.6z"/>
			<path id="&lt;Path&gt;" class="s5" d="m88.8 34.2c4-1.5 3.8-10.7-2.8-19.1-3.6 7.2-3.4 21.5 2.8 19.1z"/>
			<path id="&lt;Path&gt;" class="s5" d="m89.6 36.3c-1.4 4.2 4.9 7.1 15.6 2.6-4.9-4.8-14.3-6.2-15.6-2.6z"/>
			<path id="&lt;Path&gt;" class="s5" d="m71.6 45.2c4-1.6 1.6-12.8-5.9-20.3-2.7 7.6 1 22.2 5.9 20.3z"/>
			<path id="&lt;Path&gt;" class="s5" d="m72.9 46.9c-2.6 1.6-0.3 10 10.7 13.9-0.5-6.9-7.3-15.9-10.7-13.9z"/>
			<path id="&lt;Path&gt;" class="s5" d="m80.8 40.8c3.6-1.5 1.6-12.1-5.1-19.2-2.6 7.3 0.7 21.1 5.1 19.2z"/>
			<path id="&lt;Path&gt;" class="s5" d="m82 43.4c-1.8 2.5 3.6 9.3 15.2 8.6-3.1-6.2-12.9-11.7-15.2-8.6z"/>
			<path id="&lt;Path&gt;" class="s5" d="m57 41.5c-0.1-1.7-0.3-2.7-0.4-4.3 5.2 3.9 7.4 9.7 5.1 10.9-2 1-4.6-2.3-4.7-6.6z"/>
			<path id="&lt;Path&gt;" class="s5" d="m62.4 49.9c-2.7 1.4-1.8 8.6 8.1 11.9 0.6-5.9-4.6-13.7-8.1-11.9z"/>
			<path id="&lt;Path&gt;" class="s5" d="m55.4 52c-3.1-0.3-6.2 5.4 0.5 12.5 3.6-4 3.3-12.1-0.5-12.5z"/>
		</g>
		<g id="&lt;Group&gt;">
			<path id="&lt;Path&gt;" class="s5" d="m53.2 30.6c-1.7-0.8-2.8-3.4 3.6-8.1 1.3 5.7-1.7 9.1-3.6 8.1z"/>
			<path id="&lt;Path&gt;" class="s5" d="m52.6 35.6c-0.7-2.7 4.3-6.1 11.3-5.7-2.5 4.7-10.3 10-11.3 5.7z"/>
			<path id="&lt;Path&gt;" class="s5" d="m51.1 36c-1.7 2.3-5.7 0-7.3-7.5 4.5 0.9 8.8 5.4 7.3 7.5z"/>
			<path id="&lt;Path&gt;" class="s5" d="m52.3 43.2c-0.7-2.7 5.7-5.4 12.6-4.3-3 4.4-11.8 7.7-12.6 4.3z"/>
			<path id="&lt;Path&gt;" class="s5" d="m53.2 49c-0.7-2.7 6.2-5.7 13.1-4.5-3.1 4.3-12.3 7.9-13.1 4.5z"/>
			<path id="&lt;Path&gt;" class="s5" d="m50.4 43c-0.9 1.8-6.5 0.6-9.4-6.5 4.5 0.1 10.6 4.2 9.4 6.5z"/>
			<path id="&lt;Path&gt;" class="s5" d="m51.7 48.9c0.2 2.1-5.2 4-11.4-0.4 3.9-2.4 11.3-2.1 11.4 0.4z"/>
			<path id="&lt;Path&gt;" class="s5" d="m55.4 55.4c-0.3-1.6 3.7-2.7 7.7-1.3-0.9 0.5-1.4 0.7-2.4 1.4-2.4 1.5-5.1 1.4-5.3-0.1z"/>
			<path id="&lt;Path&gt;" class="s5" d="m54.1 55.7c0.3 2-3.9 4.3-9.4 0.2 3-2.6 9.1-2.7 9.4-0.2z"/>
			<path id="&lt;Path&gt;" class="s5" d="m55.7 60.3c1.3 1.5-0.6 5.3-6.9 4.5 0.8-3.5 5.2-6.4 6.9-4.5z"/>
		</g>
		<g id="&lt;Group&gt;">
			<path id="&lt;Path&gt;" class="s5" d="m10.2 51.2c-0.8-2-3.7-3.4-9.4 3.6 6.4 1.8 10.4-1.4 9.4-3.6z"/>
			<path id="&lt;Path&gt;" class="s5" d="m15.9 50.8c-3-1-7.1 4.5-7.1 12.4 5.4-2.6 11.8-11 7.1-12.4z"/>
			<path id="&lt;Path&gt;" class="s5" d="m16.4 49.1c2.7-1.8 0.4-6.4-8-8.6 0.8 5 5.6 10.2 8 8.6z"/>
			<path id="&lt;Path&gt;" class="s5" d="m24.5 50.9c-3-0.9-6.4 6.2-5.6 14 5.2-3.2 9.4-12.9 5.6-14z"/>
			<path id="&lt;Path&gt;" class="s5" d="m31 52.3c-3-0.9-6.8 6.6-5.9 14.5 5.1-3.2 9.6-13.4 5.9-14.5z"/>
			<path id="&lt;Path&gt;" class="s5" d="m24.4 48.8c2-1 1.1-7.3-6.8-11.1-0.2 5.1 4.2 12.3 6.8 11.1z"/>
			<path id="&lt;Path&gt;" class="s5" d="m31 50.6c2.3 0.3 4.8-5.6 0.2-12.9-2.9 4.2-3 12.6-0.2 12.9z"/>
			<path id="&lt;Path&gt;" class="s5" d="m37.9 61.1c-0.8 1.1-1.1 1.7-1.8 2.7-1.2-4.6 0.2-9.1 2-8.7 1.6 0.3 1.6 3.4-0.2 6z"/>
			<path id="&lt;Path&gt;" class="s5" d="m38.5 53.7c2.2 0.5 5.1-4.2 0.8-10.6-3.1 3.2-3.6 10-0.8 10.6z"/>
			<path id="&lt;Path&gt;" class="s5" d="m43.6 55.7c1.7 1.6 6.1-0.3 5.4-7.5-3.9 0.7-7.5 5.5-5.4 7.5z"/>
		</g>
		<g id="&lt;Group&gt;">
			<path id="&lt;Path&gt;" class="s5" d="m81.6 77.8c1.7-0.9 4.5-0.4 4.7 7.6-5.5-2.1-6.6-6.5-4.7-7.6z"/>
			<path id="&lt;Path&gt;" class="s5" d="m77.8 74.4c2.7 1 2.6 7.1-1.7 12.7-2.5-4.8-2.4-14.2 1.7-12.7z"/>
			<path id="&lt;Path&gt;" class="s5" d="m78.4 73c-1-2.7 3.2-4.7 10.3-1.8-3.3 3.2-9.5 4.2-10.3 1.8z"/>
			<path id="&lt;Path&gt;" class="s5" d="m70.7 69.1c2.6 1 2.6 7.1-1.7 12.7-2.5-4.8-2.4-14.2 1.7-12.7z"/>
			<path id="&lt;Path&gt;" class="s5" d="m64.1 68.6c2.1 0.8 2 5.6-1.4 10.1-2-3.8-1.9-11.4 1.4-10.1z"/>
			<path id="&lt;Path&gt;" class="s5" d="m72.6 67.3c-1.6-2.5 1.9-5.4 9.5-4.2-2.4 3.8-8.1 6.3-9.5 4.2z"/>
			<path id="&lt;Path&gt;" class="s5" d="m67.2 65.6c-2.4-1.7-0.3-5.7 7.2-7.6-0.7 4.5-5.1 9-7.2 7.6z"/>
			<path id="&lt;Path&gt;" class="s5" d="m59.8 65.4c1.5 0.8 0.1 4.6-3.3 7.2 0.1-1.1 0.2-1.7 0.3-2.8 0-2.9 1.7-5.1 3-4.4z"/>
			<path id="&lt;Path&gt;" class="s5" d="m60.3 64.2c-1.8-0.9-1.3-5.7 5.3-7.9 0.4 3.9-3 9-5.3 7.9z"/>
			<path id="&lt;Path&gt;" class="s5" d="m55.6 62.8c-2 0.3-4-3.5 0.3-8.2 2.4 2.6 2.3 8-0.3 8.2z"/>
		</g>
	</g>
</svg>