<svg version="1.2" xmlns="http://www.w3.org/2000/svg" viewBox="0 0 137 269" width="137" height="269">
	<title>New Project</title>
	<style>
		.s0 { fill: #ffffff;stroke: #000000;stroke-width: 2.2 } 
	</style>
	<g id="&lt;Group&gt;">
		<path id="&lt;Compound Path&gt;" class="s0" d="m8.8 82.5v-77.6c0 3.6 2.9 6.5 6.5 6.5h103.4c3.6 0 6.5-2.9 6.5-6.5v101.2c-13-11.3-33.6-27.2-41.2-27.2-9.6 0-64.5-0.3-75.2 3.6z"/>
		<path id="&lt;Path&gt;" class="s0" d="m118.7 11.4h-103.4c-3.6 0-6.5-2.9-6.5-6.5v-3.5h116.4v3.5c0 3.6-2.9 6.5-6.5 6.5z"/>
		<path id="&lt;Path&gt;" class="s0" d="m26.1 71.4c-3.7-5 4.3-25.9 1.3-34.4-3-8.4-1.8-17 0.2-18.8 4.2-3.6 30.6 3.3 36 2.2 5.3-1.1 42.4-4.2 44.7-2q2.4 2.3-2.7 21.4 5.3 24.5 5.3 30.6c0 6-33.3-0.1-38.3 0-4.9 0-43.2 5.4-46.5 1z"/>
		<path id="&lt;Path&gt;" class="s0" d="m1.7 254.9c2.6-8.6 5-9.6 6.1-17.9 1-7.5-0.2-122.4-0.4-144.4q0.2-0.1 1.4-0.3c8.6-1.6 53-9.2 73.2-0.7 7.1 3 5.3 39.8 14.5 52 4.3 0.5 18.4-7.4 28.7-16.1q0.7-0.6 1.3-1.2l0.1 0.1q-1.6 101.9-0.6 107.7c1.5 8.7 6.3 9.9 9.6 20.7 1.8 6-12.8 12.8-17.4 9.6-4.1-2.8-14.2-5.1-48.3-5.1-35.4 0-42.7 0.3-52.9 7.9-4.1 3.1-17.9-3.7-15.3-12.3z"/>
		<path id="&lt;Path&gt;" class="s0" d="m7 83.7c0.2-0.5 0.8-0.9 1.8-1.2 10.7-3.9 65.6-3.6 75.2-3.6 7.6 0 28.2 15.9 41.2 27.2 5 4.3 8.9 8 10.6 9.8-1.8 3.2-5.2 6.9-9.3 10.4q-0.6 0.6-1.3 1.2c-10.3 8.7-24.4 16.6-28.7 16.1-9.2-12.2-7.4-49-14.5-52-20.2-8.5-64.6-0.9-73.2 0.7q-1.2 0.2-1.4 0.3 0 0-0.1 0-2.2-3.8-0.3-8.9z"/>
	</g>
</svg>