<svg version="1.2" xmlns="http://www.w3.org/2000/svg" viewBox="0 0 113 177" width="113" height="177">
	<title>New Project</title>
	<style>
		.s0 { fill: #ffffff } 
		.s1 { fill: #000000 } 
	</style>
	<g id="&lt;Group&gt;">
		<g id="&lt;Group&gt;">
			<path id="&lt;Path&gt;" class="s0" d="m12 12.8h88.6v150.9h-88.6z"/>
			<path id="&lt;Compound Path&gt;" fill-rule="evenodd" class="s1" d="m12 11.9h88.6c0.5 0 0.9 0.4 0.9 0.9v150.9c0 0.5-0.4 0.9-0.9 0.9h-88.6c-0.4 0-0.8-0.4-0.8-0.9v-150.9c0-0.5 0.4-0.9 0.8-0.9zm87.7 1.8h-86.8v149.1h86.8z"/>
		</g>
		<g id="&lt;Group&gt;">
			<path id="&lt;Path&gt;" class="s0" d="m18.6 24h75.4v128.5h-75.4z"/>
			<path id="&lt;Compound Path&gt;" fill-rule="evenodd" class="s1" d="m18.6 23.1h75.4c0.5 0 0.9 0.4 0.9 0.9v128.5c0 0.5-0.4 0.9-0.9 0.9h-75.4c-0.5 0-0.9-0.4-0.9-0.9v-128.5c0-0.5 0.4-0.9 0.9-0.9zm74.5 1.8h-73.6v126.7h73.6z"/>
		</g>
		<path id="&lt;Path&gt;" class="s1" d="m95.6 175.2l4.2-11.8q0 0 0-0.1 0 0 0 0 0 0 0.1-0.1 0 0 0-0.1 0.1 0 0.1-0.1 0.1 0 0.1 0 0.1-0.1 0.1-0.1 0.1 0 0.1 0 0.1-0.1 0.2-0.1 0 0 0.1 0 0 0 0 0 0 0 0 0 0.1 0 0.2 0l10.7 2.8c0.5 0.1 0.8 0.6 0.7 1.1-0.1 0.4-0.6 0.7-1.1 0.6l-6.9-1.8 4 3.4c0.4 0.3 0.4 0.9 0.1 1.3-0.3 0.3-0.8 0.4-1.2 0.1l-3.9-3.3 2.1 4.4c0.2 0.4 0 1-0.4 1.2-0.5 0.2-1 0-1.2-0.4l-3-6.2-3.4 9.8c-0.2 0.5-0.7 0.7-1.1 0.5-0.5-0.1-0.7-0.6-0.6-1.1z"/>
		<path id="&lt;Path&gt;" class="s1" d="m96.2 0.2q0.1-0.1 0.3-0.1c0.3 0 0.7 0.2 0.8 0.6l3.4 9.8 3-6.1c0.2-0.5 0.7-0.7 1.2-0.5 0.4 0.3 0.6 0.8 0.4 1.2l-2.1 4.4 3.9-3.3q0.2-0.2 0.6-0.2c0.2 0 0.5 0.1 0.6 0.3 0.3 0.4 0.3 1-0.1 1.3l-4 3.4 6.9-1.8c0.5-0.1 1 0.2 1.1 0.7 0.1 0.4-0.2 0.9-0.7 1l-10.7 2.8q0 0 0 0-0.1 0-0.2 0 0 0-0.1 0 0 0-0.1 0 0 0-0.1-0.1-0.1 0-0.1 0-0.1-0.1-0.2-0.1 0-0.1 0-0.1-0.1-0.1-0.1-0.1-0.1-0.1-0.1-0.1 0 0 0 0 0-0.1 0-0.1l-4.2-11.8c-0.1-0.5 0.1-1 0.6-1.1z"/>
		<path id="&lt;Path&gt;" class="s1" d="m1.1 165.6l10.7-2.8q0.1 0 0.2 0 0 0 0 0 0.1 0 0.1 0 0 0 0.1 0 0 0 0.1 0.1 0.1 0 0.1 0 0.1 0 0.1 0.1 0.1 0 0.1 0 0.1 0.1 0.1 0.1 0.1 0.1 0.1 0.1 0 0.1 0 0.1 0 0 0 0 0.1 0.1 0.1 0.1l4.1 11.8c0.2 0.5-0.1 1-0.5 1.1-0.5 0.2-1 0-1.2-0.5l-3.4-9.8-2.9 6.2c-0.2 0.4-0.8 0.6-1.2 0.4-0.5-0.2-0.6-0.8-0.4-1.2l2.1-4.4-3.9 3.3c-0.4 0.3-1 0.2-1.3-0.1-0.3-0.4-0.2-1 0.1-1.3l4.1-3.4-7 1.8c-0.4 0.1-0.9-0.2-1-0.6-0.2-0.5 0.1-1 0.6-1.1z"/>
		<path id="&lt;Path&gt;" class="s1" d="m0.5 9.9c0.1-0.5 0.6-0.8 1-0.7l7 1.8-4.1-3.4c-0.3-0.3-0.4-0.9-0.1-1.3 0.2-0.2 0.4-0.3 0.7-0.3q0.3 0 0.6 0.2l3.9 3.3-2.1-4.4c-0.2-0.4-0.1-0.9 0.4-1.2 0.4-0.2 1 0 1.2 0.5l2.9 6.1 3.4-9.8c0.2-0.4 0.5-0.6 0.9-0.6q0.1 0 0.3 0.1c0.4 0.1 0.7 0.6 0.5 1.1l-4.1 11.8q0 0-0.1 0.1 0 0 0 0 0 0 0 0.1-0.1 0-0.1 0.1-0.1 0-0.1 0.1-0.1 0-0.1 0.1-0.1 0-0.1 0-0.1 0.1-0.2 0.1-0.1 0-0.1 0 0 0 0 0-0.1 0-0.3 0 0 0 0 0l-10.7-2.8c-0.5-0.1-0.8-0.6-0.6-1z"/>
	</g>
</svg>