<svg version="1.2" xmlns="http://www.w3.org/2000/svg" viewBox="0 0 99 106" width="99" height="106">
	<title>New Project</title>
	<style>
		.s0 { fill: #ffffff;stroke: #000000;stroke-linecap: square;stroke-width: 2.2 } 
	</style>
	<g id="&lt;Group&gt;">
		<path id="&lt;Path&gt;" class="s0" d="m84.9 90.5c0.1 7.8-6.1 14.1-13.8 14.1h-21.6-21.5c-7.7 0-14-6.3-13.8-14.1l3.5-65.2 31.8 2 30.7-2z"/>
		<path id="&lt;Path&gt;" class="s0" d="m80.4 7.3v17.2c0 3.1-2.6 5.7-5.8 5.7h-51.2c-3.1 0-5.7-2.6-5.7-5.7v-17.2c0-3.1 2.6-5.7 5.7-5.7h51.2c3.2 0 5.8 2.6 5.8 5.7z"/>
		<rect id="&lt;Path&gt;" class="s0" x="17.7" y="1.6" width="62.6" height="11.4" rx="5.7"></rect>
		<path id="&lt;Path&gt;" class="s0" d="m97 102.5l-7.8 0.6-6.3-79.5 7.7-0.6z"/>
		<path id="&lt;Path&gt;" class="s0" d="m7.3 22.9l7.8 0.6-5.5 79.6-7.8-0.6z"/>
	</g>
</svg>